<svg width="22" height="22" viewBox="0 0 22 22" fill="none" xmlns="http://www.w3.org/2000/svg">
    <g clip-path="url(#clip0_758_8723)">
        <path
            d="M11.0002 1.83301C16.0629 1.83301 20.1668 5.93692 20.1668 10.9997C20.1668 16.0624 16.0629 20.1663 11.0002 20.1663C5.93741 20.1663 1.8335 16.0624 1.8335 10.9997H3.66683C3.66683 15.0495 6.95033 18.333 11.0002 18.333C15.05 18.333 18.3335 15.0495 18.3335 10.9997C18.3335 6.94984 15.05 3.66634 11.0002 3.66634C8.47933 3.66634 6.2555 4.93776 4.93641 6.87467H7.3335V8.70801H1.8335V3.20801H3.66683V5.49967C5.33883 3.27217 8.00175 1.83301 11.0002 1.83301ZM11.9168 6.41634V10.6193L14.8896 13.592L13.5925 14.8891L10.0835 11.3783V6.41634H11.9168Z"
            fill="#828282" />
        <circle cx="17.5" cy="4.5" r="4.5" fill="#F2994A" />
    </g>
    <defs>
        <clipPath id="clip0_758_8723">
            <rect width="22" height="22" fill="white" />
        </clipPath>
    </defs>
</svg>
    