<svg xmlns="http://www.w3.org/2000/svg" width="234.448" height="33.663" viewBox="0 0 234.448 33.663">
  <g id="Group_1" data-name="Group 1" transform="translate(-924.726 -174.935)">
    <g id="Group_16255" data-name="Group 16255" transform="translate(924.726 174.935)">
      <g id="Group_6913" data-name="Group 6913" transform="translate(0)">
        <path id="Path_11788" data-name="Path 11788"
          d="M75.194,46.988a9.092,9.092,0,0,0-6.6-2.828H49.49v6.418H68.4a2.978,2.978,0,0,1,2.264.953,3.26,3.26,0,0,1,.906,2.317A3.308,3.308,0,0,1,68.4,57H49.49v6.426H68.4a2.958,2.958,0,0,1,2.232,1,3.228,3.228,0,0,1,.938,2.287,3.051,3.051,0,0,1-.938,2.186,3.007,3.007,0,0,1-2.232.953H49.49V76.28H68.6a9.639,9.639,0,0,0,9.446-9.38v-.514a9.061,9.061,0,0,0-2.458-6.169,9.7,9.7,0,0,0,2.458-6.682A8.941,8.941,0,0,0,75.194,46.988Z"
          transform="translate(-49.49 -43.595)" fill="#093358" />
        <path id="Path_11789" data-name="Path 11789"
          d="M238.415,59.211H224.4V55.867a3.194,3.194,0,0,1,3.169-3.154h15.752l4.542-6.423H227.374a9.133,9.133,0,0,0-6.6,2.8,8.94,8.94,0,0,0-2.846,6.59V69.041a8.965,8.965,0,0,0,2.846,6.554,9.083,9.083,0,0,0,6.6,2.826h11.042a9.1,9.1,0,0,0,6.6-2.817,8.929,8.929,0,0,0,2.848-6.533v-.511A8.931,8.931,0,0,0,245.047,62a9.128,9.128,0,0,0-6.632-2.786Zm2.07,11.8a2.947,2.947,0,0,1-2.264.985H227.568a3.316,3.316,0,0,1-3.169-3.148V65.635h13.815a3.081,3.081,0,0,1,2.232.922,2.975,2.975,0,0,1,.938,2.2,3.241,3.241,0,0,1-.9,2.257Z"
          transform="translate(-185.67 -45.317)" fill="#093358" />
        <path id="Path_11791" data-name="Path 11791"
          d="M409.08,74.881A16.832,16.832,0,1,1,426.02,58.05,16.832,16.832,0,0,1,409.08,74.881Zm0-5.742,9.669-5.543V52.5l-9.669-5.546L399.413,52.5V63.6Z"
          transform="translate(-326.609 -41.218)" fill="#e88219" />
      </g>
      <path id="Path_32223" data-name="Path 32223"
        d="M7.372-28.251H17.6l-1.023,3.389H7.833a2.845,2.845,0,0,0-2.627,1.925,6.649,6.649,0,0,0-.562,2.768,5.062,5.062,0,0,0,1.2,3.63,2.673,2.673,0,0,0,1.986.842H17.6l-1.023,3.39H7.372a5.942,5.942,0,0,1-5.154-2.728A9.142,9.142,0,0,1,.633-20.409a8.583,8.583,0,0,1,1.745-5.5A6.127,6.127,0,0,1,7.372-28.251Zm14.721,7.982q0,3.43,2.507,4.392a8.37,8.37,0,0,0,3.008.461q4.272,0,5.154-2.928A7.159,7.159,0,0,0,33-20.269q0-3.911-3.369-4.673a9.366,9.366,0,0,0-2.026-.2q-3.871,0-4.994,2.206A6.04,6.04,0,0,0,22.093-20.269Zm14.922,0a7.4,7.4,0,0,1-3.63,6.859,11.5,11.5,0,0,1-5.977,1.444,9.839,9.839,0,0,1-6.9-2.327,7.715,7.715,0,0,1-2.427-5.977,7.558,7.558,0,0,1,3.289-6.679,10.579,10.579,0,0,1,6.037-1.645q4.733,0,7.321,2.467A7.724,7.724,0,0,1,37.015-20.269Zm14.019-7.982h3.791v15.945H51.034L42.691-22.816v10.509H38.9V-27.629l3.791-1.023,8.343,10.509Zm19.013,0h3.791v15.945H70.047L61.7-22.816v10.509H57.913V-27.629L61.7-28.652l8.343,10.509Zm10.67,9.687V-15.7H92.35l-1.023,3.39h-14.4V-28.251H92.35l-1.023,3.389H80.717v2.908h9.888v3.39Zm19.475-9.687h10.229L109.4-24.862h-8.744a2.845,2.845,0,0,0-2.627,1.925,6.649,6.649,0,0,0-.562,2.768,5.062,5.062,0,0,0,1.2,3.63,2.674,2.674,0,0,0,1.986.842h9.767l-1.023,3.39h-9.206a5.942,5.942,0,0,1-5.154-2.728,9.142,9.142,0,0,1-1.584-5.375A8.583,8.583,0,0,1,95.2-25.9,6.127,6.127,0,0,1,100.192-28.251Zm10.61,3.389v-3.389h16.667l-1.023,3.389h-5.957v12.555h-3.811V-24.862Z"
        transform="translate(106.98 41.972)" fill="#093358" />
    </g>
  </g>
</svg>