<svg xmlns="http://www.w3.org/2000/svg" width="80.478" height="71" viewBox="0 0 80.478 71">
  <g id="noun-setup-5053246" transform="translate(-69.989 -32.998)">
    <path id="Path_33503" data-name="Path 33503" d="M269.571,70.251a1.685,1.685,0,0,0,1.315-1.639V65.589a14.939,14.939,0,0,0,3.7-2.136l2.625,1.513a1.672,1.672,0,0,0,2.069-.318,18.954,18.954,0,0,0,4.167-7.222,1.714,1.714,0,0,0-.782-1.934l-2.62-1.51a14.555,14.555,0,0,0,0-4.273l2.615-1.51a1.689,1.689,0,0,0,.771-1.959,19.037,19.037,0,0,0-4.159-7.192,1.723,1.723,0,0,0-2.07-.317l-2.617,1.511a14.56,14.56,0,0,0-3.7-2.139V35.089a1.686,1.686,0,0,0-1.314-1.637,19.208,19.208,0,0,0-8.3,0,1.686,1.686,0,0,0-1.318,1.639v3.024a14.894,14.894,0,0,0-3.7,2.134l-2.617-1.515a1.713,1.713,0,0,0-2.065.322,18.9,18.9,0,0,0-4.158,7.19,1.666,1.666,0,0,0,.765,1.959l2.617,1.511a14.729,14.729,0,0,0,0,4.273l-2.617,1.51a1.689,1.689,0,0,0-.768,1.957,19.047,19.047,0,0,0,4.158,7.192,1.728,1.728,0,0,0,2.071.319l2.615-1.51a14.579,14.579,0,0,0,3.7,2.138v3.02a1.69,1.69,0,0,0,1.314,1.639,19.107,19.107,0,0,0,8.295,0Zm-8.54-5.978a12.879,12.879,0,0,1-4.167-2.4l-.433-.372-3.678,2.059a16.641,16.641,0,0,1-3.77-6.663l3.593-2.075-.1-.56a13.1,13.1,0,0,1,0-4.816l.1-.56-3.626-2.159a16.635,16.635,0,0,1,3.887-6.6l3.584,2.075.433-.369a13.307,13.307,0,0,1,4.174-2.408l.536-.19.056-4.217a15.977,15.977,0,0,1,7.652.067v4.143l.538.188a12.967,12.967,0,0,1,4.167,2.406l.433.372,3.679-2.06a16.631,16.631,0,0,1,3.77,6.662l-3.6,2.076.1.56a13.023,13.023,0,0,1,0,4.814l-.1.56L281.9,56.97a16.642,16.642,0,0,1-3.887,6.594l-3.594-2.071-.431.367a13.352,13.352,0,0,1-4.177,2.408l-.534.191-.054,4.214a15.991,15.991,0,0,1-7.65-.067V64.454Z" transform="translate(-151.862)" fill="#093358"/>
    <path id="Path_33504" data-name="Path 33504" d="M340.274,124.647a6.628,6.628,0,1,0-6.628,6.626A6.636,6.636,0,0,0,340.274,124.647Zm-11.648,0a5.019,5.019,0,1,1,5.019,5.017A5.025,5.025,0,0,1,328.626,124.647Z" transform="translate(-220.091 -72.803)" fill="#093358"/>
    <path id="Path_33505" data-name="Path 33505" d="M463.227,353.01a6.577,6.577,0,0,0-3.927-1.294,6.624,6.624,0,0,0-3.946,11.956,6.575,6.575,0,0,0,3.932,1.3,6.628,6.628,0,0,0,3.941-11.957Zm.1,8.317a5.162,5.162,0,0,1-7.016,1.049,5.016,5.016,0,1,1,7.016-1.049Z" transform="translate(-327.681 -272.915)" fill="#093358"/>
    <path id="Path_33506" data-name="Path 33506" d="M405.164,285.274a1.692,1.692,0,0,0-1.477-1.487l-3-.338a14.469,14.469,0,0,0-1.706-3.919l1.791-2.426a1.684,1.684,0,0,0-.087-2.1,19.1,19.1,0,0,0-6.67-4.93,1.717,1.717,0,0,0-2.036.534l-1.8,2.432a15.135,15.135,0,0,0-4.241-.479l-1.206-2.775a1.72,1.72,0,0,0-1.851-.969,18.9,18.9,0,0,0-7.617,3.313,1.682,1.682,0,0,0-.549,2.028l1.207,2.775a14.732,14.732,0,0,0-2.54,3.436l-2.994-.338-.2-.013a1.691,1.691,0,0,0-1.582,1.13,18.987,18.987,0,0,0-.928,8.256,1.681,1.681,0,0,0,1.476,1.485l3,.34a14.421,14.421,0,0,0,1.709,3.919l-1.793,2.429a1.686,1.686,0,0,0,.082,2.1,19.185,19.185,0,0,0,6.672,4.928,1.7,1.7,0,0,0,2.033-.536l1.8-2.432a15.338,15.338,0,0,0,4.246.483l1.212,2.773a1.662,1.662,0,0,0,1.853.976,18.982,18.982,0,0,0,7.644-3.333,1.715,1.715,0,0,0,.518-2.02l-1.21-2.77a14.634,14.634,0,0,0,2.541-3.438l3.005.34.187.01a1.7,1.7,0,0,0,1.592-1.127,19.1,19.1,0,0,0,.927-8.26Zm-2.527,7.775-4.126-.465-.248.514a13.068,13.068,0,0,1-2.862,3.874l-.417.388,1.64,3.9a17.35,17.35,0,0,1-6.973,3.033l-.018,0-1.714-3.844-.566.037a13.392,13.392,0,0,1-4.788-.544l-.544-.166-2.548,3.359a16.846,16.846,0,0,1-6.115-4.6l2.467-3.338-.322-.473a12.808,12.808,0,0,1-1.923-4.409l-.127-.557-4.18-.528a16.59,16.59,0,0,1,.927-7.6l4.121.464.248-.51a13.2,13.2,0,0,1,2.864-3.871l.417-.386-1.635-3.894a16.616,16.616,0,0,1,7.047-2.994l1.648,3.8.568-.039a13.272,13.272,0,0,1,4.788.541l.542.166,2.551-3.356a16.816,16.816,0,0,1,6.116,4.6l-2.461,3.33.319.472a12.95,12.95,0,0,1,1.92,4.412l.126.559,4.185.529a16.656,16.656,0,0,1-.929,7.6Z" transform="translate(-254.809 -201.907)" fill="#093358"/>
    <path id="Path_33507" data-name="Path 33507" d="M105.315,249.224l-2.619-1.508a14.613,14.613,0,0,0,0-4.273l2.617-1.511a1.687,1.687,0,0,0,.771-1.956,19.037,19.037,0,0,0-4.161-7.193,1.723,1.723,0,0,0-2.07-.317l-2.617,1.511a14.53,14.53,0,0,0-3.7-2.139v-3.015a1.684,1.684,0,0,0-1.314-1.637,19.182,19.182,0,0,0-8.3,0,1.686,1.686,0,0,0-1.318,1.639v3.026a14.79,14.79,0,0,0-3.7,2.134l-2.615-1.513a1.717,1.717,0,0,0-2.068.321,18.938,18.938,0,0,0-4.158,7.187,1.687,1.687,0,0,0,.765,1.96l2.617,1.513a14.729,14.729,0,0,0,0,4.273l-2.615,1.51a1.689,1.689,0,0,0-.768,1.959,19.066,19.066,0,0,0,4.158,7.192,1.722,1.722,0,0,0,2.071.317l2.615-1.51a14.472,14.472,0,0,0,3.7,2.136v3.021a1.689,1.689,0,0,0,1.314,1.639,19.177,19.177,0,0,0,8.3,0,1.685,1.685,0,0,0,1.315-1.639v-3.024a14.929,14.929,0,0,0,3.7-2.134l2.62,1.51a1.664,1.664,0,0,0,2.07-.314,18.973,18.973,0,0,0,4.167-7.22,1.713,1.713,0,0,0-.783-1.941Zm-4.65,8.078-3.593-2.07-.433.369a13.384,13.384,0,0,1-4.174,2.408l-.536.19-.054,4.214a15.99,15.99,0,0,1-7.652-.066v-4.151l-.539-.188a12.9,12.9,0,0,1-4.167-2.4l-.433-.372-3.678,2.059a16.643,16.643,0,0,1-3.77-6.665l3.593-2.071-.1-.56a13.1,13.1,0,0,1,0-4.816l.1-.56-3.626-2.16a16.642,16.642,0,0,1,3.887-6.594l3.584,2.075.433-.369a13.306,13.306,0,0,1,4.174-2.408l.536-.19.056-4.217a15.956,15.956,0,0,1,7.652.067v4.143l.538.188a12.924,12.924,0,0,1,4.165,2.406l.433.372,3.679-2.06a16.614,16.614,0,0,1,3.77,6.662l-3.6,2.076.1.56a13.023,13.023,0,0,1,0,4.814l-.1.562,3.638,2.165a16.6,16.6,0,0,1-3.886,6.593Z" transform="translate(0 -165.891)" fill="#093358"/>
    <path id="Path_33508" data-name="Path 33508" d="M156.317,311.75a6.627,6.627,0,1,0,6.628,6.63A6.637,6.637,0,0,0,156.317,311.75Zm0,11.645a5.018,5.018,0,1,1,5.019-5.015A5.022,5.022,0,0,1,156.317,323.4Z" transform="translate(-68.246 -238.693)" fill="#093358"/>
  </g>
</svg>
