<svg width="15" height="15" viewBox="0 0 15 15" fill="none" xmlns="http://www.w3.org/2000/svg">
<path d="M13.4997 10.3664C12.7227 9.41135 11.6257 9.38704 10.4947 9.22902C10.6892 9.58672 10.8586 9.89494 11.0253 10.2058C11.2995 10.7171 11.278 10.9394 10.8944 11.3778C10.7824 11.5126 10.6556 11.6351 10.5162 11.7433C9.85213 12.2321 9.56445 12.8642 9.70963 13.6638C8.5804 14.2629 5.69906 14.0389 3.94785 12.121C3.04182 11.1421 2.5274 9.88144 2.49764 8.56701C2.46789 7.25258 2.92477 5.97125 3.78563 4.95484C5.55835 2.85552 8.68526 2.31376 11.0737 3.6916C13.4621 5.06945 14.5241 7.94494 13.4997 10.3664ZM8.16276 9.18214C8.36532 9.18143 8.56018 9.10691 8.70863 8.9734C8.85707 8.83989 8.94823 8.65716 8.96398 8.46153C8.96794 8.36065 8.95131 8.26001 8.91506 8.16537C8.8788 8.07073 8.82363 7.98394 8.7527 7.90999C8.68177 7.83603 8.59648 7.77636 8.5017 7.73439C8.40693 7.69241 8.30454 7.66896 8.2004 7.66538C7.99806 7.66423 7.80284 7.7377 7.65438 7.87089C7.50591 8.00407 7.41531 8.18699 7.40098 8.38252C7.39297 8.58631 7.46863 8.78487 7.61141 8.93474C7.75418 9.0846 7.95243 9.17356 8.16276 9.18214Z" fill="white"/>
<path d="M14.9848 9.89757H14.2732C14.2732 9.00505 14.2821 8.13164 14.2732 7.25822C14.2667 6.19362 13.918 5.15743 13.2755 4.2937C12.633 3.42997 11.7287 2.78163 10.6883 2.43881C10.2572 2.29642 9.79207 2.23651 9.34396 2.16532C9.17906 2.13928 8.94694 2.0429 8.87972 2.33896C8.87166 2.37456 8.72288 2.39713 8.63953 2.398C8.13496 2.40408 7.63129 2.398 7.09177 2.398V1.50809C10.4123 1.13736 13.3411 2.05159 14.6469 5.41502C14.8611 5.96893 14.9399 6.5897 14.9767 7.18529C15.0251 8.07433 14.9848 8.96511 14.9848 9.89757Z" fill="white"/>
<path d="M12.0999 15C11.3829 14.9479 10.8451 14.6527 10.5091 14.0363C10.1102 13.3096 10.2044 12.7835 10.8335 12.2278C10.9984 12.0828 11.1615 11.9352 11.3112 11.7755C11.7871 11.265 11.9986 10.7015 11.6231 10.0391C12.8195 9.9731 13.6844 11.199 13.2049 12.3173C13.0404 12.672 12.8173 12.9984 12.5444 13.2836C12.1115 13.7602 11.8561 14.2525 12.1303 14.8897C12.1429 14.9141 12.1124 14.9583 12.0999 15Z" fill="white"/>
<path d="M3.71122 3.14552L3.32854 3.45113C2.33732 2.49611 1.33535 1.52458 0.296631 0.5192L0.706203 0.221405L3.71122 3.14552Z" fill="white"/>
<path d="M13.7991 12.2695C14.4461 13.3851 13.8967 14.6571 12.5892 14.9609C12.3624 14.5659 12.3418 14.1796 12.6277 13.7975C13.0176 13.2836 13.4146 12.7713 13.7991 12.2695Z" fill="white"/>
<path d="M4.53308 2.58378L3.60101 0.268275L4.25346 0C4.56893 0.781386 4.87364 1.53846 5.19538 2.33461L4.53308 2.58378Z" fill="white"/>
<path d="M0.337875 3.0144L2.60351 4.21513L2.25937 4.81854L0 3.62128L0.337875 3.0144Z" fill="white"/>
</svg>
