<svg width="343" height="304" viewBox="0 0 343 304" fill="none" xmlns="http://www.w3.org/2000/svg">
<path d="M319.132 276.894H295.991V277.097H319.132V276.894Z" fill="#E0E0E0"/>
<path d="M290.016 276.992H269.336V277.196H290.016V276.992Z" fill="#E0E0E0"/>
<path d="M194.336 272.283H166.499V272.487H194.336V272.283Z" fill="#E0E0E0"/>
<path d="M246.83 278.586H208.144V278.79H246.83V278.586Z" fill="#E0E0E0"/>
<path d="M85.2874 272.047H47.832V272.251H85.2874V272.047Z" fill="#E0E0E0"/>
<path d="M102.536 272.047H89.8115V272.251H102.536V272.047Z" fill="#E0E0E0"/>
<path d="M52.5441 275.707H19.7676V275.91H52.5441V275.707Z" fill="#E0E0E0"/>
<path d="M162.04 230H4.64626C3.41325 229.998 2.23147 229.508 1.36036 228.637C0.489254 227.766 -1.89089e-06 226.586 0 225.356V4.60325C0.0107336 3.38008 0.504725 2.21052 1.37468 1.34862C2.24463 0.486725 3.42028 0.00209537 4.64626 0L162.04 0C163.275 0 164.459 0.489269 165.332 1.36017C166.204 2.23108 166.695 3.41227 166.695 4.64392V225.356C166.695 226.588 166.204 227.769 165.332 228.64C164.459 229.511 163.275 230 162.04 230ZM4.64626 0.162659C3.46729 0.164814 2.33735 0.633612 1.50446 1.46615C0.671567 2.29869 0.203781 3.42694 0.203783 4.60325V225.356C0.203781 226.532 0.671567 227.661 1.50446 228.493C2.33735 229.326 3.46729 229.795 4.64626 229.797H162.04C163.219 229.792 164.349 229.323 165.183 228.491C166.016 227.66 166.487 226.533 166.491 225.356V4.60325C166.487 3.42685 166.016 2.29986 165.183 1.46801C164.349 0.636168 163.219 0.166945 162.04 0.162659H4.64626Z" fill="#E0E0E0"/>
<path d="M338.362 230H180.96C179.726 229.996 178.545 229.505 177.673 228.635C176.801 227.765 176.309 226.586 176.305 225.356V4.60325C176.318 3.37934 176.814 2.20979 177.685 1.34811C178.556 0.48644 179.733 0.00207251 180.96 0L338.362 0C339.586 0.00423279 340.76 0.489807 341.628 1.35148C342.496 2.21315 342.989 3.38148 343 4.60325V225.356C343.001 225.965 342.882 226.568 342.649 227.131C342.417 227.694 342.076 228.205 341.645 228.636C341.214 229.068 340.703 229.41 340.139 229.644C339.576 229.878 338.972 229.999 338.362 230ZM180.96 0.162659C179.781 0.166945 178.651 0.636168 177.817 1.46801C176.984 2.29986 176.513 3.42685 176.509 4.60325V225.356C176.513 226.533 176.984 227.66 177.817 228.491C178.651 229.323 179.781 229.792 180.96 229.797H338.362C339.541 229.792 340.67 229.323 341.504 228.491C342.338 227.66 342.808 226.533 342.812 225.356V4.60325C342.808 3.42685 342.338 2.29986 341.504 1.46801C340.67 0.636168 339.541 0.166945 338.362 0.162659H180.96Z" fill="#E0E0E0"/>
<path d="M236.511 19.7388H27.0215V125.109H236.511V19.7388Z" fill="#E0E0E0"/>
<path d="M239.242 19.7388H29.7524V125.109H239.242V19.7388Z" fill="#EFEFEF"/>
<path d="M234.343 24.6748H34.6597V120.156H234.343V24.6748Z" fill="#F4F4F4"/>
<path d="M49.4458 120.164L103.603 24.6831H128.978L74.829 120.164H49.4458Z" fill="white"/>
<path d="M83.3472 120.164L137.505 24.6831H162.88L108.73 120.164H83.3472Z" fill="white"/>
<path d="M153.889 120.164L208.038 24.6831H218.488L164.339 120.164H153.889Z" fill="white"/>
<path d="M169.336 24.6748H161.951V120.156H169.336V24.6748Z" fill="#E0E0E0"/>
<path d="M101.598 24.6748H94.2134V120.156H101.598V24.6748Z" fill="#E0E0E0"/>
<path d="M171.928 21.0068H164.542V123.303H171.928V21.0068Z" fill="#F4F4F4"/>
<path d="M104.19 21.0068H96.8052V123.303H104.19V21.0068Z" fill="#F4F4F4"/>
<path d="M234.343 24.6748H232.28V120.156H234.343V24.6748Z" fill="#E0E0E0"/>
<path d="M288.256 156.218C288.256 156.218 273.306 130.509 294.043 110.047C294.043 110.047 299.456 113.56 299.374 118.294C299.293 123.027 293.579 124.223 294.801 128.175C296.024 132.128 301.428 135.999 297.891 139.26C294.353 142.522 298.453 145.433 298.217 149.427C297.98 153.42 288.256 156.218 288.256 156.218Z" fill="#E0E0E0"/>
<path d="M290.603 160.422C290.603 160.422 296.659 131.323 270.51 118.424C270.51 118.424 266.491 123.466 268.064 127.931C269.638 132.396 275.441 131.737 275.523 135.869C275.604 140.001 271.708 145.376 276.102 147.361C280.495 149.345 277.512 153.396 279.004 157.12C280.495 160.845 290.603 160.422 290.603 160.422Z" fill="#EBEBEB"/>
<path d="M277.292 153.029C277.292 153.029 277.553 165.164 287.612 165.164C297.67 165.164 297.939 153.029 297.939 153.029H277.292Z" fill="#F4F4F4"/>
<path d="M207.492 155.713C207.492 155.713 207.835 165.164 221.064 165.164C234.294 165.164 234.644 155.713 234.644 155.713H207.492Z" fill="#EBEBEB"/>
<path d="M238.198 158.056C238.198 158.056 238.459 165.164 248.404 165.164C258.348 165.164 258.601 158.056 258.601 158.056H238.198Z" fill="#EBEBEB"/>
<path d="M216.809 171.06H194.54V260.173H216.809V171.06Z" fill="#EBEBEB"/>
<path d="M308.626 260.165H198.811V266.273H308.626V260.165Z" fill="#EBEBEB"/>
<path d="M312.906 171.052H216.81V260.165H312.906V171.052Z" fill="#F4F4F4"/>
<path d="M304.151 179.673H225.564V211.278H304.151V179.673Z" fill="#EBEBEB"/>
<path d="M304.151 217.036H225.564V248.641H304.151V217.036Z" fill="#EBEBEB"/>
<path d="M273.714 183.138H256.034C255.458 183.138 254.906 182.91 254.498 182.504C254.09 182.099 253.86 181.549 253.857 180.974C253.862 180.4 254.092 179.85 254.5 179.443C254.907 179.037 255.458 178.807 256.034 178.803H273.714C274.29 178.807 274.841 179.037 275.248 179.443C275.656 179.85 275.886 180.4 275.89 180.974C275.888 181.549 275.658 182.099 275.25 182.504C274.842 182.91 274.29 183.138 273.714 183.138Z" fill="#F4F4F4"/>
<path d="M273.714 220.501H256.034C255.458 220.501 254.906 220.273 254.498 219.868C254.09 219.462 253.86 218.912 253.857 218.338C253.862 217.763 254.092 217.213 254.5 216.807C254.907 216.4 255.458 216.17 256.034 216.166H273.714C274.29 216.17 274.841 216.4 275.248 216.807C275.656 217.213 275.886 217.763 275.89 218.338C275.888 218.912 275.658 219.462 275.25 219.868C274.842 220.273 274.29 220.501 273.714 220.501Z" fill="#F4F4F4"/>
<path d="M315.864 165.164H216.801V171.06H315.864V165.164Z" fill="#EBEBEB"/>
<path d="M216.801 165.156H191.417V171.053H216.801V165.156Z" fill="#E0E0E0"/>
<path d="M310.9 34.5732H262.66V90.0238H310.9V34.5732Z" fill="#EBEBEB"/>
<path d="M316.378 34.5732H264.104V90.0238H316.378V34.5732Z" fill="#F4F4F4"/>
<path d="M312 38.9404H268.48V85.648H312V38.9404Z" fill="white"/>
<path d="M297.613 50.2617H282.868C280.747 50.2617 279.028 51.9767 279.028 54.0923V70.4965C279.028 72.6121 280.747 74.3271 282.868 74.3271H297.613C299.734 74.3271 301.453 72.6121 301.453 70.4965V54.0923C301.453 51.9767 299.734 50.2617 297.613 50.2617Z" fill="#F4F4F4"/>
<path d="M188.198 214.645H182.598V266.273H188.198V214.645Z" fill="#E0E0E0"/>
<path opacity="0.5" d="M188.198 214.645H185.394V266.273H188.198V214.645Z" fill="#F4F4F4"/>
<path d="M163.671 229.105H159.823C160.245 228.749 160.584 228.306 160.816 227.806C161.048 227.306 161.169 226.761 161.168 226.21H115.578C115.579 226.762 115.7 227.307 115.934 227.807C116.167 228.307 116.508 228.75 116.931 229.105H113.132C111.77 229.105 110.464 229.645 109.501 230.606C108.538 231.567 107.997 232.87 107.997 234.229V249.169C107.997 250.528 108.538 251.831 109.501 252.792C110.464 253.753 111.77 254.293 113.132 254.293H163.671C165.033 254.293 166.339 253.753 167.302 252.792C168.265 251.831 168.806 250.528 168.806 249.169V234.229C168.806 232.87 168.265 231.567 167.302 230.606C166.339 229.645 165.033 229.105 163.671 229.105Z" fill="#F4F4F4"/>
<path d="M121.503 240.142H90.8463C88.9375 240.142 87.3901 241.686 87.3901 243.59V250.845C87.3901 252.749 88.9375 254.293 90.8463 254.293H121.503C123.412 254.293 124.96 252.749 124.96 250.845V243.59C124.96 241.686 123.412 240.142 121.503 240.142Z" fill="#EBEBEB"/>
<path d="M123.802 237.019H88.5476C87.9084 237.019 87.3901 237.536 87.3901 238.173V239.491C87.3901 240.129 87.9084 240.646 88.5476 240.646H123.802C124.441 240.646 124.96 240.129 124.96 239.491V238.173C124.96 237.536 124.441 237.019 123.802 237.019Z" fill="#E0E0E0"/>
<path d="M128.424 191.588C128.424 191.588 128.954 208.668 149.006 208.668C169.058 208.668 169.588 191.588 169.588 191.588H128.424Z" fill="#EBEBEB"/>
<path d="M56.7173 208.676H31.709V214.645H56.7173V208.676Z" fill="#E0E0E0"/>
<path d="M207.606 208.676H56.7251V214.645H207.606V208.676Z" fill="#F4F4F4"/>
<path d="M56.7173 254.293H31.709V260.263H56.7173V254.293Z" fill="#E0E0E0"/>
<path d="M37.3168 214.645H31.7168V266.273H37.3168V214.645Z" fill="#E0E0E0"/>
<path opacity="0.5" d="M37.3167 214.645H34.5127V266.273H37.3167V214.645Z" fill="#F4F4F4"/>
<path d="M59.5209 214.645H53.9209V266.273H59.5209V214.645Z" fill="#F4F4F4"/>
<path d="M56.725 214.645H53.9209V266.273H56.725V214.645Z" fill="#E0E0E0"/>
<path d="M207.598 214.645H201.998V266.273H207.598V214.645Z" fill="#F4F4F4"/>
<path d="M204.802 214.645H201.998V266.273H204.802V214.645Z" fill="#E0E0E0"/>
<path d="M207.606 254.293H56.7251V260.263H207.606V254.293Z" fill="#F4F4F4"/>
<path d="M96.9598 205.154H66.5391V208.675H96.9598V205.154Z" fill="#E0E0E0"/>
<path d="M107.858 205.146H96.96V208.667H107.858V205.146Z" fill="#EBEBEB"/>
<path d="M172.638 303.001C259.924 303.001 330.684 298.879 330.684 293.795C330.684 288.71 259.924 284.588 172.638 284.588C85.3515 284.588 14.5918 288.71 14.5918 293.795C14.5918 298.879 85.3515 303.001 172.638 303.001Z" fill="#F5F5F5"/>
<path d="M146.447 77.8325C146.505 87.4701 139.584 87.3725 139.723 84.3389C139.861 81.3053 138.149 74.1808 139.723 74.8721C141.296 75.5634 146.423 73.5709 146.447 77.8325Z" fill="#1A2E35"/>
<path d="M142.094 95.2859C143.048 95.2127 144.963 96.0992 145.135 98.6123C145.179 99.3425 145.393 100.052 145.76 100.686C146.126 101.32 146.635 101.86 147.246 102.264C147.246 102.264 144.075 102.646 141.996 101.003C140.301 99.6777 139.551 96.7742 140.44 96.1236C140.928 95.7339 141.491 95.4487 142.094 95.2859Z" fill="#1A2E35"/>
<path d="M140.847 88.438C142.478 89.8775 143.969 93.6838 140.293 95.4893C136.617 97.2948 130.837 93.0494 130.837 93.0494L137.187 90.1134L140.847 88.438Z" fill="#1A2E35"/>
<path d="M142.657 95.6355C142.567 95.1084 142.42 94.5929 142.216 94.0983C142.201 94.0571 142.178 94.0194 142.147 93.9872C142.117 93.9551 142.081 93.9292 142.041 93.911C142.001 93.8929 141.958 93.8829 141.914 93.8815C141.869 93.8802 141.826 93.8875 141.784 93.9031H141.719L139.461 95.4077C139.425 95.4323 139.394 95.4637 139.369 95.5003C139.345 95.5369 139.328 95.5779 139.32 95.621C139.312 95.664 139.312 95.7083 139.321 95.7513C139.33 95.7942 139.347 95.835 139.372 95.8713C139.397 95.9051 139.427 95.9352 139.461 95.9608C139.787 96.1971 140.137 96.3988 140.505 96.5626C141.034 96.7741 142.135 96.1722 142.51 95.912C142.557 95.8831 142.595 95.8422 142.621 95.7936C142.647 95.745 142.659 95.6904 142.657 95.6355Z" fill="#BF2132"/>
<path opacity="0.3" d="M142.657 95.6355C142.567 95.1084 142.42 94.5929 142.216 94.0983C142.201 94.0571 142.178 94.0194 142.147 93.9872C142.117 93.9551 142.081 93.9292 142.041 93.911C142.001 93.8929 141.958 93.8829 141.914 93.8815C141.869 93.8802 141.826 93.8875 141.784 93.9031H141.719L139.461 95.4077C139.425 95.4323 139.394 95.4637 139.369 95.5003C139.345 95.5369 139.328 95.5779 139.32 95.621C139.312 95.664 139.312 95.7083 139.321 95.7513C139.33 95.7942 139.347 95.835 139.372 95.8713C139.397 95.9051 139.427 95.9352 139.461 95.9608C139.787 96.1971 140.137 96.3988 140.505 96.5626C141.034 96.7741 142.135 96.1722 142.51 95.912C142.557 95.8831 142.595 95.8422 142.621 95.7936C142.647 95.745 142.659 95.6904 142.657 95.6355Z" fill="black"/>
<path d="M118.357 91.6423C117.453 91.3414 115.382 91.7481 114.616 94.1554C114.398 94.8536 114.021 95.4921 113.515 96.0212C113.008 96.5502 112.387 96.9554 111.698 97.2053C111.698 97.2053 114.689 98.3276 117.102 97.2053C119.058 96.3188 120.444 93.6675 119.768 92.8216C119.384 92.3355 118.904 91.9339 118.357 91.6423Z" fill="#1A2E35"/>
<path d="M127.34 75.0918C124.039 75.9864 119.597 79.8902 121.569 84.6806C119.621 86.0062 117.127 89.8206 120.045 92.2605C123.183 94.8874 130.902 91.2032 130.902 91.2032L130.959 89.9507L131.881 80.6303L127.34 75.0918Z" fill="#1A2E35"/>
<path d="M117.73 91.8535C117.947 91.3601 118.221 90.8934 118.545 90.4627C118.603 90.3927 118.686 90.3483 118.776 90.3392C118.866 90.33 118.956 90.3569 119.026 90.4139L119.075 90.4627L120.901 92.4553C120.932 92.4863 120.957 92.523 120.974 92.5635C120.99 92.604 120.999 92.6473 120.999 92.6911C120.999 92.735 120.99 92.7783 120.974 92.8188C120.957 92.8593 120.932 92.896 120.901 92.927C120.876 92.9578 120.842 92.9804 120.803 92.9921C120.433 93.1437 120.048 93.2555 119.654 93.3255C119.083 93.4068 118.203 92.5691 117.861 92.2276C117.804 92.1857 117.761 92.1275 117.737 92.0607C117.714 91.9939 117.712 91.9217 117.73 91.8535Z" fill="#BF2132"/>
<path opacity="0.3" d="M117.73 91.8535C117.947 91.3601 118.221 90.8934 118.545 90.4627C118.603 90.3927 118.686 90.3483 118.776 90.3392C118.866 90.33 118.956 90.3569 119.026 90.4139L119.075 90.4627L120.901 92.4553C120.932 92.4863 120.957 92.523 120.974 92.5635C120.99 92.604 120.999 92.6473 120.999 92.6911C120.999 92.735 120.99 92.7783 120.974 92.8188C120.957 92.8593 120.932 92.896 120.901 92.927C120.876 92.9578 120.842 92.9804 120.803 92.9921C120.433 93.1437 120.048 93.2555 119.654 93.3255C119.083 93.4068 118.203 92.5691 117.861 92.2276C117.804 92.1857 117.761 92.1275 117.737 92.0607C117.714 91.9939 117.712 91.9217 117.73 91.8535Z" fill="black"/>
<path d="M147.433 109.039C148.99 110.242 150.694 111.527 152.406 112.698C154.117 113.87 155.837 115.049 157.606 116.131C159.375 117.212 161.168 118.221 162.978 119.18L164.339 119.872L165.725 120.514C166.181 120.734 166.646 120.929 167.119 121.108L167.812 121.393C168.048 121.482 168.301 121.596 168.447 121.637C169.3 121.896 170.172 122.083 171.056 122.198C172.018 122.336 173.028 122.434 174.056 122.507C176.101 122.637 178.205 122.694 180.316 122.702C182.427 122.71 184.563 122.702 186.69 122.637L193.089 122.458L193.488 125.654C189.207 126.514 184.884 127.152 180.536 127.565C178.343 127.761 176.142 127.907 173.892 127.923C172.768 127.923 171.626 127.923 170.453 127.818C169.19 127.745 167.939 127.54 166.719 127.208C166.344 127.11 166.108 127.012 165.831 126.923L165.016 126.638C164.47 126.459 163.932 126.264 163.385 126.045L161.804 125.41L160.255 124.727C158.208 123.807 156.213 122.776 154.28 121.637C152.357 120.506 150.466 119.335 148.64 118.082C146.776 116.823 144.98 115.465 143.26 114.016L147.433 109.039Z" fill="#FD897B"/>
<path d="M138.972 105.387C141.002 103.809 149.357 108.974 151.9 111.129L150.05 122.296C150.05 122.296 138.027 117.269 137.301 113.837C136.551 110.251 137.44 106.591 138.972 105.387Z" fill="#1A2E35"/>
<path d="M192.201 122.735L197.238 118.839L197.638 124.865C197.638 124.865 194.165 127.012 191.875 125.679L192.201 122.735Z" fill="#FD897B"/>
<path d="M201.729 118.245L204.305 121.108L197.604 124.865L197.205 118.839L201.729 118.245Z" fill="#FD897B"/>
<path d="M106.025 285.849L112.375 286.321L114.69 271.738L108.348 271.267L106.025 285.849Z" fill="#FD897B"/>
<path d="M61.1025 265.468L66.4906 268.851L76.0847 257.497L70.6967 254.106L61.1025 265.468Z" fill="#FD897B"/>
<path d="M68.1943 267.64L63.1486 262.573C63.0615 262.486 62.9461 262.434 62.8235 262.425C62.7008 262.416 62.579 262.451 62.4802 262.524L57.891 265.948C57.6794 266.119 57.5442 266.366 57.5151 266.636C57.4861 266.906 57.5656 267.176 57.7361 267.388L57.8095 267.469C59.5946 269.201 60.5483 269.949 62.7655 272.178C64.1268 273.552 65.9771 275.691 67.8601 277.586C69.743 279.481 71.7156 277.716 71.1206 276.773C68.3654 272.487 68.8627 270.885 68.6752 268.705C68.6527 268.303 68.4813 267.923 68.1943 267.64Z" fill="#1A2E35"/>
<path d="M112.798 285.41H105.641C105.515 285.41 105.393 285.454 105.296 285.534C105.2 285.614 105.134 285.726 105.111 285.849L103.978 291.494C103.933 291.741 103.987 291.997 104.128 292.206C104.27 292.414 104.489 292.559 104.736 292.608C104.812 292.616 104.889 292.616 104.964 292.608C107.459 292.608 108.673 292.421 111.82 292.421C113.752 292.421 119.156 292.616 121.854 292.616C124.552 292.616 124.821 289.981 123.721 289.745C118.83 288.671 115.463 287.199 113.858 285.784C113.562 285.534 113.185 285.401 112.798 285.41Z" fill="#1A2E35"/>
<path d="M114.69 271.738L113.402 279.838L107.142 278.789L108.34 271.274L114.69 271.738Z" fill="#E77064"/>
<path d="M70.697 254.114L76.085 257.498L72.1153 262.198L66.605 258.953L70.697 254.114Z" fill="#E77064"/>
<path d="M110.85 139.18L136.233 144.116C149.349 108.681 146.496 107.518 146.496 107.518C144.652 106.506 142.746 105.609 140.79 104.834L140.448 104.704C138.817 104.11 138.491 104.021 136.323 103.386C132.59 102.5 129.109 101.76 124.797 101.15L123.982 101.036C123.167 100.938 122.425 100.857 121.675 100.784C121.17 100.727 120.664 100.694 120.183 100.662L118.553 100.572C115.765 100.434 113.768 100.475 113.768 100.475C114.543 122.605 113.287 128.956 110.85 139.18Z" fill="#1A2E35"/>
<path d="M128.465 88.438C128.465 92.2767 127.87 99.1979 124.789 101.166C124.789 101.166 125.074 105.119 131.962 106.452C139.543 107.925 136.315 103.403 136.315 103.403C132.378 101.613 133.055 98.5717 134.359 95.839L128.465 88.438Z" fill="#FD897B"/>
<path d="M130.87 91.4551L134.358 95.8387C134.056 96.4736 133.805 97.1318 133.608 97.8069C132.068 97.2701 130.234 95.123 130.348 93.4395C130.398 92.7516 130.575 92.0789 130.87 91.4551Z" fill="#E77064"/>
<path d="M128.098 79.6216C127.283 85.8759 126.786 88.5028 129.297 92.2846C133.071 97.9777 140.945 97.6117 143.627 91.7316C146.072 86.4371 146.985 77.0923 141.401 73.4731C140.457 72.8506 139.399 72.4198 138.287 72.2055C137.176 71.9912 136.033 71.9975 134.924 72.2241C133.815 72.4507 132.761 72.8931 131.824 73.5261C130.886 74.159 130.083 74.9701 129.46 75.913C128.726 77.0284 128.26 78.2975 128.098 79.6216Z" fill="#FD897B"/>
<path d="M148.501 69.7159C148.616 70.7077 148.541 71.7122 148.281 72.6763C148.222 72.3491 148.144 72.0259 148.045 71.7085C145.811 64.34 135.752 66.0967 132.72 69.2686C127.829 67.8697 123.175 68.9839 123.794 74.9617C123.872 76.5018 124.427 77.9797 125.384 79.1908C124.626 81.2891 125.384 84.6318 127.886 84.7294C131.408 84.8676 134.75 80.2156 136.095 77.6618C138.54 78.0766 142.062 78.4751 144.735 77.8245C145.184 78.0929 145.55 78.2799 145.55 78.2799C148.395 76.7591 150.563 75.287 148.501 69.7159Z" fill="#1A2E35"/>
<path d="M125.93 83.8923C125.832 85.1057 126.215 86.309 126.997 87.2431C128.057 88.4712 129.443 87.7474 129.94 86.2916C130.356 84.974 130.299 82.7537 128.88 82.0624C128.634 81.947 128.368 81.8811 128.096 81.8684C127.824 81.8558 127.553 81.8968 127.297 81.9889C127.041 82.0811 126.806 82.2226 126.605 82.4055C126.404 82.5883 126.241 82.8089 126.125 83.0546C126.003 83.3175 125.936 83.6027 125.93 83.8923Z" fill="#FD897B"/>
<path d="M135.85 144.116C135.85 144.116 135.948 194.394 131.824 213.327C127.536 233.025 114.926 277.838 114.926 277.838L105.796 276.659C105.796 276.659 112.945 231.391 115.986 211.815C119.303 190.482 117.273 140.505 117.273 140.505L135.85 144.116Z" fill="#BF2132"/>
<path opacity="0.3" d="M135.85 144.116C135.85 144.116 135.948 194.394 131.824 213.327C127.536 233.025 114.926 277.838 114.926 277.838L105.796 276.659C105.796 276.659 112.945 231.391 115.986 211.815C119.303 190.482 117.273 140.505 117.273 140.505L135.85 144.116Z" fill="black"/>
<path d="M116.483 278.627L104.231 277.049L104.753 272.723L118.659 274.349L116.483 278.627Z" fill="#1A2E35"/>
<path d="M129.533 142.815C129.533 142.815 115.864 184.366 109.074 208.301C101.917 233.554 74.4793 261.483 74.4793 261.483L66.6133 256.944C66.6133 256.944 85.3614 230.431 92.2492 206.87C106.278 159.04 100.515 148.906 110.851 139.179L129.533 142.815Z" fill="#BF2132"/>
<path opacity="0.3" d="M129.533 142.815C129.533 142.815 115.864 184.366 109.074 208.301C101.917 233.554 74.4793 261.483 74.4793 261.483L66.6133 256.944C66.6133 256.944 85.3614 230.431 92.2492 206.87C106.278 159.04 100.515 148.906 110.851 139.179L129.533 142.815Z" fill="black"/>
<path d="M75.7591 262.743L64.8281 256.449L67.5507 252.561L79.688 259.238L75.7591 262.743Z" fill="#1A2E35"/>
<path d="M137.147 83.1758C137.049 83.6801 137.236 84.1355 137.57 84.2006C137.905 84.2656 138.247 83.9078 138.385 83.3873C138.524 82.8668 138.296 82.4195 137.962 82.3544C137.627 82.2893 137.244 82.6716 137.147 83.1758Z" fill="#1A2E35"/>
<path d="M142.844 84.2819C142.746 84.7862 142.934 85.2498 143.268 85.3148C143.602 85.3799 143.945 85.022 144.043 84.5015C144.14 83.981 143.953 83.5337 143.619 83.4768C143.284 83.4198 142.942 83.7696 142.844 84.2819Z" fill="#1A2E35"/>
<path d="M143.472 83.4851L144.751 83.3794C144.751 83.3794 143.944 84.2008 143.472 83.4851Z" fill="#1A2E35"/>
<path d="M141.173 84.8594C141.398 86.0924 141.793 87.2884 142.347 88.4135C142.055 88.55 141.736 88.6207 141.413 88.6207C141.091 88.6207 140.772 88.55 140.48 88.4135L141.173 84.8594Z" fill="#FD5652"/>
<path d="M138.345 90.0403C137.663 89.929 137.019 89.6549 136.467 89.2414C135.915 88.8278 135.471 88.2872 135.174 87.6655C135.166 87.6479 135.161 87.6288 135.16 87.6094C135.16 87.5901 135.163 87.5707 135.17 87.5526C135.176 87.5344 135.187 87.5178 135.2 87.5037C135.213 87.4895 135.229 87.4782 135.247 87.4703C135.284 87.4565 135.325 87.4572 135.361 87.4723C135.397 87.4874 135.427 87.5158 135.443 87.5516C135.727 88.1229 136.143 88.6194 136.655 89.0009C137.168 89.3824 137.763 89.6381 138.394 89.7475C138.413 89.7505 138.431 89.7573 138.448 89.7675C138.465 89.7777 138.479 89.7912 138.491 89.8071C138.502 89.8231 138.51 89.8411 138.515 89.8602C138.519 89.8793 138.519 89.899 138.516 89.9183C138.508 89.9564 138.486 89.9901 138.454 90.0127C138.422 90.0354 138.383 90.0452 138.345 90.0403Z" fill="#1A2E35"/>
<path d="M135.85 81.0127C135.771 81.0088 135.697 80.9758 135.641 80.9202C135.585 80.8646 135.552 80.7903 135.548 80.7118C135.552 80.6288 135.587 80.5503 135.646 80.4922C135.995 80.1646 136.418 79.9251 136.879 79.7935C137.34 79.662 137.825 79.6422 138.295 79.7358C138.372 79.7586 138.438 79.8103 138.477 79.8801C138.517 79.9499 138.527 80.0323 138.507 80.11C138.498 80.1474 138.481 80.1826 138.458 80.2136C138.435 80.2445 138.405 80.2705 138.372 80.2902C138.339 80.3099 138.302 80.3227 138.263 80.3281C138.225 80.3334 138.186 80.3312 138.149 80.3214C137.775 80.2554 137.392 80.2768 137.028 80.3841C136.665 80.4914 136.331 80.6815 136.054 80.9395C135.998 80.9889 135.925 81.0151 135.85 81.0127Z" fill="#1A2E35"/>
<path d="M146.006 82.1433C145.947 82.144 145.888 82.1265 145.839 82.0931C145.789 82.0596 145.751 82.0119 145.729 81.9562C145.588 81.6079 145.369 81.2967 145.087 81.047C144.806 80.7973 144.47 80.6159 144.107 80.5167C144.068 80.5098 144.031 80.4953 143.997 80.474C143.964 80.4527 143.935 80.425 143.912 80.3925C143.889 80.36 143.873 80.3234 143.865 80.2847C143.856 80.246 143.856 80.206 143.863 80.167C143.879 80.0892 143.924 80.0205 143.989 79.975C144.054 79.9296 144.135 79.911 144.213 79.923C144.678 80.0389 145.109 80.2639 145.469 80.5794C145.829 80.8949 146.108 81.2916 146.284 81.7367C146.3 81.7729 146.309 81.8121 146.31 81.8518C146.311 81.8915 146.304 81.9311 146.289 81.9681C146.275 82.0052 146.253 82.039 146.226 82.0677C146.198 82.0964 146.165 82.1193 146.129 82.1352L146.006 82.1433Z" fill="#1A2E35"/>
<path d="M137.831 87.6333C137.579 87.6343 137.33 87.5767 137.103 87.4652C136.877 87.3537 136.68 87.1913 136.527 86.9908C136.144 86.3943 135.888 85.7252 135.776 85.0255C135.664 84.3257 135.697 83.6104 135.875 82.9243C136.34 80.3543 137.954 78.2642 139.478 78.2642C139.731 78.2678 139.981 78.3281 140.208 78.4407C140.435 78.5533 140.634 78.7153 140.79 78.9148C141.174 79.5113 141.429 80.1804 141.542 80.8801C141.654 81.5799 141.62 82.2952 141.442 82.9813C140.978 85.5513 139.356 87.6333 137.831 87.6333ZM139.462 78.4919C138.035 78.4919 136.503 80.5089 136.054 82.9813C135.769 84.6079 135.997 86.0718 136.666 86.8607C136.801 87.0367 136.975 87.1795 137.174 87.2782C137.373 87.3768 137.593 87.4288 137.815 87.43C139.25 87.43 140.774 85.4212 141.222 82.9487C141.395 82.2951 141.43 81.6128 141.325 80.945C141.22 80.2771 140.977 79.6384 140.611 79.0693C140.479 78.8931 140.308 78.7494 140.112 78.6493C139.915 78.5492 139.698 78.4953 139.478 78.4919H139.462Z" fill="#F9F9F9"/>
<path d="M144.165 88.4464C143.901 88.4427 143.641 88.3793 143.405 88.2609C143.169 88.1426 142.964 87.9724 142.803 87.7632C142.437 87.2156 142.19 86.598 142.076 85.9497C141.962 85.3014 141.985 84.6366 142.143 83.9976C142.559 81.6065 144.124 79.6709 145.632 79.6709C145.896 79.6779 146.155 79.7436 146.391 79.8632C146.626 79.9828 146.832 80.1532 146.993 80.3622C147.356 80.9098 147.601 81.526 147.715 82.1724C147.829 82.8188 147.808 83.4816 147.653 84.1196C147.246 86.5188 145.681 88.4464 144.165 88.4464ZM145.607 79.8742C144.189 79.8742 142.722 81.7367 142.347 84.0383C142.201 84.6481 142.18 85.2812 142.287 85.8991C142.393 86.5171 142.624 87.107 142.966 87.6331C143.112 87.8149 143.295 87.9635 143.503 88.0688C143.711 88.174 143.94 88.2334 144.173 88.243C145.591 88.243 147.066 86.3887 147.433 84.0871C147.578 83.4776 147.599 82.8453 147.494 82.2277C147.389 81.6101 147.16 81.0199 146.822 80.4923C146.677 80.3089 146.494 80.1588 146.286 80.0522C146.078 79.9455 145.849 79.8848 145.616 79.8742H145.607Z" fill="#F9F9F9"/>
<path d="M70.069 270.592C69.2539 270.592 68.4388 269.339 67.9578 268.616C67.9417 268.592 67.9331 268.563 67.9331 268.534C67.9331 268.505 67.9417 268.477 67.9578 268.453C67.9753 268.429 67.9989 268.41 68.0262 268.399C68.0535 268.388 68.0834 268.384 68.1127 268.388C68.3735 268.445 70.6152 268.933 70.9005 269.697C70.9329 269.782 70.9417 269.873 70.9259 269.962C70.9101 270.051 70.8703 270.134 70.8108 270.202C70.7342 270.328 70.6247 270.43 70.4941 270.499C70.3634 270.568 70.2165 270.6 70.069 270.592ZM68.3654 268.762C68.9931 269.705 69.6044 270.267 70.0446 270.291C70.1423 270.292 70.2386 270.268 70.3243 270.221C70.4099 270.174 70.482 270.105 70.5337 270.023C70.5612 269.994 70.5797 269.958 70.587 269.919C70.5942 269.88 70.5898 269.84 70.5744 269.803C70.4277 269.396 69.262 268.99 68.3654 268.762Z" fill="#BF2132"/>
<path d="M68.7321 268.762C68.4852 268.763 68.239 268.736 67.9984 268.681C67.9739 268.672 67.9516 268.658 67.9333 268.64C67.9149 268.622 67.901 268.6 67.8925 268.575C67.8763 268.528 67.8763 268.476 67.8925 268.429C67.9495 268.38 69.1967 267.152 70.1178 267.152H70.183C70.2971 267.159 70.4083 267.191 70.5094 267.244C70.6105 267.297 70.6993 267.371 70.7699 267.461C70.853 267.548 70.9046 267.66 70.9164 267.779C70.9282 267.898 70.8996 268.018 70.8351 268.12C70.5743 268.559 69.5309 268.762 68.7321 268.762ZM68.3653 268.445C69.1315 268.534 70.3705 268.315 70.6232 267.949C70.6639 267.892 70.6965 267.802 70.5743 267.648C70.5317 267.588 70.4755 267.539 70.4103 267.505C70.3452 267.471 70.2728 267.453 70.1993 267.453C69.4988 267.584 68.8573 267.931 68.3653 268.445Z" fill="#BF2132"/>
<path d="M115.137 286.524C114.463 286.508 113.791 286.426 113.132 286.28C113.101 286.274 113.072 286.258 113.05 286.235C113.028 286.211 113.014 286.182 113.01 286.15C113.006 286.119 113.012 286.088 113.027 286.06C113.041 286.033 113.064 286.01 113.091 285.996C113.393 285.849 116.01 284.548 116.768 284.987C116.836 285.031 116.893 285.091 116.933 285.162C116.972 285.233 116.994 285.312 116.996 285.394C117.005 285.531 116.98 285.668 116.925 285.794C116.87 285.92 116.785 286.031 116.678 286.118C116.224 286.421 115.682 286.564 115.137 286.524ZM113.646 286.085C115.04 286.313 116.091 286.256 116.499 285.906C116.569 285.846 116.623 285.771 116.659 285.686C116.694 285.602 116.709 285.51 116.702 285.418C116.704 285.387 116.697 285.357 116.683 285.33C116.669 285.302 116.647 285.28 116.621 285.264C116.213 285.028 114.762 285.581 113.646 286.077V286.085Z" fill="#BF2132"/>
<path d="M113.173 286.281H113.084C113.06 286.265 113.041 286.243 113.029 286.217C113.018 286.191 113.014 286.162 113.018 286.134C113.018 286.02 113.41 283.434 114.828 283.434H114.95C115.358 283.475 115.472 283.678 115.496 283.849C115.611 284.565 114.029 285.947 113.23 286.289L113.173 286.281ZM114.804 283.711C113.883 283.711 113.475 285.207 113.336 285.858C114.152 285.378 115.236 284.296 115.17 283.865C115.17 283.865 115.17 283.735 114.885 283.711H114.804Z" fill="#BF2132"/>
<path d="M137.774 82.379L139.054 82.2651C139.054 82.2651 138.247 83.0947 137.774 82.379Z" fill="#1A2E35"/>
<path d="M132.174 111.861C121.577 107.851 118.268 101.849 118.521 100.588L120.151 100.686H120.469C120.875 100.697 121.281 100.732 121.683 100.792C122.433 100.857 123.208 100.938 123.99 101.044L124.805 101.158C128.696 101.63 132.547 102.377 136.331 103.394C138.059 103.898 138.63 104.061 139.592 104.403L140.407 104.712L140.749 104.842C141.597 106.664 141.41 110.389 132.174 111.861Z" fill="#FD897B"/>
<path d="M132.174 111.861C121.577 107.851 118.268 101.849 118.521 100.588L120.151 100.686H120.469C122.621 103.736 127.332 107.949 132.133 108.526C135.997 107.713 139.641 106.786 139.608 104.403L140.423 104.712L140.766 104.842C141.597 106.664 141.41 110.389 132.174 111.861Z" fill="#BF2132"/>
<path opacity="0.3" d="M132.174 111.861C121.577 107.851 118.268 101.849 118.521 100.588L120.151 100.686H120.469C122.621 103.736 127.332 107.949 132.133 108.526C135.997 107.713 139.641 106.786 139.608 104.403L140.423 104.712L140.766 104.842C141.597 106.664 141.41 110.389 132.174 111.861Z" fill="black"/>
<path d="M110.761 137.618L109.131 139.667C109.008 139.822 109.188 140.042 109.481 140.099L136.103 145.271C136.332 145.32 136.544 145.271 136.584 145.1L137.253 142.88C137.302 142.725 137.131 142.555 136.878 142.506L111.169 137.512C111.097 137.497 111.023 137.498 110.952 137.516C110.881 137.535 110.816 137.57 110.761 137.618Z" fill="#1A2E35"/>
<path d="M113.654 141.156L112.97 141.026C112.831 141.026 112.741 140.912 112.766 140.823L113.662 137.944C113.662 137.854 113.825 137.814 113.956 137.838L114.649 137.968C114.787 137.968 114.877 138.09 114.852 138.171L113.956 141.059C113.924 141.107 113.877 141.143 113.822 141.161C113.767 141.178 113.708 141.177 113.654 141.156Z" fill="#BF2132"/>
<path opacity="0.3" d="M113.654 141.156L112.97 141.026C112.831 141.026 112.741 140.912 112.766 140.823L113.662 137.944C113.662 137.854 113.825 137.814 113.956 137.838L114.649 137.968C114.787 137.968 114.877 138.09 114.852 138.171L113.956 141.059C113.924 141.107 113.877 141.143 113.822 141.161C113.767 141.178 113.708 141.177 113.654 141.156Z" fill="black"/>
<path d="M115.464 110.291C115.154 112.219 114.861 114.358 114.649 116.358C114.437 118.359 114.25 120.425 114.152 122.507C114.097 123.532 114.065 124.556 114.054 125.581V128.631C114.095 130.623 114.25 132.61 114.519 134.584C114.674 135.26 114.95 135.902 115.334 136.479C115.824 137.269 116.369 138.025 116.964 138.74C118.266 140.283 119.66 141.747 121.137 143.124C122.629 144.555 124.194 145.938 125.8 147.288C127.406 148.638 129.06 149.98 130.691 151.273L128.938 153.973C125.102 151.876 121.433 149.486 117.967 146.824C116.175 145.458 114.486 143.963 112.913 142.351C112.072 141.489 111.3 140.562 110.606 139.578C109.743 138.417 109.13 137.09 108.804 135.682L108.503 133.958C108.397 133.397 108.324 132.836 108.258 132.283C108.095 131.16 108.006 130.046 107.916 128.932C107.746 126.716 107.694 124.492 107.761 122.271C107.826 120.067 107.949 117.871 108.169 115.683C108.389 113.495 108.666 111.348 109.106 109.087L115.464 110.291Z" fill="#FD897B"/>
<path d="M110.052 102.175C106.563 104.989 107.394 113.349 107.394 113.349L119.132 117.204C119.132 117.204 118.594 107.567 118.024 104.102C117.323 99.9789 113.475 99.4014 110.052 102.175Z" fill="#1A2E35"/>
<path d="M129.256 150.753L134.562 148.785L133.747 153.819C133.747 153.819 129.9 155.202 127.927 153.429L129.256 150.753Z" fill="#FD897B"/>
<path d="M140.879 149.533V153.42L133.747 153.819L134.562 148.785L140.879 149.533Z" fill="#FD897B"/>
<path d="M134.155 145.141L133.47 145.011C133.332 145.011 133.242 144.897 133.267 144.808L134.163 141.929C134.163 141.839 134.326 141.798 134.465 141.823L135.15 141.953C135.288 141.953 135.378 142.075 135.353 142.156L134.457 145.044C134.432 145.125 134.326 145.174 134.155 145.141Z" fill="#BF2132"/>
<path opacity="0.3" d="M134.155 145.141L133.47 145.011C133.332 145.011 133.242 144.897 133.267 144.808L134.163 141.929C134.163 141.839 134.326 141.798 134.465 141.823L135.15 141.953C135.288 141.953 135.378 142.075 135.353 142.156L134.457 145.044C134.432 145.125 134.326 145.174 134.155 145.141Z" fill="black"/>
<path d="M123.909 143.14L123.216 143.01C123.077 143.01 122.988 142.896 123.02 142.807L123.917 139.928C123.917 139.838 124.072 139.798 124.21 139.822L124.903 139.952C125.034 139.952 125.132 140.074 125.099 140.155L124.202 143.043C124.178 143.14 124.047 143.181 123.909 143.14Z" fill="#BF2132"/>
<path opacity="0.3" d="M123.909 143.14L123.216 143.01C123.077 143.01 122.988 142.896 123.02 142.807L123.917 139.928C123.917 139.838 124.072 139.798 124.21 139.822L124.903 139.952C125.034 139.952 125.132 140.074 125.099 140.155L124.202 143.043C124.178 143.14 124.047 143.181 123.909 143.14Z" fill="black"/>
<path d="M71.9928 190.563L114.249 282.645C115.218 284.737 116.977 286.363 119.143 287.166C121.308 287.969 123.705 287.884 125.808 286.931L132.516 283.873L287.856 212.913C289.955 211.949 291.585 210.196 292.392 208.037C293.198 205.877 293.115 203.487 292.16 201.388L254.819 120.059L249.928 109.315C248.956 107.225 247.197 105.603 245.032 104.8C242.868 103.998 240.474 104.08 238.37 105.029L76.313 179.039C74.2147 180.003 72.5833 181.755 71.774 183.913C70.9648 186.072 71.0434 188.462 71.9928 190.563Z" fill="#BF2132"/>
<path opacity="0.1" d="M71.9928 190.563L114.249 282.645C115.218 284.737 116.977 286.363 119.143 287.166C121.308 287.969 123.705 287.884 125.808 286.931L132.516 283.873L287.856 212.913C289.955 211.949 291.585 210.196 292.392 208.037C293.198 205.877 293.115 203.487 292.16 201.388L254.819 120.059L249.928 109.315C248.956 107.225 247.197 105.603 245.032 104.8C242.868 103.998 240.474 104.08 238.37 105.029L76.313 179.039C74.2147 180.003 72.5833 181.755 71.774 183.913C70.9648 186.072 71.0434 188.462 71.9928 190.563Z" fill="white"/>
<path d="M267.051 146.665L89.146 227.933L109.967 273.307L287.872 192.039L267.051 146.665Z" fill="#BF2132"/>
<path opacity="0.3" d="M267.051 146.665L89.146 227.933L109.967 273.307L287.872 192.039L267.051 146.665Z" fill="white"/>
<path d="M259.685 167.656L147.26 219.012L154.711 235.251L267.136 183.895L259.685 167.656Z" fill="#BF2132"/>
<path opacity="0.8" d="M259.685 167.656L147.26 219.012L154.711 235.251L267.136 183.895L259.685 167.656Z" fill="white"/>
<path d="M260.962 130.129L82.9141 212.138L94.1236 236.365L272.172 154.356L260.962 130.129Z" fill="#BF2132"/>
<path opacity="0.3" d="M260.962 130.129L82.9141 212.138L94.1236 236.365L272.172 154.356L260.962 130.129Z" fill="black"/>
<path d="M96.1533 191.718L132.516 283.84L287.856 212.88C289.955 211.917 291.585 210.164 292.392 208.004C293.198 205.845 293.115 203.454 292.16 201.356L254.819 120.026L101.077 180.438C98.9306 181.29 97.2088 182.954 96.2866 185.067C95.3644 187.179 95.3165 189.57 96.1533 191.718Z" fill="#BF2132"/>
<path d="M301.761 162.599L300.992 162.869L302.264 166.483L303.033 166.213L301.761 162.599Z" fill="#BF2132"/>
<path opacity="0.1" d="M301.761 162.599L300.992 162.869L302.264 166.483L303.033 166.213L301.761 162.599Z" fill="white"/>
<path d="M295.342 144.434L294.573 144.703L299.586 158.945L300.355 158.676L295.342 144.434Z" fill="#BF2132"/>
<path opacity="0.1" d="M295.342 144.434L294.573 144.703L299.586 158.945L300.355 158.676L295.342 144.434Z" fill="white"/>
<path d="M106.97 180.755L275.132 121.832C277.313 121.075 279.707 121.21 281.789 122.208C283.871 123.206 285.472 124.986 286.242 127.159L319.875 222.713C320.635 224.89 320.5 227.278 319.502 229.357C318.503 231.435 316.72 233.035 314.544 233.807L146.382 292.73C144.199 293.483 141.806 293.346 139.724 292.349C137.642 291.351 136.039 289.574 135.263 287.403L101.631 191.849C100.871 189.671 101.007 187.282 102.007 185.203C103.007 183.125 104.792 181.526 106.97 180.755Z" fill="#BF2132"/>
<path opacity="0.1" d="M106.97 180.755L275.132 121.832C277.313 121.075 279.707 121.21 281.789 122.208C283.871 123.206 285.472 124.986 286.242 127.159L319.875 222.713C320.635 224.89 320.5 227.278 319.502 229.357C318.503 231.435 316.72 233.035 314.544 233.807L146.382 292.73C144.199 293.483 141.806 293.346 139.724 292.349C137.642 291.351 136.039 289.574 135.263 287.403L101.631 191.849C100.871 189.671 101.007 187.282 102.007 185.203C103.007 183.125 104.792 181.526 106.97 180.755Z" fill="white"/>
<path d="M299.117 163.726L114.505 228.411L129.136 269.978L313.748 205.293L299.117 163.726Z" fill="#BF2132"/>
<path opacity="0.3" d="M299.117 163.726L114.505 228.411L129.136 269.978L313.748 205.293L299.117 163.726Z" fill="white"/>
<path d="M277.019 143.496L238.857 156.868L240.945 162.799L279.107 149.428L277.019 143.496Z" fill="#BF2132"/>
<path opacity="0.8" d="M277.019 143.496L238.857 156.868L240.945 162.799L279.107 149.428L277.019 143.496Z" fill="white"/>
<path d="M302.588 216.136L271.97 226.864L273.061 229.964L303.679 219.236L302.588 216.136Z" fill="#BF2132"/>
<path opacity="0.8" d="M302.588 216.136L271.97 226.864L273.061 229.964L303.679 219.236L302.588 216.136Z" fill="white"/>
<path d="M304.67 222.067L265.216 235.891L266.307 238.991L305.761 225.167L304.67 222.067Z" fill="#BF2132"/>
<path opacity="0.8" d="M304.67 222.067L265.216 235.891L266.307 238.991L305.761 225.167L304.67 222.067Z" fill="white"/>
<path d="M163.989 267.353L144.262 274.265L146.609 280.933L166.336 274.021L163.989 267.353Z" fill="#BF2132"/>
<path opacity="0.8" d="M163.989 267.353L144.262 274.265L146.609 280.933L166.336 274.021L163.989 267.353Z" fill="white"/>
<path d="M269.467 210.237L292.502 202.169C293.717 201.738 294.711 200.846 295.27 199.687C295.829 198.528 295.906 197.196 295.486 195.98C295.054 194.768 294.159 193.776 292.998 193.218C291.836 192.661 290.501 192.584 289.283 193.003L266.239 201.079C265.024 201.511 264.03 202.403 263.471 203.562C262.912 204.721 262.835 206.053 263.255 207.268C263.689 208.481 264.585 209.473 265.749 210.029C266.912 210.585 268.248 210.659 269.467 210.237Z" fill="#BF2132"/>
<path d="M230.006 224.063L253.05 215.987C254.255 215.554 255.242 214.667 255.799 213.515C256.355 212.364 256.436 211.041 256.025 209.831C255.592 208.62 254.697 207.63 253.535 207.074C252.374 206.518 251.04 206.442 249.822 206.862L226.787 214.938C225.572 215.369 224.578 216.261 224.019 217.42C223.46 218.579 223.383 219.912 223.803 221.127C224.243 222.331 225.141 223.314 226.302 223.864C227.462 224.413 228.793 224.485 230.006 224.063Z" fill="#BF2132"/>
<path d="M190.571 237.889L213.614 229.813C214.817 229.377 215.8 228.488 216.353 227.337C216.906 226.186 216.985 224.865 216.573 223.656C216.14 222.446 215.245 221.456 214.083 220.9C212.922 220.344 211.588 220.268 210.37 220.688L187.31 228.731C186.097 229.164 185.104 230.057 184.547 231.216C183.99 232.374 183.914 233.706 184.335 234.92C184.768 236.138 185.668 237.135 186.837 237.691C188.007 238.248 189.349 238.319 190.571 237.889Z" fill="#BF2132"/>
<path d="M151.093 251.715L174.137 243.639C175.344 243.208 176.333 242.321 176.89 241.169C177.448 240.018 177.531 238.694 177.12 237.482C176.687 236.272 175.792 235.282 174.63 234.726C173.469 234.17 172.135 234.094 170.917 234.514L147.873 242.59C146.659 243.021 145.664 243.913 145.106 245.072C144.547 246.231 144.47 247.563 144.89 248.779C145.33 249.983 146.228 250.966 147.389 251.516C148.549 252.065 149.88 252.137 151.093 251.715Z" fill="#BF2132"/>
<g opacity="0.8">
<path d="M269.467 210.237L292.503 202.169C293.717 201.738 294.712 200.846 295.271 199.687C295.829 198.528 295.907 197.196 295.486 195.98C295.054 194.768 294.16 193.776 292.998 193.218C291.837 192.661 290.502 192.584 289.283 193.003L266.239 201.079C265.025 201.511 264.03 202.403 263.472 203.562C262.913 204.721 262.835 206.053 263.256 207.268C263.69 208.481 264.586 209.473 265.749 210.029C266.912 210.585 268.249 210.659 269.467 210.237Z" fill="white"/>
<path d="M230.006 224.063L253.05 215.987C254.255 215.554 255.242 214.666 255.798 213.515C256.354 212.364 256.436 211.041 256.025 209.83C255.591 208.62 254.696 207.629 253.535 207.074C252.373 206.518 251.039 206.442 249.822 206.862L226.786 214.938C225.572 215.369 224.577 216.261 224.018 217.42C223.46 218.579 223.382 219.911 223.803 221.127C224.243 222.331 225.14 223.314 226.301 223.863C227.462 224.413 228.793 224.484 230.006 224.063Z" fill="white"/>
<path d="M190.57 237.889L213.614 229.813C214.816 229.377 215.799 228.488 216.352 227.337C216.906 226.186 216.985 224.865 216.573 223.656C216.139 222.446 215.244 221.456 214.083 220.9C212.921 220.344 211.587 220.268 210.37 220.688L187.31 228.731C186.097 229.164 185.104 230.057 184.547 231.216C183.99 232.374 183.913 233.706 184.334 234.92C184.768 236.138 185.668 237.135 186.837 237.691C188.006 238.248 189.349 238.319 190.57 237.889Z" fill="white"/>
<path d="M151.093 251.715L174.137 243.639C175.344 243.208 176.333 242.321 176.89 241.169C177.448 240.018 177.531 238.694 177.12 237.482C176.687 236.272 175.792 235.282 174.63 234.726C173.469 234.17 172.135 234.094 170.917 234.514L147.873 242.59C146.659 243.021 145.664 243.913 145.106 245.072C144.547 246.231 144.47 247.563 144.89 248.779C145.33 249.983 146.228 250.966 147.389 251.516C148.549 252.065 149.88 252.137 151.093 251.715Z" fill="white"/>
</g>
<path d="M281.44 166.125L260.936 173.31C259.195 173.92 258.279 175.823 258.891 177.561L263.163 189.7C263.775 191.438 265.682 192.352 267.424 191.742L287.928 184.557C289.669 183.947 290.585 182.044 289.974 180.306L285.701 168.167C285.089 166.429 283.182 165.515 281.44 166.125Z" fill="#BF2132"/>
<path opacity="0.3" d="M281.44 166.125L260.936 173.31C259.195 173.92 258.279 175.823 258.891 177.561L263.163 189.7C263.775 191.438 265.682 192.352 267.424 191.742L287.928 184.557C289.669 183.947 290.585 182.044 289.974 180.306L285.701 168.167C285.089 166.429 283.182 165.515 281.44 166.125Z" fill="black"/>
<path d="M157.704 188.685C157.192 187.227 156.398 185.884 155.366 184.733C154.334 183.581 153.085 182.644 151.689 181.975C150.294 181.306 148.78 180.917 147.235 180.832C145.689 180.747 144.141 180.967 142.681 181.479L126.117 187.685L125.905 187.742L125.416 187.945L125.115 188.059C122.44 189.264 120.334 191.45 119.233 194.164C118.132 196.878 118.121 199.911 119.203 202.633C120.285 205.355 122.376 207.556 125.042 208.78C127.707 210.004 130.743 210.156 133.519 209.204L149.202 203.999C149.654 203.898 150.1 203.774 150.539 203.625C150.863 203.512 151.182 203.382 151.492 203.235C154.158 202.017 156.272 199.85 157.421 197.159C158.569 194.468 158.67 191.446 157.704 188.685Z" fill="#BF2132"/>
<path opacity="0.8" d="M157.704 188.685C157.192 187.227 156.398 185.884 155.366 184.733C154.334 183.581 153.085 182.644 151.689 181.975C150.294 181.306 148.78 180.917 147.235 180.832C145.689 180.747 144.141 180.967 142.681 181.479L126.117 187.685L125.905 187.742L125.416 187.945L125.115 188.059C122.44 189.264 120.334 191.45 119.233 194.164C118.132 196.878 118.121 199.911 119.203 202.633C120.285 205.355 122.376 207.556 125.042 208.78C127.707 210.004 130.743 210.156 133.519 209.204L149.202 203.999C149.654 203.898 150.1 203.774 150.539 203.625C150.863 203.512 151.182 203.382 151.492 203.235C154.158 202.017 156.272 199.85 157.421 197.159C158.569 194.468 158.67 191.446 157.704 188.685Z" fill="white"/>
</svg>
