<svg width="343" height="301" viewBox="0 0 343 301" fill="none" xmlns="http://www.w3.org/2000/svg">
<path d="M334.435 279.971H307.439V280.175H334.435V279.971Z" fill="#EBEBEB"/>
<path d="M237.701 282.188H230.618V282.391H237.701V282.188Z" fill="#EBEBEB"/>
<path d="M306.623 272.407H290.982V272.611H306.623V272.407Z" fill="#EBEBEB"/>
<path d="M45.6924 273.776H10.4893V273.98H45.6924V273.776Z" fill="#EBEBEB"/>
<path d="M58.1145 273.776H52.9551V273.98H58.1145V273.776Z" fill="#EBEBEB"/>
<path d="M151.246 277.216H74.8892V277.42H151.246V277.216Z" fill="#EBEBEB"/>
<path d="M162.045 230.504H4.65409C3.41975 230.504 2.23596 230.013 1.36315 229.141C0.49034 228.268 0 227.084 0 225.85V4.61333C0.010747 3.38607 0.505827 2.21273 1.37748 1.34871C2.24912 0.484695 3.42677 -4.70511e-05 4.65409 3.4254e-09H162.045C162.657 3.4254e-09 163.262 0.12038 163.826 0.35427C164.391 0.58816 164.904 0.930979 165.336 1.36315C165.768 1.79532 166.111 2.30839 166.345 2.87305C166.579 3.43771 166.699 4.0429 166.699 4.65409V225.85C166.699 226.461 166.579 227.066 166.345 227.631C166.111 228.195 165.768 228.708 165.336 229.141C164.904 229.573 164.391 229.916 163.826 230.149C163.262 230.383 162.657 230.504 162.045 230.504V230.504ZM4.65409 0.163016C3.47445 0.165171 2.34375 0.634733 1.50962 1.46886C0.675486 2.30299 0.205924 3.4337 0.203769 4.61333V225.85C0.205924 227.029 0.675486 228.16 1.50962 228.994C2.34375 229.828 3.47445 230.298 4.65409 230.3H162.045C163.225 230.298 164.356 229.828 165.19 228.994C166.024 228.16 166.494 227.029 166.496 225.85V4.61333C166.494 3.4337 166.024 2.30299 165.19 1.46886C164.356 0.634733 163.225 0.165171 162.045 0.163016H4.65409Z" fill="#EBEBEB"/>
<path d="M338.346 230.504H180.954C179.72 230.504 178.536 230.013 177.663 229.141C176.791 228.268 176.3 227.084 176.3 225.85V4.61333C176.311 3.38607 176.806 2.21273 177.678 1.34871C178.549 0.484695 179.727 -4.70511e-05 180.954 3.4254e-09H338.346C339.58 3.42541e-09 340.764 0.49034 341.637 1.36315C342.509 2.23596 343 3.41975 343 4.65409V225.85C343 227.084 342.509 228.268 341.637 229.141C340.764 230.013 339.58 230.504 338.346 230.504V230.504ZM180.954 0.163016C179.775 0.165171 178.644 0.634733 177.81 1.46886C176.976 2.30299 176.506 3.4337 176.504 4.61333V225.85C176.506 227.029 176.976 228.16 177.81 228.994C178.644 229.828 179.775 230.298 180.954 230.3H338.346C339.525 230.298 340.656 229.828 341.49 228.994C342.324 228.16 342.794 227.029 342.796 225.85V4.61333C342.794 3.4337 342.324 2.30299 341.49 1.46886C340.656 0.634733 339.525 0.165171 338.346 0.163016H180.954Z" fill="#EBEBEB"/>
<path d="M297.356 29.6118H275.438C268.488 29.6118 262.854 35.2462 262.854 42.1966V64.114C262.854 71.0644 268.488 76.6988 275.438 76.6988H297.356C304.306 76.6988 309.941 71.0644 309.941 64.114V42.1966C309.941 35.2462 304.306 29.6118 297.356 29.6118Z" fill="#F0F0F0"/>
<path d="M292.253 46.5001C292.253 50.5103 290.216 53.7543 286.206 53.7543C282.195 53.7543 280.158 50.494 280.158 46.5001C280.158 42.5063 282.195 39.2378 286.206 39.2378C290.216 39.2378 292.253 42.49 292.253 46.5001Z" fill="#FAFAFA"/>
<path d="M286.206 67.0651H297.397V60.4141C297.397 56.7381 292.384 53.7549 286.206 53.7549C280.028 53.7549 275.015 56.7381 275.015 60.4141V67.0651H286.206Z" fill="#FAFAFA"/>
<path d="M91.2069 45.3999H75.8998C71.0471 45.3999 67.1133 49.3338 67.1133 54.1864V69.4936C67.1133 74.3462 71.0471 78.2801 75.8998 78.2801H91.2069C96.0596 78.2801 99.9935 74.3462 99.9935 69.4936V54.1864C99.9935 49.3338 96.0596 45.3999 91.2069 45.3999Z" fill="#E6E6E6"/>
<path d="M82.886 63.6169C83.3798 62.931 83.9515 62.3046 84.5895 61.7504C85.025 61.3654 85.4285 60.9456 85.7958 60.4952C86.0473 60.1619 86.1819 59.7552 86.1789 59.3378C86.1879 59.0527 86.1255 58.7699 85.9974 58.5151C85.8692 58.2603 85.6795 58.0416 85.4454 57.8788C84.8684 57.5005 84.1864 57.315 83.4973 57.349C82.7751 57.3319 82.0602 57.4973 81.4189 57.8299C80.811 58.1573 80.2867 58.6203 79.8865 59.1829L76.8789 57.4223C77.5788 56.3657 78.5539 55.5202 79.6991 54.9771C81.0202 54.3643 82.4653 54.0658 83.9212 54.105C85.5393 54.0286 87.1416 54.4527 88.51 55.3194C89.0587 55.6891 89.5049 56.1917 89.807 56.7803C90.1092 57.3689 90.2574 58.0244 90.238 58.6857C90.2515 59.3008 90.1348 59.9119 89.8957 60.4789C89.6978 60.9555 89.4224 61.3962 89.0806 61.783C88.7546 62.1416 88.3389 62.5491 87.8254 63.0137C87.3339 63.4316 86.8836 63.8956 86.4805 64.3994C86.191 64.7898 86.0417 65.2665 86.0567 65.7524H82.2992C82.269 64.997 82.474 64.2508 82.886 63.6169V63.6169ZM82.4866 71.3357C82.2627 71.1286 82.0858 70.876 81.9677 70.5948C81.8496 70.3136 81.7931 70.0104 81.802 69.7055C81.7955 69.4102 81.8525 69.1168 81.9692 68.8454C82.0859 68.574 82.2596 68.3309 82.4785 68.1324C82.956 67.7221 83.5647 67.4966 84.1942 67.4966C84.8238 67.4966 85.4325 67.7221 85.91 68.1324C86.1273 68.3316 86.2995 68.5751 86.4148 68.8465C86.5301 69.1178 86.5858 69.4108 86.5783 69.7055C86.5872 70.0104 86.5307 70.3136 86.4126 70.5948C86.2945 70.876 86.1176 71.1286 85.8937 71.3357C85.4281 71.7607 84.8205 71.9963 84.1901 71.9963C83.5598 71.9963 82.9522 71.7607 82.4866 71.3357V71.3357Z" fill="#FAFAFA"/>
<path d="M295.098 157.954H306.941C308.746 157.954 310.477 158.671 311.754 159.947C313.03 161.223 313.747 162.954 313.747 164.76V176.603C313.747 178.405 313.031 180.134 311.756 181.409C310.481 182.684 308.752 183.4 306.949 183.4H295.098C293.295 183.4 291.566 182.684 290.291 181.409C289.016 180.134 288.3 178.405 288.3 176.603V164.76C288.3 162.957 289.016 161.228 290.291 159.953C291.566 158.678 293.295 157.962 295.098 157.962V157.954Z" fill="#EBEBEB"/>
<path d="M300.495 172.054C300.878 171.524 301.321 171.04 301.815 170.612C302.154 170.312 302.468 169.985 302.752 169.634C302.947 169.379 303.05 169.066 303.046 168.745C303.054 168.525 303.006 168.306 302.907 168.109C302.807 167.912 302.658 167.744 302.475 167.62C302.03 167.323 301.502 167.177 300.967 167.205C300.421 167.189 299.879 167.31 299.392 167.558C298.905 167.806 298.488 168.172 298.18 168.623L295.849 167.262C296.387 166.437 297.143 165.777 298.033 165.355C299.054 164.882 300.169 164.651 301.293 164.678C302.547 164.617 303.789 164.948 304.847 165.623C305.273 165.911 305.62 166.301 305.854 166.759C306.087 167.217 306.201 167.726 306.184 168.24C306.193 168.715 306.104 169.187 305.923 169.626C305.769 169.996 305.555 170.337 305.287 170.636C304.982 170.972 304.658 171.29 304.317 171.59C303.94 171.915 303.591 172.272 303.274 172.658C303.055 172.964 302.941 173.333 302.948 173.709H300.046C300.021 173.124 300.178 172.546 300.495 172.054ZM300.185 178.029C300.015 177.871 299.88 177.679 299.79 177.466C299.7 177.252 299.657 177.022 299.663 176.79C299.658 176.562 299.702 176.335 299.79 176.124C299.878 175.914 300.01 175.724 300.177 175.567C300.547 175.251 301.018 175.077 301.505 175.077C301.992 175.077 302.463 175.251 302.834 175.567C303.002 175.723 303.135 175.912 303.225 176.123C303.315 176.334 303.359 176.561 303.355 176.79C303.361 177.022 303.316 177.253 303.225 177.467C303.133 177.68 302.997 177.872 302.826 178.029C302.651 178.199 302.445 178.332 302.218 178.42C301.991 178.509 301.749 178.55 301.505 178.542C301.262 178.548 301.02 178.506 300.794 178.418C300.567 178.33 300.36 178.197 300.185 178.029V178.029Z" fill="#FAFAFA"/>
<path d="M63.1845 94.7119H47.8773C43.0247 94.7119 39.0908 98.6458 39.0908 103.498V118.806C39.0908 123.658 43.0247 127.592 47.8773 127.592H63.1845C68.0371 127.592 71.971 123.658 71.971 118.806V103.498C71.971 98.6458 68.0371 94.7119 63.1845 94.7119Z" fill="#EBEBEB"/>
<path d="M55.5312 101.885C54.5543 101.885 53.587 102.078 52.6846 102.452C51.7822 102.826 50.9624 103.374 50.272 104.065C49.5816 104.756 49.0342 105.577 48.6612 106.48C48.2881 107.383 48.0966 108.35 48.0977 109.327C48.0977 113.402 51.4232 123.281 55.5312 123.281C59.6391 123.281 62.9647 113.427 62.9647 109.327C62.9657 108.35 62.7742 107.383 62.4012 106.48C62.0281 105.577 61.4807 104.756 60.7903 104.065C60.1 103.374 59.2801 102.826 58.3777 102.452C57.4753 102.078 56.508 101.885 55.5312 101.885V101.885ZM55.5312 111.568C55.0878 111.568 54.6545 111.437 54.2859 111.191C53.9173 110.944 53.63 110.594 53.4603 110.185C53.2907 109.775 53.2463 109.324 53.3328 108.89C53.4193 108.455 53.6327 108.055 53.9462 107.742C54.2597 107.428 54.6591 107.215 55.0939 107.129C55.5287 107.042 55.9794 107.086 56.3889 107.256C56.7985 107.426 57.1486 107.713 57.3949 108.082C57.6412 108.45 57.7726 108.884 57.7726 109.327C57.7641 109.916 57.5241 110.477 57.1047 110.891C56.6853 111.304 56.12 111.536 55.5312 111.536V111.568Z" fill="#FAFAFA"/>
<path d="M58.8157 156.038C59.0548 154.529 59.0548 152.991 58.8157 151.482L56.5253 151.18C56.3405 150.339 56.0673 149.519 55.7102 148.735L57.3893 147.146C56.6912 145.786 55.7866 144.544 54.7077 143.461L52.67 144.57C52.0401 143.999 51.3516 143.496 50.616 143.07L51.0398 140.796C49.6861 140.1 48.231 139.621 46.7281 139.378L45.7419 141.456C45.3262 141.416 44.9268 141.391 44.4703 141.391C44.0139 141.391 43.6064 141.391 43.1907 141.456L42.2044 139.378C40.6936 139.616 39.23 140.092 37.8682 140.788L38.292 143.062C37.5565 143.488 36.868 143.991 36.2381 144.562L34.2004 143.453C33.1215 144.535 32.2169 145.778 31.5188 147.137L33.1978 148.727C32.8407 149.511 32.5675 150.331 32.3827 151.172L30.1005 151.474C29.8506 152.982 29.8506 154.521 30.1005 156.03L32.3827 156.332C32.5675 157.173 32.8407 157.993 33.1978 158.777L31.5188 160.366C32.2153 161.726 33.1201 162.969 34.2004 164.05L36.2381 162.942C36.868 163.513 37.5565 164.015 38.292 164.442L37.8682 166.716C39.23 167.412 40.6936 167.888 42.2044 168.126L43.1907 166.047C43.6064 166.088 44.0057 166.112 44.4703 166.112C44.9349 166.112 45.2854 166.112 45.7419 166.047L46.7281 168.126C48.2389 167.888 49.7025 167.412 51.0643 166.716L50.6405 164.442C51.3761 164.015 52.0645 163.513 52.6945 162.942L54.7321 164.05C55.811 162.968 56.7156 161.725 57.4137 160.366L55.7591 158.76C56.1152 157.976 56.3884 157.156 56.5742 156.315L58.8157 156.038ZM44.4703 158.834C43.4653 158.835 42.4824 158.539 41.6461 157.981C40.8098 157.424 40.1577 156.631 39.7724 155.703C39.387 154.775 39.2858 153.753 39.4814 152.767C39.6771 151.781 40.1609 150.876 40.8716 150.165C41.5822 149.455 42.4878 148.971 43.4735 148.775C44.4593 148.579 45.481 148.681 46.4092 149.066C47.3374 149.451 48.1304 150.104 48.6877 150.94C49.2451 151.776 49.5417 152.759 49.5401 153.764C49.538 155.108 49.0031 156.396 48.0528 157.347C47.1025 158.297 45.8143 158.832 44.4703 158.834V158.834Z" fill="#EBEBEB"/>
<path d="M66.1678 172.437C66.2263 172.06 66.2563 171.678 66.2575 171.296C66.2569 170.914 66.2269 170.532 66.1678 170.155L65.0185 170.008C64.9314 169.591 64.8002 169.184 64.6273 168.794L65.4424 167.979C65.0936 167.295 64.6398 166.671 64.0975 166.129L63.0787 166.683C62.7621 166.399 62.4181 166.148 62.0517 165.933L62.2636 164.8C61.5831 164.45 60.8512 164.211 60.0955 164.091L59.6064 165.134C59.3945 165.134 59.1826 165.134 58.9707 165.134C58.7588 165.134 58.5387 165.134 58.3268 165.134L57.8377 164.091C57.0819 164.211 56.3501 164.45 55.6696 164.8L55.8815 165.933C55.5151 166.148 55.1711 166.399 54.8545 166.683L53.8357 166.129C53.2934 166.671 52.8396 167.295 52.4908 167.979L53.3059 168.794C53.133 169.184 53.0018 169.591 52.9147 170.008L51.7735 170.155C51.7103 170.532 51.6803 170.914 51.6839 171.296C51.681 171.678 51.711 172.06 51.7735 172.437L52.9147 172.584C53.0018 172.999 53.133 173.403 53.3059 173.79L52.4908 174.605C52.8403 175.286 53.2941 175.907 53.8357 176.447L54.8545 175.893C55.1669 176.182 55.5115 176.433 55.8815 176.643L55.6696 177.776C56.3501 178.126 57.0819 178.365 57.8377 178.485L58.3268 177.442C58.7522 177.485 59.181 177.485 59.6064 177.442L60.0955 178.485C60.8512 178.365 61.5831 178.126 62.2636 177.776L62.0517 176.643C62.4217 176.433 62.7663 176.182 63.0787 175.893L64.0975 176.447C64.6391 175.907 65.0929 175.286 65.4424 174.605L64.6273 173.79C64.8002 173.403 64.9314 172.999 65.0185 172.584L66.1678 172.437ZM58.9951 173.831C58.4938 173.831 58.0037 173.682 57.5868 173.404C57.17 173.125 56.8451 172.729 56.6532 172.266C56.4613 171.803 56.4111 171.293 56.5089 170.802C56.6067 170.31 56.8482 169.858 57.2027 169.504C57.5572 169.149 58.0089 168.908 58.5006 168.81C58.9923 168.712 59.502 168.762 59.9652 168.954C60.4284 169.146 60.8243 169.471 61.1028 169.888C61.3813 170.305 61.53 170.795 61.53 171.296C61.5279 171.964 61.2635 172.603 60.7939 173.078C60.3242 173.552 59.687 173.822 59.0196 173.831H58.9951Z" fill="#E0E0E0"/>
<path d="M318.002 155.99C318.31 155.763 318.601 155.515 318.874 155.248C319.144 154.977 319.392 154.685 319.616 154.376L318.915 153.463C319.147 153.108 319.338 152.728 319.486 152.33H320.643C320.88 151.604 321.001 150.844 321.002 150.08L319.885 149.754C319.868 149.33 319.803 148.909 319.689 148.499L320.643 147.847C320.412 147.118 320.063 146.432 319.608 145.818L318.524 146.201C318.391 146.035 318.25 145.878 318.1 145.728C317.945 145.573 317.79 145.434 317.627 145.296L318.01 144.212C317.391 143.765 316.706 143.416 315.981 143.177L315.329 144.13C314.915 144.025 314.492 143.959 314.065 143.935L313.739 142.826C312.975 142.824 312.215 142.945 311.49 143.185V144.334C311.093 144.488 310.713 144.681 310.357 144.913L309.436 144.212C308.812 144.668 308.262 145.218 307.806 145.842L308.507 146.755C308.277 147.115 308.083 147.498 307.928 147.896H306.779C306.543 148.623 306.422 149.382 306.42 150.146L307.528 150.472C307.553 150.895 307.618 151.316 307.724 151.727L306.77 152.387C307.01 153.113 307.359 153.797 307.806 154.417L308.89 154.025C309.028 154.188 309.167 154.351 309.322 154.506C309.476 154.661 309.631 154.8 309.794 154.93L309.411 156.014C310.026 156.469 310.712 156.819 311.441 157.049L312.093 156.096C312.502 156.209 312.924 156.275 313.348 156.291L313.674 157.408C314.441 157.407 315.203 157.286 315.932 157.049V155.892C316.328 155.741 316.708 155.55 317.065 155.321L318.002 155.99ZM311.946 151.914C311.592 151.56 311.351 151.108 311.253 150.616C311.155 150.125 311.206 149.615 311.398 149.152C311.589 148.689 311.914 148.293 312.331 148.015C312.748 147.736 313.238 147.588 313.739 147.588C314.241 147.588 314.731 147.736 315.147 148.015C315.564 148.293 315.889 148.689 316.081 149.152C316.273 149.615 316.323 150.125 316.226 150.616C316.128 151.108 315.887 151.56 315.532 151.914C315.297 152.15 315.017 152.337 314.709 152.465C314.401 152.592 314.071 152.658 313.738 152.657C313.404 152.656 313.074 152.589 312.767 152.461C312.459 152.332 312.18 152.143 311.946 151.906V151.914Z" fill="#F0F0F0"/>
<path d="M171.5 300.527C258.78 300.527 329.535 296.396 329.535 291.3C329.535 286.204 258.78 282.073 171.5 282.073C84.2196 282.073 13.4648 286.204 13.4648 291.3C13.4648 296.396 84.2196 300.527 171.5 300.527Z" fill="#F5F5F5"/>
<path d="M200.484 47.8936V35.1947L206.728 34.3145V47.0133L200.484 47.8936Z" fill="#263238"/>
<path d="M179.724 54.9691L175.045 47.5193L179.031 44.6665L183.702 52.1082L179.724 54.9691Z" fill="#263238"/>
<path d="M223.502 46.5078L228.181 37.7539L232.158 39.49L227.488 48.2521L223.502 46.5078Z" fill="#263238"/>
<g opacity="0.5">
<path d="M200.484 47.8936V35.1947L206.728 34.3145V47.0133L200.484 47.8936Z" fill="white"/>
<path d="M179.724 54.9691L175.046 47.5193L179.032 44.6665L183.702 52.1082L179.724 54.9691Z" fill="white"/>
<path d="M223.502 46.5078L228.181 37.7539L232.159 39.49L227.488 48.2521L223.502 46.5078Z" fill="white"/>
</g>
<path d="M207.616 36.3605L199.596 37.4935C199.305 37.5472 199.005 37.5351 198.719 37.4578C198.433 37.3805 198.168 37.2401 197.944 37.047C197.72 36.8538 197.541 36.6128 197.422 36.3417C197.303 36.0705 197.247 35.7762 197.256 35.4802V35.4802C197.275 34.8331 197.519 34.2126 197.946 33.726C198.373 33.2394 198.956 32.9172 199.596 32.8149L207.616 31.6901C207.907 31.6365 208.205 31.6486 208.491 31.7254C208.776 31.8022 209.04 31.9418 209.265 32.1341C209.489 32.3263 209.667 32.5663 209.787 32.8364C209.906 33.1065 209.964 33.3999 209.955 33.6952V33.6952C209.935 34.3419 209.691 34.9615 209.264 35.4478C208.837 35.9341 208.255 36.2568 207.616 36.3605V36.3605Z" fill="#263238"/>
<path d="M180.327 44.462L174.386 48.733C174.262 48.8362 174.119 48.913 173.964 48.9585C173.81 49.004 173.648 49.0172 173.488 48.9973C173.328 48.9774 173.174 48.9249 173.035 48.843C172.897 48.761 172.777 48.6514 172.682 48.521C172.525 48.2221 172.485 47.8756 172.57 47.5487C172.654 47.2219 172.857 46.9381 173.139 46.7523L179.089 42.4895C179.211 42.3852 179.354 42.3076 179.508 42.2615C179.662 42.2154 179.823 42.2019 179.983 42.2218C180.142 42.2418 180.296 42.2947 180.434 42.3773C180.572 42.4598 180.691 42.5702 180.784 42.7014V42.7014C180.94 42.9991 180.98 43.3443 180.896 43.6698C180.811 43.9953 180.609 44.2777 180.327 44.462V44.462Z" fill="#263238"/>
<path d="M232.826 40.5174L226.876 37.9254C226.735 37.8534 226.609 37.7526 226.508 37.6296C226.407 37.5065 226.333 37.3639 226.29 37.2106C226.247 37.0574 226.237 36.8969 226.259 36.7393C226.281 36.5818 226.336 36.4306 226.42 36.2953V36.2953C226.569 35.9902 226.825 35.7508 227.139 35.623C227.454 35.4951 227.804 35.4878 228.123 35.6025L234.065 38.2026C234.209 38.2727 234.336 38.3725 234.439 38.4953C234.541 38.6181 234.616 38.7612 234.659 38.9152C234.703 39.0692 234.713 39.2306 234.689 39.3887C234.665 39.5468 234.608 39.6982 234.522 39.8327V39.8327C234.373 40.1357 234.118 40.3731 233.805 40.4995C233.492 40.6258 233.144 40.6322 232.826 40.5174V40.5174Z" fill="#263238"/>
<path opacity="0.7" d="M207.616 36.3605L199.596 37.4935C199.305 37.5472 199.005 37.5351 198.719 37.4578C198.433 37.3805 198.168 37.2401 197.944 37.047C197.72 36.8538 197.541 36.6128 197.422 36.3417C197.303 36.0705 197.247 35.7762 197.256 35.4802V35.4802C197.275 34.8331 197.519 34.2126 197.946 33.726C198.373 33.2394 198.956 32.9172 199.596 32.8149L207.616 31.6901C207.907 31.6365 208.205 31.6486 208.491 31.7254C208.776 31.8022 209.04 31.9418 209.265 32.1341C209.489 32.3263 209.667 32.5663 209.787 32.8364C209.906 33.1065 209.964 33.3999 209.955 33.6952V33.6952C209.935 34.3419 209.691 34.9615 209.264 35.4478C208.837 35.9341 208.255 36.2568 207.616 36.3605V36.3605Z" fill="white"/>
<path opacity="0.7" d="M180.327 44.462L174.386 48.733C174.262 48.8362 174.119 48.913 173.964 48.9585C173.81 49.004 173.648 49.0172 173.488 48.9973C173.328 48.9774 173.174 48.9249 173.035 48.843C172.897 48.761 172.777 48.6514 172.682 48.521C172.525 48.2221 172.485 47.8756 172.57 47.5487C172.654 47.2219 172.857 46.9381 173.139 46.7523L179.089 42.4895C179.211 42.3852 179.354 42.3076 179.508 42.2615C179.662 42.2154 179.823 42.2019 179.983 42.2218C180.142 42.2418 180.296 42.2947 180.434 42.3773C180.572 42.4598 180.691 42.5702 180.784 42.7014V42.7014C180.94 42.9991 180.98 43.3443 180.896 43.6698C180.811 43.9953 180.609 44.2777 180.327 44.462V44.462Z" fill="white"/>
<path opacity="0.7" d="M232.826 40.5174L226.876 37.9254C226.735 37.8534 226.609 37.7526 226.508 37.6296C226.407 37.5065 226.333 37.3639 226.29 37.2106C226.247 37.0574 226.237 36.8969 226.259 36.7393C226.281 36.5818 226.336 36.4306 226.42 36.2953V36.2953C226.569 35.9902 226.825 35.7508 227.139 35.623C227.454 35.4951 227.804 35.4878 228.123 35.6025L234.065 38.2026C234.209 38.2727 234.336 38.3725 234.439 38.4953C234.541 38.6181 234.616 38.7612 234.659 38.9152C234.703 39.0692 234.713 39.2306 234.689 39.3887C234.665 39.5468 234.608 39.6982 234.522 39.8327V39.8327C234.373 40.1357 234.118 40.3731 233.805 40.4995C233.492 40.6258 233.144 40.6322 232.826 40.5174V40.5174Z" fill="white"/>
<path d="M203.606 127.396C181.9 130.445 164.303 115.325 164.303 93.6193C164.303 71.9139 181.9 51.8385 203.606 48.7901C225.311 45.7417 242.909 60.8614 242.909 82.5669L248.272 81.817C248.272 57.1447 228.27 39.9628 203.606 43.4269C178.941 46.891 158.939 69.705 158.939 94.3692C158.939 119.033 178.933 136.223 203.606 132.759V127.396Z" fill="#BF2132"/>
<path d="M187.989 115.934L185.056 121.427L186.207 122.041L189.14 116.548L187.989 115.934Z" fill="#263238"/>
<path d="M220.989 54.1391L218.056 59.6323L219.207 60.2466L222.14 54.7534L220.989 54.1391Z" fill="#263238"/>
<path d="M172.736 73.8879L172.214 75.083L177.293 77.3011L177.815 76.1059L172.736 73.8879Z" fill="#263238"/>
<path d="M186.696 59.9402L185.587 60.6313L188.512 65.3217L189.62 64.6305L186.696 59.9402Z" fill="#263238"/>
<path d="M177.189 106.274L172.103 109.923L172.863 110.982L177.949 107.333L177.189 106.274Z" fill="#263238"/>
<path d="M234.346 65.2272L229.26 68.8765L230.02 69.9361L235.106 66.2868L234.346 65.2272Z" fill="#263238"/>
<path d="M175.315 90.7528L167.494 91.8521L167.857 94.4349L175.678 93.3357L175.315 90.7528Z" fill="#263238"/>
<path d="M204.91 52.1646H202.302V59.9893H204.91V52.1646Z" fill="#263238"/>
<path d="M204.91 116.197H202.302V124.022H204.91V116.197Z" fill="#263238"/>
<path d="M193.507 79.616C193.204 79.9214 193.033 80.3346 193.033 80.7653C193.033 81.1959 193.204 81.6091 193.507 81.9145L202.261 89.4295L204.552 86.8131L195.806 79.29C195.634 79.159 195.438 79.0634 195.229 79.0089C195.02 78.9543 194.802 78.9419 194.588 78.9722C194.374 79.0025 194.169 79.0751 193.983 79.1856C193.798 79.2961 193.636 79.4424 193.507 79.616Z" fill="#BF2132"/>
<path opacity="0.4" d="M193.507 79.616C193.204 79.9214 193.033 80.3346 193.033 80.7653C193.033 81.1959 193.204 81.6091 193.507 81.9145L202.261 89.4295L204.552 86.8131L195.806 79.29C195.634 79.159 195.438 79.0634 195.229 79.0089C195.02 78.9543 194.802 78.9419 194.588 78.9722C194.374 79.0025 194.169 79.0751 193.983 79.1856C193.798 79.2961 193.636 79.4424 193.507 79.616Z" fill="white"/>
<path d="M252.095 80.6274L245.567 89.3732L239.046 82.4614L252.095 80.6274Z" fill="#BF2132"/>
<path d="M218.497 70.8622C218.325 70.7313 218.129 70.6357 217.92 70.5812C217.711 70.5266 217.494 70.5141 217.28 70.5445C217.066 70.5748 216.86 70.6474 216.675 70.7579C216.489 70.8684 216.327 71.0147 216.199 71.1883L204.347 84.7022C203.713 84.6222 203.068 84.7018 202.471 84.9338C201.875 85.1658 201.346 85.5428 200.932 86.0308C199.596 87.5632 199.596 89.7394 200.932 90.9213C202.269 92.1031 204.453 91.7364 205.823 90.2366C206.245 89.7663 206.541 89.1967 206.684 88.581C206.826 87.9653 206.81 87.3235 206.638 86.7155L218.489 73.1934C218.645 73.0421 218.769 72.8612 218.854 72.6613C218.939 72.4615 218.983 72.2467 218.984 72.0295C218.984 71.8124 218.942 71.5972 218.858 71.3968C218.775 71.1963 218.652 71.0146 218.497 70.8622Z" fill="#BF2132"/>
<path d="M220.642 120.028L230.83 118.594L229.926 123.297L211.562 125.881L212.296 122.139L223.348 111.927C224.387 110.987 225.322 109.937 226.136 108.797C226.642 108.079 226.925 107.229 226.951 106.351C226.972 105.996 226.899 105.641 226.739 105.323C226.578 105.006 226.336 104.736 226.038 104.542C225.225 104.112 224.285 103.988 223.389 104.191C222.386 104.334 221.427 104.693 220.577 105.243C219.66 105.822 218.861 106.568 218.221 107.444L214.447 105.235C215.503 103.674 216.896 102.37 218.523 101.42C220.269 100.375 222.211 99.6981 224.228 99.4314C225.709 99.1832 227.226 99.2526 228.679 99.6351C229.846 99.9378 230.888 100.603 231.654 101.534C232.369 102.452 232.744 103.59 232.713 104.754C232.699 106.306 232.268 107.826 231.466 109.155C230.27 111.012 228.812 112.686 227.138 114.127L220.642 120.028Z" fill="#263238"/>
<path d="M255.111 114.665L251.134 115.227L250.123 120.46L244.654 121.226L245.673 115.985L232.631 117.828L233.357 113.948L247.629 96.5541L253.766 95.6982L240.456 112.155L246.838 111.258L247.735 106.588L252.968 105.854L252.063 110.516L256.049 109.962L255.111 114.665Z" fill="#263238"/>
<path d="M271.119 88.3384L276.181 87.6211L258.371 122.767L253.351 123.468L271.119 88.3384Z" fill="#263238"/>
<path d="M294.227 90.0088L293.502 93.75L280.542 116.181L274.306 117.061L286.745 95.6328L278.879 96.7413L278.064 100.817L273.076 101.518L274.771 92.7556L294.227 90.0088Z" fill="#263238"/>
<path d="M214.349 149.974C213.576 149.888 212.828 149.65 212.148 149.273L213.338 146.828C213.942 147.18 214.605 147.418 215.295 147.529C216.032 147.647 216.783 147.647 217.52 147.529C218.202 147.46 218.858 147.231 219.435 146.861C219.642 146.738 219.814 146.566 219.936 146.359C220.059 146.153 220.128 145.919 220.136 145.679C220.145 145.5 220.095 145.323 219.993 145.176C219.891 145.029 219.744 144.919 219.574 144.864C218.995 144.669 218.396 144.538 217.789 144.472C217.113 144.373 216.443 144.234 215.784 144.057C215.27 143.907 214.803 143.626 214.431 143.242C214.027 142.773 213.825 142.163 213.868 141.546C213.865 140.708 214.112 139.888 214.577 139.191C215.095 138.437 215.793 137.823 216.607 137.406C217.555 136.909 218.585 136.586 219.647 136.452C220.457 136.33 221.278 136.311 222.092 136.395C222.771 136.451 223.434 136.63 224.049 136.925L222.948 139.321C222.455 139.053 221.916 138.879 221.359 138.808C220.745 138.726 220.123 138.726 219.509 138.808C218.805 138.881 218.13 139.127 217.544 139.525C217.332 139.651 217.154 139.828 217.027 140.04C216.901 140.252 216.829 140.493 216.819 140.739C216.812 140.865 216.837 140.991 216.891 141.105C216.945 141.218 217.027 141.317 217.129 141.391C217.357 141.565 217.622 141.685 217.903 141.742C218.213 141.807 218.653 141.88 219.223 141.962C219.895 142.037 220.56 142.162 221.212 142.337C221.718 142.49 222.175 142.77 222.541 143.152C222.736 143.373 222.885 143.632 222.979 143.912C223.073 144.192 223.109 144.488 223.087 144.782C223.095 145.627 222.845 146.455 222.37 147.154C221.841 147.905 221.139 148.517 220.324 148.939C219.362 149.467 218.313 149.818 217.226 149.974C216.272 150.113 215.303 150.113 214.349 149.974V149.974Z" fill="#263238"/>
<path d="M229.322 137.748L228.776 140.576L234.653 139.761L234.205 142.108L228.312 142.923L227.733 145.939L234.637 144.969L234.148 147.414L224.367 148.792L226.893 135.751L236.462 134.406L235.973 136.851L229.322 137.748Z" fill="#263238"/>
<path d="M248.159 139.745C247.494 140.701 246.573 141.449 245.502 141.905L247.703 145.499L244.613 145.939L242.625 142.679L240.131 143.03L239.421 146.673L236.479 147.089L239.006 134.048L244.165 133.322C245.403 133.048 246.698 133.233 247.809 133.844C248.246 134.139 248.597 134.545 248.826 135.021C249.055 135.496 249.154 136.024 249.113 136.55C249.134 137.688 248.801 138.805 248.159 139.745V139.745ZM245.347 139.288C245.616 139.025 245.827 138.708 245.967 138.359C246.108 138.01 246.174 137.635 246.162 137.259C246.186 137.012 246.142 136.764 246.034 136.541C245.926 136.318 245.759 136.129 245.551 135.996C245.007 135.73 244.39 135.655 243.798 135.784L241.484 136.11L240.595 140.633L243.089 140.283C243.928 140.2 244.719 139.851 245.347 139.288V139.288Z" fill="#263238"/>
<path d="M264.46 130.494L256.456 144.268L253.579 144.668L250.628 132.442L253.652 132.018L255.69 140.747L261.396 130.917L264.46 130.494Z" fill="#263238"/>
<path d="M265.504 130.347L268.454 129.931L265.928 142.972L262.977 143.388L265.504 130.347Z" fill="#263238"/>
<path d="M272.244 141.587C271.355 141.301 270.587 140.728 270.06 139.957C269.535 139.13 269.271 138.164 269.302 137.186C269.295 135.788 269.634 134.411 270.288 133.175C270.948 131.927 271.902 130.858 273.067 130.062C274.283 129.223 275.679 128.684 277.143 128.489C278.142 128.323 279.166 128.379 280.142 128.652C280.943 128.865 281.642 129.356 282.115 130.037L279.995 132.067C279.642 131.617 279.167 131.279 278.626 131.092C278.085 130.906 277.503 130.879 276.947 131.015C276.061 131.134 275.219 131.476 274.502 132.01C273.809 132.541 273.25 133.228 272.872 134.015C272.48 134.817 272.28 135.698 272.285 136.591C272.255 137.004 272.323 137.418 272.485 137.799C272.646 138.18 272.896 138.518 273.214 138.783C273.593 139.04 274.021 139.217 274.471 139.301C274.921 139.385 275.384 139.375 275.83 139.272C277.158 139.089 278.363 138.396 279.189 137.34L280.925 138.865C280.277 139.689 279.47 140.375 278.551 140.881C277.632 141.386 276.621 141.701 275.578 141.807C274.465 142.001 273.322 141.925 272.244 141.587V141.587Z" fill="#263238"/>
<path d="M287.128 129.662L286.581 132.483L292.458 131.668L292.01 134.007L286.117 134.822L285.538 137.829L292.442 136.86L291.953 139.305L282.172 140.682L284.707 127.641L294.251 126.337L293.762 128.782L287.128 129.662Z" fill="#263238"/>
<path d="M127.869 72.9253C119.156 72.9253 112.098 78.0684 112.098 84.4097C112.098 89.0149 115.839 92.9843 121.227 94.8101C120.649 97.4549 119.656 99.9914 118.284 102.325C120.239 102.034 122.103 101.303 123.734 100.186C125.365 99.0688 126.72 97.5957 127.698 95.8779H127.869C136.583 95.8779 143.641 90.7429 143.641 84.4016C143.641 78.0603 136.583 72.9253 127.869 72.9253Z" fill="#BF2132"/>
<path opacity="0.7" d="M127.869 72.9253C119.156 72.9253 112.098 78.0684 112.098 84.4097C112.098 89.0149 115.839 92.9843 121.227 94.8101C120.649 97.4549 119.656 99.9914 118.284 102.325C120.239 102.034 122.103 101.303 123.734 100.186C125.365 99.0688 126.72 97.5957 127.698 95.8779H127.869C136.583 95.8779 143.641 90.7429 143.641 84.4016C143.641 78.0603 136.583 72.9253 127.869 72.9253Z" fill="white"/>
<path d="M120.916 86.6181C121.803 86.6181 122.522 85.8992 122.522 85.0124C122.522 84.1256 121.803 83.4067 120.916 83.4067C120.029 83.4067 119.311 84.1256 119.311 85.0124C119.311 85.8992 120.029 86.6181 120.916 86.6181Z" fill="#263238"/>
<path d="M129.369 85.0125C129.369 85.3349 129.274 85.6501 129.094 85.9181C128.915 86.1862 128.661 86.3952 128.363 86.5185C128.065 86.6419 127.737 86.6742 127.421 86.6113C127.105 86.5484 126.814 86.3932 126.586 86.1652C126.358 85.9372 126.203 85.6467 126.14 85.3305C126.077 85.0143 126.11 84.6865 126.233 84.3886C126.356 84.0908 126.565 83.8362 126.833 83.657C127.101 83.4779 127.417 83.3823 127.739 83.3823C128.171 83.3823 128.586 83.5541 128.892 83.8598C129.197 84.1655 129.369 84.5801 129.369 85.0125Z" fill="#263238"/>
<path d="M134.611 86.6181C135.497 86.6181 136.216 85.8992 136.216 85.0124C136.216 84.1256 135.497 83.4067 134.611 83.4067C133.724 83.4067 133.005 84.1256 133.005 85.0124C133.005 85.8992 133.724 86.6181 134.611 86.6181Z" fill="#263238"/>
<path d="M270.939 248.64C270.939 248.64 271.045 237.758 267.084 239.193C263.122 240.627 270.939 248.64 270.939 248.64Z" fill="#BF2132"/>
<path d="M275.194 238.565C275.194 238.565 280.443 229.86 275.699 228.613C270.956 227.365 275.194 238.565 275.194 238.565Z" fill="#BF2132"/>
<path d="M295.937 232.419C295.937 232.419 306.835 231.857 304.373 227.773C301.912 223.69 295.937 232.419 295.937 232.419Z" fill="#BF2132"/>
<path d="M278.698 235.312C278.698 235.312 290.109 232.736 287.974 239.143C285.838 245.549 278.698 235.312 278.698 235.312Z" fill="#BF2132"/>
<path d="M270.409 258.477C270.409 258.477 266.049 248.598 263.603 252.111C261.158 255.624 270.409 258.477 270.409 258.477Z" fill="#BF2132"/>
<path d="M282.847 233.259C282.847 233.259 294.47 230.211 290.851 225.924C287.232 221.636 282.847 233.259 282.847 233.259Z" fill="#BF2132"/>
<path d="M291.633 232.061C291.633 232.061 300.827 236.576 296.589 239.527C292.351 242.477 291.633 232.061 291.633 232.061Z" fill="#BF2132"/>
<path d="M272.089 244.262C272.089 244.262 278.455 236.6 280.419 242.167C282.383 247.734 272.089 244.262 272.089 244.262Z" fill="#BF2132"/>
<g opacity="0.4">
<path d="M270.408 258.478C270.408 258.478 266.048 248.599 263.602 252.112C261.157 255.625 270.408 258.478 270.408 258.478Z" fill="white"/>
<path d="M282.847 233.259C282.847 233.259 294.47 230.211 290.851 225.924C287.232 221.636 282.847 233.259 282.847 233.259Z" fill="white"/>
<path d="M291.633 232.061C291.633 232.061 300.827 236.576 296.588 239.527C292.35 242.477 291.633 232.061 291.633 232.061Z" fill="white"/>
<path d="M272.088 244.262C272.088 244.262 278.454 236.601 280.418 242.168C282.383 247.735 272.088 244.262 272.088 244.262Z" fill="white"/>
</g>
<path d="M270.344 254.206C270.344 254.206 274.908 244.425 278.584 249.357C282.26 254.288 270.344 254.206 270.344 254.206Z" fill="#BF2132"/>
<path d="M270.418 264.493C269.035 258.119 269.233 251.503 270.997 245.224C274.73 232.998 286.181 230.121 297.756 231.971C298.677 232.118 298.269 233.503 297.356 233.357C291.211 232.379 284.315 232.281 278.96 235.998C275.129 238.679 272.961 242.942 271.918 247.409C270.694 252.916 270.663 258.622 271.828 264.142C272.015 265.055 270.614 265.414 270.418 264.501V264.493Z" fill="#BF2132"/>
<g opacity="0.3">
<path d="M270.418 264.493C269.035 258.119 269.234 251.503 270.997 245.224C274.73 232.998 286.182 230.121 297.756 231.971C298.677 232.118 298.27 233.503 297.357 233.357C291.211 232.379 284.315 232.281 278.96 235.998C275.13 238.679 272.961 242.942 271.918 247.409C270.695 252.916 270.664 258.622 271.828 264.142C272.016 265.055 270.614 265.414 270.418 264.501V264.493Z" fill="black"/>
</g>
<path d="M261.346 245.338C261.346 245.338 255.64 232.036 251.94 235.508C248.239 238.981 261.346 245.338 261.346 245.338Z" fill="#BF2132"/>
<path d="M260.856 231.189C260.856 231.189 262.209 218.302 256.145 218.857C250.081 219.411 260.856 231.189 260.856 231.189Z" fill="#BF2132"/>
<path d="M281.225 214.659C281.225 214.659 293.329 209.222 288.357 205.326C283.385 201.43 281.225 214.659 281.225 214.659Z" fill="#BF2132"/>
<path d="M263.123 225.703C263.123 225.703 274.77 217.552 275.724 226.323C276.677 235.093 263.123 225.703 263.123 225.703Z" fill="#BF2132"/>
<path d="M265.991 257.515C265.991 257.515 255.729 247.424 254.808 252.755C253.887 258.086 265.991 257.515 265.991 257.515Z" fill="#BF2132"/>
<path d="M266.75 221.391C266.75 221.391 278.373 212.605 271.966 208.961C265.56 205.318 266.75 221.391 266.75 221.391Z" fill="#BF2132"/>
<path d="M276.131 216.101C276.131 216.101 289.001 217.593 285.732 223.029C282.464 228.466 276.131 216.101 276.131 216.101Z" fill="#BF2132"/>
<path d="M260.343 239.478C260.343 239.478 263.522 227.374 268.722 233.3C273.922 239.225 260.343 239.478 260.343 239.478Z" fill="#BF2132"/>
<g opacity="0.4">
<path d="M265.991 257.516C265.991 257.516 255.729 247.425 254.808 252.756C253.887 258.086 265.991 257.516 265.991 257.516Z" fill="white"/>
<path d="M266.75 221.391C266.75 221.391 278.373 212.605 271.966 208.961C265.56 205.318 266.75 221.391 266.75 221.391Z" fill="white"/>
<path d="M276.131 216.102C276.131 216.102 289.001 217.593 285.732 223.03C282.464 228.466 276.131 216.102 276.131 216.102Z" fill="white"/>
<path d="M260.343 239.478C260.343 239.478 263.522 227.374 268.722 233.3C273.922 239.225 260.343 239.478 260.343 239.478Z" fill="white"/>
</g>
<path d="M263.652 252.348C263.652 252.348 263.652 238.434 270.45 242.844C277.247 247.254 263.652 252.348 263.652 252.348Z" fill="#BF2132"/>
<path d="M269.187 264.835C264.41 257.85 260.726 249.349 259.618 241.133C257.384 224.635 268.877 216.118 283.051 213.314C284.176 213.094 284.445 214.944 283.336 215.189C275.813 216.672 267.85 219.582 263.775 226.429C260.832 231.36 260.62 237.497 261.802 243.382C263.375 250.682 266.359 257.605 270.589 263.759C270.657 263.852 270.707 263.958 270.734 264.07C270.762 264.182 270.767 264.299 270.75 264.413C270.732 264.528 270.693 264.637 270.633 264.736C270.573 264.835 270.494 264.921 270.401 264.99C270.308 265.058 270.202 265.108 270.09 265.136C269.978 265.163 269.861 265.168 269.747 265.151C269.633 265.134 269.523 265.094 269.424 265.034C269.325 264.974 269.239 264.896 269.17 264.802L269.187 264.835Z" fill="#BF2132"/>
<g opacity="0.3">
<path d="M269.187 264.835C264.411 257.849 260.727 249.348 259.618 241.132C257.385 224.635 268.877 216.117 283.052 213.314C284.176 213.093 284.445 214.944 283.337 215.188C275.814 216.672 267.85 219.581 263.775 226.428C260.833 231.359 260.621 237.497 261.803 243.382C263.375 250.682 266.36 257.604 270.589 263.759C270.658 263.852 270.707 263.957 270.735 264.07C270.762 264.182 270.768 264.299 270.75 264.413C270.733 264.527 270.693 264.637 270.633 264.736C270.573 264.835 270.495 264.921 270.402 264.989C270.308 265.058 270.203 265.107 270.091 265.135C269.978 265.163 269.862 265.168 269.747 265.151C269.633 265.133 269.523 265.093 269.424 265.034C269.326 264.974 269.239 264.895 269.171 264.802L269.187 264.835Z" fill="black"/>
</g>
<path d="M259.992 248.835C259.992 248.835 262.698 239.812 265.599 242.012C268.501 244.213 259.992 248.835 259.992 248.835Z" fill="#BF2132"/>
<path d="M259.047 239.413C259.047 239.413 256.953 230.862 261.191 231.058C265.429 231.254 259.047 239.413 259.047 239.413Z" fill="#BF2132"/>
<path d="M243.487 229.036C243.487 229.036 234.627 225.776 237.716 223.029C240.805 220.282 243.487 229.036 243.487 229.036Z" fill="#BF2132"/>
<path d="M256.992 235.818C256.992 235.818 248.206 230.757 248.344 236.633C248.483 242.51 256.992 235.818 256.992 235.818Z" fill="#BF2132"/>
<path d="M257.898 257.091C257.898 257.091 264.076 250.073 265.193 253.594C266.31 257.116 257.898 257.091 257.898 257.091Z" fill="#BF2132"/>
<path d="M254.091 233.055C254.091 233.055 245.272 227.545 249.364 224.904C253.456 222.263 254.091 233.055 254.091 233.055Z" fill="#BF2132"/>
<path d="M247.13 229.852C247.13 229.852 238.377 231.221 241.123 234.743C243.87 238.264 247.13 229.852 247.13 229.852Z" fill="#BF2132"/>
<path d="M260.156 244.914C260.156 244.914 256.895 236.942 253.806 241.042C250.717 245.142 260.156 244.914 260.156 244.914Z" fill="#BF2132"/>
<g opacity="0.4">
<path d="M257.897 257.092C257.897 257.092 264.076 250.074 265.192 253.595C266.309 257.116 257.897 257.092 257.897 257.092Z" fill="white"/>
<path d="M254.091 233.055C254.091 233.055 245.272 227.545 249.363 224.904C253.455 222.263 254.091 233.055 254.091 233.055Z" fill="white"/>
<path d="M247.13 229.852C247.13 229.852 238.376 231.221 241.123 234.743C243.87 238.264 247.13 229.852 247.13 229.852Z" fill="white"/>
<path d="M260.155 244.914C260.155 244.914 256.894 236.942 253.805 241.042C250.716 245.142 260.155 244.914 260.155 244.914Z" fill="white"/>
</g>
<path d="M259.03 253.578C259.03 253.578 257.783 244.311 253.471 247.449C249.16 250.587 259.03 253.578 259.03 253.578Z" fill="#BF2132"/>
<path d="M256.333 262.055C259.116 257.147 260.65 251.63 260.8 245.99C260.857 234.938 252.144 229.607 242.102 228.156C241.287 228.042 241.287 229.297 242.102 229.411C247.433 230.178 253.179 231.857 256.619 236.323C259.064 239.518 259.797 243.602 259.512 247.555C259.107 252.423 257.664 257.147 255.282 261.411C254.891 262.112 255.958 262.773 256.358 262.063L256.333 262.055Z" fill="#BF2132"/>
<g opacity="0.3">
<path d="M256.333 262.056C259.116 257.147 260.65 251.631 260.8 245.991C260.857 234.938 252.144 229.608 242.102 228.157C241.287 228.043 241.287 229.298 242.102 229.412C247.433 230.178 253.179 231.857 256.619 236.324C259.064 239.519 259.797 243.602 259.512 247.556C259.107 252.423 257.664 257.148 255.282 261.412C254.891 262.113 255.958 262.773 256.358 262.064L256.333 262.056Z" fill="black"/>
</g>
<path d="M281.697 259.765L278.543 283.557C278.346 285.037 277.618 286.394 276.495 287.378C275.372 288.361 273.931 288.903 272.438 288.904H252.819C251.327 288.903 249.885 288.361 248.762 287.378C247.64 286.394 246.912 285.037 246.714 283.557L243.56 259.765H281.697Z" fill="#BF2132"/>
<path opacity="0.3" d="M281.697 259.765L278.543 283.557C278.346 285.037 277.618 286.394 276.495 287.378C275.372 288.361 273.931 288.903 272.438 288.904H252.819C251.327 288.903 249.885 288.361 248.762 287.378C247.64 286.394 246.912 285.037 246.714 283.557L243.56 259.765H281.697Z" fill="white"/>
<path d="M104.558 214.064H99.2031V249.259H104.558V214.064Z" fill="#263238"/>
<path opacity="0.5" d="M104.558 214.064H99.2031V249.259H104.558V214.064Z" fill="white"/>
<path d="M118.153 275.619L105.609 273.353V248.167C105.61 247.981 105.575 247.798 105.504 247.626C105.434 247.454 105.33 247.299 105.199 247.167C105.068 247.036 104.912 246.932 104.74 246.862C104.569 246.792 104.385 246.756 104.199 246.757H99.5614C99.3755 246.756 99.1913 246.791 99.0193 246.862C98.8473 246.932 98.6908 247.036 98.559 247.167C98.4272 247.298 98.3226 247.454 98.2513 247.625C98.1799 247.797 98.1432 247.981 98.1432 248.167V273.353L85.6073 275.619C84.7272 275.776 83.9305 276.237 83.3567 276.923C82.7829 277.608 82.4687 278.474 82.4692 279.368L101.876 277.616L121.291 279.368C121.29 278.475 120.975 277.61 120.402 276.925C119.828 276.239 119.033 275.777 118.153 275.619Z" fill="#263238"/>
<path d="M86.5448 283.174C86.5448 283.98 86.3058 284.768 85.858 285.438C85.4102 286.108 84.7737 286.631 84.029 286.939C83.2843 287.248 82.4649 287.328 81.6744 287.171C80.8838 287.014 80.1576 286.626 79.5877 286.056C79.0177 285.486 78.6296 284.76 78.4724 283.969C78.3151 283.179 78.3958 282.359 78.7043 281.614C79.0127 280.87 79.5351 280.233 80.2053 279.785C80.8755 279.338 81.6634 279.099 82.4694 279.099C83.5503 279.099 84.5869 279.528 85.3512 280.292C86.1154 281.057 86.5448 282.093 86.5448 283.174V283.174Z" fill="#BF2132"/>
<path d="M125.367 283.174C125.367 283.98 125.128 284.768 124.68 285.438C124.232 286.108 123.595 286.631 122.851 286.939C122.106 287.248 121.287 287.328 120.496 287.171C119.706 287.014 118.979 286.626 118.409 286.056C117.84 285.486 117.451 284.76 117.294 283.969C117.137 283.179 117.218 282.359 117.526 281.614C117.834 280.87 118.357 280.233 119.027 279.785C119.697 279.338 120.485 279.099 121.291 279.099C121.826 279.099 122.356 279.204 122.851 279.409C123.345 279.614 123.794 279.914 124.173 280.292C124.551 280.671 124.852 281.12 125.056 281.614C125.261 282.109 125.367 282.639 125.367 283.174V283.174Z" fill="#BF2132"/>
<path d="M105.063 283.174C105.063 285.424 104.134 287.249 101.876 287.249C99.6183 287.249 98.6973 285.424 98.6973 283.174C98.6973 280.924 99.6265 279.099 101.876 279.099C104.126 279.099 105.063 280.924 105.063 283.174Z" fill="#BF2132"/>
<g opacity="0.5">
<path d="M105.731 273.369V277.966L107.247 278.105V273.646L105.731 273.369Z" fill="black"/>
<path d="M96.5459 273.638V278.097L98.0619 277.966V273.369L96.5459 273.638Z" fill="black"/>
</g>
<path d="M66.9174 182.007C66.5796 182.008 66.2459 182.082 65.9401 182.226C65.6342 182.37 65.3637 182.579 65.1475 182.838C64.9314 183.098 64.7749 183.402 64.6892 183.729C64.6035 184.056 64.5906 184.397 64.6515 184.73L69.6235 211.521C69.8482 212.739 70.4922 213.839 71.4437 214.631C72.3951 215.423 73.5938 215.857 74.8318 215.857H153.185C153.647 215.857 154.105 215.766 154.531 215.589C154.958 215.412 155.346 215.153 155.672 214.826C155.998 214.499 156.257 214.11 156.433 213.683C156.609 213.256 156.699 212.798 156.698 212.336C156.698 211.011 156.172 209.74 155.235 208.803C154.298 207.866 153.027 207.34 151.702 207.34H106.995C105.81 207.34 104.659 206.944 103.725 206.214C102.792 205.485 102.129 204.463 101.843 203.313L97.8415 187.159C97.4775 185.689 96.6322 184.383 95.4401 183.45C94.2481 182.516 92.7779 182.008 91.2638 182.007H66.9174Z" fill="#263238"/>
<path d="M77.4971 203.313L73.4951 187.159C73.1311 185.689 72.2858 184.383 71.0938 183.45C69.9017 182.516 68.4315 182.008 66.9174 182.007V182.007C66.5796 182.008 66.2459 182.082 65.9401 182.226C65.6342 182.37 65.3637 182.579 65.1475 182.838C64.9314 183.098 64.7749 183.402 64.6892 183.729C64.6035 184.056 64.5906 184.397 64.6515 184.73L69.6235 211.521C69.8482 212.739 70.4922 213.839 71.4437 214.631C72.3951 215.423 73.5938 215.857 74.8318 215.857H128.831C129.293 215.859 129.752 215.768 130.179 215.592C130.607 215.415 130.996 215.156 131.323 214.829C131.65 214.501 131.909 214.113 132.086 213.685C132.263 213.257 132.353 212.799 132.352 212.336V212.336C132.35 211.012 131.823 209.742 130.886 208.806C129.949 207.869 128.68 207.342 127.355 207.34H82.6566C81.4699 207.344 80.3163 206.949 79.3808 206.219C78.4453 205.488 77.7819 204.465 77.4971 203.313V203.313Z" fill="#263238"/>
<path opacity="0.2" d="M77.4971 203.313L73.4951 187.159C73.1311 185.689 72.2858 184.383 71.0938 183.45C69.9017 182.516 68.4315 182.008 66.9174 182.007V182.007C66.5796 182.008 66.2459 182.082 65.9401 182.226C65.6342 182.37 65.3637 182.579 65.1475 182.838C64.9314 183.098 64.7749 183.402 64.6892 183.729C64.6035 184.056 64.5906 184.397 64.6515 184.73L69.6235 211.521C69.8482 212.739 70.4922 213.839 71.4437 214.631C72.3951 215.423 73.5938 215.857 74.8318 215.857H128.831C129.293 215.859 129.752 215.768 130.179 215.592C130.607 215.415 130.996 215.156 131.323 214.829C131.65 214.501 131.909 214.113 132.086 213.685C132.263 213.257 132.353 212.799 132.352 212.336V212.336C132.35 211.012 131.823 209.742 130.886 208.806C129.949 207.869 128.68 207.342 127.355 207.34H82.6566C81.4699 207.344 80.3163 206.949 79.3808 206.219C78.4453 205.488 77.7819 204.465 77.4971 203.313V203.313Z" fill="white"/>
<path d="M110.597 105.349C110.597 105.349 119.514 108.006 115.349 114.6L111.477 108.959L110.597 105.349Z" fill="#263238"/>
<path d="M142.719 139.337L146.607 133.632L150.454 134.854L151.155 136.403L146.363 143.258L142.719 139.337Z" fill="#DBB178"/>
<path d="M148.482 140.829C144.586 146.943 138.44 155.859 136.093 155.33C129.197 153.789 119.718 147.26 114.852 140.088C114.118 139.006 113.816 137.687 114.008 136.393C114.2 135.1 114.87 133.925 115.887 133.103V133.054C116.418 132.62 117.029 132.296 117.685 132.099C118.341 131.903 119.029 131.837 119.711 131.907C120.392 131.977 121.053 132.18 121.656 132.505C122.258 132.831 122.791 133.272 123.223 133.803C123.313 133.909 123.394 134.024 123.476 134.138C127.787 140.324 133.256 146.193 134.153 146.69C135.205 147.293 137.935 144.709 143.714 137.406L148.482 140.829Z" fill="#BF2132"/>
<path opacity="0.6" d="M148.482 140.829C144.586 146.943 138.44 155.859 136.093 155.33C129.197 153.789 119.718 147.26 114.852 140.088C114.118 139.006 113.816 137.687 114.008 136.393C114.2 135.1 114.87 133.925 115.887 133.103V133.054C116.418 132.62 117.029 132.296 117.685 132.099C118.341 131.903 119.029 131.837 119.711 131.907C120.392 131.977 121.053 132.18 121.656 132.505C122.258 132.831 122.791 133.272 123.223 133.803C123.313 133.909 123.394 134.024 123.476 134.138C127.787 140.324 133.256 146.193 134.153 146.69C135.205 147.293 137.935 144.709 143.714 137.406L148.482 140.829Z" fill="white"/>
<path d="M148.573 135.898L156.275 137.406L152.689 130.95C152.689 130.95 148.027 130.95 146.608 133.632L148.573 135.898Z" fill="#DBB178"/>
<path opacity="0.2" d="M126.264 150.871C120.681 147.056 119.939 138.107 119.939 138.107L116.777 136.664L115.261 140.691C118.29 144.715 122.017 148.163 126.264 150.871V150.871Z" fill="black"/>
<path d="M161.719 134.643L158.426 129.394L152.696 130.95L156.274 137.406L161.719 134.643Z" fill="#DBB178"/>
<path d="M118.944 170.465L91.6227 172.258C91.6227 172.258 91.4271 164.922 90.4735 158.165C90.1776 155.814 89.709 153.487 89.0715 151.204C88.3624 148.873 87.4414 146.257 86.3818 143.217C86.2432 142.842 86.1047 142.467 85.9498 142.075C85.5912 141.13 85.2244 140.144 84.8087 139.117V139.068C84.4395 138.064 84.4796 136.956 84.9202 135.981C85.3609 135.007 86.1668 134.245 87.1643 133.86C87.3521 133.786 87.5456 133.729 87.743 133.688C89.4791 133.322 91.2315 132.987 93.0084 132.71L94.5407 132.482C98.6318 131.873 102.755 131.502 106.889 131.374C109.033 131.374 111.323 131.439 113.279 131.528L114.909 131.61C116.98 131.732 118.414 131.863 118.414 131.863C118.414 131.863 119.311 132.042 119.841 136.843C119.853 137.116 119.88 137.388 119.922 137.658C119.987 138.652 120.044 139.907 120.069 141.415C120.15 147.577 119.784 157.921 118.944 170.465Z" fill="#BF2132"/>
<path opacity="0.6" d="M118.944 170.465L91.6227 172.258C91.6227 172.258 91.4271 164.922 90.4735 158.165C90.1776 155.814 89.709 153.487 89.0715 151.204C88.3624 148.873 87.4414 146.257 86.3818 143.217C86.2432 142.842 86.1047 142.467 85.9498 142.075C85.5912 141.13 85.2244 140.144 84.8087 139.117V139.068C84.4395 138.064 84.4796 136.956 84.9202 135.981C85.3609 135.007 86.1668 134.245 87.1643 133.86C87.3521 133.786 87.5456 133.729 87.743 133.688C89.4791 133.322 91.2315 132.987 93.0084 132.71L94.5407 132.482C98.6318 131.873 102.755 131.502 106.889 131.374C109.033 131.374 111.323 131.439 113.279 131.528L114.909 131.61C116.98 131.732 118.414 131.863 118.414 131.863C118.414 131.863 119.311 132.042 119.841 136.843C119.853 137.116 119.88 137.388 119.922 137.658C119.987 138.652 120.044 139.907 120.069 141.415C120.15 147.577 119.784 157.921 118.944 170.465Z" fill="white"/>
<path d="M95.4946 132.352L102.309 141.432L107.199 137.243L113.557 140.308L110.117 131.415C109.058 131.415 107.965 131.415 106.914 131.415C103.093 131.518 99.281 131.831 95.4946 132.352V132.352Z" fill="#BF2132"/>
<path opacity="0.9" d="M95.4946 132.352L102.309 141.432L107.199 137.243L113.557 140.308L110.117 131.415C109.058 131.415 107.965 131.415 106.914 131.415C103.093 131.518 99.281 131.831 95.4946 132.352V132.352Z" fill="white"/>
<path d="M155.802 280.036H149.99L152.639 236.168H163.512L155.802 280.036Z" fill="#DBB178"/>
<path d="M149.346 279.482C149.281 278.927 156.217 278.406 156.217 278.406C156.217 278.406 161.042 282.123 165.281 282.481C169.519 282.84 167.571 285.652 162.982 286.288L151.628 287.918C148.368 288.399 150.015 285.277 149.346 279.482Z" fill="#263238"/>
<path d="M159.698 279.718C158.813 279.666 157.939 279.499 157.098 279.221C157.064 279.213 157.033 279.196 157.008 279.172C156.991 279.116 156.991 279.057 157.008 279.001C157.008 278.927 157.391 277.208 158.28 276.702C158.413 276.621 158.562 276.57 158.716 276.551C158.871 276.533 159.028 276.548 159.176 276.596C159.608 276.727 159.722 276.971 159.73 277.142C159.73 277.493 159.396 277.884 158.915 278.243C159.379 278.112 159.87 278.112 160.334 278.243C160.434 278.281 160.527 278.339 160.605 278.413C160.683 278.487 160.746 278.576 160.79 278.675C160.858 278.803 160.887 278.948 160.874 279.093C160.861 279.238 160.806 279.376 160.717 279.49C160.42 279.697 160.054 279.779 159.698 279.718V279.718ZM157.831 278.984C158.875 279.253 160.097 279.433 160.366 279.139C160.431 279.082 160.415 278.96 160.366 278.813C160.346 278.765 160.316 278.722 160.278 278.687C160.24 278.652 160.195 278.626 160.146 278.609C159.355 278.516 158.553 278.645 157.831 278.984V278.984ZM158.777 276.947C158.656 276.946 158.537 276.98 158.434 277.045C157.97 277.449 157.643 277.987 157.497 278.585C158.394 278.072 159.29 277.428 159.29 277.15C159.29 277.102 159.192 277.036 159.038 276.979C158.953 276.956 158.865 276.945 158.777 276.947V276.947Z" fill="#BF2132"/>
<path opacity="0.2" d="M152.175 243.838L162.111 244.14L163.513 236.168H152.64L152.175 243.838Z" fill="black"/>
<path d="M127.909 280.777L122.342 280.036L131.153 231.465L142.14 234.603L127.909 280.777Z" fill="#DBB178"/>
<path d="M121.617 279.262C121.617 278.691 128.562 279.262 128.562 279.262C128.562 279.262 132.776 283.655 136.908 284.641C141.041 285.628 138.701 288.13 134.072 288.065L122.596 287.926C119.278 287.894 121.397 285.114 121.617 279.262Z" fill="#263238"/>
<path d="M132.214 281.071C131.199 280.946 130.214 280.642 129.304 280.174L129.247 280.125C129.243 280.116 129.241 280.107 129.241 280.097C129.241 280.087 129.243 280.077 129.247 280.068C129.235 280.043 129.229 280.015 129.229 279.987C129.229 279.959 129.235 279.931 129.247 279.905C129.247 279.84 129.883 278.21 130.877 277.827C131.018 277.762 131.171 277.729 131.326 277.729C131.48 277.729 131.633 277.762 131.774 277.827C132.181 278.031 132.255 278.275 132.238 278.446C132.238 278.797 131.798 279.131 131.285 279.408C131.764 279.35 132.249 279.426 132.687 279.628C132.781 279.678 132.863 279.748 132.927 279.832C132.992 279.916 133.038 280.014 133.062 280.117C133.114 280.25 133.124 280.395 133.09 280.534C133.057 280.673 132.981 280.797 132.874 280.892C132.683 281.029 132.449 281.092 132.214 281.071V281.071ZM130.038 280.028C131.032 280.451 132.214 280.843 132.483 280.566C132.548 280.517 132.565 280.402 132.483 280.239C132.471 280.191 132.448 280.146 132.417 280.106C132.387 280.067 132.348 280.035 132.304 280.011C131.56 279.818 130.779 279.824 130.038 280.028V280.028ZM131.179 278.153C131.089 278.156 131.001 278.175 130.918 278.21C130.405 278.535 130.003 279.01 129.769 279.571C130.763 279.204 131.701 278.675 131.717 278.414C131.717 278.365 131.635 278.283 131.497 278.218C131.41 278.175 131.316 278.147 131.22 278.137L131.179 278.153Z" fill="#BF2132"/>
<path opacity="0.2" d="M142.141 234.603L131.154 231.465L129.417 241.042L139.59 242.876L142.141 234.603Z" fill="black"/>
<path d="M149.762 239.934L163.741 240.668C167.319 224.187 170.889 206.019 170.18 202.033C168.835 194.396 158.459 186.62 118.178 180.026L99.4312 208.195C99.4312 208.195 126.85 206.915 151.841 206.915C151.832 206.932 150.439 222.614 149.762 239.934Z" fill="#BF2132"/>
<path opacity="0.1" d="M149.762 239.934L163.741 240.668C167.319 224.187 170.889 206.019 170.18 202.033C168.835 194.396 158.459 186.62 118.178 180.026L99.4312 208.195C99.4312 208.195 126.85 206.915 151.841 206.915C151.832 206.932 150.439 222.614 149.762 239.934Z" fill="black"/>
<path d="M148.824 237.742L149.24 241.401L164.555 241.923L165.305 238.557L148.824 237.742Z" fill="#BF2132"/>
<path d="M109.253 131.398H106.889C103.498 131.504 100.116 131.781 96.7495 132.213C98.2166 133.965 102.789 136.696 105.854 136.696C110.133 136.663 109.179 133.485 109.253 131.398Z" fill="#DBB178"/>
<path d="M128.032 237.097L142.32 239.42C148.123 223.176 153.927 205.888 153.829 201.992C153.633 194.233 151.93 190.206 123.867 183.946C123.867 183.946 122.375 181.77 118.976 170.498L91.6224 172.291C91.6224 172.291 79.1436 195.276 88.8022 205.089C90.9377 207.274 95.1354 208.252 99.3982 208.211C99.3982 208.211 109.261 208.26 133.631 207.119C133.64 207.119 130.746 221.024 128.032 237.097Z" fill="#BF2132"/>
<path d="M127.462 234.604L144.016 237.4L142.443 240.88L127.389 238.41L127.462 234.604Z" fill="#BF2132"/>
<path opacity="0.1" d="M148.824 237.742L149.24 241.401L164.555 241.923L165.305 238.557L148.824 237.742Z" fill="black"/>
<path d="M107.183 129.043C106.869 131.055 106.952 133.11 107.428 135.09L99.9372 133.99C99.7758 133.966 99.6221 133.906 99.4881 133.813C99.354 133.72 99.2432 133.597 99.1644 133.454C99.0855 133.312 99.0406 133.152 99.0333 132.99C99.026 132.827 99.0563 132.664 99.1221 132.515C100.149 130.184 100.557 125.489 100.809 123.329C100.948 122.025 101.005 120.835 101.013 120.003C101.021 119.172 101.013 118.862 101.013 118.862L104.363 120.395L109.832 122.897C108.571 124.761 107.673 126.846 107.183 129.043V129.043Z" fill="#DBB178"/>
<path opacity="0.2" d="M109.848 122.898C108.575 124.76 107.663 126.845 107.159 129.043C104.426 127.959 102.168 125.936 100.793 123.338C100.94 122.034 100.997 120.844 101.005 120.012C102.195 120.134 103.303 120.257 104.363 120.403L109.848 122.898Z" fill="black"/>
<path d="M110.247 117.551C110.027 120.053 111.307 122.075 113.1 122.075C114.893 122.075 116.532 120.053 116.752 117.551C116.972 115.049 115.692 113.019 113.899 113.019C112.106 113.019 110.467 115.049 110.247 117.551Z" fill="#BF2132"/>
<path opacity="0.5" d="M109.929 117.551C109.709 120.053 110.989 122.075 112.782 122.075C114.575 122.075 116.205 120.053 116.426 117.551C116.646 115.049 115.366 113.019 113.573 113.019C111.78 113.019 110.141 115.049 109.929 117.551Z" fill="black"/>
<path d="M97.3857 113.149C98.7224 119.278 99.187 122.93 102.806 125.726C103.973 126.652 105.371 127.241 106.849 127.429C108.327 127.616 109.828 127.395 111.189 126.789C112.55 126.184 113.72 125.216 114.57 123.993C115.419 122.769 115.918 121.336 116.01 119.849C116.491 114.143 114.225 105.072 107.77 103.335C106.382 102.921 104.91 102.88 103.501 103.215C102.093 103.55 100.797 104.25 99.7446 105.244C98.6922 106.239 97.9201 107.493 97.5061 108.881C97.092 110.268 97.0505 111.74 97.3857 113.149V113.149Z" fill="#DBB178"/>
<path d="M95.9673 119.547C96.9599 120.746 98.3365 121.563 99.8634 121.862C101.795 122.188 102.235 120.403 101.249 118.667C100.369 117.11 98.2903 115.065 96.5623 115.521C94.8344 115.977 94.7203 118.04 95.9673 119.547Z" fill="#DBB178"/>
<path d="M107.06 113.752C107.142 114.257 107.468 114.632 107.802 114.567C108.136 114.502 108.332 114.086 108.258 113.589C108.185 113.092 107.851 112.709 107.517 112.774C107.183 112.839 106.987 113.247 107.06 113.752Z" fill="#263238"/>
<path d="M112.814 113.076C112.887 113.581 113.222 113.956 113.548 113.891C113.874 113.826 114.086 113.41 114.012 112.905C113.939 112.4 113.597 112.033 113.271 112.09C112.944 112.147 112.692 112.571 112.814 113.076Z" fill="#263238"/>
<path d="M110.998 113.541C111.841 115.01 112.874 116.361 114.07 117.559C113.759 117.846 113.387 118.061 112.983 118.188C112.578 118.315 112.151 118.35 111.731 118.293L110.998 113.541Z" fill="#C0854B"/>
<path d="M105.014 112.13C104.966 112.141 104.915 112.141 104.867 112.13C104.832 112.111 104.802 112.086 104.777 112.055C104.752 112.024 104.734 111.988 104.723 111.95C104.713 111.912 104.71 111.873 104.715 111.833C104.72 111.794 104.733 111.756 104.753 111.722C104.972 111.306 105.291 110.951 105.68 110.688C106.07 110.425 106.519 110.262 106.986 110.214C107.025 110.211 107.064 110.216 107.101 110.228C107.138 110.24 107.172 110.26 107.201 110.286C107.23 110.312 107.254 110.344 107.27 110.379C107.286 110.414 107.295 110.453 107.296 110.492C107.299 110.531 107.295 110.57 107.283 110.608C107.27 110.645 107.251 110.68 107.225 110.709C107.199 110.739 107.167 110.763 107.132 110.78C107.097 110.797 107.058 110.807 107.019 110.809C106.651 110.851 106.299 110.983 105.995 111.193C105.691 111.404 105.443 111.686 105.275 112.016C105.244 112.055 105.204 112.086 105.159 112.106C105.113 112.125 105.063 112.134 105.014 112.13V112.13Z" fill="#263238"/>
<path d="M114.926 110.85C114.877 110.852 114.829 110.841 114.786 110.818C114.743 110.795 114.707 110.761 114.681 110.72C114.474 110.398 114.196 110.127 113.868 109.93C113.541 109.732 113.172 109.612 112.79 109.579C112.72 109.567 112.656 109.531 112.61 109.476C112.563 109.422 112.538 109.353 112.538 109.281C112.538 109.21 112.563 109.141 112.61 109.086C112.656 109.032 112.72 108.996 112.79 108.984V108.984C113.269 109.016 113.733 109.159 114.147 109.402C114.56 109.646 114.911 109.983 115.17 110.386C115.215 110.451 115.232 110.531 115.218 110.609C115.205 110.686 115.161 110.756 115.097 110.802C115.045 110.833 114.986 110.849 114.926 110.85V110.85Z" fill="#263238"/>
<path d="M98.5838 121.21C98.5838 121.21 102.48 117.225 100.573 107.444C100.573 107.444 103.711 110.109 110.997 108.137C110.997 108.137 106.686 108.56 104.713 106.506C104.713 106.506 108.731 108.373 115.228 106.506C115.228 106.506 114.07 99.9287 107.077 99.5946C107.077 99.5946 109.335 97.6954 111.511 98.0622C111.511 98.0622 109.286 96.1468 103.637 99.8717L101.404 100.785C101.404 100.785 95.1115 98.5187 91.623 103.849C88.8436 108.063 90.2374 121.333 98.5838 121.21Z" fill="#263238"/>
<path d="M112.872 119.409C112.872 119.409 110.9 118.912 105.341 118.79C105.96 120.477 107.142 121.871 109.995 121.904C110.35 121.943 110.71 121.909 111.052 121.802C111.393 121.696 111.709 121.52 111.979 121.286C112.249 121.052 112.468 120.764 112.622 120.441C112.776 120.118 112.861 119.767 112.872 119.409Z" fill="#263238"/>
<path d="M108.739 120.559C109.835 120.518 110.915 120.824 111.828 121.431C111.295 121.772 110.667 121.935 110.035 121.895C108.944 121.941 107.867 121.635 106.962 121.023C107.491 120.685 108.113 120.523 108.739 120.559V120.559Z" fill="#A02724"/>
<path d="M112.619 119.36C112.561 119.565 112.447 119.749 112.29 119.893C112.133 120.037 111.94 120.135 111.73 120.175C110.089 120.137 108.453 119.962 106.84 119.653C106.582 119.63 106.334 119.544 106.118 119.402C105.902 119.259 105.724 119.066 105.601 118.838C107.95 118.831 110.297 119.005 112.619 119.36V119.36Z" fill="white"/>
<path d="M95.5601 115.26V108.682C95.5596 106.736 96.1876 104.841 97.3507 103.28C98.5139 101.719 100.15 100.575 102.015 100.018L104.216 99.627C102.303 100.198 100.626 101.371 99.4333 102.971C98.2408 104.572 97.597 106.515 97.5978 108.511V115.26H95.5601Z" fill="#BF2132"/>
<path d="M100.671 118.447C100.891 120.949 99.611 122.971 97.8178 122.971C96.0247 122.971 94.3864 120.949 94.1744 118.447C93.9625 115.945 95.234 113.915 97.0272 113.915C98.8204 113.915 100.451 115.945 100.671 118.447Z" fill="#BF2132"/>
<path opacity="0.5" d="M100.671 118.447C100.891 120.949 99.611 122.971 97.8178 122.971C96.0247 122.971 94.3864 120.949 94.1744 118.447C93.9625 115.945 95.234 113.915 97.0272 113.915C98.8204 113.915 100.451 115.945 100.671 118.447Z" fill="black"/>
<path d="M99.5861 118.447C99.798 120.949 98.5265 122.971 96.7251 122.971C94.9238 122.971 93.3018 120.949 93.0818 118.447C92.8617 115.945 94.1414 113.915 95.9345 113.915C97.7277 113.915 99.366 115.945 99.5861 118.447Z" fill="#BF2132"/>
<path opacity="0.3" d="M97.3277 119.107L97.181 117.786H97.4336C97.1076 116.49 96.1947 115.521 95.1922 115.521C94.1896 115.521 93.4561 116.49 93.3501 117.786H93.5213L93.668 119.107H93.4724C93.7984 120.403 94.7113 121.365 95.7057 121.365C96.7001 121.365 97.4499 120.403 97.5477 119.107H97.3277Z" fill="white"/>
<path d="M85.6157 119.001L89.1776 111.992L92.0548 118.789C92.0548 118.789 89.1694 122.457 86.1944 121.927L85.6157 119.001Z" fill="#DBB178"/>
<path d="M94.7121 109.408L96.8069 115.236L92.0468 118.789L89.1777 111.992L94.7121 109.408Z" fill="#DBB178"/>
<path d="M86.5527 126.548L89.976 120.786L89.6174 118.438L86.6016 117.371L82.3062 124.054L86.5527 126.548Z" fill="#DBB178"/>
<path d="M89.0227 122.962L82.771 136.721C82.771 136.721 85.8112 133.99 87.4903 133.599C90.1638 132.972 98.233 135.409 90.0578 144.285C90.0578 144.285 73.8704 154.4 70.5693 150.479C68.0018 147.431 78.9076 128.904 83.904 120.786L89.0227 122.962Z" fill="#BF2132"/>
<path opacity="0.6" d="M89.0227 122.962L82.771 136.721C82.771 136.721 85.8112 133.99 87.4903 133.599C90.1638 132.972 98.233 135.409 90.0578 144.285C90.0578 144.285 73.8704 154.4 70.5693 150.479C68.0018 147.431 78.9076 128.904 83.904 120.786L89.0227 122.962Z" fill="white"/>
<path opacity="0.2" d="M82.7711 136.721L81.0269 142.092L86.1455 134.219C84.9517 134.956 83.8228 135.793 82.7711 136.721V136.721Z" fill="black"/>
<path d="M106.188 124.519C105.504 124.536 104.819 124.493 104.142 124.388C102.398 123.761 100.71 122.987 99.0972 122.074L99.4232 121.487C100.99 122.366 102.625 123.115 104.314 123.728C106.05 123.872 107.794 123.872 109.53 123.728L109.579 124.405C109.449 124.405 107.737 124.519 106.188 124.519Z" fill="#BF2132"/>
<path d="M106.922 124.658L110.182 124.413C110.182 124.413 110.093 123.402 108.552 123.443C107.012 123.484 106.922 124.658 106.922 124.658Z" fill="#BF2132"/>
<g opacity="0.5">
<path d="M106.188 124.519C105.504 124.536 104.819 124.493 104.142 124.388C102.398 123.761 100.71 122.987 99.0972 122.074L99.4232 121.487C100.99 122.366 102.625 123.115 104.314 123.728C106.05 123.872 107.794 123.872 109.53 123.728L109.579 124.405C109.449 124.405 107.737 124.519 106.188 124.519Z" fill="black"/>
<path d="M106.922 124.658L110.182 124.413C110.182 124.413 110.093 123.402 108.552 123.443C107.012 123.484 106.922 124.658 106.922 124.658Z" fill="black"/>
</g>
<path d="M236.755 288.163C236.584 288.169 236.413 288.142 236.252 288.082C236.092 288.023 235.944 287.932 235.819 287.816C235.693 287.699 235.591 287.559 235.52 287.403C235.449 287.247 235.409 287.079 235.402 286.908L227.252 192.538C227.237 191.724 226.919 190.945 226.36 190.354C225.8 189.762 225.04 189.402 224.228 189.343H185.723C184.911 189.402 184.151 189.762 183.591 190.354C183.032 190.945 182.714 191.724 182.699 192.538L174.549 286.908C174.548 287.082 174.512 287.255 174.443 287.416C174.374 287.576 174.273 287.721 174.147 287.842C174.02 287.963 173.871 288.057 173.708 288.119C173.545 288.181 173.37 288.21 173.196 288.204V288.204C172.843 288.132 172.532 287.928 172.326 287.634C172.119 287.34 172.034 286.978 172.087 286.622L180.238 192.245C180.523 188.943 182.879 186.458 185.723 186.458H224.228C227.072 186.458 229.428 188.943 229.713 192.245L237.864 286.622C237.917 286.978 237.832 287.34 237.625 287.634C237.419 287.928 237.108 288.132 236.755 288.204V288.163Z" fill="#BF2132"/>
<g opacity="0.4">
<path d="M236.755 288.163C236.584 288.169 236.413 288.142 236.252 288.082C236.092 288.023 235.944 287.932 235.819 287.816C235.693 287.699 235.591 287.559 235.52 287.403C235.449 287.247 235.409 287.079 235.402 286.908L227.252 192.538C227.237 191.724 226.919 190.945 226.36 190.354C225.8 189.762 225.04 189.402 224.228 189.343H185.723C184.911 189.402 184.151 189.762 183.591 190.354C183.032 190.945 182.714 191.724 182.699 192.538L174.549 286.908C174.548 287.082 174.512 287.255 174.443 287.416C174.374 287.576 174.273 287.721 174.147 287.842C174.02 287.963 173.871 288.057 173.708 288.119C173.545 288.181 173.37 288.21 173.196 288.204V288.204C172.843 288.132 172.532 287.928 172.326 287.634C172.119 287.34 172.034 286.978 172.087 286.622L180.238 192.245C180.523 188.943 182.879 186.458 185.723 186.458H224.228C227.072 186.458 229.428 188.943 229.713 192.245L237.864 286.622C237.917 286.978 237.832 287.34 237.625 287.634C237.419 287.928 237.108 288.132 236.755 288.204V288.163Z" fill="black"/>
</g>
<path d="M236.218 182.374H131.554C130.64 182.374 129.899 183.114 129.899 184.028V189.391C129.899 190.305 130.64 191.046 131.554 191.046H236.218C237.131 191.046 237.872 190.305 237.872 189.391V184.028C237.872 183.114 237.131 182.374 236.218 182.374Z" fill="#263238"/>
<path opacity="0.2" d="M190.491 182.374H236.217C236.649 182.374 237.064 182.545 237.369 182.851C237.675 183.157 237.847 183.571 237.847 184.004V189.367C237.847 189.799 237.675 190.214 237.369 190.52C237.064 190.825 236.649 190.997 236.217 190.997H190.491V182.374Z" fill="white"/>
<path d="M194.583 288.163C194.408 288.17 194.233 288.142 194.068 288.081C193.904 288.019 193.754 287.925 193.627 287.804C193.5 287.683 193.398 287.538 193.329 287.377C193.259 287.216 193.223 287.042 193.222 286.867L185.071 192.497C185.057 191.683 184.739 190.904 184.179 190.313C183.62 189.721 182.859 189.361 182.047 189.302H143.543C142.732 189.363 141.974 189.724 141.416 190.315C140.858 190.906 140.541 191.684 140.527 192.497L132.376 286.907C132.375 287.082 132.339 287.255 132.27 287.415C132.201 287.576 132.101 287.721 131.974 287.842C131.848 287.963 131.699 288.057 131.536 288.119C131.372 288.181 131.198 288.21 131.023 288.203V288.203C130.666 288.128 130.352 287.917 130.148 287.614C129.944 287.311 129.866 286.941 129.931 286.581L138.082 192.204C138.367 188.902 140.731 186.417 143.567 186.417H182.072C184.916 186.417 187.272 188.902 187.557 192.204L195.708 286.581C195.761 286.936 195.677 287.297 195.472 287.591C195.268 287.885 194.958 288.089 194.607 288.163H194.583Z" fill="#BF2132"/>
<g opacity="0.4">
<path d="M194.583 288.163C194.408 288.17 194.233 288.142 194.068 288.081C193.904 288.019 193.754 287.925 193.627 287.804C193.5 287.683 193.398 287.538 193.329 287.377C193.259 287.216 193.223 287.042 193.222 286.867L185.071 192.497C185.057 191.683 184.739 190.904 184.179 190.313C183.62 189.721 182.859 189.361 182.047 189.302H143.543C142.732 189.363 141.974 189.724 141.416 190.315C140.858 190.906 140.541 191.684 140.527 192.497L132.376 286.907C132.375 287.082 132.339 287.255 132.27 287.415C132.201 287.576 132.101 287.721 131.974 287.842C131.848 287.963 131.699 288.057 131.536 288.119C131.372 288.181 131.198 288.21 131.023 288.203V288.203C130.666 288.128 130.352 287.917 130.148 287.614C129.944 287.311 129.866 286.941 129.931 286.581L138.082 192.204C138.367 188.902 140.731 186.417 143.567 186.417H182.072C184.916 186.417 187.272 188.902 187.557 192.204L195.708 286.581C195.761 286.936 195.677 287.297 195.472 287.591C195.268 287.885 194.958 288.089 194.607 288.163H194.583Z" fill="black"/>
</g>
<path d="M164.434 178.103H194.64V180.948C194.64 181.326 194.49 181.689 194.223 181.956C193.955 182.224 193.592 182.374 193.214 182.374H165.86C165.482 182.374 165.119 182.224 164.851 181.956C164.584 181.689 164.434 181.326 164.434 180.948V178.119V178.103Z" fill="#263238"/>
<path opacity="0.2" d="M164.434 178.103H194.64V180.948C194.64 181.326 194.49 181.689 194.223 181.956C193.955 182.224 193.592 182.374 193.214 182.374H165.86C165.482 182.374 165.119 182.224 164.851 181.956C164.584 181.689 164.434 181.326 164.434 180.948V178.119V178.103Z" fill="white"/>
<path d="M143.07 178.103H173.277V180.948C173.277 181.326 173.127 181.689 172.859 181.956C172.592 182.224 172.229 182.374 171.851 182.374H144.497C144.118 182.374 143.756 182.224 143.488 181.956C143.221 181.689 143.07 181.326 143.07 180.948V178.119V178.103Z" fill="#263238"/>
<path opacity="0.6" d="M143.07 178.103H173.277V180.948C173.277 181.326 173.127 181.689 172.859 181.956C172.592 182.224 172.229 182.374 171.851 182.374H144.497C144.118 182.374 143.756 182.224 143.488 181.956C143.221 181.689 143.07 181.326 143.07 180.948V178.119V178.103Z" fill="white"/>
<path d="M169.781 179.725H166.977V180.735H169.781V179.725Z" fill="#263238"/>
<path d="M165.29 179.725H162.486V180.735H165.29V179.725Z" fill="#263238"/>
<path d="M196.767 182.374H198.21C198.605 182.366 198.984 182.219 199.282 181.96C199.58 181.701 199.777 181.345 199.84 180.956L204.731 150.887C204.769 150.649 204.756 150.405 204.692 150.171C204.629 149.938 204.516 149.721 204.362 149.535C204.207 149.349 204.015 149.198 203.797 149.093C203.58 148.987 203.342 148.929 203.101 148.923L179.651 148.882L173.31 182.3H174.752L196.767 182.374Z" fill="#263238"/>
<path opacity="0.6" d="M196.767 182.374H198.21C198.605 182.366 198.984 182.219 199.282 181.96C199.58 181.701 199.777 181.345 199.84 180.956L204.731 150.887C204.769 150.649 204.756 150.405 204.692 150.171C204.629 149.938 204.516 149.721 204.362 149.535C204.207 149.349 204.015 149.198 203.797 149.093C203.58 148.987 203.342 148.929 203.101 148.923L179.651 148.882L173.31 182.3H174.752L196.767 182.374Z" fill="white"/>
<path opacity="0.2" d="M173.676 180.197L173.269 182.333H174.711L196.718 182.374H198.161C198.556 182.365 198.935 182.219 199.233 181.96C199.531 181.7 199.728 181.345 199.791 180.955L199.905 180.246L173.676 180.197Z" fill="black"/>
<path d="M173.302 182.358H174.761C175.155 182.35 175.535 182.204 175.833 181.944C176.13 181.685 176.328 181.33 176.391 180.94L181.281 150.856C181.32 150.617 181.307 150.374 181.243 150.141C181.179 149.908 181.066 149.692 180.912 149.506C180.757 149.321 180.565 149.171 180.347 149.066C180.13 148.961 179.893 148.904 179.651 148.899V148.899L173.302 182.358Z" fill="#263238"/>
<path opacity="0.3" d="M173.302 182.358H174.761C175.155 182.35 175.535 182.204 175.833 181.944C176.13 181.685 176.328 181.33 176.391 180.94L181.281 150.856C181.32 150.617 181.307 150.374 181.243 150.141C181.179 149.908 181.066 149.692 180.912 149.506C180.757 149.321 180.565 149.171 180.347 149.066C180.13 148.961 179.893 148.904 179.651 148.899V148.899L173.302 182.358Z" fill="white"/>
</svg>
