<svg width="344" height="299" viewBox="0 0 344 299" fill="none" xmlns="http://www.w3.org/2000/svg">
<path d="M274.789 248.033C274.789 248.033 301.025 241.189 321.555 206.973C344.565 168.616 334.694 101.689 304.044 69.1749C275.611 39.0217 212.661 33.7182 176.135 48.4312C141.619 62.3402 115.11 95.7697 94.0155 100.329C72.921 104.888 46.677 97.4805 18.1662 128.84C-10.3447 160.199 -4.07451 230.925 28.4311 254.303C60.9367 277.681 108.84 250.308 150.473 231.489C192.105 212.67 198.94 253.73 274.789 248.033Z" fill="#BF2132"/>
<g opacity="0.7">
<path d="M274.789 248.033C274.789 248.033 301.025 241.189 321.555 206.973C344.565 168.616 334.694 101.689 304.044 69.1749C275.611 39.0217 212.661 33.7182 176.135 48.4312C141.619 62.3402 115.11 95.7697 94.0155 100.329C72.921 104.888 46.677 97.4805 18.1662 128.84C-10.3447 160.199 -4.07451 230.925 28.4311 254.303C60.9367 277.681 108.84 250.308 150.473 231.489C192.105 212.67 198.94 253.73 274.789 248.033Z" fill="white"/>
</g>
<path d="M266.099 178.967V178.916C259.119 176.598 248.409 177.385 246.818 178.334C245.127 179.466 243.673 180.92 242.541 182.611C238.781 187.945 236.086 193.955 234.603 200.31L158.685 207.367C155.888 201.328 151.671 195.913 147.436 192.645C146.227 191.632 144.832 190.862 143.33 190.378C142.669 190.299 142 190.322 141.346 190.447C138.591 182.466 134.691 174.767 129.815 174.279C119.55 173.253 101.638 176.692 96.7533 186.649C91.8689 196.606 90.3378 221.464 90.3378 221.464L86.9161 224.886C84.4205 220.024 80.9495 215.729 76.7196 212.268C75.5138 211.249 74.1183 210.479 72.6136 210.001C71.7582 209.762 68.3366 210.292 64.7524 211.464C64.607 211.327 64.4701 211.19 64.3162 211.062C60.8945 208.196 53.8801 206.631 49.9624 213.936C46.0446 221.242 50.7493 235.074 53.0932 238.204C54.2315 239.804 55.6589 241.176 57.3018 242.25C60.0648 249.094 65.0005 257.819 72.5965 258.221C75.1984 258.361 77.7999 257.94 80.2248 256.987C82.6496 256.033 84.8412 254.57 86.6509 252.695C91.5781 247.563 92.1085 240.351 90.2522 233.294L91.0478 232.131C91.0478 232.131 92.8185 234.654 99.6019 233.636C101.568 233.434 103.433 232.661 104.965 231.412C108.147 239.53 113.288 247.665 121.458 248.88C124.964 249.416 128.544 249.191 131.955 248.22C135.367 247.249 138.529 245.554 141.226 243.251C142.794 241.897 144.162 240.328 145.289 238.589C149.863 238.337 154.172 236.363 157.351 233.063C160.194 230.031 161.821 226.056 161.919 221.9L172.021 220.72C178.363 223.548 185.282 224.844 192.217 224.501C198.859 224.074 205.145 221.353 210.001 216.802L233.02 214.834C233.405 223.756 236.613 231.943 244.141 236.451C247.023 238.171 250.243 239.246 253.581 239.602C256.918 239.958 260.293 239.586 263.473 238.512C274.089 234.954 276.603 219.18 277.288 209.591C278.349 194.193 273.438 181.148 266.099 178.967Z" fill="#263238" stroke="#263238" stroke-width="0.75" stroke-linecap="round" stroke-linejoin="round"/>
<path d="M125.555 243.927C124.672 245.056 123.546 245.971 122.261 246.605" stroke="white" stroke-width="0.5" stroke-linecap="round" stroke-linejoin="round"/>
<path d="M129.704 223.654C129.704 223.654 130.722 234.774 126.932 241.831" stroke="white" stroke-width="0.5" stroke-linecap="round" stroke-linejoin="round"/>
<path d="M132.706 235.938C131.739 240.215 129.815 244.363 126.085 246.202" stroke="white" stroke-width="0.5" stroke-linecap="round" stroke-linejoin="round"/>
<path d="M137.351 222.807C137.351 222.807 139.062 241.292 129.917 245.757" stroke="white" stroke-width="0.5" stroke-linecap="round" stroke-linejoin="round"/>
<path d="M141.183 222.379C141.183 222.379 142.894 240.873 133.741 245.33" stroke="white" stroke-width="0.5" stroke-linecap="round" stroke-linejoin="round"/>
<path d="M256.586 235.338C255.603 236.58 254.382 237.612 252.994 238.375" stroke="white" stroke-width="0.5" stroke-linecap="round" stroke-linejoin="round"/>
<path d="M263.464 212.251C263.464 212.251 262.917 224.903 258.221 232.952" stroke="white" stroke-width="0.5" stroke-linecap="round" stroke-linejoin="round"/>
<path d="M264.687 226.263C263.148 231.13 260.684 235.852 256.792 237.905" stroke="white" stroke-width="0.5" stroke-linecap="round" stroke-linejoin="round"/>
<path d="M271.061 211.31C271.061 211.31 270.145 232.387 260.59 237.434" stroke="white" stroke-width="0.5" stroke-linecap="round" stroke-linejoin="round"/>
<path d="M274.875 210.848C274.875 210.848 273.96 231.917 264.405 236.972" stroke="white" stroke-width="0.5" stroke-linecap="round" stroke-linejoin="round"/>
<path d="M75.0086 255.364C74.2807 256.48 73.3208 257.425 72.1943 258.136" stroke="white" stroke-width="0.5" stroke-linecap="round" stroke-linejoin="round"/>
<path d="M76.3602 237.375C76.3602 237.375 78.7725 246.785 76.0522 253.363" stroke="white" stroke-width="0.5" stroke-linecap="round" stroke-linejoin="round"/>
<path d="M80.8338 247.477C80.4488 251.284 79.1229 255.116 75.8125 257.22" stroke="white" stroke-width="0.5" stroke-linecap="round" stroke-linejoin="round"/>
<path d="M83.5797 235.544C83.5797 235.544 87.6001 251.156 79.4224 256.297" stroke="white" stroke-width="0.5" stroke-linecap="round" stroke-linejoin="round"/>
<path d="M87.189 234.62C87.189 234.62 91.218 250.231 83.0317 255.381" stroke="white" stroke-width="0.5" stroke-linecap="round" stroke-linejoin="round"/>
<path d="M116.676 217.316C118.712 228.958 117.437 238.915 113.844 239.556C110.252 240.198 105.675 231.25 103.639 219.608C101.603 207.966 102.878 198.009 106.479 197.367C110.08 196.726 114.64 205.665 116.676 217.316Z" fill="#BF2132" stroke="#263238" stroke-linecap="round" stroke-linejoin="round"/>
<path d="M114.862 217.563C115.426 222.029 114.904 225.767 113.681 225.921C112.458 226.075 111.021 222.585 110.456 218.119C109.892 213.654 110.456 209.907 111.637 209.753C112.817 209.599 114.297 213.098 114.862 217.563Z" fill="#BF2132" stroke="#263238" stroke-linecap="round" stroke-linejoin="round"/>
<path d="M106.282 206.888C106.404 205.389 106.641 203.902 106.992 202.439" stroke="#263238" stroke-width="0.75" stroke-linecap="round" stroke-linejoin="round"/>
<path d="M111.954 235.356C109.586 230.616 107.893 225.569 106.924 220.36C106.28 216.676 106.019 212.935 106.145 209.197" stroke="#263238" stroke-width="0.75" stroke-linecap="round" stroke-linejoin="round"/>
<path d="M66.3329 251.915C68.9188 251.198 69.1341 243.83 66.8138 235.458C64.4935 227.085 60.5162 220.879 57.9303 221.596C55.3444 222.313 55.129 229.681 57.4493 238.053C59.7696 246.426 63.7469 252.632 66.3329 251.915Z" fill="#BF2132" stroke="#263238" stroke-linecap="round" stroke-linejoin="round"/>
<path d="M65.9672 235.792C66.7799 238.974 66.7371 241.729 65.8646 241.951C64.9921 242.173 63.6405 239.77 62.8279 236.596C62.0152 233.423 62.058 230.651 62.9305 230.437C63.803 230.223 65.1546 232.61 65.9672 235.792Z" stroke="#263238" stroke-width="0.75" stroke-linecap="round" stroke-linejoin="round"/>
<path d="M58.7984 228.838C58.7507 227.741 58.7879 226.643 58.9097 225.553" stroke="#263238" stroke-width="0.75" stroke-linecap="round" stroke-linejoin="round"/>
<path d="M65.4624 248.931C63.3234 245.714 61.6448 242.212 60.4753 238.53C59.676 235.922 59.1485 233.239 58.9014 230.523" stroke="#263238" stroke-width="0.75" stroke-linecap="round" stroke-linejoin="round"/>
<path d="M249.7 92.5707C240.684 73.9655 236.792 72.3488 230.796 72.0409C224.799 71.7329 210.642 69.9708 194.868 72.4942C194.868 72.4942 150.866 71.7244 116.821 92.3483C81.2784 113.879 63.982 132.792 61.5612 142.595C59.1404 152.398 50.8771 177.941 46.9593 192.585C43.0415 207.23 40.3727 220.13 45.3683 231.986C48.3879 239.154 51.6042 241.31 55.7358 241.275C55.1037 240.141 54.5465 238.967 54.0678 237.76C49.9618 227.589 50.458 213.038 55.1456 212.097C59.8333 211.156 62.6305 220.899 65.4619 231.524C66.0239 233.865 66.7851 236.155 67.7373 238.367C74.7431 235.724 85.9661 229.813 100.884 223.671C99.4682 214.34 99.4365 204.851 100.79 195.511C102.997 180.909 112.33 177.684 116.393 186.572C119.755 193.894 121.004 210.284 121.337 215.81C127.325 213.748 132.338 212.388 135.426 212.2C135.426 212.2 186.477 200.669 224.106 199.745C261.736 198.821 280.563 197.923 280.563 197.923C280.563 197.923 258.716 111.142 249.7 92.5707Z" fill="white"/>
<path d="M129.395 182.337C129.395 182.337 124.22 189.42 117.924 190.934C120.148 199.095 121.064 211.173 121.346 215.741C126.692 213.902 131.235 212.61 134.348 212.234C134.802 209.565 135.075 207.863 135.075 207.863L129.395 182.337Z" fill="#BF2132"/>
<path opacity="0.2" d="M65.6842 232.294C68.0622 232.533 69.6447 233.56 74.4778 232.353C83.0319 230.223 76.8815 213.714 91.0728 206.973C93.8276 205.584 96.8254 204.742 99.9006 204.493C100.028 201.472 100.314 198.459 100.756 195.468C101.133 192.53 102 189.676 103.322 187.025C99.4472 185.836 98.7458 184.699 92.142 187.838C77.9422 194.579 80.0722 211.969 71.5608 214.099C64.7689 215.81 64.3925 213.081 59.2344 214.347C61.6466 217.769 63.5114 224.432 65.3933 231.455C65.5388 231.772 65.6072 232.003 65.6842 232.294Z" fill="#BF2132"/>
<g style="mix-blend-mode:multiply">
<path opacity="0.2" d="M51.7158 217.674C47.7381 220.412 45.3686 224.518 44.0171 227.982C44.3837 229.349 44.8351 230.692 45.3686 232.002C48.3882 239.171 51.6046 241.326 55.7362 241.292C55.1041 240.158 54.5469 238.984 54.0682 237.776C51.4592 231.301 50.7577 223.063 51.7158 217.674Z" fill="#BF2132"/>
</g>
<g style="mix-blend-mode:multiply" opacity="0.2">
<path d="M230.796 72.0409L229.247 71.9468C166.862 87.9087 141.482 163.099 132.749 199.335C133.219 202.936 133.732 206.469 134.288 209.907C135.349 209.702 134.613 212.2 135.426 212.157C135.426 212.157 186.477 200.626 224.106 199.702C261.736 198.779 280.564 197.88 280.564 197.88C280.564 197.88 258.716 111.142 249.7 92.5707C240.684 73.9998 236.792 72.3146 230.796 72.0409Z" fill="#BF2132"/>
</g>
<path d="M249.7 92.5707C240.684 73.9655 236.792 72.3488 230.796 72.0409C224.799 71.7329 210.642 69.9708 194.868 72.4942C194.868 72.4942 150.866 71.7244 116.821 92.3483C81.2784 113.879 63.982 132.792 61.5612 142.595C59.1404 152.398 50.8771 177.941 46.9593 192.585C43.0415 207.23 40.3727 220.13 45.3683 231.986C48.3879 239.154 51.6042 241.31 55.7358 241.275C55.1037 240.141 54.5465 238.967 54.0678 237.76C49.9618 227.589 50.458 213.038 55.1456 212.097C59.8333 211.156 62.6305 220.899 65.4619 231.524C66.0239 233.865 66.7851 236.155 67.7373 238.367C74.7431 235.724 85.9661 229.813 100.884 223.671C99.4682 214.34 99.4365 204.851 100.79 195.511C102.997 180.909 112.33 177.684 116.393 186.572C119.755 193.894 121.004 210.284 121.337 215.81C127.325 213.748 132.338 212.388 135.426 212.2C135.426 212.2 186.477 200.669 224.106 199.745C261.736 198.821 280.563 197.923 280.563 197.923C280.563 197.923 258.716 111.142 249.7 92.5707Z" stroke="#263238" stroke-linecap="round" stroke-linejoin="round"/>
<path opacity="0.2" d="M62.9644 186.461C63.5516 186.949 64.2663 187.26 65.0242 187.355C65.782 187.451 66.5514 187.327 67.2414 187C69.936 185.922 70.2097 181.867 70.2097 181.867L74.2472 181.602L75.0599 168.934L66.1636 172.432C66.1636 172.432 63.777 184.844 62.9644 186.461Z" fill="#BF2132"/>
<path d="M51.2966 223.508C48.7423 224.866 46.327 226.47 44.0854 228.299C44.4401 229.552 44.8686 230.783 45.3686 231.985C48.3882 239.154 51.6045 241.309 55.7361 241.275C55.104 240.141 54.5468 238.966 54.0681 237.759C52.3145 233.209 51.3763 228.385 51.2966 223.508Z" fill="#263238" stroke="#263238" stroke-width="0.75" stroke-linecap="round" stroke-linejoin="round"/>
<path d="M64.9231 216.442C64.6916 216.441 64.4646 216.378 64.266 216.259C64.0673 216.14 63.9043 215.97 63.7939 215.767C63.6382 215.471 63.6047 215.126 63.7007 214.806C63.7967 214.486 64.0145 214.217 64.3072 214.056C64.5125 213.945 81.1588 203.628 94.948 196.297C95.0968 196.218 95.2598 196.169 95.4276 196.153C95.5954 196.137 95.7648 196.154 95.9261 196.203C96.0873 196.252 96.2373 196.333 96.3674 196.44C96.4975 196.547 96.6053 196.679 96.6845 196.828C96.7637 196.977 96.8128 197.14 96.829 197.307C96.8452 197.475 96.8282 197.645 96.7789 197.806C96.7297 197.967 96.6491 198.117 96.5419 198.247C96.4347 198.377 96.303 198.485 96.1541 198.564C82.3734 205.887 65.7357 216.194 65.5304 216.305C65.3431 216.403 65.1339 216.45 64.9231 216.442Z" fill="#263238" stroke="#263238" stroke-miterlimit="10"/>
<path d="M86.6849 130.697L86.0946 145.384C85.9663 147.386 87.1297 148.352 88.6609 147.488L112.313 132.091C113.183 131.485 113.884 130.667 114.35 129.716C114.817 128.764 115.035 127.709 114.982 126.651L114.836 110.27C114.665 108.781 113.656 108.174 112.416 108.815C107.967 111.116 99.3792 118.901 89.1142 126.146C88.4187 126.697 87.8441 127.386 87.4261 128.169C87.0082 128.952 86.7559 129.812 86.6849 130.697Z" fill="#BF2132" stroke="#263238" stroke-linecap="round" stroke-linejoin="round"/>
<path d="M145.375 103.409L147.804 140.191C147.867 141.253 148.146 142.291 148.623 143.241C149.101 144.192 149.767 145.035 150.581 145.719C151.395 146.404 152.34 146.915 153.358 147.222C154.377 147.529 155.447 147.625 156.504 147.505L238.213 136.898C239.338 136.768 240.423 136.396 241.39 135.806C242.358 135.216 243.186 134.423 243.817 133.482C244.448 132.541 244.867 131.474 245.046 130.355C245.224 129.236 245.158 128.092 244.851 127.001L234.534 90.5261C234.046 88.7927 232.974 87.2814 231.499 86.2478C230.025 85.2143 228.238 84.7222 226.442 84.8547C213.2 85.8299 181.439 88.6784 151.457 95.3591C149.657 95.7681 148.059 96.8003 146.946 98.2732C145.833 99.7461 145.277 101.565 145.375 103.409Z" fill="#BF2132" stroke="#263238" stroke-linecap="round" stroke-linejoin="round"/>
<path d="M182.431 171.833C182.431 171.833 211.515 166.255 231.446 166.649L232.644 171.439C232.644 171.439 190.797 173.424 182.825 177.427L182.431 171.833Z" fill="#263238" stroke="#263238" stroke-width="0.75" stroke-linecap="round" stroke-linejoin="round"/>
<path d="M182.824 177.411L183.68 182.201C183.768 182.735 184.062 183.213 184.498 183.532C184.935 183.852 185.479 183.988 186.015 183.912C193.312 182.868 218.923 179.352 232.207 179.678C232.534 179.688 232.859 179.62 233.156 179.481C233.452 179.341 233.711 179.134 233.912 178.876C234.113 178.617 234.25 178.315 234.312 177.993C234.374 177.672 234.359 177.34 234.269 177.026L232.678 171.457" stroke="#263238" stroke-linecap="round" stroke-linejoin="round"/>
<path d="M76.6934 168.95L76.5308 149.19L77.5145 128.874C77.5219 128.68 77.4705 128.488 77.367 128.323C77.2635 128.159 77.1127 128.029 76.9344 127.951C76.7561 127.874 76.5585 127.852 76.3674 127.888C76.1764 127.925 76.0008 128.018 75.8636 128.156C72.1853 131.92 65.8895 137.617 64.0247 142.287C61.6039 148.335 58.7383 178.103 58.7383 178.103L76.6934 168.95Z" fill="#263238" stroke="#263238" stroke-width="0.75" stroke-linecap="round" stroke-linejoin="round"/>
<path d="M53.9141 164.981H51.0485C49.5887 164.981 48.4053 166.165 48.4053 167.625V182.389C48.4053 183.849 49.5887 185.032 51.0485 185.032H53.9141C55.3739 185.032 56.5573 183.849 56.5573 182.389V167.625C56.5573 166.165 55.3739 164.981 53.9141 164.981Z" fill="#263238" stroke="#263238" stroke-width="0.75" stroke-linecap="round" stroke-linejoin="round"/>
<path d="M55.7192 151.192C57.0758 151.452 58.4006 151.856 59.6712 152.398C60.7248 152.917 61.6823 153.611 62.5026 154.451L66.7797 148.797C66.7797 148.797 60.5095 146.171 59.3205 144.571L58.14 142.963L55.7192 151.192Z" fill="white"/>
<g style="mix-blend-mode:multiply" opacity="0.5">
<path d="M59.312 144.571L58.2085 143.04L58.0802 143.126L55.7192 151.166C55.7192 151.166 56.1726 151.252 56.8142 151.406L62.9304 146.975C61.5937 146.39 60.3692 145.577 59.312 144.571Z" fill="#BF2132"/>
</g>
<path d="M55.7192 151.192C57.0758 151.452 58.4006 151.856 59.6712 152.398C60.7248 152.917 61.6823 153.611 62.5026 154.451L66.7797 148.797C66.7797 148.797 60.5095 146.171 59.3205 144.571L58.14 142.963L55.7192 151.192Z" stroke="#263238" stroke-width="0.75" stroke-linecap="round" stroke-linejoin="round"/>
<path d="M64.752 146.393L59.5254 153.057L60.2354 155.324L68.1993 147.052L64.752 146.393Z" fill="#BF2132" stroke="#263238" stroke-linecap="round" stroke-linejoin="round"/>
<path d="M56.386 127.565C52.8531 124.828 43.6489 126.573 41.844 133.057C40.7319 137.052 41.3478 143.04 41.3478 143.04L51.8352 140.816L52.6906 142.107C54.4014 144.674 58.1053 142.963 59.0634 142.107C59.5852 141.654 59.551 140.32 59.4141 139.216L59.8333 139.122C59.8333 139.122 59.9103 130.311 56.386 127.565Z" fill="#263238" stroke="#263238" stroke-width="0.75" stroke-linecap="round" stroke-linejoin="round"/>
<path d="M52.4684 140.029C47.8654 139.516 43.206 139.959 38.7818 141.329C31.9386 143.622 30.8864 145.607 35.7879 145.487C40.6894 145.367 52.4684 140.029 52.4684 140.029Z" fill="#263238" stroke="#263238" stroke-width="0.75" stroke-linecap="round" stroke-linejoin="round"/>
<path d="M44.0169 137.54C44.8153 137.54 45.4626 136.655 45.4626 135.564C45.4626 134.473 44.8153 133.588 44.0169 133.588C43.2185 133.588 42.5713 134.473 42.5713 135.564C42.5713 136.655 43.2185 137.54 44.0169 137.54Z" fill="#BF2132"/>
<path d="M76.5313 149.19C76.5313 149.19 67.1645 146.812 64.2818 149.002C61.399 151.192 60.6634 154.81 61.5872 159.198C62.5111 163.587 64.7608 175.126 64.7608 175.126L76.6938 168.95L76.5313 149.19Z" fill="#263238" stroke="#263238" stroke-width="0.75" stroke-linecap="round" stroke-linejoin="round"/>
<path d="M61.6645 173.288C61.6645 173.288 61.1598 177.719 60.5696 178.343C59.9793 178.968 44.4108 165.888 43.4613 164.657C42.5118 163.425 43.1619 159.028 43.4613 157.651C43.7607 156.274 43.256 155.521 41.7505 156.47C40.245 157.42 40.647 161.372 40.647 161.372C40.647 161.372 36.0535 160.268 35.1382 160.14C34.2229 160.012 33.4274 161.149 33.5642 162.056C33.7011 162.963 34.9072 163.04 34.9072 163.04C34.5987 164.353 34.685 165.728 35.1553 166.992C35.9594 168.651 36.8661 169.695 38.5769 170.106C40.3421 170.381 42.1292 170.49 43.9147 170.431C43.9147 170.431 51.87 178.01 54.1796 180.841C56.4892 183.672 61.3565 187.522 63.7773 186.829C66.1982 186.136 68.5078 174.049 68.5078 174.049L61.6645 173.288Z" fill="white"/>
<g style="mix-blend-mode:multiply" opacity="0.5">
<path d="M60.5692 178.343L65.1199 179.857C65.2643 180.812 65.0625 181.786 64.5511 182.605C64.0397 183.424 63.2524 184.033 62.3313 184.322C60.3211 184.989 56.7113 182.705 54.145 180.781L54.222 180.875C56.5744 183.715 61.3989 187.556 63.8197 186.863C66.2405 186.17 68.5501 174.083 68.5501 174.083L61.6641 173.228C61.6641 173.228 61.1594 177.718 60.5692 178.343Z" fill="#BF2132"/>
</g>
<path d="M61.6645 173.288C61.6645 173.288 61.1598 177.719 60.5696 178.343C59.9793 178.968 44.4108 165.888 43.4613 164.657C42.5118 163.425 43.1619 159.028 43.4613 157.651C43.7607 156.274 43.256 155.521 41.7505 156.47C40.245 157.42 40.647 161.372 40.647 161.372C40.647 161.372 36.0535 160.268 35.1382 160.14C34.2229 160.012 33.4274 161.149 33.5642 162.056C33.7011 162.963 34.9072 163.04 34.9072 163.04C34.5987 164.353 34.685 165.728 35.1553 166.992C35.9594 168.651 36.8661 169.695 38.5769 170.106C40.3421 170.381 42.1292 170.49 43.9147 170.431C43.9147 170.431 51.87 178.01 54.1796 180.841C56.4892 183.672 61.3565 187.522 63.7773 186.829C66.1982 186.136 68.5078 174.049 68.5078 174.049L61.6645 173.288Z" stroke="#263238" stroke-width="0.75" stroke-linecap="round" stroke-linejoin="round"/>
<path d="M46.1039 167.06L43.9141 170.465L45.0346 171.226L47.2758 168.018L46.1039 167.06Z" fill="#263238" stroke="#263238" stroke-miterlimit="10"/>
<path d="M45.3515 170.268C45.8239 170.268 46.2069 169.885 46.2069 169.413C46.2069 168.94 45.8239 168.557 45.3515 168.557C44.8791 168.557 44.4961 168.94 44.4961 169.413C44.4961 169.885 44.8791 170.268 45.3515 170.268Z" fill="white" stroke="#263238" stroke-width="0.75" stroke-linecap="round" stroke-linejoin="round"/>
<path d="M43.2554 144.135C43.2554 144.135 43.7772 145.426 44.6497 147.693C45.5222 149.96 50.2099 154.742 52.5024 155.015C54.7949 155.289 57.5407 146.957 57.977 145.238C58.1224 144.673 58.2678 143.767 58.2678 143.767C58.2678 143.767 61.1506 142.407 60.4833 140.764C59.8161 139.122 58.4646 138.369 57.823 138.874C57.1815 139.378 57.0703 141.508 56.1122 141.526C55.1541 141.543 54.6323 141.243 53.7855 140.114C52.9386 138.985 44.1621 141.329 43.2554 144.135Z" fill="white"/>
<path opacity="0.5" d="M53.7684 140.115C52.913 138.994 44.1621 141.338 43.2554 144.135L43.7515 145.401C47.0966 143.384 50.7317 141.892 54.5297 140.979C54.2459 140.719 53.9907 140.429 53.7684 140.115Z" fill="#BF2132"/>
<g style="mix-blend-mode:multiply">
<path opacity="0.5" d="M60.3718 140.534C59.6704 139.062 58.4301 138.395 57.8056 138.874C57.4142 139.385 57.1239 139.965 56.9502 140.585C58.0864 140.458 59.2323 140.44 60.3718 140.534Z" fill="#BF2132"/>
</g>
<path d="M43.2554 144.135C43.2554 144.135 43.7772 145.426 44.6497 147.693C45.5222 149.96 50.2099 154.742 52.5024 155.015C54.7949 155.289 57.5407 146.957 57.977 145.238C58.1224 144.673 58.2678 143.767 58.2678 143.767C58.2678 143.767 61.1506 142.407 60.4833 140.764C59.8161 139.122 58.4646 138.369 57.823 138.874C57.1815 139.378 57.0703 141.508 56.1122 141.526C55.1541 141.543 54.6323 141.243 53.7855 140.114C52.9386 138.985 44.1621 141.329 43.2554 144.135Z" stroke="#263238" stroke-width="0.75" stroke-linecap="round" stroke-linejoin="round"/>
<path d="M46.3606 144.75C46.5146 145.272 46.4633 145.751 46.258 145.811C46.0527 145.871 45.7533 145.495 45.5993 144.956C45.4453 144.417 45.4966 143.955 45.7019 143.895C45.9072 143.835 46.2066 144.246 46.3606 144.75Z" fill="#263238" stroke="#263238" stroke-miterlimit="10"/>
<path d="M44.7695 143.297C45.9671 142.955 46.4804 143.853 46.6258 144.683L46.8482 145.666L47.5924 149.473L48.7215 148.994" stroke="#263238" stroke-width="0.5" stroke-linecap="round" stroke-linejoin="round"/>
<path d="M49.6455 143.587C49.9057 143.302 50.2295 143.082 50.5907 142.945C50.9519 142.808 51.3402 142.759 51.7242 142.8" stroke="#263238" stroke-width="0.5" stroke-linecap="round" stroke-linejoin="round"/>
<path d="M50.6379 141.218C50.1512 141.32 49.7046 141.561 49.3523 141.912C49 142.262 48.7572 142.708 48.6533 143.194" stroke="#263238" stroke-width="0.5" stroke-linecap="round" stroke-linejoin="round"/>
<path d="M49.7397 150.226C49.7397 150.226 52.2204 149.729 52.4172 147.95" stroke="#263238" stroke-width="0.5" stroke-linecap="round" stroke-linejoin="round"/>
<path d="M70.7996 179.703L58.2764 176.213C58.2764 176.213 59.3798 154.827 61.3131 151.209C64.3241 145.589 71.2273 148.121 72.5275 155.187C73.7422 161.859 70.7996 179.703 70.7996 179.703Z" fill="#BF2132" stroke="#263238" stroke-linecap="round" stroke-linejoin="round"/>
<path d="M58.5762 173.835C58.5762 173.835 65.4195 175.409 69.5853 176.778" stroke="#263238" stroke-width="0.5" stroke-linecap="round" stroke-linejoin="round"/>
<path d="M69.4141 147.471C69.4141 147.471 73.4858 147.788 76.1461 149.978" stroke="#BF2132" stroke-width="0.5" stroke-linecap="round" stroke-linejoin="round"/>
<path d="M141.166 202.175C141.166 202.175 122.929 208.607 121.261 210.361C119.592 212.114 119.764 218.958 123.698 222.285C127.633 225.613 155.682 218.068 175.733 215.87C195.784 213.671 239.803 210.438 257.767 209.565C275.731 208.693 283.9 211.062 285.474 205.459C287.048 199.856 286.851 193.868 283.429 192.654C280.008 191.439 217.665 181.456 141.166 202.175Z" fill="#263238" stroke="#263238" stroke-width="0.75" stroke-linecap="round" stroke-linejoin="round"/>
<path d="M119.96 214.099C119.96 214.099 120.815 221.515 125.375 222.653C129.934 223.791 184.116 213.526 216.048 212.388C247.981 211.25 275.927 210.395 275.927 210.395" stroke="white" stroke-width="0.5" stroke-linecap="round" stroke-linejoin="round"/>
<path d="M146.427 217.863C167.607 212.731 211.173 205.477 284.482 207.538" stroke="white" stroke-width="0.5" stroke-linecap="round" stroke-linejoin="round"/>
<path d="M129.062 222.379C129.062 222.379 133.929 221.199 141.328 219.18" stroke="white" stroke-width="0.5" stroke-linecap="round" stroke-linejoin="round"/>
<path d="M133.527 223.227C133.757 226.407 133.671 229.601 133.271 232.764" stroke="white" stroke-width="0.5" stroke-linecap="round" stroke-linejoin="round"/>
<path d="M132.749 86.4375C132.749 86.4375 128.669 91.2192 128.352 95.5048" stroke="#263238" stroke-width="0.75" stroke-linecap="round" stroke-linejoin="round"/>
<path d="M127.924 98.9604C127.924 98.9604 124.854 147.813 132.98 199.805" stroke="#263238" stroke-width="0.75" stroke-linecap="round" stroke-linejoin="round"/>
<path d="M128.891 155.409C128.891 155.409 122.262 157.718 122.176 160.712C121.954 168.762 122.8 185.938 124.554 187.606C126.308 189.274 131.757 184.861 131.757 184.861C131.757 184.861 139.455 185.528 140.311 183.8C141.166 182.072 137.958 157.753 137.479 155.631C137 153.51 128.891 155.409 128.891 155.409Z" fill="#BF2132" stroke="#263238" stroke-linecap="round" stroke-linejoin="round"/>
<path d="M267.365 166.992C269.09 167.835 270.965 168.329 272.882 168.446C270.761 160.473 268.357 151.594 265.876 142.732C263.635 142.578 260.744 142.578 260.804 143.587C260.846 145.315 265.2 165.743 267.365 166.992Z" fill="#BF2132" stroke="#263238" stroke-linecap="round" stroke-linejoin="round"/>
<path d="M127.941 157.924C127.941 157.924 128.232 173.322 129.369 179.31" stroke="#263238" stroke-width="0.75" stroke-linecap="round" stroke-linejoin="round"/>
<path d="M207.905 161.483C207.905 161.483 246.073 155.332 290.546 163.193" stroke="#263238" stroke-linecap="round" stroke-linejoin="round"/>
<path d="M324.104 185.597C326.731 186.384 329.314 187.213 331.803 188.103" stroke="#263238" stroke-linecap="round" stroke-linejoin="round"/>
<path d="M255.577 173.98C255.577 173.98 285.842 175.819 314.823 183.064" stroke="#263238" stroke-linecap="round" stroke-linejoin="round"/>
<path d="M163.466 244.458C188.386 240.649 213.703 240.198 238.742 243.115" stroke="#263238" stroke-linecap="round" stroke-linejoin="round"/>
<path d="M160.335 240.428C160.335 240.428 178.248 238.187 184.073 237.742" stroke="#263238" stroke-linecap="round" stroke-linejoin="round"/>
<path d="M280.298 74.2905C282.865 74.6584 285.431 75.1459 287.758 75.702" stroke="#263238" stroke-linecap="round" stroke-linejoin="round"/>
<path d="M243.421 73.4436C253.961 72.6991 264.543 72.7706 275.072 73.6575" stroke="#263238" stroke-linecap="round" stroke-linejoin="round"/>
<path d="M105.41 177.068C105.41 177.068 130.97 164.964 167.949 161.603" stroke="#263238" stroke-linecap="round" stroke-linejoin="round"/>
<path d="M148.454 154.87C148.454 154.87 163.928 150.841 187.469 149.49" stroke="#263238" stroke-linecap="round" stroke-linejoin="round"/>
<path d="M104.99 240.334C108.097 245.898 113.109 250.151 119.105 252.31" stroke="#263238" stroke-linecap="round" stroke-linejoin="round"/>
<path d="M104.135 244.184C104.135 244.184 107.984 250.172 113.117 252.738" stroke="#263238" stroke-linecap="round" stroke-linejoin="round"/>
<path d="M230.308 222.798C230.308 222.798 232.874 234.774 243.139 239.907" stroke="#263238" stroke-linecap="round" stroke-linejoin="round"/>
<path d="M231.591 233.491C233.626 236.47 236.436 238.837 239.718 240.334" stroke="#263238" stroke-linecap="round" stroke-linejoin="round"/>
<path d="M62.3564 256.553C62.3564 256.553 64.9227 260.83 73.9045 260.83" stroke="#263238" stroke-linecap="round" stroke-linejoin="round"/>
<path d="M60.646 259.119C63.9183 261.84 67.9517 263.484 72.194 263.824" stroke="#263238" stroke-linecap="round" stroke-linejoin="round"/>
<path d="M176.28 248.563C153.562 249.799 131.011 253.173 108.925 258.64L109.456 259.435C109.456 259.435 128.275 255.44 163.056 263.995C197.837 272.549 200.129 279.392 238.332 279.392C276.535 279.392 313.608 270.273 313.608 270.273L308.972 267.707C274.67 253.191 227.656 245.689 176.28 248.563Z" fill="#BF2132"/>
<path opacity="0.5" d="M176.28 248.563C153.562 249.799 131.011 253.173 108.925 258.64L109.456 259.435C109.456 259.435 128.275 255.44 163.056 263.995C197.837 272.549 200.129 279.392 238.332 279.392C276.535 279.392 313.608 270.273 313.608 270.273L308.972 267.707C274.67 253.191 227.656 245.689 176.28 248.563Z" fill="white"/>
<path d="M92.5869 268.135C92.5869 268.135 137.496 261.292 176.417 287.382" stroke="#263238" stroke-linecap="round" stroke-linejoin="round"/>
<path d="M139.635 277.972C139.635 277.972 158.026 283.532 169.146 295.508" stroke="#263238" stroke-linecap="round" stroke-linejoin="round"/>
<path d="M248.272 256.159C248.272 256.159 274.362 258.725 297.886 272.84" stroke="#263238" stroke-linecap="round" stroke-linejoin="round"/>
<path d="M329.622 278.263C334.32 281.138 338.792 284.367 343 287.921" stroke="#263238" stroke-linecap="round" stroke-linejoin="round"/>
<path d="M23.564 298.442C54.7437 271.925 111.081 252.25 176.28 248.563C235.791 245.184 289.468 255.843 324.267 275.081" stroke="#263238" stroke-linecap="round" stroke-linejoin="round"/>
<path d="M213.627 255.731C213.627 255.731 240.573 257.015 258.537 263.002" stroke="#263238" stroke-linecap="round" stroke-linejoin="round"/>
<path d="M91.4578 52.6566C91.4578 52.6566 90.6024 40.8263 73.2803 40.3986C55.9582 39.9709 60.5946 52.2375 55.9497 55.1972C51.3048 58.1569 50.0302 53.4864 45.3768 56.4632C40.7234 59.44 42.8106 65.3424 39.0382 66.1892C35.2658 67.0361 30.159 62.3827 25.5142 65.3338C20.8693 68.285 20.8607 70.8256 18.7479 70.8256C16.635 70.8256 12.4093 69.1148 9.87725 70.8256C7.34523 72.5364 4.37695 74.6065 4.37695 74.6065H111.303C111.303 74.6065 112.569 70.7999 107.882 68.2679C103.194 65.7359 101.115 67.8402 99.4302 65.7017C97.745 63.5631 104.135 58.1569 91.4578 52.6566Z" fill="#BF2132"/>
<path d="M154.989 7.38018C154.989 7.38018 154.475 0.263153 144.056 0.00653005C133.638 -0.250093 136.426 7.1321 133.629 8.91136C130.832 10.6906 130.071 7.89342 127.273 9.67267C124.476 11.4519 125.751 15.0104 123.458 15.5151C121.166 16.0198 118.12 13.2312 115.323 15.0104C112.526 16.7897 112.526 18.3123 111.251 18.3123C109.977 18.3123 107.436 17.3029 105.914 18.3123C104.391 19.3217 102.612 20.6048 102.612 20.6048H166.939C166.939 20.6048 167.7 18.3123 164.903 16.7897C162.106 15.2671 160.84 16.5331 159.822 15.2671C158.804 14.001 162.619 10.6906 154.989 7.38018Z" fill="#BF2132"/>
<path opacity="0.7" d="M91.4578 52.6566C91.4578 52.6566 90.6024 40.8263 73.2803 40.3986C55.9582 39.9709 60.5946 52.2375 55.9497 55.1972C51.3048 58.1569 50.0302 53.4864 45.3768 56.4632C40.7234 59.44 42.8106 65.3424 39.0382 66.1892C35.2658 67.0361 30.159 62.3827 25.5142 65.3338C20.8693 68.285 20.8607 70.8256 18.7479 70.8256C16.635 70.8256 12.4093 69.1148 9.87725 70.8256C7.34523 72.5364 4.37695 74.6065 4.37695 74.6065H111.303C111.303 74.6065 112.569 70.7999 107.882 68.2679C103.194 65.7359 101.115 67.8402 99.4302 65.7017C97.745 63.5631 104.135 58.1569 91.4578 52.6566Z" fill="white"/>
<path opacity="0.8" d="M154.989 7.38018C154.989 7.38018 154.475 0.263153 144.056 0.00653005C133.638 -0.250093 136.426 7.1321 133.629 8.91136C130.832 10.6906 130.071 7.89342 127.273 9.67267C124.476 11.4519 125.751 15.0104 123.458 15.5151C121.166 16.0198 118.12 13.2312 115.323 15.0104C112.526 16.7897 112.526 18.3123 111.251 18.3123C109.977 18.3123 107.436 17.3029 105.914 18.3123C104.391 19.3217 102.612 20.6048 102.612 20.6048H166.939C166.939 20.6048 167.7 18.3123 164.903 16.7897C162.106 15.2671 160.84 16.5331 159.822 15.2671C158.804 14.001 162.619 10.6906 154.989 7.38018Z" fill="white"/>
</svg>
