<svg width="146" height="188" viewBox="0 0 146 188" fill="none" xmlns="http://www.w3.org/2000/svg">
    <path d="M136.68 23.95H9.33C4.83993 23.95 1.2 27.5899 1.2 32.08V178.59C1.2 183.08 4.83993 186.72 9.33 186.72H136.68C141.17 186.72 144.81 183.08 144.81 178.59V32.08C144.81 27.5899 141.17 23.95 136.68 23.95Z" fill="#093358"/>
    <path d="M136.67 187.72H9.33C6.90939 187.717 4.58868 186.755 2.87704 185.043C1.16541 183.331 0.202644 181.011 0.199997 178.59V32.08C0.215829 29.6681 1.18441 27.3602 2.89462 25.6593C4.60483 23.9585 6.91802 23.0026 9.33 23H136.67C139.091 23.0026 141.411 23.9654 143.123 25.677C144.835 27.3887 145.797 29.7094 145.8 32.13V178.59C145.797 181.011 144.835 183.331 143.123 185.043C141.411 186.755 139.091 187.717 136.67 187.72ZM9.33 25C7.43901 25 5.62546 25.7512 4.28833 27.0883C2.9512 28.4255 2.2 30.239 2.2 32.13V178.59C2.2 179.526 2.38442 180.453 2.74274 181.319C3.10105 182.184 3.62625 182.97 4.28833 183.632C4.95041 184.294 5.73642 184.819 6.60147 185.177C7.46652 185.536 8.39368 185.72 9.33 185.72H136.67C137.606 185.72 138.533 185.536 139.399 185.177C140.264 184.819 141.05 184.294 141.712 183.632C142.374 182.97 142.899 182.184 143.257 181.319C143.616 180.453 143.8 179.526 143.8 178.59V32.08C143.787 30.1977 143.03 28.397 141.694 27.0706C140.358 25.7443 138.552 25 136.67 25H9.33Z" fill="#093F68"/>
    <path d="M128.63 32.25H17.38C15.077 32.25 13.21 34.117 13.21 36.42V172.96C13.21 175.263 15.077 177.13 17.38 177.13H128.63C130.933 177.13 132.8 175.263 132.8 172.96V36.42C132.8 34.117 130.933 32.25 128.63 32.25Z" fill="white"/>
    <path d="M128.62 178.13H17.38C16.0096 178.127 14.6962 177.582 13.7272 176.613C12.7582 175.644 12.2126 174.33 12.21 172.96V36.42C12.2126 35.0496 12.7582 33.7362 13.7272 32.7672C14.6962 31.7982 16.0096 31.2526 17.38 31.25H128.62C129.99 31.2526 131.304 31.7982 132.273 32.7672C133.242 33.7362 133.787 35.0496 133.79 36.42V173C133.777 174.363 133.227 175.667 132.259 176.627C131.291 177.587 129.983 178.127 128.62 178.13ZM17.38 33.25C16.5393 33.25 15.733 33.584 15.1385 34.1785C14.544 34.773 14.21 35.5793 14.21 36.42V173C14.21 173.841 14.544 174.647 15.1385 175.242C15.733 175.836 16.5393 176.17 17.38 176.17H128.62C129.461 176.17 130.267 175.836 130.862 175.242C131.456 174.647 131.79 173.841 131.79 173V36.42C131.79 35.5793 131.456 34.773 130.862 34.1785C130.267 33.584 129.461 33.25 128.62 33.25H17.38Z" fill="#093F68"/>
    <path d="M101.82 18.16H84.16L83.51 10.55C83.2944 8.02026 82.1368 5.6637 80.2663 3.94692C78.3958 2.23015 75.9489 1.27835 73.41 1.28H72.59C70.0511 1.27835 67.6041 2.23015 65.7337 3.94692C63.8632 5.6637 62.7055 8.02026 62.49 10.55L61.84 18.16H44.18C43.2644 18.1607 42.3619 18.3774 41.5459 18.7924C40.7298 19.2075 40.0232 19.8092 39.4834 20.5487C38.9436 21.2883 38.5859 22.1447 38.4394 23.0485C38.2928 23.9522 38.3615 24.8778 38.64 25.75L41.88 36C42.2656 37.1665 43.0099 38.1813 44.0066 38.8996C45.0033 39.618 46.2014 40.0031 47.43 40H98.57C99.7986 40.0031 100.997 39.618 101.993 38.8996C102.99 38.1813 103.734 37.1665 104.12 36L107.36 25.8C107.648 24.9248 107.724 23.9938 107.582 23.0834C107.44 22.173 107.084 21.3093 106.544 20.5634C106.003 19.8175 105.292 19.2107 104.471 18.7929C103.65 18.375 102.741 18.1581 101.82 18.16ZM73 17.35C72.1151 17.352 71.2495 17.0912 70.5128 16.6008C69.7762 16.1104 69.2017 15.4124 68.8622 14.5952C68.5226 13.778 68.4332 12.8784 68.6054 12.0104C68.7776 11.1424 69.2035 10.345 69.8292 9.71924C70.455 9.0935 71.2524 8.66757 72.1204 8.49542C72.9884 8.32326 73.888 8.41262 74.7052 8.75218C75.5224 9.09175 76.2204 9.66623 76.7108 10.4028C77.2012 11.1395 77.462 12.0051 77.46 12.89C77.46 14.0729 76.9901 15.2073 76.1537 16.0437C75.3173 16.8801 74.1829 17.35 73 17.35Z" fill="#FFBC0E"/>
    <path d="M98.57 41H47.43C45.982 41.0035 44.5706 40.5446 43.4015 39.6903C42.2324 38.8359 41.3665 37.6307 40.93 36.25L37.69 26.04C37.3623 25.0183 37.2806 23.9336 37.4517 22.8744C37.6227 21.8151 38.0417 20.8112 38.6743 19.9446C39.307 19.078 40.1355 18.3731 41.0922 17.8875C42.049 17.4018 43.107 17.1491 44.18 17.15H60.92L61.49 10.45C61.7144 7.66749 62.9817 5.07249 65.0382 3.18475C67.0947 1.29701 69.7885 0.255923 72.58 0.27H73.42C76.2115 0.255923 78.9053 1.29701 80.9618 3.18475C83.0182 5.07249 84.2856 7.66749 84.51 10.45L85.08 17.15H101.82C102.893 17.1508 103.951 17.405 104.908 17.8918C105.865 18.3786 106.693 19.0844 107.325 19.9517C107.958 20.819 108.377 21.8233 108.548 22.883C108.719 23.9426 108.637 25.0277 108.31 26.05L105.07 36.25C104.633 37.6307 103.768 38.8359 102.598 39.6903C101.429 40.5446 100.018 41.0035 98.57 41ZM44.18 19.16C43.4211 19.1601 42.673 19.3393 41.9964 19.6832C41.3199 20.027 40.7342 20.5257 40.2868 21.1388C39.8395 21.7518 39.5432 22.4618 39.4221 23.2109C39.301 23.9601 39.3585 24.7273 39.59 25.45L42.83 35.65C43.1389 36.627 43.7517 37.4798 44.5791 38.0842C45.4065 38.6886 46.4053 39.0129 47.43 39.01H98.57C99.5947 39.0129 100.593 38.6886 101.421 38.0842C102.248 37.4798 102.861 36.627 103.17 35.65L106.41 25.45C106.641 24.7273 106.699 23.9601 106.578 23.2109C106.457 22.4618 106.161 21.7518 105.713 21.1388C105.266 20.5257 104.68 20.027 104.004 19.6832C103.327 19.3393 102.579 19.1601 101.82 19.16H84.16C83.9081 19.1608 83.6651 19.0665 83.4797 18.8959C83.2943 18.7254 83.1802 18.4911 83.16 18.24L82.52 10.63C82.3359 8.34707 81.2959 6.21804 79.6083 4.66956C77.9207 3.12108 75.7103 2.26754 73.42 2.28H72.58C70.2897 2.26754 68.0793 3.12108 66.3917 4.66956C64.7041 6.21804 63.6641 8.34707 63.48 10.63L62.84 18.24C62.8198 18.4911 62.7057 18.7254 62.5203 18.8959C62.3349 19.0665 62.0919 19.1608 61.84 19.16H44.18ZM73 18.35C71.9173 18.352 70.8583 18.0326 69.9573 17.4323C69.0562 16.832 68.3536 15.9778 67.9383 14.9779C67.5231 13.978 67.4139 12.8773 67.6246 11.8153C67.8354 10.7533 68.3565 9.77773 69.1221 9.01213C69.8877 8.24654 70.8633 7.72537 71.9253 7.51463C72.9873 7.30388 74.088 7.41305 75.0879 7.8283C76.0878 8.24355 76.942 8.94621 77.5423 9.84727C78.1426 10.7483 78.462 11.8073 78.46 12.89C78.4574 14.3373 77.8813 15.7245 76.8579 16.7479C75.8345 17.7713 74.4473 18.3474 73 18.35ZM73 9.42C72.3133 9.41802 71.6414 9.61985 71.0695 9.99993C70.4975 10.38 70.0512 10.9213 69.787 11.5551C69.5228 12.189 69.4527 12.887 69.5855 13.5608C69.7182 14.2346 70.0479 14.8538 70.5328 15.3401C71.0177 15.8264 71.636 16.1579 72.3094 16.2926C72.9827 16.4273 73.681 16.3591 74.3156 16.0968C74.9502 15.8345 75.4928 15.3897 75.8745 14.8189C76.2562 14.248 76.46 13.5767 76.46 12.89C76.4613 12.4348 76.3728 11.9838 76.1995 11.5628C76.0262 11.1419 75.7716 10.7593 75.4501 10.4369C75.1287 10.1146 74.7468 9.85884 74.3264 9.68433C73.906 9.50982 73.4552 9.42 73 9.42Z" fill="#093F68"/>
    <path d="M28.85 56.34H47.87V75.36H28.85V56.34Z" fill="white"/>
    <path d="M47.87 76.36H28.87C28.6048 76.36 28.3504 76.2546 28.1629 76.0671C27.9754 75.8796 27.87 75.6252 27.87 75.36V56.36C27.87 56.0948 27.9754 55.8404 28.1629 55.6529C28.3504 55.4654 28.6048 55.36 28.87 55.36H47.87C48.1352 55.36 48.3896 55.4654 48.5771 55.6529C48.7646 55.8404 48.87 56.0948 48.87 56.36V75.36C48.87 75.6252 48.7646 75.8796 48.5771 76.0671C48.3896 76.2546 48.1352 76.36 47.87 76.36ZM29.87 74.36H46.87V57.36H29.87V74.36Z" fill="#093F68"/>
    <path d="M115.15 62.47H68.54C68.1422 62.47 67.7606 62.312 67.4793 62.0307C67.198 61.7494 67.04 61.3678 67.04 60.97C67.04 60.5722 67.198 60.1906 67.4793 59.9093C67.7606 59.628 68.1422 59.47 68.54 59.47H115.15C115.548 59.47 115.929 59.628 116.211 59.9093C116.492 60.1906 116.65 60.5722 116.65 60.97C116.65 61.3678 116.492 61.7494 116.211 62.0307C115.929 62.312 115.548 62.47 115.15 62.47Z" fill="#DFEAEF"/>
    <path d="M102.29 72.23H68.54C68.1422 72.23 67.7606 72.072 67.4793 71.7907C67.198 71.5094 67.04 71.1278 67.04 70.73C67.04 70.3322 67.198 69.9506 67.4793 69.6693C67.7606 69.388 68.1422 69.23 68.54 69.23H102.29C102.688 69.23 103.069 69.388 103.351 69.6693C103.632 69.9506 103.79 70.3322 103.79 70.73C103.79 71.1278 103.632 71.5094 103.351 71.7907C103.069 72.072 102.688 72.23 102.29 72.23Z" fill="#DFEAEF"/>
    <path d="M28.85 95.18H47.87V114.2H28.85V95.18Z" fill="white"/>
    <path d="M47.87 115.2H28.87C28.6048 115.2 28.3504 115.095 28.1629 114.907C27.9754 114.72 27.87 114.465 27.87 114.2V95.2C27.87 94.9348 27.9754 94.6804 28.1629 94.4929C28.3504 94.3054 28.6048 94.2 28.87 94.2H47.87C48.1352 94.2 48.3896 94.3054 48.5771 94.4929C48.7646 94.6804 48.87 94.9348 48.87 95.2V114.2C48.87 114.465 48.7646 114.72 48.5771 114.907C48.3896 115.095 48.1352 115.2 47.87 115.2ZM29.87 113.2H46.87V96.2H29.87V113.2Z" fill="#093F68"/>
    <path d="M115.15 101.31H68.54C68.1422 101.31 67.7606 101.152 67.4793 100.871C67.198 100.589 67.04 100.208 67.04 99.81C67.04 99.4122 67.198 99.0306 67.4793 98.7493C67.7606 98.468 68.1422 98.31 68.54 98.31H115.15C115.548 98.31 115.929 98.468 116.211 98.7493C116.492 99.0306 116.65 99.4122 116.65 99.81C116.65 100.208 116.492 100.589 116.211 100.871C115.929 101.152 115.548 101.31 115.15 101.31Z" fill="#DFEAEF"/>
    <path d="M89.9 111.07H68.54C68.1422 111.07 67.7606 110.912 67.4793 110.631C67.198 110.349 67.04 109.968 67.04 109.57C67.04 109.172 67.198 108.791 67.4793 108.509C67.7606 108.228 68.1422 108.07 68.54 108.07H89.9C90.2978 108.07 90.6794 108.228 90.9607 108.509C91.242 108.791 91.4 109.172 91.4 109.57C91.4 109.968 91.242 110.349 90.9607 110.631C90.6794 110.912 90.2978 111.07 89.9 111.07Z" fill="#DFEAEF"/>
    <path d="M28.85 134.02H47.87V153.04H28.85V134.02Z" fill="white"/>
    <path d="M47.87 154H28.87C28.6048 154 28.3504 153.895 28.1629 153.707C27.9754 153.52 27.87 153.265 27.87 153V134C27.87 133.735 27.9754 133.48 28.1629 133.293C28.3504 133.105 28.6048 133 28.87 133H47.87C48.1352 133 48.3896 133.105 48.5771 133.293C48.7646 133.48 48.87 133.735 48.87 134V153C48.87 153.265 48.7646 153.52 48.5771 153.707C48.3896 153.895 48.1352 154 47.87 154ZM29.87 152H46.87V135H29.87V152Z" fill="#093F68"/>
    <path d="M115.15 140.15H68.54C68.1422 140.15 67.7606 139.992 67.4793 139.711C67.198 139.429 67.04 139.048 67.04 138.65C67.04 138.252 67.198 137.871 67.4793 137.589C67.7606 137.308 68.1422 137.15 68.54 137.15H115.15C115.548 137.15 115.929 137.308 116.211 137.589C116.492 137.871 116.65 138.252 116.65 138.65C116.65 139.048 116.492 139.429 116.211 139.711C115.929 139.992 115.548 140.15 115.15 140.15Z" fill="#DFEAEF"/>
    <path d="M107.64 149.91H68.54C68.1422 149.91 67.7606 149.752 67.4793 149.471C67.198 149.189 67.04 148.808 67.04 148.41C67.04 148.012 67.198 147.631 67.4793 147.349C67.7606 147.068 68.1422 146.91 68.54 146.91H107.64C108.038 146.91 108.419 147.068 108.701 147.349C108.982 147.631 109.14 148.012 109.14 148.41C109.14 148.808 108.982 149.189 108.701 149.471C108.419 149.752 108.038 149.91 107.64 149.91Z" fill="#DFEAEF"/>
    <path d="M36.41 72.23C36.2804 72.2446 36.1496 72.2446 36.02 72.23C35.7923 72.1669 35.5829 72.0506 35.409 71.8906C35.2352 71.7307 35.1018 71.5316 35.02 71.31L31.36 61.55C31.2904 61.3655 31.2578 61.1691 31.2641 60.972C31.2704 60.7749 31.3155 60.581 31.3967 60.4013C31.5608 60.0384 31.8624 59.7556 32.235 59.615C32.6076 59.4744 33.0208 59.4877 33.3837 59.6517C33.7466 59.8158 34.0294 60.1174 34.17 60.49L37.09 68.27L52.64 55.27C52.7893 55.1318 52.9652 55.0254 53.1569 54.9573C53.3486 54.8892 53.5522 54.8608 53.7552 54.8739C53.9582 54.8869 54.1565 54.9411 54.3379 55.0332C54.5193 55.1253 54.6801 55.2533 54.8105 55.4095C54.9409 55.5657 55.0381 55.7468 55.0963 55.9417C55.1545 56.1367 55.1724 56.3414 55.149 56.5435C55.1256 56.7456 55.0613 56.9408 54.96 57.1173C54.8588 57.2938 54.7227 57.4478 54.56 57.57L37.39 71.96C37.1051 72.1621 36.7582 72.2577 36.41 72.23Z" fill="#70CC40"/>
    <path d="M36.41 110.89C36.2807 110.909 36.1493 110.909 36.02 110.89C35.7916 110.828 35.5814 110.713 35.4073 110.552C35.2332 110.392 35.1004 110.193 35.02 109.97L31.36 100.21C31.2741 99.8502 31.3243 99.4713 31.5007 99.1462C31.6772 98.8211 31.9676 98.5727 32.3161 98.4487C32.6646 98.3246 33.0467 98.3338 33.3889 98.4743C33.7311 98.6148 34.0092 98.8768 34.17 99.21L37.09 106.98L52.64 93.98C52.7893 93.8418 52.9652 93.7354 53.1569 93.6673C53.3486 93.5992 53.5522 93.5708 53.7552 93.5839C53.9582 93.5969 54.1565 93.6511 54.3379 93.7432C54.5193 93.8353 54.6801 93.9633 54.8105 94.1195C54.9408 94.2757 55.0381 94.4568 55.0963 94.6517C55.1545 94.8467 55.1724 95.0514 55.149 95.2535C55.1256 95.4556 55.0613 95.6508 54.96 95.8273C54.8587 96.0038 54.7226 96.1578 54.56 96.28L37.39 110.67C37.0986 110.855 36.7523 110.932 36.41 110.89Z" fill="#70CC40"/>
    <path d="M32.75 152.68C32.4561 152.685 32.1674 152.602 31.9203 152.443C31.6731 152.284 31.4785 152.056 31.3609 151.786C31.2433 151.517 31.208 151.219 31.2595 150.929C31.3109 150.64 31.4468 150.372 31.65 150.16L45.91 134.85C46.1819 134.558 46.5585 134.386 46.957 134.372C47.3555 134.358 47.7433 134.503 48.035 134.775C48.3267 135.047 48.4985 135.423 48.5126 135.822C48.5267 136.22 48.3818 136.608 48.11 136.9L33.84 152.2C33.7019 152.352 33.5335 152.473 33.3458 152.555C33.1581 152.638 32.9551 152.68 32.75 152.68Z" fill="#F56132"/>
    <path d="M47 152.68C46.7935 152.68 46.5892 152.637 46.3999 152.555C46.2106 152.472 46.0404 152.351 45.9 152.2L31.64 136.9C31.5025 136.757 31.3948 136.588 31.3232 136.402C31.2516 136.217 31.2174 136.02 31.2228 135.821C31.2281 135.623 31.2727 135.427 31.3542 135.246C31.4356 135.065 31.5522 134.902 31.6971 134.766C31.8421 134.631 32.0126 134.525 32.1986 134.456C32.3847 134.386 32.5827 134.355 32.7811 134.362C32.9795 134.37 33.1744 134.417 33.3544 134.501C33.5345 134.585 33.6961 134.703 33.83 134.85L48.1 150.16C48.234 150.304 48.3382 150.474 48.4067 150.659C48.4751 150.843 48.5065 151.04 48.4991 151.237C48.4917 151.433 48.4456 151.627 48.3633 151.806C48.2811 151.985 48.1645 152.146 48.02 152.28C47.7437 152.539 47.3787 152.682 47 152.68Z" fill="#F56132"/>
    </svg>
    