<svg width="10" height="8" viewBox="0 0 10 8" fill="none" xmlns="http://www.w3.org/2000/svg">
<path d="M0 4C0.434672 1.72434 2.50793 0 5.00001 0C7.49206 0 9.56533 1.72434 10 4C9.56533 6.27564 7.49206 8 5.00001 8C2.50793 8 0.434672 6.27564 0 4ZM5.00001 6.22222C6.27624 6.22222 7.31084 5.22729 7.31084 4C7.31084 2.7727 6.27624 1.77778 5.00001 1.77778C3.72376 1.77778 2.68917 2.7727 2.68917 4C2.68917 5.22729 3.72376 6.22222 5.00001 6.22222ZM5.00001 5.33333C4.23425 5.33333 3.6135 4.7364 3.6135 4C3.6135 3.2636 4.23425 2.66667 5.00001 2.66667C5.76573 2.66667 6.38651 3.2636 6.38651 4C6.38651 4.7364 5.76573 5.33333 5.00001 5.33333Z" fill="white"/>
</svg>
