<svg width="10" height="15" viewBox="0 0 10 15" fill="none" xmlns="http://www.w3.org/2000/svg">
<path d="M6.55097 14.1944C6.57709 14.1393 6.61001 14.0877 6.649 14.0406C8.30976 12.459 8.71072 10.5736 8.00809 8.43811C7.57488 7.12532 6.70782 6.09634 5.69023 5.18114C5.65253 5.15921 5.61243 5.1416 5.5707 5.12862C5.76043 6.85213 5.35441 8.42186 4.46774 9.97533C4.32039 9.21454 4.06995 8.58315 3.59625 8.0599C3.52661 7.98996 3.45336 7.92361 3.3768 7.86111C2.99228 8.75068 2.58436 9.60588 2.2574 10.4904C2.09866 10.9199 2.04427 11.4025 2.02783 11.8658C2.00253 12.5615 2.394 13.1073 2.82469 13.6161C2.93612 13.7346 3.03804 13.8615 3.12952 13.9956C2.5148 13.8299 1.99114 13.513 1.51303 13.1204C0.0223864 11.9095 -0.301418 10.1472 0.257018 8.26683C0.558688 7.24785 1.11143 6.34515 1.65279 5.44119C2.48697 4.05213 3.28826 2.64869 3.75563 1.0871C3.84101 0.801407 3.91184 0.511343 3.99785 0.194397C4.05745 0.228844 4.11432 0.267716 4.16797 0.310674C5.67189 1.75412 7.20364 3.17569 8.38249 4.9067C9.42537 6.43642 10.0268 8.09491 9.99709 9.97033C9.96863 11.8739 8.6576 13.7055 6.72742 14.1431C6.68795 14.1562 6.65 14.1734 6.61422 14.1944H6.55097Z" fill="white"/>
</svg>
