<svg width="22" height="22" viewBox="0 0 22 22" fill="none" xmlns="http://www.w3.org/2000/svg">
    <g clip-path="url(#clip0_758_9068)">
        <path
            d="M17.417 19.2503H4.58366C4.34054 19.2503 4.10739 19.1537 3.93548 18.9818C3.76357 18.8099 3.66699 18.5767 3.66699 18.3336V10.0836H0.916992L10.3834 1.47792C10.5522 1.32436 10.7722 1.23926 11.0003 1.23926C11.2285 1.23926 11.4485 1.32436 11.6172 1.47792L21.0837 10.0836H18.3337V18.3336C18.3337 18.5767 18.2371 18.8099 18.0652 18.9818C17.8933 19.1537 17.6601 19.2503 17.417 19.2503ZM5.50033 17.4169H16.5003V8.39417L11.0003 3.39467L5.50033 8.39417V17.4169ZM7.33366 13.7503H14.667V15.5836H7.33366V13.7503Z"
            fill="#828282" />
    </g>
    <defs>
        <clipPath id="clip0_758_9068">
            <rect width="22" height="22" fill="white" />
        </clipPath>
    </defs>
</svg>
    