<svg id="Group_20206" data-name="Group 20206" xmlns="http://www.w3.org/2000/svg" width="22" height="22" viewBox="0 0 22 22">
  <path id="Path_32226" data-name="Path 32226" d="M0,0H22V22H0Z" fill="none"/>
  <path id="Path_32227" data-name="Path 32227" d="M5.667,7.333v-.9a5.334,5.334,0,1,1,10.667,0v.9h1.778a.9.9,0,0,1,.889.9V19.1a.9.9,0,0,1-.889.9H3.889A.9.9,0,0,1,3,19.1V8.238a.9.9,0,0,1,.889-.9Zm11.556,1.81H4.778V18.19H17.222Zm-7.111,5.186a1.823,1.823,0,0,1-.828-2.035,1.77,1.77,0,0,1,3.434,0,1.823,1.823,0,0,1-.828,2.035v2.052H10.111Zm-2.667-7h7.111v-.9a3.556,3.556,0,1,0-7.111,0Z" transform="translate(0)" fill="#2593f7"/>
</svg>
