<svg width="54" height="52" viewBox="0 0 54 52" fill="none" xmlns="http://www.w3.org/2000/svg">
    <path
        d="M54 25C54 29.8673 52.6843 34.6441 50.192 38.825C47.6998 43.0058 44.1237 46.4352 39.8422 48.7503C35.5607 51.0654 30.7331 52.18 25.87 51.9763C21.007 51.7726 16.2894 50.2581 12.2165 47.5931C8.14363 44.9281 4.8669 41.2116 2.73303 36.837C0.599167 32.4624 -0.31247 27.5923 0.0945847 22.742C0.501639 17.8917 2.21224 13.2417 5.0454 9.28391C7.87856 5.32613 11.7289 2.20781 16.189 0.258896L18.771 6.16774C15.376 7.6512 12.4453 10.0248 10.2888 13.0373C8.13223 16.0499 6.83016 19.5894 6.52032 23.2813C6.21048 26.9732 6.9044 30.6801 8.52864 34.01C10.1529 37.3398 12.647 40.1687 15.7472 42.1973C18.8474 44.2258 22.4383 45.3786 26.1399 45.5337C29.8415 45.6887 33.5162 44.8403 36.7752 43.0781C40.0341 41.3159 42.7561 38.7055 44.6531 35.5232C46.5502 32.3408 47.5517 28.7049 47.5517 25H54Z"
        fill="#BF2132" />
</svg>
    