<svg width="34" height="34" viewBox="0 0 34 34" fill="none" xmlns="http://www.w3.org/2000/svg">
    <path
        d="M16.101 0.0116692C14.4635 0.134846 13.1375 0.388443 11.7681 0.837677C9.06544 1.71441 6.79754 3.13456 4.79773 5.19233C3.20368 6.82985 1.99365 8.70649 1.18938 10.7643C0.689431 12.0612 0.52278 12.6771 0.602483 12.9887C0.732905 13.4959 1.34879 13.7133 1.76904 13.3944C1.93569 13.2785 2.04437 13.0322 2.34145 12.1409C2.95008 10.3295 3.91376 8.56882 5.05858 7.19938L5.5223 6.64147L6.43526 7.54718C7.34821 8.4384 7.35546 8.44564 7.69601 8.44564C7.97134 8.44564 8.07278 8.40941 8.24668 8.23552C8.42058 8.06162 8.4568 7.96018 8.4568 7.68484C8.4568 7.3443 8.44956 7.33705 7.55834 6.4241L6.65263 5.51114L7.13809 5.10538C9.43497 3.17078 12.5868 1.88106 15.688 1.59847L16.2097 1.54775V2.71431C16.2097 3.97506 16.2677 4.27213 16.5792 4.4895C16.7966 4.64166 17.2168 4.64166 17.4342 4.4895C17.7458 4.27213 17.8037 3.97506 17.8037 2.71431V1.54775L18.3689 1.59847C21.4193 1.87381 24.4335 3.10557 26.7811 5.04017L27.3535 5.51114L26.4551 6.43134C25.5639 7.33705 25.5566 7.3443 25.5566 7.68484C25.5566 7.96018 25.5928 8.06162 25.7667 8.23552C25.9406 8.40941 26.0421 8.44564 26.3174 8.44564C26.658 8.44564 26.6652 8.4384 27.5709 7.54718L28.4911 6.64871L28.9621 7.22112C30.9039 9.57597 32.1212 12.5612 32.4038 15.6696L32.4545 16.1985H31.288C30.0272 16.1985 29.7301 16.2565 29.5128 16.5681C29.3606 16.7854 29.3606 17.2057 29.5128 17.423C29.7301 17.7346 30.0272 17.7926 31.288 17.7926H32.4545L32.4038 18.3143C32.0995 21.5096 30.8822 24.4658 28.8534 26.9149L28.4911 27.3496L27.5782 26.4439C26.6652 25.5527 26.658 25.5455 26.3174 25.5455C26.0421 25.5455 25.9406 25.5817 25.7667 25.7556C25.5928 25.9295 25.5566 26.0309 25.5566 26.3063C25.5566 26.6468 25.5639 26.654 26.4551 27.567L27.3608 28.48L26.8608 28.9002C25.5131 30.0378 23.6655 31.0522 21.8613 31.6608C20.9701 31.9579 20.7237 32.0666 20.6078 32.2332C20.289 32.6535 20.5064 33.2694 21.0136 33.3998C21.6584 33.5664 24.4625 32.4216 26.2087 31.2913C28.0636 30.0813 29.8606 28.3278 31.0488 26.5816C33.9906 22.2414 34.7876 16.7709 33.1936 11.8294C32.5559 9.85855 31.585 8.04713 30.2953 6.40236C29.6794 5.61258 28.0854 4.06201 27.2594 3.44612C24.832 1.62746 22.0207 0.482639 19.0717 0.120354C18.3906 0.0334053 16.6227 -0.024559 16.101 0.0116692Z"
        fill="black" />
    <path
        d="M11.9641 12.496C11.6453 12.6917 11.5294 13.054 11.667 13.3945C11.8627 13.851 11.9569 13.88 13.4422 13.88C14.9493 13.88 15.1739 13.9379 15.3696 14.3509C15.5145 14.648 15.5217 15.3943 15.3841 15.7276C15.2247 16.1044 15.0363 16.1768 14.1813 16.2131C13.5582 16.2421 13.3408 16.2783 13.0147 16.4304C12.4496 16.6913 12.1163 17.0101 11.8482 17.5608L11.6091 18.0462L11.5873 19.4591C11.5583 21.0677 11.6091 21.3213 12.0076 21.5242C12.196 21.6256 12.522 21.6328 14.3987 21.6183L16.5579 21.5966L16.7463 21.4227C17.1158 21.0749 17.0361 20.3938 16.6013 20.1909C16.4854 20.1402 15.8405 20.1112 14.7972 20.1112H13.1669V19.1766C13.1669 18.2853 13.1741 18.2274 13.3408 18.0317C13.5074 17.8361 13.5582 17.8289 14.3045 17.7854C14.7464 17.7636 15.2536 17.6912 15.471 17.6187C15.971 17.4521 16.5724 16.9014 16.797 16.4015C16.9564 16.0609 16.9709 15.916 16.9709 15.0393C16.9709 14.1191 16.9564 14.0394 16.7752 13.6916C16.4854 13.1409 16.268 12.9163 15.7608 12.6409L15.3044 12.3946L13.7465 12.3729C12.3047 12.3511 12.1742 12.3656 11.9641 12.496Z"
        fill="black" />
    <path
        d="M18.9196 12.4955C18.7964 12.5752 18.6587 12.7418 18.608 12.8723C18.5573 13.0244 18.5283 13.7997 18.5283 15.0894C18.5283 16.756 18.5501 17.1182 18.6443 17.3211C18.8471 17.7486 19.0428 17.7921 20.8397 17.7921H22.441V19.4224C22.441 20.4657 22.47 21.1106 22.5207 21.2265C22.7236 21.6613 23.4047 21.741 23.7525 21.3715L23.9264 21.1831V16.9951V12.8071L23.7525 12.6187C23.4047 12.2491 22.7236 12.3288 22.5207 12.7636C22.47 12.8795 22.441 13.5244 22.441 14.5678V16.198H21.2817H20.1224V14.6402C20.1224 12.9012 20.0789 12.6694 19.6949 12.4738C19.405 12.3216 19.1949 12.3288 18.9196 12.4955Z"
        fill="black" />
    <path
        d="M0.435965 16.3144C0.0519439 16.5028 -0.04225 16.8144 0.0157155 17.6766C0.269314 21.5313 1.45761 24.7194 3.71826 27.5887C4.25444 28.2698 5.73256 29.7479 6.41365 30.2841C8.86269 32.2187 11.7392 33.436 14.7607 33.8345C16.2388 34.0229 17.0358 34.0519 17.3257 33.9142C17.8111 33.6823 17.8111 33.6533 17.7894 30.3493C17.7676 27.4583 17.7604 27.3858 17.6082 27.096C17.4198 26.741 17.101 26.4584 16.775 26.3497C16.6446 26.3135 16.1663 26.2265 15.7171 26.1613C14.8621 26.0381 14.268 25.8787 13.3985 25.5382C13.1087 25.4222 12.7971 25.3281 12.7029 25.3281C12.3696 25.3281 12.1233 25.6469 11.6161 26.7337C11.3407 27.3134 11.0726 27.7916 11.0219 27.7916C10.8625 27.7916 9.47133 26.8207 8.84096 26.2772C8.5149 25.9947 8.0077 25.4875 7.72512 25.1614C7.1817 24.531 6.21077 23.1399 6.21077 22.9805C6.21077 22.9297 6.68899 22.6689 7.26864 22.3936C8.34825 21.8791 8.67431 21.6328 8.67431 21.3067C8.67431 21.2125 8.55838 20.8357 8.41346 20.4662C8.08016 19.6112 7.89902 18.8866 7.79758 18.0534C7.6744 17.0535 7.49326 16.7057 6.89911 16.3941C6.61653 16.242 6.52234 16.2347 3.63856 16.2202C1.0446 16.1985 0.638844 16.213 0.435965 16.3144ZM6.31221 18.5968C6.38467 19.0388 6.53683 19.7271 6.65276 20.1257C6.76869 20.5242 6.86289 20.8647 6.84839 20.872C6.8339 20.8864 6.35569 21.1111 5.77603 21.3719C4.63846 21.8936 4.3269 22.14 4.3269 22.5022C4.3269 22.7993 4.85583 23.8282 5.47896 24.7556C6.47162 26.2338 7.7686 27.5307 9.24672 28.5234C10.1742 29.1465 11.2031 29.6755 11.5001 29.6755C11.8624 29.6755 12.1088 29.3639 12.6305 28.2263C12.8913 27.6467 13.1159 27.1685 13.1304 27.154C13.1376 27.1395 13.4782 27.2337 13.884 27.3496C14.4491 27.5162 15.862 27.7916 16.1663 27.7916C16.1881 27.7916 16.2098 28.835 16.2098 30.1174V32.4433L15.6881 32.3926C8.1816 31.7115 2.29086 25.8208 1.60977 18.3142L1.55905 17.7925H3.87766H6.18904L6.31221 18.5968Z"
        fill="black" />
</svg>
    