<svg xmlns="http://www.w3.org/2000/svg" width="21.653" height="21.683" viewBox="0 0 21.653 21.683">
    <g id="coins" transform="translate(-0.5 511.9)">
        <path id="Path_33521" data-name="Path 33521"
            d="M5.627-511.857a14.33,14.33,0,0,0-2.1.335c-1.568.39-2.572,1-2.941,1.78l-.089.191v14.28l.089.191c.534,1.131,2.47,1.92,5.229,2.123a13.2,13.2,0,0,0,2.479-.055A.438.438,0,0,0,8.4-493.8c-.136-.089-.174-.1-.466-.064a19.816,19.816,0,0,1-2.733-.047A7.128,7.128,0,0,1,1.809-495c-.386-.284-.415-.369-.432-1.195l-.017-.716.165.106a9.794,9.794,0,0,0,4.293,1.136,13.189,13.189,0,0,0,2.479-.055.437.437,0,0,0,.106-.788c-.136-.089-.174-.1-.466-.064a19.816,19.816,0,0,1-2.733-.047,7.127,7.127,0,0,1-3.394-1.089c-.386-.284-.415-.369-.432-1.195l-.017-.716.165.106a9.793,9.793,0,0,0,4.293,1.136,13.2,13.2,0,0,0,2.479-.055.437.437,0,0,0,.106-.788c-.136-.089-.174-.1-.466-.064a19.811,19.811,0,0,1-2.733-.047,7.127,7.127,0,0,1-3.394-1.089c-.386-.284-.415-.369-.432-1.195l-.017-.716.165.106c1.716,1.085,5.237,1.475,8.081.9,1.788-.36,2.975-1,3.386-1.839l.136-.28v-6.06l-.136-.275a2.908,2.908,0,0,0-1.432-1.233A12.84,12.84,0,0,0,5.627-511.857Zm2.818.953a6.889,6.889,0,0,1,3.437,1.148c.453.411.453.716,0,1.127a6.96,6.96,0,0,1-3.458,1.157,18.574,18.574,0,0,1-3.22,0,7.539,7.539,0,0,1-3.25-.983c-.386-.258-.542-.47-.542-.737s.157-.479.542-.737C3.259-510.794,5.877-511.188,8.445-510.9Zm-6.458,3.5a9.513,9.513,0,0,0,2.623.75c2.623.4,5.725.025,7.284-.89.157-.093.3-.169.305-.169s.017.305.017.678c0,.784-.013.822-.335,1.114a6.959,6.959,0,0,1-3.458,1.157,18.574,18.574,0,0,1-3.22,0,7.14,7.14,0,0,1-3.394-1.089c-.386-.284-.415-.369-.432-1.195l-.017-.716.165.106C1.614-507.594,1.826-507.48,1.987-507.4Zm0,2.712a9.514,9.514,0,0,0,2.623.75c2.623.4,5.725.025,7.284-.89.157-.093.3-.169.305-.169s.017.305.017.678c0,.784-.013.822-.335,1.114a6.959,6.959,0,0,1-3.458,1.157,18.568,18.568,0,0,1-3.22,0,7.14,7.14,0,0,1-3.394-1.089c-.386-.284-.415-.369-.432-1.195l-.017-.716.165.106C1.614-504.883,1.826-504.768,1.987-504.688Z"
            fill="#3a5c79" />
        <path id="Path_33522" data-name="Path 33522"
            d="M218.648-255.892a14.455,14.455,0,0,0-2.187.356c-1.509.386-2.453.962-2.826,1.712l-.136.28v6.06l.136.275c.373.754,1.318,1.331,2.826,1.716a13.394,13.394,0,0,0,8.246-.551,2.783,2.783,0,0,0,1.331-1.208c.089-.191.089-.225.089-3.263s0-3.072-.089-3.263a3.566,3.566,0,0,0-2.284-1.589A13.885,13.885,0,0,0,218.648-255.892Zm1.979.886a10.8,10.8,0,0,1,3.047.555,3.584,3.584,0,0,1,1,.5c.542.356.682.729.415,1.1a3.479,3.479,0,0,1-1.509.89,11.264,11.264,0,0,1-3.75.53,11.382,11.382,0,0,1-3.674-.5,3.3,3.3,0,0,1-1.686-1.042c-.14-.271-.059-.513.271-.814a7.722,7.722,0,0,1,4.2-1.216A11.147,11.147,0,0,1,220.627-255.007Zm-6.055,3.343a7.016,7.016,0,0,0,1.89.746,14.051,14.051,0,0,0,7.615-.275c.186-.068.521-.22.746-.335s.415-.216.428-.216a6.226,6.226,0,0,1,0,.691c-.017.8-.051.89-.432,1.17a7.141,7.141,0,0,1-3.394,1.089,18.574,18.574,0,0,1-3.22,0,6.959,6.959,0,0,1-3.458-1.157c-.322-.292-.335-.331-.335-1.114a4.786,4.786,0,0,1,.025-.678A.465.465,0,0,1,214.572-251.663Zm0,2.712a7.016,7.016,0,0,0,1.89.746,14.051,14.051,0,0,0,7.615-.275c.186-.068.521-.22.746-.335s.415-.216.428-.216a6.227,6.227,0,0,1,0,.691c-.017.8-.051.89-.432,1.17a7.141,7.141,0,0,1-3.394,1.089,18.577,18.577,0,0,1-3.22,0,6.959,6.959,0,0,1-3.458-1.157c-.322-.292-.335-.331-.335-1.114a4.786,4.786,0,0,1,.025-.678A.465.465,0,0,1,214.572-248.952Z"
            transform="translate(-203.974 -245.117)" fill="#3a5c79" />
    </g>
</svg>
  