<svg width="30" height="43" viewBox="0 0 30 43" fill="none" xmlns="http://www.w3.org/2000/svg">
    <path
        d="M21.7049 7.03533C13.1335 -0.915771 1.15205 0.00902352 0.645139 0.0550857C0.276437 0.101197 0 0.378834 0 0.748364V42.3067C0 42.6766 0.322733 43 0.691106 43H15.2071C15.5758 43 15.8982 42.6763 15.8982 42.3067C15.8982 36.4822 20.5987 31.7669 26.405 31.7669C27.2807 31.7669 28.2023 31.9056 29.1238 32.1368C29.3543 32.1829 29.5385 32.1368 29.723 31.9981C29.9072 31.8594 29.9994 31.6743 29.9994 31.4435V29.4559C30.0457 19.6557 27.2347 12.1206 21.7046 7.03478L21.7049 7.03533ZM28.6635 30.6113C27.9261 30.4726 27.1887 30.3801 26.4516 30.3801C20.0921 30.3801 14.931 35.3726 14.5623 41.6133H1.38271V1.44176C3.96358 1.34921 13.7328 1.53398 20.7835 8.0521C25.9909 12.8596 28.6637 20.0712 28.6637 29.5016L28.6635 30.6113Z"
        fill="black" />
    <path
        d="M4.63455 5.02386C4.2719 5.07 4 5.34782 4 5.71759V21.3063C4 21.6764 4.31744 22 4.67977 22H25.3033C25.4844 22 25.7111 21.9074 25.8471 21.7686C25.9831 21.6299 26.0283 21.3985 25.9831 21.2137C22.5836 3.68217 4.7703 5.02363 4.63432 5.02363L4.63455 5.02386ZM5.35985 20.6125V6.36532C8.39672 6.27272 21.3147 6.73542 24.4423 20.6125H5.35985Z"
        fill="black" />
    <path
        d="M11.3144 25H4.68561C4.31984 25 4 25.2335 4 25.5C4 25.7667 4.32017 26 4.68561 26H11.3144C11.6802 26 12 25.7665 12 25.5C12.0003 25.2335 11.6801 25 11.3144 25Z"
        fill="black" />
</svg>
    