<svg width="24" height="24" viewBox="0 0 24 24" fill="none" xmlns="http://www.w3.org/2000/svg">
    <g clip-path="url(#clip0_758_12223)">
        <path
            d="M5.32992 3.27185C5.95397 3.04922 6.62839 3.0083 7.27478 3.15385C7.92116 3.2994 8.51296 3.62543 8.98136 4.09404C9.44977 4.56265 9.77553 5.15459 9.92079 5.80104C10.066 6.4475 10.0248 7.1219 9.80192 7.74585L20.6469 18.5908L18.5249 20.7118L7.67992 9.86785C7.05587 10.0905 6.38145 10.1314 5.73506 9.98585C5.08868 9.8403 4.49688 9.51427 4.02848 9.04566C3.56008 8.57704 3.23431 7.9851 3.08905 7.33865C2.9438 6.6922 2.98502 6.0178 3.20792 5.39385L5.44392 7.63085C5.58229 7.77411 5.74781 7.88839 5.93081 7.967C6.11382 8.04561 6.31065 8.08699 6.50982 8.08872C6.70899 8.09045 6.90651 8.0525 7.09085 7.97708C7.2752 7.90166 7.44267 7.79028 7.58351 7.64944C7.72435 7.5086 7.83573 7.34112 7.91115 7.15678C7.98658 6.97243 8.02453 6.77492 8.0228 6.57575C8.02107 6.37658 7.97969 6.17975 7.90107 5.99674C7.82246 5.81374 7.70819 5.64822 7.56492 5.50985L5.32892 3.27085L5.32992 3.27185ZM15.6969 5.15585L18.8789 3.38785L20.2929 4.80185L18.5249 7.98385L16.7569 8.33785L14.6369 10.4588L13.2219 9.04485L15.3429 6.92385L15.6969 5.15585ZM8.62592 12.9338L10.7469 15.0558L5.79692 20.0058C5.52396 20.2763 5.15764 20.4316 4.7735 20.4399C4.38937 20.4481 4.01671 20.3087 3.73237 20.0502C3.44804 19.7918 3.27372 19.4341 3.24535 19.051C3.21699 18.6678 3.33674 18.2883 3.57992 17.9908L3.67692 17.8838L8.62692 12.9338H8.62592Z"
            fill="#BF2132" />
    </g>
    <defs>
        <clipPath id="clip0_758_12223">
            <rect width="24" height="24" fill="white" />
        </clipPath>
    </defs>
</svg>
    