<svg width="282" height="282" viewBox="0 0 282 282" fill="none" xmlns="http://www.w3.org/2000/svg">
<path d="M253.743 224.749H235.063V224.89H253.743V224.749Z" fill="#EBEBEB"/>
<path d="M186.808 226.282H181.907V226.423H186.808V226.282Z" fill="#EBEBEB"/>
<path d="M234.5 219.515H223.677V219.656H234.5V219.515Z" fill="#EBEBEB"/>
<path d="M53.9471 220.462H29.5879V220.603H53.9471V220.462Z" fill="#EBEBEB"/>
<path d="M62.5418 220.462H58.9717V220.603H62.5418V220.462Z" fill="#EBEBEB"/>
<path d="M126.985 222.842H74.1494V222.983H126.985V222.842Z" fill="#EBEBEB"/>
<path d="M133.668 190.519H24.7656C23.9124 190.518 23.0948 190.178 22.492 189.574C21.8893 188.97 21.5508 188.152 21.5508 187.299V34.2123C21.5582 33.364 21.9 32.553 22.5019 31.9553C23.1039 31.3575 23.9173 31.0215 24.7656 31.02H133.668C134.522 31.02 135.342 31.3593 135.946 31.9633C136.549 32.5672 136.889 33.3863 136.889 34.2405V187.299C136.889 188.153 136.549 188.972 135.946 189.576C135.342 190.18 134.522 190.519 133.668 190.519ZM24.7656 31.1328C23.9498 31.1343 23.168 31.4594 22.5917 32.0368C22.0154 32.6141 21.6918 33.3965 21.6918 34.2123V187.299C21.6918 188.115 22.0154 188.897 22.5917 189.474C23.168 190.052 23.9498 190.377 24.7656 190.378H133.668C134.485 190.377 135.267 190.052 135.844 189.475C136.421 188.897 136.746 188.115 136.748 187.299V34.2123C136.746 33.396 136.421 32.6136 135.844 32.0364C135.267 31.4592 134.485 31.1343 133.668 31.1328H24.7656Z" fill="#EBEBEB"/>
<path d="M255.667 190.519H146.759C145.905 190.518 145.087 190.178 144.483 189.574C143.879 188.971 143.54 188.152 143.538 187.299V34.2123C143.547 33.3635 143.89 32.5525 144.493 31.9549C145.096 31.3574 145.91 31.0215 146.759 31.02H255.667C256.514 31.023 257.326 31.3597 257.927 31.9572C258.528 32.5548 258.869 33.365 258.876 34.2123V187.299C258.876 188.151 258.538 188.968 257.937 189.572C257.335 190.176 256.519 190.516 255.667 190.519ZM146.759 31.1328C145.942 31.1343 145.16 31.4592 144.583 32.0364C144.005 32.6136 143.681 33.396 143.679 34.2123V187.299C143.681 188.115 144.005 188.897 144.583 189.475C145.16 190.052 145.942 190.377 146.759 190.378H255.667C256.483 190.377 257.266 190.052 257.843 189.475C258.42 188.897 258.745 188.115 258.746 187.299V34.2123C258.745 33.396 258.42 32.6136 257.843 32.0364C257.266 31.4592 256.483 31.1343 255.667 31.1328H146.759Z" fill="#EBEBEB"/>
<path d="M282 215.674H0V215.815H282V215.674Z" fill="#EBEBEB"/>
<path d="M39.9648 159.048C36.874 160.261 34.2684 162.466 32.0011 164.897C28.2618 168.912 25.1598 174.485 26.8518 179.719C27.6526 182.195 30.3091 184.496 32.6779 183.424C34.5109 182.595 35.0749 180.271 35.1313 178.264C35.1877 176.256 34.9959 174.073 36.1183 172.398C37.5283 170.289 40.7149 169.871 42.9314 171.112C45.1479 172.353 46.4338 174.857 46.7779 177.378C47.1647 180.286 46.4702 183.234 44.8264 185.663C43.4108 187.744 41.3184 189.397 40.3821 191.732C39.1188 194.868 40.2298 198.404 41.3466 201.596C41.3978 201.805 41.4983 201.998 41.6398 202.16C41.8018 202.292 41.997 202.376 42.2038 202.403C42.7593 202.479 43.3246 202.436 43.8621 202.276C44.3996 202.117 44.897 201.845 45.3212 201.478C45.7454 201.112 46.0866 200.659 46.3223 200.15C46.5579 199.642 46.6824 199.089 46.6876 198.528C46.62 197.208 45.8642 195.996 45.8078 194.676C45.7006 192.059 48.1879 190.215 50.004 188.331C54.9615 183.17 55.7116 175.331 55.4973 168.179C55.4353 166.188 55.3056 164.13 54.4201 162.347C52.2036 157.824 44.0481 157.412 39.9648 159.048Z" fill="#EBEBEB"/>
<path d="M45.6224 204.896C44.464 205.29 43.499 206.111 42.923 207.191C42.347 208.27 42.2031 209.529 42.5204 210.711C42.9167 211.869 43.7116 212.848 44.7633 213.474C45.815 214.1 47.055 214.332 48.2619 214.128C49.0137 213.978 49.7234 213.665 50.3411 213.211C50.9588 212.757 51.4697 212.173 51.8377 211.5C52.3227 210.607 52.5196 209.585 52.4014 208.576C52.2833 207.566 51.8559 206.618 51.1778 205.86C49.7847 204.433 45.6224 204.896 45.6224 204.896Z" fill="#E0E0E0"/>
<path d="M34.4775 68.1199L30.7776 66.9299L26.8917 70.4605C26.6931 69.3929 26.7706 68.2923 27.1168 67.2631C27.463 66.2339 28.0664 65.3102 28.8698 64.5796C29.6732 63.8491 30.65 63.336 31.7074 63.0889C32.7648 62.8419 33.8678 62.8691 34.9117 63.168L42.2043 56.5466L48.036 51.2507L55.3285 44.6406C55.1322 43.5738 55.2114 42.4746 55.5586 41.447C55.9057 40.4194 56.5094 39.4974 57.3125 38.7683C58.1156 38.0392 59.0915 37.5272 60.1478 37.2806C61.204 37.034 62.3058 37.0612 63.3486 37.3594L59.4627 40.89L60.2861 44.6857L63.9859 45.8701L67.8719 42.3451C68.071 43.4126 67.9938 44.5132 67.6477 45.5424C67.3015 46.5716 66.6979 47.4952 65.8943 48.2254C65.0906 48.9557 64.1135 49.4682 63.0559 49.7144C61.9983 49.9606 60.8954 49.9322 59.8518 49.632L52.5593 56.2421L46.7275 61.5437L39.435 68.1594C39.633 69.2264 39.555 70.3264 39.2083 71.3548C38.8617 72.3832 38.258 73.3059 37.4545 74.0354C36.6509 74.7649 35.6743 75.2769 34.6173 75.5229C33.5603 75.7688 32.458 75.7405 31.4149 75.4406L35.3009 71.9156L34.4775 68.1199Z" fill="#E0E0E0"/>
<path opacity="0.4" d="M34.4775 68.1199L30.7776 66.9299L26.8917 70.4605C26.6931 69.3929 26.7706 68.2923 27.1168 67.2631C27.463 66.2339 28.0664 65.3102 28.8698 64.5796C29.6732 63.8491 30.65 63.336 31.7074 63.0889C32.7648 62.8419 33.8678 62.8691 34.9117 63.168L42.2043 56.5466L48.036 51.2507L55.3285 44.6406C55.1322 43.5738 55.2114 42.4746 55.5586 41.447C55.9057 40.4194 56.5094 39.4974 57.3125 38.7683C58.1156 38.0392 59.0915 37.5272 60.1478 37.2806C61.204 37.034 62.3058 37.0612 63.3486 37.3594L59.4627 40.89L60.2861 44.6857L63.9859 45.8701L67.8719 42.3451C68.071 43.4126 67.9938 44.5132 67.6477 45.5424C67.3015 46.5716 66.6979 47.4952 65.8943 48.2254C65.0906 48.9557 64.1135 49.4682 63.0559 49.7144C61.9983 49.9606 60.8954 49.9322 59.8518 49.632L52.5593 56.2421L46.7275 61.5437L39.435 68.1594C39.633 69.2264 39.555 70.3264 39.2083 71.3548C38.8617 72.3832 38.258 73.3059 37.4545 74.0354C36.6509 74.7649 35.6743 75.2769 34.6173 75.5229C33.5603 75.7688 32.458 75.7405 31.4149 75.4406L35.3009 71.9156L34.4775 68.1199Z" fill="#E0E0E0"/>
<path d="M33.8402 45.9489L28.6514 39.4403L32.2328 36.186L38.2168 41.9558L38.9162 43.5124C39.1321 43.9905 39.4214 44.432 39.7734 44.8209L46.9588 52.7169L43.6876 55.6892L36.5022 47.7932C36.1545 47.4064 35.7493 47.0754 35.3009 46.8118L33.8402 45.9489Z" fill="#E0E0E0"/>
<path opacity="0.7" d="M33.8402 45.9489L28.6514 39.4403L32.2328 36.186L38.2168 41.9558L38.9162 43.5124C39.1321 43.9905 39.4214 44.432 39.7734 44.8209L46.9588 52.7169L43.6876 55.6892L36.5022 47.7932C36.1545 47.4064 35.7493 47.0754 35.3009 46.8118L33.8402 45.9489Z" fill="#F5F5F5"/>
<path d="M28.7303 39.5418L28.6514 39.4403L32.2328 36.186L32.3286 36.2763C32.5768 36.7726 32.0974 37.7652 31.1668 38.6112C30.2362 39.4572 29.2041 39.8351 28.7303 39.5418Z" fill="#E0E0E0"/>
<path d="M46.4283 59.8402L44.2682 57.4658L44.1272 57.5955C43.9619 57.7451 43.744 57.8229 43.5213 57.8118C43.2987 57.8007 43.0896 57.7016 42.94 57.5363C42.7904 57.371 42.7126 57.153 42.7237 56.9304C42.7348 56.7077 42.8339 56.4986 42.9992 56.3491L47.6917 52.0909C47.857 51.9413 48.0749 51.8635 48.2975 51.8746C48.4078 51.8801 48.5159 51.9072 48.6156 51.9545C48.7154 52.0018 48.8048 52.0682 48.8789 52.1501C48.953 52.2319 49.0102 52.3275 49.0473 52.4315C49.0844 52.5355 49.1007 52.6457 49.0952 52.7559C49.0897 52.8662 49.0625 52.9743 49.0152 53.074C48.968 53.1738 48.9015 53.2632 48.8197 53.3373L48.6787 53.467L50.8331 55.8358C51.2565 55.7827 51.6863 55.8394 52.0814 56.0004C52.4765 56.1614 52.8235 56.4213 53.0891 56.7551L65.5141 70.4998C66.9974 72.1354 66.1288 73.8838 64.4989 75.3446C62.8689 76.8053 61.0585 77.5216 59.5808 75.9086L47.1277 62.1526C46.8247 61.858 46.6015 61.4913 46.4792 61.0868C46.3568 60.6823 46.3393 60.2533 46.4283 59.8402Z" fill="#E0E0E0"/>
<path opacity="0.4" d="M46.4283 59.8402L44.2682 57.4658L44.1272 57.5955C43.9619 57.7451 43.744 57.8229 43.5213 57.8118C43.2987 57.8007 43.0896 57.7016 42.94 57.5363C42.7904 57.371 42.7126 57.153 42.7237 56.9304C42.7348 56.7077 42.8339 56.4986 42.9992 56.3491L47.6917 52.0909C47.857 51.9413 48.0749 51.8635 48.2975 51.8746C48.4078 51.8801 48.5159 51.9072 48.6156 51.9545C48.7154 52.0018 48.8048 52.0682 48.8789 52.1501C48.953 52.2319 49.0102 52.3275 49.0473 52.4315C49.0844 52.5355 49.1007 52.6457 49.0952 52.7559C49.0897 52.8662 49.0625 52.9743 49.0152 53.074C48.968 53.1738 48.9015 53.2632 48.8197 53.3373L48.6787 53.467L50.8331 55.8358C51.2565 55.7827 51.6863 55.8394 52.0814 56.0004C52.4765 56.1614 52.8235 56.4213 53.0891 56.7551L65.5141 70.4998C66.9974 72.1354 66.1288 73.8838 64.4989 75.3446C62.8689 76.8053 61.0585 77.5216 59.5808 75.9086L47.1277 62.1526C46.8247 61.858 46.6015 61.4913 46.4792 61.0868C46.3568 60.6823 46.3393 60.2533 46.4283 59.8402Z" fill="#EBEBEB"/>
<path opacity="0.7" d="M223.446 72.7675L229.306 75.6326L231.974 74.3016L222.859 69.8403L223.446 72.7675Z" fill="#F5F5F5"/>
<path d="M227.196 42.3003C226.379 43.9834 225.927 45.8199 225.869 47.6898C225.81 49.5597 226.147 51.4209 226.858 53.1516C227.345 54.289 227.584 55.5169 227.559 56.7538C227.535 57.9908 227.248 59.2083 226.717 60.3257L226.271 61.2337L236.694 66.3097L237.14 65.4017C237.695 64.2974 238.479 63.3239 239.44 62.546C240.401 61.7681 241.516 61.2035 242.712 60.8897C245.366 60.1501 247.725 58.6045 249.462 56.4665C251.2 54.3285 252.23 51.7036 252.412 48.9545C252.593 46.2054 251.916 43.4678 250.475 41.12C249.033 38.7722 246.898 36.9301 244.364 35.8481C241.219 34.5383 237.692 34.4764 234.503 35.6751C231.313 36.8738 228.7 39.2429 227.196 42.3003Z" fill="#F5F5F5"/>
<path d="M241.757 53.4054L233.241 64.459L233.876 64.9477L242.391 53.8941L241.757 53.4054Z" fill="#E0E0E0"/>
<path d="M232.27 48.4657L228.781 62.0005L229.558 62.2007L233.046 48.6659L232.27 48.4657Z" fill="#E0E0E0"/>
<path d="M233.457 56.0615L236.187 54.1552L236.356 57.4771L240.597 55.6836L240.281 54.9448L237.095 56.2927L236.914 52.6662L233.936 54.7474L233.045 51.4028L232.272 51.6115L233.457 56.0615Z" fill="#E0E0E0"/>
<path d="M226.3 61.1543L222.233 69.4677L232.628 74.6226L236.694 66.3093L226.3 61.1543Z" fill="#E0E0E0"/>
<path d="M231.178 205.634C229.419 195.788 228.561 185.801 228.618 175.799C228.618 170.751 229.312 161.462 235.798 160.272C242.109 159.115 241.849 167.237 241.697 171.399C241.477 177.434 230.947 204.365 231.178 205.634Z" fill="#EBEBEB"/>
<path d="M232.718 209.842C233.556 210.594 234.076 211.636 234.174 212.758C234.271 213.88 233.938 214.997 233.242 215.882C232.488 216.72 231.46 217.262 230.343 217.41C229.226 217.559 228.092 217.305 227.145 216.694C226.563 216.298 226.075 215.779 225.716 215.174C225.356 214.569 225.134 213.892 225.064 213.192C224.983 212.265 225.189 211.335 225.653 210.528C226.117 209.722 226.817 209.077 227.658 208.68C229.362 207.947 232.718 209.842 232.718 209.842Z" fill="#E0E0E0"/>
<path d="M141 240.833C201.395 240.833 250.354 237.975 250.354 234.449C250.354 230.923 201.395 228.064 141 228.064C80.6059 228.064 31.6465 230.923 31.6465 234.449C31.6465 237.975 80.6059 240.833 141 240.833Z" fill="#F5F5F5"/>
<path d="M139.308 53.3997L216.406 38.1717C216.893 38.0705 217.395 38.0717 217.882 38.1752C218.368 38.2788 218.827 38.4824 219.23 38.7731C219.633 39.0638 219.972 39.4353 220.223 39.8639C220.475 40.2924 220.635 40.7687 220.693 41.2624L234.432 174.654C234.476 175.144 234.419 175.639 234.262 176.105C234.105 176.572 233.853 177.001 233.521 177.365C233.19 177.729 232.786 178.02 232.336 178.219C231.886 178.418 231.399 178.522 230.907 178.523L139.308 179.781V53.3997Z" fill="#BF2132"/>
<path d="M139.032 53.7662C139.032 53.7662 191.236 42.0012 213.948 43.3661L224.957 172.229C224.957 172.229 207.676 167.717 191.117 170.875C174.09 174.118 139.026 179.781 139.026 179.781L139.032 53.7662Z" fill="#BF2132"/>
<path opacity="0.7" d="M139.032 53.7662C139.032 53.7662 191.236 42.0012 213.948 43.3661L224.957 172.229C224.957 172.229 207.676 167.717 191.117 170.875C174.09 174.118 139.026 179.781 139.026 179.781L139.032 53.7662Z" fill="white"/>
<path d="M145.918 50.9576C145.918 50.9576 174.304 39.1982 192.279 38.1774L210.372 37.1509L220.665 167.773C220.665 167.773 203.807 160.926 186.52 165.168C169.233 169.409 147.006 176.78 139.409 179.516V53.3546L145.918 50.9576Z" fill="#BF2132"/>
<path opacity="0.8" d="M146.014 50.9576C146.014 50.9576 174.406 39.1982 192.38 38.1774L210.479 37.1509L220.772 167.773C220.772 167.773 203.908 160.926 186.628 165.168C169.347 169.409 147.114 176.78 139.517 179.516V53.3546L146.014 50.9576Z" fill="white"/>
<path d="M139.415 53.3999L64.0253 38.1719C63.5442 38.0749 63.0481 38.0797 62.5689 38.1858C62.0898 38.292 61.6381 38.4972 61.2429 38.7882C60.8478 39.0793 60.5178 39.4498 60.2744 39.8759C60.0309 40.302 59.8792 40.7744 59.8291 41.2626L46.4003 174.666C46.3518 175.15 46.4045 175.639 46.5549 176.103C46.7053 176.566 46.9502 176.993 47.2741 177.356C47.598 177.72 47.9938 178.013 48.4366 178.215C48.8794 178.418 49.3594 178.527 49.8463 178.535L139.421 179.781L139.415 53.3999Z" fill="#BF2132"/>
<path d="M139.415 53.3997C139.415 53.3997 90.8036 35.6111 68.2436 34.2744L56.8057 171.631C56.8057 171.631 74.3912 166.955 90.7585 170.435C107.126 173.915 139.42 179.781 139.42 179.781L139.415 53.3997Z" fill="#BF2132"/>
<path opacity="0.6" d="M139.415 53.3997C139.415 53.3997 90.8036 35.6111 68.2436 34.2744L56.8057 171.631C56.8057 171.631 74.3912 166.955 90.7585 170.435C107.126 173.915 139.42 179.781 139.42 179.781L139.415 53.3997Z" fill="white"/>
<path d="M133.922 50.433C133.922 50.433 106.974 36.2428 89.998 33.7048L72.9708 31.1611L63.332 160.024C63.332 160.024 79.1522 154.858 95.4349 160.768C111.718 166.679 132.885 176.278 140.121 179.781V53.3997L133.922 50.433Z" fill="#BF2132"/>
<path opacity="0.7" d="M133.922 50.433C133.922 50.433 106.974 36.2428 89.998 33.7048L72.9708 31.1611L63.332 160.024C63.332 160.024 79.1522 154.858 95.4349 160.768C111.718 166.679 132.885 176.278 140.121 179.781V53.3997L133.922 50.433Z" fill="white"/>
<path d="M152.46 91.3681V90.9733C152.46 87.1494 152.364 83.2634 152.263 79.5072C152.173 76.1627 152.077 72.7053 152.065 69.3044V69.107L152.252 69.0393C159.48 66.3566 166.858 64.0968 174.349 62.2713L174.682 62.1924V62.5364C174.885 66.648 175.02 70.8272 175.144 74.8711C175.24 77.8772 175.336 80.9905 175.466 84.0474V84.273L175.246 84.3294C167.017 86.4049 159.29 88.9937 152.821 91.2553L152.46 91.3681ZM152.629 69.5018C152.629 72.8351 152.737 76.2134 152.827 79.4903C152.923 83.1224 153.024 86.873 153.024 90.5729C159.375 88.362 166.893 85.8522 174.902 83.8049C174.778 80.8213 174.687 77.787 174.592 74.8542C174.468 70.9062 174.343 66.8679 174.146 62.8692C166.853 64.6702 159.669 66.8885 152.629 69.5131V69.5018Z" fill="#BF2132"/>
<path d="M165.252 73.9911C164.911 74.1027 164.613 74.316 164.397 74.6024C164.181 74.8888 164.058 75.2345 164.045 75.5928C164.045 76.2245 164.079 76.546 164.096 77.1833C164.501 76.979 164.856 76.686 165.133 76.326C165.233 76.1547 165.285 75.9601 165.286 75.762C165.292 75.6723 165.33 75.5876 165.391 75.5219C165.453 75.4563 165.535 75.4137 165.624 75.4011L166.927 75.2262C166.992 75.207 167.061 75.2032 167.128 75.2151C167.195 75.227 167.258 75.2542 167.313 75.2946C167.367 75.3351 167.412 75.3876 167.443 75.4482C167.474 75.5087 167.49 75.5756 167.491 75.6436C167.491 76.0158 167.491 76.2076 167.491 76.5742C167.474 76.7668 167.396 76.9488 167.268 77.0939C167.14 77.2389 166.969 77.3394 166.78 77.3807C165.607 77.6345 165.088 77.7473 164.045 77.9785C164.026 78.3274 164.146 78.6695 164.379 78.9303C164.611 79.1912 164.937 79.3498 165.286 79.3716C166.718 79.4788 167.542 79.5183 169.177 79.6198C171.552 79.3434 172.843 79.1911 175.003 79.1178C174.953 77.5386 174.93 76.7659 174.885 75.2431C173.644 73.021 172.979 72.0171 171.636 69.9754C171.459 69.6689 171.208 69.4109 170.907 69.224C170.606 69.0372 170.264 68.9272 169.91 68.9038C169.309 68.3411 168.517 68.0268 167.694 68.0239H167.615C166.839 67.7614 166.006 67.7185 165.207 67.8999C165.123 67.9231 165.046 67.9675 164.984 68.0287C164.922 68.0898 164.876 68.1659 164.851 68.2495C164.806 68.341 164.781 68.4409 164.776 68.5428C164.772 68.6448 164.789 68.7465 164.826 68.8415C164.863 68.9365 164.92 69.0228 164.992 69.0947C165.064 69.1666 165.151 69.2226 165.246 69.2591C165.776 69.4509 166.786 70.5958 167.457 71.3685C167.871 71.8388 168.201 72.3768 168.433 72.9589C167.102 73.3876 166.442 73.6019 165.252 73.9911Z" fill="#263238"/>
<path d="M161.812 74.3353C161.764 74.3567 161.709 74.3587 161.66 74.3409C161.611 74.323 161.57 74.2866 161.547 74.2394C161.345 73.6717 161.056 73.1389 160.69 72.6602C160.658 72.5979 160.651 72.5263 160.669 72.4589C160.686 72.3915 160.728 72.3327 160.785 72.2936C160.834 72.245 160.9 72.2178 160.969 72.2178C161.037 72.2178 161.103 72.245 161.152 72.2936C161.535 72.8087 161.838 73.3793 162.049 73.9856C162.064 74.0543 162.055 74.1261 162.023 74.1889C161.991 74.2516 161.938 74.3013 161.874 74.3296L161.812 74.3353Z" fill="#263238"/>
<path d="M161.868 77.7756C161.787 78.2867 161.51 78.7461 161.096 79.0558C160.368 79.6198 159.404 79.6762 159.02 79.1404C158.975 79.0753 158.937 79.0053 158.907 78.9318C158.828 78.5906 158.856 78.2333 158.989 77.909C159.121 77.5847 159.351 77.3095 159.646 77.1213C160.02 76.8105 160.497 76.6515 160.983 76.6758C161.122 76.6823 161.258 76.7196 161.381 76.785C161.503 76.8503 161.61 76.9421 161.693 77.0536C161.721 77.089 161.746 77.1268 161.767 77.1664C161.857 77.3561 161.892 77.567 161.868 77.7756Z" fill="white"/>
<path d="M161.868 77.7757C161.787 78.2869 161.51 78.7463 161.096 79.056C160.368 79.62 159.404 79.6764 159.02 79.1406C158.975 79.0755 158.937 79.0055 158.907 78.9319C158.948 78.6735 159.04 78.4258 159.178 78.2032C159.315 77.9805 159.496 77.7873 159.708 77.6347C160.453 77.0707 161.366 77.0313 161.755 77.5671C161.802 77.6315 161.84 77.7017 161.868 77.7757Z" fill="#263238"/>
<path d="M164.852 77.4656C164.781 77.953 164.529 78.3959 164.147 78.7064C163.509 79.2309 162.658 79.2253 162.28 78.6782C162.236 78.6129 162.2 78.5429 162.173 78.4695C162.105 78.2246 162.1 77.9666 162.158 77.7192C162.217 77.4719 162.336 77.2431 162.505 77.0539C162.733 76.7617 163.035 76.5358 163.38 76.3996C163.604 76.2836 163.863 76.2534 164.108 76.3147C164.353 76.3759 164.567 76.5245 164.711 76.7324C164.84 76.9537 164.889 77.2123 164.852 77.4656Z" fill="white"/>
<path d="M164.852 77.4657C164.781 77.9531 164.529 78.396 164.147 78.7065C163.51 79.2311 162.658 79.2254 162.28 78.6783C162.237 78.613 162.201 78.543 162.173 78.4697C162.249 77.9669 162.518 77.5136 162.923 77.2063C163.611 76.6423 164.412 76.6874 164.756 77.2514C164.796 77.319 164.828 77.3909 164.852 77.4657Z" fill="#263238"/>
<path d="M163.706 75.012C163.666 75.2769 163.571 75.5305 163.427 75.7567C163.283 75.983 163.094 76.1769 162.872 76.3261C162.15 76.8281 161.264 76.783 160.926 76.2077C160.902 76.1661 160.881 76.1228 160.864 76.078C160.781 75.7218 160.817 75.3486 160.964 75.0141C161.111 74.6796 161.363 74.4019 161.682 74.2224C162.437 73.7035 163.289 73.7768 163.599 74.369C163.697 74.5682 163.735 74.7918 163.706 75.012Z" fill="white"/>
<path d="M162.872 76.315C162.15 76.817 161.265 76.7719 160.926 76.1966C160.902 76.1551 160.882 76.1117 160.864 76.0669C160.909 75.7942 161.011 75.534 161.162 75.3029C161.314 75.0717 161.512 74.8747 161.744 74.7246C162.494 74.2113 163.34 74.2846 163.65 74.8712C163.672 74.9134 163.69 74.9567 163.707 75.0009C163.666 75.2658 163.571 75.5194 163.427 75.7457C163.284 75.9719 163.095 76.1658 162.872 76.315Z" fill="#263238"/>
<path d="M161.225 74.0872C161.227 74.1078 161.227 74.1287 161.225 74.1493C161.129 75.0009 159.578 76.0612 157.677 76.5914C156.75 76.8501 155.76 76.7639 154.891 76.3488C154.672 76.2496 154.466 76.1246 154.276 75.9766C154.276 75.9766 155.856 73.9124 157.79 73.3991C158.052 73.3283 158.317 73.2718 158.585 73.2299C158.845 73.192 159.107 73.1694 159.369 73.1623C160.492 73.1341 161.242 73.4781 161.225 74.0872Z" fill="#BF2132"/>
<g opacity="0.2">
<path d="M157.672 76.5914C156.744 76.8501 155.755 76.7639 154.886 76.3489C155.747 75.3169 156.872 74.5373 158.14 74.0929C159.499 73.7263 160.667 73.777 161.219 74.1323C161.124 75.0122 159.573 76.0612 157.672 76.5914Z" fill="black"/>
</g>
<path d="M167.175 68.0186C167.149 68.3036 167.102 68.5864 167.034 68.8646C166.796 69.9655 166.279 70.987 165.534 71.8312C164.191 73.2694 162.787 74.0195 162.105 73.7206C162.055 73.7033 162.009 73.6765 161.969 73.6416C161.552 73.3032 161.755 72.4065 162.415 71.3856C162.587 71.1023 162.775 70.8292 162.979 70.5678C163.142 70.3704 163.312 70.1674 163.498 69.9644C164.501 68.9629 165.782 68.2851 167.175 68.0186Z" fill="#BF2132"/>
<g opacity="0.2">
<path d="M167.034 68.8647C166.796 69.9657 166.279 70.9872 165.534 71.8314C164.191 73.2696 162.787 74.0197 162.104 73.7208C162.138 72.9876 162.793 71.8145 163.842 70.6808C164.718 69.7928 165.823 69.1643 167.034 68.8647Z" fill="black"/>
</g>
<path d="M160.74 72.4968C160.52 73.0608 159.415 73.4838 158.27 73.4048C157.912 73.3526 157.573 73.2103 157.285 72.9913C156.997 72.7723 156.769 72.4838 156.623 72.1527C156.623 72.1527 157.943 71.1263 159.082 71.2334C160.221 71.3406 160.971 71.9102 160.74 72.4968Z" fill="#BF2132"/>
<path d="M161.028 72.3275C161.547 72.4685 162.455 71.6846 163.075 70.5284C163.438 69.7605 163.514 68.8883 163.29 68.0693C162.436 68.4925 161.718 69.1448 161.214 69.9531C160.588 71.1431 160.503 72.1922 161.028 72.3275Z" fill="#BF2132"/>
<path d="M168.467 80.5112C168.221 80.8177 167.959 81.1114 167.683 81.391C166.876 82.2201 165.489 83.4214 164.299 83.7485C162.432 84.2561 160.385 84.0418 160.249 82.9759C160.246 82.9402 160.246 82.9044 160.249 82.8687C160.249 81.7069 162.291 80.1164 164.316 79.5467C166.34 78.9771 168.467 80.5112 168.467 80.5112Z" fill="#BF2132"/>
<g opacity="0.2">
<path d="M167.683 81.3911C166.876 82.2202 165.489 83.4215 164.299 83.7486C162.432 84.2562 160.384 84.0419 160.249 82.9759C161.226 81.8343 162.519 81.008 163.966 80.6015C165.494 80.1559 167.011 80.9568 167.683 81.3911Z" fill="black"/>
</g>
<path d="M159.409 82.953C159.38 83 159.346 83.0435 159.308 83.0828C158.434 84.1149 156.285 84.2728 154.559 83.3986C153.431 82.8346 153.042 81.5712 152.867 80.7309C152.807 80.4429 152.771 80.1505 152.76 79.8567C152.76 79.8567 155.552 78.6159 157.435 79.428C159.319 80.2402 160.216 81.8081 159.409 82.953Z" fill="#BF2132"/>
<g opacity="0.2">
<path d="M159.307 83.083C158.433 84.1151 156.284 84.273 154.558 83.3988C153.43 82.8348 153.041 81.5715 152.866 80.7311C153.712 80.4322 155.641 79.8907 157.034 80.4999C158.427 81.109 159.273 82.1129 159.307 83.083Z" fill="black"/>
</g>
<path d="M152.759 88.7624C152.624 88.8019 152.517 88.706 152.517 88.5481C152.515 88.4725 152.537 88.3983 152.58 88.3357C152.622 88.2731 152.683 88.2252 152.754 88.1984C157.333 86.7941 161.851 81.0526 161.93 76.659C161.939 76.5879 161.97 76.5211 162.017 76.4669C162.064 76.4128 162.126 76.3737 162.195 76.3544C162.336 76.315 162.449 76.3939 162.443 76.5236C162.195 81.8986 157.796 86.8223 152.759 88.7624Z" fill="#263238"/>
<path d="M152.714 115.902V115.519C152.675 109.817 152.601 104.019 152.528 98.4125L152.472 94.0189L152.663 93.9512C161.456 90.8944 168.455 88.7737 175.308 87.0704L175.635 86.9858V87.3299C176.047 94.8875 176.329 102.558 176.549 109.089V109.326L176.323 109.377C168.455 111.181 160.841 113.28 153.053 115.789L152.714 115.902ZM153.041 94.4137L153.092 98.4068C153.16 103.889 153.233 109.551 153.273 115.135C160.875 112.693 168.32 110.623 175.996 108.88C175.782 102.507 175.511 95.0567 175.111 87.7021C168.422 89.3716 161.586 91.4527 153.041 94.4137Z" fill="#BF2132"/>
<path d="M155.337 114.977C157.068 113.02 158.016 111.971 160.007 109.766C163.261 108.813 164.784 108.514 167.824 107.781C168.991 106.281 169.612 105.418 170.796 103.951C170.926 103.793 171.101 103.677 171.298 103.618C171.862 103.449 172.251 103.968 171.941 104.532C170.915 106.388 170.379 107.561 169.341 109.349C166.882 110.251 165.856 110.55 163.323 111.531L161.71 112.8C159.048 113.658 157.689 114.165 155.337 114.977Z" fill="#263238"/>
<path d="M168.889 96.6245C169.188 100.533 169.29 102.518 169.425 107.341C165.748 108.367 164.084 108.683 160.243 109.895C160.142 105.276 160.294 103.015 160.215 99.123C163.921 97.8427 165.252 97.572 168.889 96.6245Z" fill="#BF2132"/>
<path d="M161.636 103.285C161.637 103.561 161.686 103.834 161.783 104.092L160.271 104.571C160.271 103.861 160.271 103.517 160.271 102.834C160.875 102.637 161.18 102.535 161.783 102.349C161.684 102.651 161.635 102.967 161.636 103.285Z" fill="#263238"/>
<path d="M169.15 100.358C169.189 101.03 169.212 101.374 169.245 102.05L167.83 102.428C167.904 102.141 167.935 101.845 167.92 101.548C167.904 101.261 167.838 100.978 167.723 100.714L169.15 100.358Z" fill="#263238"/>
<path opacity="0.2" d="M167.92 101.571C167.934 101.867 167.904 102.164 167.829 102.451C167.667 103.148 167.319 103.788 166.822 104.305C166.326 104.821 165.7 105.194 165.009 105.384C163.526 105.767 162.189 105.203 161.778 104.092C161.678 103.835 161.629 103.561 161.631 103.286C161.627 102.968 161.675 102.652 161.772 102.349C162.009 101.668 162.404 101.053 162.925 100.554C163.445 100.055 164.077 99.6868 164.767 99.4786C165.327 99.2856 165.939 99.3074 166.484 99.5398C167.029 99.7721 167.468 100.199 167.717 100.736C167.836 100.999 167.905 101.282 167.92 101.571Z" fill="black"/>
<path d="M163.351 101.52C163.402 101.458 163.458 101.402 163.515 101.345C163.527 101.366 163.544 101.384 163.565 101.396C164.021 101.658 164.386 102.051 164.614 102.524L164.688 102.665C164.941 103.173 165.299 103.623 165.737 103.985C165.424 104.084 165.094 104.112 164.769 104.068C164.445 104.024 164.134 103.909 163.859 103.731C162.996 103.212 162.776 102.225 163.351 101.52Z" fill="white"/>
<path d="M166.38 103.556C166.335 103.619 166.282 103.676 166.222 103.726C166.219 103.704 166.211 103.683 166.2 103.665C166.188 103.646 166.173 103.631 166.155 103.618C165.746 103.288 165.419 102.867 165.202 102.389L165.134 102.248C164.896 101.755 164.522 101.34 164.057 101.052C164.352 100.939 164.67 100.901 164.984 100.942C165.297 100.983 165.595 101.103 165.85 101.289C166.036 101.401 166.198 101.549 166.325 101.725C166.453 101.9 166.545 102.099 166.594 102.311C166.643 102.522 166.65 102.741 166.613 102.955C166.577 103.169 166.497 103.374 166.38 103.556Z" fill="white"/>
<path d="M168.828 96.6418C168.264 95.5138 168.01 94.9498 167.485 93.8218C164.857 94.5155 163.955 94.7073 161.31 95.6097C160.887 97.0197 160.667 97.7077 160.215 99.1121C160.202 99.1431 160.19 99.1752 160.182 99.208C163.893 97.9559 165.229 97.6908 168.862 96.7377C168.85 96.6925 168.839 96.6756 168.828 96.6418Z" fill="#BF2132"/>
<path d="M168.36 93.5734C164.976 94.4758 163.848 94.7014 160.43 95.8914C160.43 95.5361 160.43 95.3274 160.43 94.989C163.814 93.8046 164.908 93.5677 168.326 92.6597C168.32 93.0263 168.337 93.2068 168.36 93.5734Z" fill="#263238"/>
<path d="M178.906 83.6583V83.3199C178.816 81.5321 178.731 79.7385 178.641 77.9507C178.387 72.6547 178.122 67.1839 177.801 61.8033V61.5665L178.032 61.5101C185.119 59.7929 192.366 58.8194 199.656 58.6055H199.932V58.8762C200.282 64.8546 200.773 70.9063 201.241 76.755L201.579 80.985H201.286C193.871 81.0927 186.487 81.964 179.25 83.585L178.906 83.6583ZM178.342 62.0064C178.658 67.3136 178.906 72.7224 179.171 77.9225C179.256 79.6145 179.335 81.3065 179.419 82.959C186.49 81.3927 193.701 80.5443 200.942 80.4266L200.654 76.7945C200.186 71.0304 199.707 65.0689 199.357 59.1807C192.28 59.4042 185.244 60.351 178.359 62.0064H178.342Z" fill="#BF2132"/>
<path d="M186.813 76.3486C186.604 76.7573 186.308 77.1151 185.945 77.3967C185.583 77.6784 185.163 77.877 184.715 77.9785C184.493 78.008 184.267 77.9707 184.067 77.8714C183.266 77.4766 183.204 76.1343 183.909 74.916C184.208 74.3817 184.642 73.9346 185.166 73.6188C185.379 73.4742 185.624 73.3842 185.88 73.3567C186.136 73.3291 186.394 73.3649 186.633 73.4609C187.451 73.8839 187.53 75.1303 186.813 76.3486Z" fill="#BF2132"/>
<g opacity="0.2">
<path d="M186.814 76.3488C186.605 76.7576 186.308 77.1154 185.946 77.397C185.583 77.6787 185.163 77.8773 184.716 77.9788C184.496 78.0089 184.272 77.9736 184.073 77.8773C183.986 77.8346 183.906 77.7795 183.836 77.7137L183.802 77.6799C183.769 77.6468 183.739 77.6109 183.712 77.5727C183.652 77.4973 183.602 77.4138 183.565 77.3246L183.514 77.2005C183.498 77.1569 183.486 77.1114 183.481 77.0651C183.465 77.0273 183.456 76.9874 183.452 76.9467C183.452 76.8903 183.452 76.8283 183.452 76.7662C183.436 76.4641 183.468 76.1613 183.548 75.8695C183.615 75.6269 183.704 75.391 183.813 75.1645C183.85 75.0832 183.892 75.0042 183.937 74.9276C184.237 74.3932 184.67 73.9462 185.195 73.6304C185.408 73.4872 185.653 73.398 185.909 73.3704C186.164 73.3429 186.423 73.3779 186.662 73.4725C186.747 73.5124 186.825 73.5657 186.893 73.6304C187.031 73.7476 187.14 73.8966 187.209 74.0647C187.316 74.4509 187.336 74.8561 187.268 75.2511C187.2 75.6462 187.045 76.0211 186.814 76.3488Z" fill="black"/>
</g>
<path d="M186.47 74.9556C186.462 75.552 186.296 76.1357 185.99 76.6476C185.683 77.1962 185.245 77.661 184.716 78.0012C184.496 78.0293 184.273 77.9941 184.073 77.8997C183.986 77.857 183.906 77.8019 183.836 77.7361L183.802 77.7023C183.769 77.6692 183.739 77.6333 183.712 77.5951C183.652 77.5197 183.602 77.4361 183.565 77.3469L183.514 77.2229C183.498 77.1792 183.486 77.1338 183.481 77.0875C183.465 77.0497 183.456 77.0097 183.452 76.9691C183.452 76.9127 183.452 76.8506 183.452 76.7886C183.436 76.4864 183.468 76.1837 183.548 75.8918C183.611 75.648 183.7 75.4116 183.813 75.1868C183.85 75.1056 183.892 75.0265 183.937 74.9499C184.237 74.4156 184.67 73.9685 185.195 73.6527C185.417 73.6275 185.642 73.6646 185.844 73.7599C186.1 73.8812 186.302 74.0946 186.408 74.3577C186.464 74.5517 186.485 74.7542 186.47 74.9556Z" fill="#BF2132"/>
<path d="M187.181 74.0534C186.973 74.3758 186.735 74.678 186.47 74.9558C186.213 75.2358 185.932 75.4924 185.63 75.7228C185.574 75.771 185.515 75.8162 185.455 75.8582C184.859 76.3307 184.361 76.915 183.988 77.5784C183.952 77.6376 183.899 77.6847 183.836 77.7137L183.802 77.6799C183.769 77.6468 183.739 77.6109 183.712 77.5727C183.652 77.4973 183.602 77.4138 183.565 77.3246C183.969 76.6029 184.514 75.9699 185.167 75.4634L185.342 75.3224C185.716 75.0315 186.056 74.7005 186.357 74.3354C186.523 74.1346 186.674 73.9215 186.808 73.698C186.824 73.6716 186.845 73.6486 186.87 73.6304C187.007 73.7435 187.114 73.8889 187.181 74.0534Z" fill="#263238"/>
<path d="M189.222 70.1673C189.104 70.1814 188.985 70.1814 188.867 70.1673H188.759C188.579 70.1279 188.393 70.0658 188.195 70.0094C187.662 69.8059 187.191 69.4677 186.827 69.0279C186.463 68.5881 186.22 68.0616 186.12 67.4996C185.776 66.0163 186.283 64.5217 187.31 63.9464C187.473 63.8586 187.647 63.7959 187.829 63.7603C188.013 63.7088 188.208 63.7088 188.393 63.7603C188.55 63.7979 188.701 63.8607 188.838 63.9464C189.826 64.6513 190.505 65.7097 190.733 66.9018C191.139 68.7066 190.491 70.1109 189.222 70.1673Z" fill="#BF2132"/>
<g opacity="0.2">
<path d="M189.222 70.1673C189.104 70.1814 188.985 70.1814 188.867 70.1673H188.759C188.579 70.1279 188.393 70.0658 188.195 70.0094C187.662 69.8059 187.191 69.4677 186.827 69.0279C186.463 68.5881 186.22 68.0616 186.12 67.4996C185.776 66.0163 186.283 64.5217 187.31 63.9464C187.473 63.8586 187.647 63.7959 187.829 63.7603C188.013 63.7088 188.208 63.7088 188.393 63.7603C188.55 63.7979 188.701 63.8607 188.838 63.9464C189.826 64.6513 190.505 65.7097 190.733 66.9018C191.139 68.7066 190.491 70.1109 189.222 70.1673Z" fill="black"/>
</g>
<path d="M188.867 70.1448H188.76C188.579 70.1053 188.393 70.0432 188.196 69.9868C187.663 69.7833 187.191 69.4452 186.827 69.0053C186.464 68.5655 186.22 68.039 186.12 67.477C185.776 65.9937 186.261 64.4935 187.31 63.9238C187.698 63.9222 188.074 64.0536 188.376 64.2961C188.585 64.4725 188.774 64.6711 188.94 64.8883C189.409 65.5163 189.738 66.2375 189.905 67.0033C190.271 68.5374 189.831 69.7951 188.867 70.1448Z" fill="#BF2132"/>
<path d="M188.94 64.8599C188.94 64.8599 188.94 64.9051 188.94 64.9897C188.94 65.0743 188.94 65.0968 188.94 65.1701C188.94 65.2435 188.94 65.1701 188.94 65.1701C188.957 65.6397 188.93 66.1098 188.861 66.5745C188.861 66.6365 188.861 66.7042 188.821 66.7719C188.782 66.8396 188.821 66.8114 188.821 66.8283C188.815 66.8795 188.805 66.9304 188.793 66.9806C188.793 67.0877 188.759 67.1385 188.731 67.24C188.52 68.1357 188.52 69.0684 188.731 69.9641C188.743 70.0066 188.743 70.0514 188.731 70.0939C188.551 70.0544 188.365 69.9923 188.167 69.9359C187.958 68.9891 187.97 68.0068 188.201 67.0652C188.229 66.958 188.24 66.9073 188.263 66.8057C188.286 66.7042 188.297 66.6591 188.314 66.5858C188.314 66.535 188.314 66.473 188.348 66.4166C188.382 66.3602 188.387 66.1459 188.398 66.0218C188.426 65.7237 188.436 65.4242 188.427 65.125C188.427 65.0686 188.427 65.0404 188.427 64.984C188.422 64.7539 188.405 64.5242 188.376 64.2959C188.376 64.1944 188.376 64.0873 188.331 63.9857C188.317 63.943 188.313 63.8974 188.321 63.8531C188.329 63.8088 188.348 63.7672 188.376 63.7319C188.533 63.7695 188.684 63.8324 188.821 63.9181C188.881 64.2292 188.92 64.5438 188.94 64.8599Z" fill="#263238"/>
<path d="M195.905 76.7438C195.713 76.9888 195.469 77.1875 195.189 77.3252C194.91 77.4628 194.604 77.5359 194.292 77.539C193.416 77.5763 192.549 77.3483 191.805 76.8848C190.158 75.9147 189.357 74.2396 190.04 73.2921C190.247 73.0187 190.538 72.8206 190.869 72.7281C192.017 72.5057 193.207 72.7448 194.18 73.3936C195.798 74.3524 196.565 75.7737 195.905 76.7438Z" fill="#BF2132"/>
<g opacity="0.2">
<path d="M195.905 76.7435C195.821 76.8591 195.725 76.9651 195.617 77.0593C195.481 77.1672 195.332 77.2563 195.172 77.3244C194.894 77.4483 194.596 77.5209 194.292 77.5387C193.416 77.5732 192.55 77.3454 191.805 76.8845C190.163 75.92 189.351 74.228 190.039 73.2918C190.142 73.1483 190.272 73.0274 190.423 72.9365C190.555 72.8514 190.7 72.7867 190.852 72.7447C192 72.5223 193.189 72.7614 194.162 73.4102C195.792 74.3521 196.571 75.7734 195.905 76.7435Z" fill="black"/>
</g>
<path d="M195.093 76.9016C194.896 77.1897 194.617 77.4118 194.292 77.5389C193.416 77.5763 192.549 77.3483 191.805 76.8847C190.158 75.9146 189.357 74.2395 190.04 73.292C190.247 73.0186 190.538 72.8206 190.869 72.728C191.754 72.768 192.614 73.0341 193.367 73.5007C194.98 74.4482 195.747 75.9034 195.093 76.9016Z" fill="#BF2132"/>
<path d="M191.901 73.5062L191.731 73.3652L191.861 73.4668C191.877 73.4769 191.891 73.4904 191.901 73.5062Z" fill="white"/>
<path d="M195.618 77.0592C195.482 77.1671 195.332 77.2563 195.172 77.3243C195.076 77.2679 194.975 77.2115 194.884 77.1495C194.129 76.654 193.467 76.0298 192.927 75.3052L192.758 75.0796L192.634 74.933C192.301 74.5254 191.933 74.148 191.534 73.805L191.224 73.5681C191.015 73.4045 190.79 73.2579 190.558 73.1112C190.526 73.0929 190.497 73.0679 190.475 73.0377C190.452 73.0076 190.437 72.9731 190.429 72.9364L190.857 72.7446C191.066 72.8687 191.263 73.0041 191.455 73.1451L191.557 73.2184C191.566 73.2208 191.576 73.2208 191.585 73.2184L191.737 73.3425L191.906 73.4835L192.217 73.7485C192.732 74.2222 193.195 74.7498 193.598 75.3221C194.051 75.8548 194.579 76.3184 195.166 76.6983L195.51 76.907C195.538 76.9238 195.561 76.946 195.58 76.9721C195.598 76.9983 195.611 77.0279 195.618 77.0592Z" fill="#263238"/>
<path d="M179.561 108.683V108.339C179.358 103.669 179.267 98.9312 179.177 94.3459C179.132 91.7515 179.078 89.1589 179.014 86.5683V86.3427L179.234 86.2863C186.523 84.4267 194.029 83.5504 201.551 83.6806H201.811V83.9344C202.425 91.4751 202.86 99.1173 203.254 106.297V106.624L202.927 106.59C194.101 105.654 187.564 106.664 179.882 108.592L179.561 108.683ZM179.561 86.777C179.625 89.2962 179.677 91.8154 179.719 94.3346C179.809 98.8014 179.899 103.421 180.085 107.966C187.389 106.15 194.072 105.146 202.645 106.004C202.262 99.0045 201.833 91.5823 201.241 84.2446C193.937 84.1461 186.651 84.9973 179.566 86.777H179.561Z" fill="#BF2132"/>
<path d="M195.308 100.036C192.706 100.08 190.112 100.342 187.553 100.82C186.86 97.38 186.521 96.0716 185.861 93.4884C190.041 92.3999 192.065 92.3604 196.013 92.4225C195.754 95.141 195.602 96.5115 195.308 100.036Z" fill="#BF2132"/>
<g opacity="0.2">
<path d="M196.03 92.6313C194.981 92.6313 194.462 92.6313 193.385 92.6313C193.385 95.2596 193.385 96.6245 193.356 100.099C194.152 100.054 194.535 100.042 195.308 100.014C195.596 96.6188 195.742 95.2709 196.03 92.6313Z" fill="black"/>
</g>
<path d="M198.252 90.0652C198.277 90.3932 198.23 90.7227 198.114 91.0306C197.998 91.3384 197.816 91.6172 197.581 91.8474C197.581 91.8474 197.581 91.8474 197.547 91.8474C197.513 91.8474 197.547 91.8474 197.547 91.8474C197.202 92.1696 196.778 92.3935 196.317 92.496C196.223 92.5234 196.127 92.5423 196.03 92.5524H195.883H195.59C192.054 92.5524 190.204 92.5185 186.526 93.4548C186.325 93.5096 186.119 93.5436 185.912 93.5563C184.564 93.6353 183.458 92.8964 183.413 91.6556C183.422 90.8968 183.707 90.167 184.214 89.6027C184.737 88.9849 185.441 88.5486 186.227 88.3562C189.786 87.5215 191.738 87.5215 195.251 87.4369C195.992 87.4105 196.715 87.6677 197.273 88.1561C197.83 88.6446 198.181 89.3273 198.252 90.0652Z" fill="#BF2132"/>
<g opacity="0.2">
<path d="M198.252 90.0653C198.277 90.3934 198.229 90.7229 198.113 91.0307C197.997 91.3386 197.816 91.6174 197.581 91.8476C197.581 91.8476 197.581 91.8476 197.547 91.8476C197.173 92.133 196.756 92.3576 196.312 92.5131C196.219 92.5487 196.122 92.5733 196.024 92.5864C196.007 92.5916 195.99 92.5916 195.973 92.5864C194.845 92.5864 194.281 92.5864 193.119 92.5864C193.477 92.5879 193.832 92.5189 194.163 92.3834C194.525 92.2319 194.828 91.9668 195.026 91.628C195.225 91.2893 195.308 90.8952 195.263 90.5052C195.263 90.0992 195.223 89.8961 195.195 89.49C195.134 88.9555 194.88 88.4617 194.48 88.1021C194.079 87.7426 193.561 87.5421 193.023 87.5386C193.926 87.4991 194.366 87.4878 195.24 87.4653C195.978 87.4354 196.7 87.6874 197.26 88.1702C197.819 88.6531 198.174 89.3306 198.252 90.0653Z" fill="black"/>
</g>
<path d="M192.499 94.4419C192.539 95.0567 192.556 95.3669 192.595 96.0211C191.623 95.9984 190.651 96.0626 189.69 96.2129C189.645 95.553 189.628 95.2372 189.589 94.6168C190.551 94.4614 191.526 94.4028 192.499 94.4419Z" fill="#BF2132"/>
<path d="M192.499 94.4419C192.539 95.0567 192.556 95.3669 192.595 96.0211C191.623 95.9984 190.651 96.0626 189.69 96.2129C189.645 95.553 189.628 95.2372 189.589 94.6168C190.551 94.4614 191.526 94.4028 192.499 94.4419Z" fill="#BF2132"/>
<g opacity="0.5">
<path d="M192.499 94.4419C192.539 95.0567 192.556 95.3669 192.595 96.0211C191.623 95.9984 190.651 96.0626 189.69 96.2129C189.645 95.553 189.628 95.2372 189.589 94.6168C190.551 94.4614 191.526 94.4028 192.499 94.4419Z" fill="white"/>
</g>
<path d="M191.281 94.4813C191.32 95.096 191.337 95.4119 191.377 96.0718C190.81 96.0716 190.244 96.1187 189.685 96.2128C189.639 95.5529 189.622 95.237 189.583 94.6166C190.143 94.519 190.712 94.4737 191.281 94.4813Z" fill="white"/>
<path d="M198.867 101.091C198.888 101.376 198.803 101.659 198.63 101.887C198.552 101.985 198.452 102.064 198.339 102.119C198.226 102.173 198.102 102.202 197.976 102.202C192.9 102.163 190.599 102.349 184.818 103.483C184.687 103.519 184.549 103.524 184.415 103.499C184.281 103.474 184.155 103.418 184.046 103.337C183.937 103.255 183.849 103.149 183.787 103.028C183.725 102.907 183.692 102.773 183.69 102.637C183.682 102.334 183.784 102.04 183.978 101.808C184.164 101.571 184.427 101.407 184.722 101.345C190.486 100.245 192.765 100.031 197.858 99.9858C198.136 100.005 198.396 100.13 198.584 100.336C198.772 100.542 198.874 100.812 198.867 101.091Z" fill="#BF2132"/>
<path d="M192.29 90.1101C192.284 90.2924 192.242 90.4717 192.165 90.6372C192.089 90.8027 191.979 90.951 191.844 91.0732C191.709 91.1954 191.55 91.289 191.378 91.3483C191.205 91.4077 191.022 91.4316 190.841 91.4186C190.691 91.4244 190.542 91.413 190.395 91.3847C190.109 91.3627 189.839 91.2412 189.633 91.0414C189.427 90.8415 189.298 90.5759 189.267 90.2906C189.253 89.9936 189.345 89.7012 189.525 89.465C189.706 89.2287 189.964 89.0637 190.254 88.999C190.398 88.9601 190.545 88.9355 190.694 88.9257C191.061 88.8797 191.432 88.9772 191.729 89.1978C192.027 89.4184 192.228 89.7452 192.29 90.1101Z" fill="#BF2132"/>
<path d="M192.29 90.1101C192.284 90.2924 192.242 90.4717 192.165 90.6372C192.089 90.8027 191.979 90.951 191.844 91.0732C191.709 91.1954 191.55 91.289 191.378 91.3483C191.205 91.4077 191.022 91.4316 190.841 91.4186C190.691 91.4244 190.542 91.413 190.395 91.3847C190.109 91.3627 189.839 91.2412 189.633 91.0414C189.427 90.8415 189.298 90.5759 189.267 90.2906C189.253 89.9936 189.345 89.7012 189.525 89.465C189.706 89.2287 189.964 89.0637 190.254 88.999C190.398 88.9601 190.545 88.9355 190.694 88.9257C191.061 88.8797 191.432 88.9772 191.729 89.1978C192.027 89.4184 192.228 89.7452 192.29 90.1101Z" fill="white"/>
<path d="M191.444 90.1383C191.44 90.4352 191.333 90.7216 191.142 90.9488C190.951 91.176 190.687 91.3301 190.395 91.3847C190.109 91.3627 189.839 91.2412 189.633 91.0414C189.427 90.8416 189.298 90.5759 189.267 90.2906C189.253 89.9936 189.345 89.7012 189.525 89.465C189.706 89.2287 189.964 89.0637 190.254 88.999C190.551 89.0287 190.83 89.157 191.045 89.3635C191.261 89.57 191.401 89.8428 191.444 90.1383Z" fill="white"/>
<path d="M193.306 92.6541C193.351 93.3309 193.374 93.6806 193.413 94.3912C191.833 94.3356 190.252 94.4681 188.704 94.786C188.658 94.0641 188.636 93.7201 188.591 93.0433C190.141 92.724 191.724 92.5934 193.306 92.6541Z" fill="#BF2132"/>
<g opacity="0.5">
<path d="M193.306 92.6541C193.351 93.3309 193.374 93.6806 193.413 94.3912C191.833 94.3356 190.252 94.4681 188.704 94.786C188.658 94.0641 188.636 93.7201 188.591 93.0433C190.141 92.724 191.724 92.5934 193.306 92.6541Z" fill="white"/>
</g>
<path d="M191.845 92.6936C191.89 93.3647 191.913 93.7144 191.958 94.4307C190.863 94.4215 189.771 94.5408 188.704 94.786C188.658 94.0641 188.636 93.7201 188.591 93.0433C189.658 92.7999 190.75 92.6826 191.845 92.6936Z" fill="white"/>
<path d="M194.58 90.0537C194.58 90.2033 194.521 90.3468 194.415 90.4526C194.309 90.5583 194.166 90.6177 194.016 90.6177C193.864 90.6277 193.714 90.5798 193.596 90.4836C193.477 90.3873 193.4 90.2499 193.379 90.0989C193.379 89.9493 193.438 89.8058 193.544 89.7001C193.65 89.5943 193.793 89.5349 193.943 89.5349C194.095 89.5235 194.246 89.5709 194.365 89.6674C194.483 89.7639 194.56 89.9022 194.58 90.0537Z" fill="#BF2132"/>
<path d="M196.616 90.048C196.623 90.1238 196.613 90.2002 196.587 90.2718C196.561 90.3434 196.52 90.4084 196.466 90.4622C196.412 90.5161 196.347 90.5574 196.276 90.5833C196.204 90.6092 196.128 90.619 196.052 90.612C195.895 90.6142 195.743 90.5575 195.626 90.4531C195.509 90.3486 195.436 90.2041 195.42 90.048C195.418 89.9745 195.431 89.9013 195.458 89.8332C195.486 89.765 195.528 89.7036 195.581 89.6529C195.635 89.6023 195.698 89.5635 195.768 89.5393C195.837 89.515 195.911 89.5058 195.984 89.5123C196.138 89.5055 196.288 89.5569 196.405 89.6563C196.522 89.7556 196.598 89.8955 196.616 90.048Z" fill="#BF2132"/>
<path d="M186.363 90.9563C186.356 91.1172 186.297 91.2715 186.196 91.3964C186.094 91.5213 185.955 91.6102 185.799 91.65C185.461 91.7346 185.167 91.5711 185.15 91.2722C185.162 91.1084 185.226 90.9526 185.332 90.8277C185.439 90.7028 185.583 90.6155 185.743 90.5784C186.058 90.4938 186.346 90.663 186.363 90.9563Z" fill="#BF2132"/>
<path d="M194.93 95.6489C194.016 95.6489 193.554 95.6489 192.601 95.694C192.601 95.4007 192.573 95.2597 192.556 94.9721C193.509 94.9721 193.971 94.9383 194.885 94.9326C194.902 95.2146 194.913 95.3613 194.93 95.6489Z" fill="#263238"/>
<path d="M193.322 92.8459C191.744 92.7836 190.165 92.9123 188.618 93.2294C188.591 93.2427 188.561 93.2484 188.531 93.2461C188.501 93.2437 188.472 93.2334 188.447 93.2161C188.423 93.1989 188.403 93.1753 188.39 93.1479C188.378 93.1205 188.373 93.0902 188.376 93.0602C188.376 93.0041 188.395 92.9495 188.429 92.9055C188.464 92.8614 188.513 92.8305 188.568 92.8177C190.116 92.5007 191.698 92.3719 193.277 92.4342C193.333 92.4324 193.388 92.4516 193.431 92.4881C193.474 92.5246 193.501 92.5758 193.508 92.6316C193.511 92.658 193.508 92.6846 193.499 92.7098C193.491 92.7349 193.478 92.7582 193.461 92.7782C193.443 92.7982 193.422 92.8145 193.398 92.8262C193.374 92.8378 193.349 92.8445 193.322 92.8459Z" fill="#263238"/>
<path d="M194.016 90.804C193.81 90.8149 193.607 90.7488 193.446 90.6185C193.286 90.4883 193.179 90.3032 193.147 90.099C193.148 89.9996 193.169 89.9012 193.208 89.81C193.248 89.7187 193.306 89.6364 193.378 89.5679C193.45 89.4995 193.535 89.4463 193.628 89.4115C193.722 89.3768 193.821 89.3613 193.92 89.3658C194.127 89.3511 194.331 89.4159 194.492 89.547C194.652 89.678 194.756 89.8654 194.783 90.0708C194.784 90.1702 194.765 90.2688 194.726 90.3604C194.687 90.452 194.63 90.5348 194.558 90.6035C194.486 90.6722 194.401 90.7254 194.308 90.7599C194.215 90.7944 194.115 90.8094 194.016 90.804ZM193.948 89.7381C193.901 89.7358 193.854 89.7431 193.809 89.7597C193.765 89.7762 193.724 89.8016 193.69 89.8343C193.656 89.867 193.629 89.9063 193.61 89.9499C193.591 89.9935 193.582 90.0404 193.582 90.0877C193.596 90.1849 193.646 90.2732 193.722 90.3349C193.799 90.3966 193.896 90.4272 193.993 90.4205C194.04 90.4236 194.087 90.417 194.131 90.4011C194.175 90.3851 194.216 90.3602 194.25 90.3278C194.283 90.2955 194.31 90.2564 194.328 90.2131C194.346 90.1699 194.355 90.1233 194.354 90.0765C194.346 89.9782 194.3 89.8869 194.227 89.821C194.154 89.755 194.058 89.7193 193.96 89.7211L193.948 89.7381Z" fill="white"/>
<path d="M196.074 90.8044C195.867 90.8092 195.665 90.7377 195.507 90.6036C195.349 90.4695 195.246 90.282 195.217 90.0768C195.215 89.9784 195.234 89.8807 195.272 89.7897C195.309 89.6988 195.365 89.6167 195.436 89.5484C195.507 89.4801 195.591 89.4272 195.684 89.3929C195.776 89.3587 195.874 89.3438 195.973 89.3492C196.181 89.3419 196.384 89.4124 196.542 89.547C196.701 89.6816 196.803 89.8705 196.83 90.0768C196.833 90.1757 196.816 90.2742 196.779 90.3659C196.742 90.4576 196.686 90.5405 196.614 90.6091C196.543 90.6777 196.458 90.7306 196.365 90.7642C196.272 90.7979 196.173 90.8115 196.074 90.8044ZM196.001 89.7271C195.954 89.7247 195.907 89.7321 195.863 89.7488C195.82 89.7654 195.78 89.791 195.746 89.8239C195.713 89.8568 195.687 89.8962 195.669 89.9398C195.652 89.9833 195.644 90.03 195.646 90.0768C195.658 90.1735 195.706 90.2621 195.78 90.3256C195.854 90.3891 195.949 90.423 196.046 90.4208C196.093 90.424 196.14 90.4174 196.184 90.4014C196.228 90.3854 196.268 90.3605 196.302 90.3282C196.336 90.2958 196.363 90.2568 196.381 90.2135C196.399 90.1702 196.408 90.1237 196.407 90.0768C196.405 89.9701 196.362 89.8682 196.286 89.7933C196.21 89.7184 196.108 89.6764 196.001 89.6764V89.7271Z" fill="white"/>
<path d="M185.787 91.8421C185.325 91.9605 184.924 91.7349 184.907 91.3288C184.922 91.1067 185.008 90.8952 185.152 90.7256C185.296 90.556 185.491 90.4373 185.708 90.387C186.171 90.2742 186.554 90.5054 186.577 90.9058C186.565 91.1266 186.481 91.3375 186.339 91.5064C186.196 91.6754 186.003 91.7933 185.787 91.8421ZM185.731 90.7705C185.627 90.7927 185.534 90.8485 185.466 90.929C185.398 91.0096 185.358 91.1105 185.353 91.216C185.358 91.2621 185.374 91.3063 185.399 91.3452C185.424 91.3841 185.458 91.4166 185.498 91.4401C185.538 91.4636 185.583 91.4775 185.629 91.4807C185.675 91.4839 185.722 91.4763 185.765 91.4586C185.867 91.4354 185.96 91.3794 186.028 91.2991C186.096 91.2187 186.136 91.1182 186.142 91.013C186.12 90.8043 185.951 90.7141 185.731 90.7705Z" fill="white"/>
<path d="M190.711 89.7606C190.655 89.7688 190.599 89.7551 190.554 89.7225C190.509 89.6898 190.478 89.6408 190.468 89.5858C190.468 89.3376 190.468 89.2192 190.429 88.971C190.429 88.8695 190.519 88.7849 190.649 88.7793C190.705 88.7709 190.762 88.7844 190.808 88.817C190.854 88.8496 190.886 88.8986 190.897 88.9541C190.897 89.1966 190.897 89.3207 190.936 89.5689C190.942 89.676 190.846 89.755 190.711 89.7606Z" fill="#263238"/>
<path d="M193.046 97.008H192.758C192.758 96.9573 192.758 96.9291 192.758 96.8727C191.735 96.8616 190.712 96.9351 189.701 97.0926C189.746 97.7638 189.763 98.1135 189.808 98.8354C189.803 99.0322 189.838 99.228 189.911 99.4108C189.984 99.5936 190.093 99.7596 190.233 99.8985C190.372 100.037 190.538 100.146 190.722 100.219C190.905 100.291 191.101 100.325 191.297 100.319H191.512C191.798 100.284 192.068 100.167 192.29 99.9821C192.511 99.7969 192.674 99.5513 192.758 99.2753C192.826 99.2489 192.884 99.204 192.927 99.1456L193.44 98.5139C193.516 98.4179 193.552 98.2971 193.542 98.1755C193.542 97.8822 193.542 97.7356 193.503 97.448C193.5 97.3293 193.45 97.2165 193.364 97.1342C193.279 97.0518 193.164 97.0065 193.046 97.008ZM193.198 98.1812C193.207 98.2029 193.207 98.2271 193.198 98.2488L192.871 98.6493V98.5985C192.843 98.1022 192.831 97.8597 192.803 97.3803H193.091C193.113 97.3815 193.135 97.3906 193.151 97.4061C193.168 97.4216 193.178 97.4424 193.181 97.4649C193.175 97.7469 193.181 97.8935 193.198 98.1868V98.1812Z" fill="#263238"/>
<path d="M189.273 100.86C190.69 100.647 192.117 100.506 193.548 100.437C193.647 100.418 193.74 100.379 193.824 100.323C193.907 100.267 193.978 100.195 194.033 100.11C192.274 100.171 190.52 100.345 188.782 100.629C188.842 100.701 188.917 100.759 189.002 100.799C189.087 100.839 189.179 100.86 189.273 100.86Z" fill="#263238"/>
<path d="M166.481 135.039C166.519 135.358 166.61 135.669 166.752 135.958C166.93 136.39 167.171 136.793 167.468 137.154C167.91 137.642 168.438 138.046 169.025 138.344C169.025 138.344 169.414 138.524 169.437 138.547C169.811 138.742 170.202 138.904 170.604 139.032C171.397 139.329 172.234 139.491 173.08 139.511C173.153 139.51 173.226 139.526 173.291 139.56C173.356 139.593 173.411 139.643 173.452 139.703C173.555 139.865 173.666 140.021 173.785 140.171C173.88 140.301 173.967 140.436 174.045 140.577C174.092 140.682 174.16 140.776 174.244 140.855C174.328 140.933 174.427 140.994 174.535 141.034C174.971 141.182 175.429 141.258 175.889 141.26C177.004 141.293 178.119 141.208 179.217 141.006C179.724 140.91 180.452 140.775 181.089 140.6C181.805 140.412 182.509 140.185 183.198 139.917C183.771 139.717 184.319 139.454 184.834 139.133C185.05 139.013 185.231 138.838 185.358 138.626C185.415 138.507 185.443 138.406 185.505 138.293C185.674 137.983 185.838 137.667 185.996 137.357C186.238 136.883 186.441 136.398 186.639 135.924C186.844 135.463 187.023 134.99 187.175 134.509C187.31 134.023 187.457 133.533 187.564 133.031C187.744 132.19 187.896 131.311 188.021 130.397C188.077 129.974 188.083 129.466 188.116 129.01C188.139 128.631 188.107 128.251 188.021 127.882C187.956 127.628 187.83 127.393 187.654 127.199C187.169 126.695 186.575 126.309 185.917 126.071C185.298 125.843 184.647 125.712 183.988 125.682C183.706 125.682 183.424 125.609 183.153 125.603C180.25 125.476 177.361 126.078 174.75 127.351C174.155 127.627 173.579 127.94 173.024 128.288C172.51 128.615 172.03 128.993 171.591 129.416C171.251 129.72 170.965 130.081 170.745 130.482C170.671 130.625 170.614 130.776 170.576 130.933C170.52 131.119 170.52 131.125 170.334 131.136C169.778 131.158 169.232 131.291 168.729 131.529C168.226 131.766 167.776 132.102 167.406 132.518C167.121 132.841 166.898 133.214 166.746 133.617C166.545 134.063 166.454 134.55 166.481 135.039ZM174.586 131.344C173.99 131.353 173.395 131.302 172.809 131.192C172.667 131.181 172.528 131.139 172.403 131.068C172.599 130.684 172.869 130.343 173.199 130.064C173.414 129.882 173.64 129.713 173.875 129.557C174.271 129.292 174.686 129.056 175.116 128.852C175.722 128.562 176.343 128.306 176.977 128.085C178.049 127.701 179.169 127.472 180.305 127.402C181.077 127.329 181.854 127.306 182.629 127.334C183.392 127.351 184.151 127.467 184.885 127.678C185.499 127.834 186.055 128.163 186.486 128.626C186.473 128.642 186.458 128.658 186.441 128.671C186.385 128.716 186.329 128.767 186.272 128.806C186.119 128.922 185.959 129.028 185.793 129.122C185.162 129.472 184.497 129.756 183.807 129.968L183.339 130.115C183.253 130.145 183.164 130.17 183.074 130.188C182.567 130.346 182.053 130.459 181.54 130.572C181.027 130.685 180.531 130.769 180.029 130.837C179.64 130.882 179.183 130.955 178.901 131.006C178.878 131.011 178.855 131.011 178.833 131.006C178.833 131.006 178.833 131.006 178.805 131.006L178.636 131.04L177.355 131.192C176.961 131.232 176.543 131.294 176.115 131.322C175.686 131.35 175.105 131.35 174.586 131.344ZM169.262 134.023C169.34 133.785 169.473 133.568 169.65 133.391C169.828 133.214 170.044 133.081 170.283 133.003C170.404 132.957 170.528 132.921 170.655 132.895C170.79 133.567 170.988 134.181 171.157 134.796C171.388 135.589 171.666 136.367 171.992 137.125C172.132 137.505 172.343 137.855 172.612 138.158C172.527 138.112 172.15 137.943 172.048 137.898C171.501 137.622 170.999 137.264 170.559 136.838C170.097 136.451 169.714 135.978 169.431 135.445C169.31 135.231 169.232 134.995 169.203 134.751C169.174 134.507 169.194 134.26 169.262 134.023Z" fill="#BF2132"/>
<path opacity="0.7" d="M171.829 131.57C173.081 132.247 175.083 132.083 179.268 131.536C183.453 130.989 185.951 130.092 187.023 128.953C187.733 128.203 187.401 127.176 186.876 126.567C186.572 126.366 186.247 126.2 185.906 126.071C185.287 125.842 184.636 125.711 183.977 125.682C183.701 125.682 183.413 125.608 183.148 125.597C180.24 125.45 177.344 126.057 174.739 127.357C174.147 127.631 173.572 127.942 173.019 128.287C172.713 128.486 172.419 128.702 172.139 128.936C171.225 129.816 170.892 131.074 171.829 131.57ZM172.393 131.068C172.584 130.684 172.853 130.345 173.182 130.07C173.402 129.889 173.622 129.714 173.859 129.556C174.257 129.293 174.671 129.056 175.1 128.846C175.705 128.557 176.326 128.305 176.961 128.09C177.495 127.905 178.039 127.752 178.591 127.633C179.15 127.526 179.715 127.451 180.283 127.408C181.055 127.333 181.831 127.308 182.607 127.334C183.371 127.352 184.129 127.47 184.863 127.684C185.477 127.838 186.035 128.165 186.47 128.626L186.425 128.671C186.371 128.721 186.315 128.768 186.256 128.812C186.106 128.928 185.948 129.031 185.782 129.122C185.152 129.474 184.486 129.759 183.797 129.974L183.323 130.12L183.064 130.194C182.556 130.335 182.043 130.464 181.529 130.572C181.016 130.679 180.52 130.775 180.012 130.837C179.623 130.887 179.166 130.955 178.884 131.006H178.822H178.788H178.647H178.614C178.208 131.062 177.785 131.107 177.333 131.164C176.882 131.22 176.521 131.26 176.098 131.288C175.675 131.316 175.1 131.288 174.581 131.288C173.985 131.294 173.39 131.243 172.804 131.136C172.666 131.146 172.526 131.123 172.398 131.068H172.393Z" fill="white"/>
<path d="M172.403 131.068C172.528 131.139 172.667 131.181 172.809 131.192C173.395 131.302 173.99 131.353 174.586 131.344C175.105 131.344 175.607 131.372 176.098 131.344C176.588 131.316 176.944 131.254 177.338 131.215L178.619 131.062L178.788 131.028C178.788 131.028 178.788 131.028 178.816 131.028C178.838 131.034 178.861 131.034 178.884 131.028C179.183 130.978 179.639 130.904 180.012 130.859C180.514 130.792 181.027 130.696 181.523 130.594C182.02 130.493 182.55 130.369 183.057 130.211C183.147 130.192 183.236 130.168 183.322 130.137L183.79 129.991C184.48 129.778 185.145 129.495 185.776 129.145C185.942 129.05 186.102 128.944 186.255 128.829C186.312 128.789 186.368 128.739 186.424 128.693C186.441 128.68 186.456 128.665 186.469 128.648C186.038 128.185 185.482 127.856 184.868 127.701C184.134 127.489 183.375 127.373 182.612 127.357C181.837 127.329 181.06 127.351 180.288 127.424C179.152 127.494 178.032 127.724 176.96 128.107C176.326 128.328 175.705 128.584 175.099 128.874C174.67 129.081 174.256 129.316 173.858 129.579C173.623 129.735 173.397 129.904 173.182 130.087C172.86 130.359 172.595 130.692 172.403 131.068Z" fill="#263238"/>
<path opacity="0.3" d="M172.369 129.811C172.518 129.62 172.68 129.441 172.855 129.275C174.318 128.065 176.012 127.167 177.835 126.635C178.799 126.345 179.795 126.174 180.801 126.128C183.576 125.97 185.313 126.5 185.99 126.923C186.164 127.034 186.327 127.162 186.475 127.306C186.638 127.478 186.733 127.703 186.743 127.94C186.752 128.176 186.675 128.408 186.526 128.592C186.469 128.654 186.407 128.711 186.34 128.762C184.789 127.284 180.581 127.594 179.154 127.752C177.727 128.017 174.157 129.156 172.623 131.136C172.55 131.114 172.478 131.085 172.409 131.051C172.319 130.976 172.247 130.882 172.196 130.777C172.145 130.672 172.116 130.557 172.113 130.44C172.109 130.323 172.13 130.206 172.174 130.098C172.218 129.989 172.285 129.892 172.369 129.811Z" fill="black"/>
<path d="M192.059 111.486C190.406 110.195 188.252 110.618 186.075 111.159C185.252 111.315 184.465 111.625 183.757 112.073C183.086 112.563 182.68 113.387 183.086 113.866C183.492 114.346 184.552 114.487 184.366 115.152C182.589 116.235 180.418 116.449 178.545 117.098C177.17 117.597 175.951 118.449 175.009 119.568C174.684 119.859 174.452 120.24 174.344 120.662C174.248 121.345 174.908 121.711 175.528 121.926C175.641 121.965 175.63 122.151 175.528 122.219C175.074 122.47 174.659 122.788 174.298 123.161C174.067 123.409 174.236 123.776 174.53 123.691L174.637 123.663C175.432 123.471 176.053 123.804 176.075 124.424C176.042 124.779 175.89 125.112 175.645 125.37C175.399 125.628 175.074 125.795 174.721 125.846C174.53 125.891 174.671 126.128 174.947 126.145C175.495 126.132 176.035 126.005 176.532 125.772C176.86 125.688 177.167 125.535 177.432 125.323C177.696 125.111 177.912 124.845 178.066 124.543C178.382 123.821 178.207 122.721 177.643 122.71C178.963 122.357 180.26 121.926 181.529 121.418C182.149 121.228 182.685 120.83 183.046 120.29C183.334 119.726 182.95 118.942 182.347 119.117C184.106 118.277 185.956 117.707 187.688 116.974C189.407 116.297 190.975 115.287 192.301 114.002C192.582 113.747 192.779 113.412 192.865 113.043C192.879 112.735 192.811 112.43 192.67 112.157C192.528 111.884 192.318 111.653 192.059 111.486Z" fill="white"/>
<path d="M153.177 153.013V152.63C153.083 146.79 152.976 140.953 152.855 135.117C152.75 129.669 152.649 124.217 152.551 118.761V118.553L154.074 118.068C169.95 113.037 186.368 107.831 203.226 109.281H203.463V109.517C204.506 122.134 205.155 133.177 205.505 143.273V143.577H205.2C186.588 142.81 168.63 147.847 153.521 152.872L153.177 153.013ZM153.109 119.004C153.199 124.381 153.301 129.758 153.414 135.134C153.519 140.846 153.624 146.555 153.73 152.263C168.726 147.294 186.498 142.354 204.941 143.053C204.614 133.11 203.954 122.247 202.933 109.862C186.261 108.491 169.984 113.652 154.231 118.649L153.109 119.004Z" fill="#BF2132"/>
<path d="M85.3783 76.3486L86.3653 76.4784C86.4105 79.0276 86.2807 79.2138 86.1905 81.2667L85.0625 81.1539C85.2546 79.559 85.3601 77.9549 85.3783 76.3486Z" fill="#BF2132"/>
<path d="M91.7003 77.4258C91.8357 79.8567 91.7906 80.133 91.8188 82.1239L90.8938 81.9547C89.9124 80.5673 89.4274 79.9131 88.4968 78.6666C88.4968 79.7551 88.4968 80.3586 88.463 81.5599L87.335 81.4077C87.3801 79.366 87.4816 79.1517 87.4026 76.6362L88.2656 76.7829C89.2413 78.4749 89.7376 78.4749 90.6682 80.2064C90.6985 79.2056 90.6741 78.2039 90.5949 77.2059L91.7003 77.4258Z" fill="#BF2132"/>
<path d="M92.5811 81.8139C92.7277 81.5319 92.801 81.4022 92.942 81.1597C93.4152 81.5244 93.9586 81.7875 94.5381 81.9324C95.1924 82.079 95.4518 81.9323 95.4518 81.7067C95.4518 80.9623 92.6939 80.6295 92.6318 79.039C92.6318 78.3115 93.1958 77.6403 94.6058 77.9674C95.234 78.1251 95.8146 78.4328 96.2978 78.8642C96.2061 79.1197 96.1007 79.3701 95.982 79.6143C95.5852 79.2977 95.1258 79.069 94.634 78.9431C93.9685 78.7852 93.7203 78.9432 93.7316 79.2364C93.7598 80.0317 96.5065 80.4547 96.5178 81.8985C96.5178 82.5584 95.8861 83.0716 94.5269 82.7727C93.8133 82.6067 93.1474 82.2787 92.5811 81.8139Z" fill="#BF2132"/>
<path d="M98.2094 79.9188C97.6116 79.7553 97.307 79.6763 96.6923 79.524C96.6923 79.18 96.6923 78.9995 96.6641 78.5596C98.3561 78.9826 99.1851 79.2082 100.77 79.6876C100.77 80.1106 100.77 80.2911 100.77 80.6464C100.206 80.4772 99.9014 80.3982 99.3092 80.2347C99.3092 81.7405 99.2585 82.3158 99.2133 83.8725L98.1756 83.5905C98.1869 82 98.2207 81.4134 98.2094 79.9188Z" fill="#BF2132"/>
<path d="M104.188 85.367C103.915 84.8467 103.609 84.3438 103.274 83.8612H103.212L102.191 83.5453C102.163 83.9965 102.152 84.1939 102.124 84.7241C101.667 84.5831 101.526 84.538 101.131 84.4252C101.232 82.5245 101.294 82.0846 101.334 79.8398C102.107 80.0654 102.343 80.1331 103.387 80.4602C104.994 80.9622 105.744 81.9943 105.643 83.0095C105.636 83.1587 105.6 83.3051 105.537 83.4403C105.473 83.5754 105.384 83.6966 105.273 83.7968C105.162 83.897 105.033 83.9742 104.892 84.024C104.751 84.0738 104.602 84.0951 104.453 84.0868C104.806 84.6312 105.126 85.1962 105.412 85.7788L104.188 85.367ZM103.274 81.3796L102.327 81.0806C102.298 81.7405 102.281 82.0112 102.242 82.688L103.189 82.987C103.985 83.2408 104.379 83.0659 104.425 82.5696C104.47 82.0733 104.109 81.639 103.274 81.3796Z" fill="#BF2132"/>
<path d="M106.353 84.1772C106.477 83.1507 106.539 82.7165 106.647 81.5151L107.611 81.8479C107.51 83.0323 107.453 83.4891 107.34 84.4874C107.239 85.3503 107.555 85.7733 108.057 85.9651C108.559 86.1569 108.931 85.9651 108.976 85.0683C109.032 84.0531 109.061 83.5286 109.111 82.3273L110.205 82.6826C110.143 83.8952 110.115 84.4141 110.053 85.4631C109.969 86.8449 109.038 87.2228 107.972 86.8167C107.43 86.6442 106.969 86.2826 106.672 85.7981C106.375 85.3135 106.262 84.7382 106.353 84.1772Z" fill="#BF2132"/>
<path d="M110.849 85.4518C110.838 85.1398 110.909 84.8304 111.056 84.5545C111.202 84.2785 111.418 84.0457 111.682 83.8791C111.946 83.7126 112.249 83.6181 112.561 83.6051C112.873 83.5921 113.183 83.661 113.46 83.805C114.225 84.1099 114.847 84.6919 115.203 85.4349C115.001 85.6082 114.779 85.7577 114.543 85.8805C114.301 85.432 113.924 85.071 113.466 84.8484C113.302 84.7585 113.117 84.7145 112.93 84.721C112.744 84.7276 112.562 84.7844 112.405 84.8854C112.248 84.9865 112.121 85.1281 112.038 85.2953C111.954 85.4625 111.918 85.6491 111.932 85.8354C111.912 86.2886 112.032 86.737 112.275 87.1201C112.518 87.5032 112.873 87.8028 113.291 87.9786C113.472 88.0703 113.676 88.1054 113.877 88.0792C114.079 88.0531 114.267 87.9669 114.419 87.8319L115.039 88.8189C114.599 89.2532 113.939 89.2814 113.15 88.9374C112.465 88.6487 111.881 88.1636 111.471 87.5433C111.062 86.9229 110.845 86.1952 110.849 85.4518Z" fill="#BF2132"/>
<path d="M116.664 86.1849L115.344 85.6491C115.344 85.2317 115.344 85.0569 115.372 84.6733C116.827 85.2768 117.515 85.5419 119.168 86.2413C119.168 86.6079 119.168 86.7658 119.128 87.1944C118.536 86.9406 118.237 86.8165 117.617 86.5684C117.617 88.4014 117.572 88.9597 117.51 90.7815L116.539 90.3415C116.607 88.548 116.652 87.984 116.664 86.1849Z" fill="#BF2132"/>
<path d="M119.754 86.4951C120.182 86.6812 120.397 86.7715 120.82 86.9632C120.673 88.8132 120.622 89.8396 120.442 92.1238L119.421 91.6501C119.568 89.3828 119.624 88.3902 119.754 86.4951Z" fill="#BF2132"/>
<path d="M121.44 89.614C121.57 88.1251 122.664 87.7021 124.012 88.3337C124.683 88.5961 125.259 89.0566 125.662 89.6541C126.065 90.2516 126.276 90.9576 126.268 91.6783C126.195 93.1954 125.106 94.3855 123.702 93.7312C122.298 93.077 121.316 91.0973 121.44 89.614ZM125.225 91.2383C125.256 90.8178 125.151 90.3984 124.925 90.042C124.7 89.6856 124.366 89.411 123.973 89.2587C123.2 88.9147 122.568 89.1064 122.489 90.0596C122.45 90.5474 122.547 91.0366 122.769 91.4727C122.991 91.9088 123.329 92.2748 123.747 92.5299C124.542 92.8909 125.168 92.1971 125.208 91.2383H125.225Z" fill="#BF2132"/>
<path d="M130.645 91.5375C130.645 93.1167 130.718 94.4985 130.696 97.1155C130.617 97.0704 130.397 96.9181 130.194 96.8109C129.585 94.9102 129.066 93.4269 128.112 92.0395C128.186 93.0096 128.214 94.2955 128.27 95.8352C127.802 95.5927 127.548 95.463 127.047 95.2205C127.047 92.7445 127.047 91.5037 127.013 89.8286L127.791 90.2008C128.66 91.6108 129.319 92.1636 130.081 94.0699C129.985 92.4738 130.024 92.2989 129.906 91.2781C130.284 91.4473 130.284 91.3683 130.645 91.5375Z" fill="#BF2132"/>
<path d="M98.7454 92.5807C98.8018 91.3399 98.8243 90.8154 98.8695 89.5802C98.3055 90.4601 97.984 90.8436 97.341 91.6952L96.8221 91.5712C96.3145 90.4826 96.0664 89.975 95.5813 88.864C95.4798 90.0653 95.4234 90.5954 95.3106 91.7629L94.1826 91.5204C94.4026 89.552 94.4985 88.6271 94.7015 86.5967L95.6095 86.7997C96.2074 88.2266 96.5232 88.9034 97.1662 90.2965C97.9558 89.2362 98.328 88.7568 99.0387 87.6457L99.879 87.8713C99.8226 89.9468 99.8113 90.7534 99.7493 92.8458C99.3714 92.7386 99.1627 92.6822 98.7454 92.5807Z" fill="#BF2132"/>
<path d="M104.148 93.0094C103.172 92.6936 102.54 92.5018 101.74 92.2762C101.587 92.6598 101.508 92.8402 101.339 93.2689C100.922 93.1504 100.707 93.0884 100.268 92.9756C101.147 91.0918 101.424 90.3981 102.326 88.582C102.772 88.7174 103.037 88.802 103.499 88.9543C104.402 91.34 104.932 92.1804 105.812 94.7071C105.36 94.5435 105.124 94.4533 104.622 94.2841C104.436 93.7483 104.34 93.5001 104.148 93.0094ZM103.753 92.0168C103.403 91.1539 103.229 90.5617 102.901 89.8341C102.576 90.3718 102.3 90.9382 102.078 91.5261C102.648 91.6728 103.082 91.8025 103.776 92.0168H103.753Z" fill="#BF2132"/>
<path d="M109.98 91.3683C109.946 93.5228 109.98 94.0642 109.946 96.3146L109.128 95.9762C108.271 94.256 108 93.6863 107.126 92.1128C107.171 93.3818 107.194 93.8555 107.222 95.226L106.269 94.8594C106.218 92.6034 106.15 91.9718 106.1 89.8398L106.917 90.15C107.775 91.7574 108.074 92.3553 108.959 93.895C108.959 92.7219 108.959 92.2425 108.959 90.9453C109.376 91.1314 109.585 91.216 109.98 91.3683Z" fill="#BF2132"/>
<path d="M110.99 94.5719C110.99 93.5172 110.99 93.0491 111.041 91.8252L112.09 92.2764C112.05 93.4946 112.033 93.9684 112.016 94.9949C111.969 95.3402 112.034 95.6917 112.203 95.9967C112.372 96.3018 112.635 96.5439 112.953 96.6869C113.573 96.9632 113.945 96.7602 113.973 95.9086C114.013 94.9159 114.036 94.397 114.098 93.1562L115.107 93.6074C115.039 94.8821 115.011 95.4235 114.972 96.4274C114.91 97.719 114.143 98.3112 112.913 97.7585C112.316 97.4734 111.816 97.0197 111.474 96.4533C111.132 95.887 110.964 95.2329 110.99 94.5719Z" fill="#BF2132"/>
<path d="M118.824 99.0951L116.669 98.1645C116.492 98.4694 116.335 98.7859 116.201 99.112L115.191 98.6721C116.02 96.8052 116.506 96.6078 117.38 94.6226L118.35 95.0625C119.055 97.7753 119.438 98.3506 120.358 100.9L119.23 100.415C119.055 99.8734 119.004 99.6083 118.824 99.0951ZM118.496 98.2209C118.203 97.499 118.073 96.9068 117.82 96.0608C117.588 96.5777 117.331 97.0822 117.047 97.5723L118.496 98.2209Z" fill="#BF2132"/>
<path d="M120.775 96.1509L121.819 96.619C121.819 98.6156 121.886 98.875 121.875 100.567L124.08 101.52C124.08 101.909 124.08 102.112 124.08 102.513L120.809 101.12C120.736 98.9145 120.775 98.5874 120.775 96.1509Z" fill="#BF2132"/>
<path d="M126.832 74.1318L131.259 71.6333L135.664 82.3775L126.832 74.1318Z" fill="#BF2132"/>
<path d="M150.92 78.4748L146.927 75.3276L140.932 85.271L150.92 78.4748Z" fill="#BF2132"/>
<path d="M136.369 68.6836L142.319 69.2476L139.353 82.5862L136.369 68.6836Z" fill="#BF2132"/>
<path d="M180.48 37.1675C180.415 37.1662 180.351 37.1426 180.301 37.1005C180.251 37.0585 180.217 37.0005 180.204 36.9363C180.196 36.8999 180.196 36.8625 180.204 36.8261C180.211 36.7898 180.226 36.7554 180.247 36.7249C180.268 36.6943 180.295 36.6684 180.326 36.6485C180.358 36.6286 180.393 36.6152 180.429 36.6091C182.279 36.2482 184.146 35.938 185.973 35.6785C186.048 35.6681 186.124 35.6877 186.184 35.7332C186.245 35.7787 186.284 35.8463 186.295 35.9211C186.305 35.9958 186.286 36.0717 186.24 36.132C186.195 36.1923 186.127 36.2321 186.052 36.2425C184.236 36.502 182.381 36.8065 180.536 37.1675H180.48Z" fill="#BF2132"/>
<path d="M156.741 44.229C156.666 44.2432 156.589 44.2271 156.526 44.1843C156.463 44.1415 156.42 44.0754 156.405 44.0006C156.391 43.9258 156.407 43.8484 156.45 43.7855C156.493 43.7226 156.559 43.6792 156.634 43.665C163.537 40.8853 170.661 38.6893 177.931 37.1C178.004 37.085 178.081 37.0996 178.145 37.1407C178.208 37.1819 178.253 37.2463 178.269 37.32C178.277 37.356 178.278 37.3932 178.272 37.4295C178.265 37.4659 178.252 37.5006 178.232 37.5316C178.212 37.5626 178.186 37.5893 178.155 37.6101C178.125 37.6309 178.091 37.6454 178.055 37.6528C170.816 39.2343 163.722 41.4189 156.848 44.1839C156.816 44.2068 156.78 44.2223 156.741 44.229Z" fill="#BF2132"/>
<path d="M105.642 182.944H99.3875C99.3127 182.944 99.2409 182.915 99.1881 182.862C99.1352 182.809 99.1055 182.737 99.1055 182.662C99.1055 182.588 99.1352 182.516 99.1881 182.463C99.2409 182.41 99.3127 182.38 99.3875 182.38H105.642C105.717 182.38 105.789 182.41 105.842 182.463C105.895 182.516 105.924 182.588 105.924 182.662C105.924 182.737 105.895 182.809 105.842 182.862C105.789 182.915 105.717 182.944 105.642 182.944Z" fill="#BF2132"/>
<path d="M96.0376 182.944H73.5847C73.5099 182.944 73.4382 182.915 73.3853 182.862C73.3324 182.809 73.3027 182.737 73.3027 182.662C73.3027 182.588 73.3324 182.516 73.3853 182.463C73.4382 182.41 73.5099 182.38 73.5847 182.38H96.0376C96.1119 182.382 96.1828 182.412 96.2354 182.465C96.288 182.517 96.3181 182.588 96.3196 182.662C96.3196 182.737 96.2899 182.809 96.237 182.862C96.1841 182.915 96.1124 182.944 96.0376 182.944Z" fill="#BF2132"/>
<path d="M124.52 109.467C124.685 109.135 124.914 108.84 125.194 108.597C125.474 108.354 125.799 108.169 126.15 108.051C126.502 107.934 126.873 107.887 127.242 107.913C127.612 107.939 127.973 108.038 128.304 108.204C128.636 108.369 128.931 108.598 129.174 108.878C129.417 109.158 129.602 109.483 129.72 109.834C129.837 110.186 129.884 110.557 129.858 110.926C129.832 111.296 129.733 111.657 129.567 111.988V112.033C128.558 114.12 127.56 116.314 126.612 118.468C125.665 120.623 124.757 122.8 124.023 124.966C123.832 125.53 123.668 126.043 123.51 126.584L123.42 126.878C123.398 126.924 123.385 126.973 123.38 127.024C123.352 127.18 123.341 127.339 123.347 127.498C123.423 128.464 123.639 129.414 123.99 130.318C124.821 132.47 125.801 134.562 126.922 136.578L126.956 136.64C127.126 136.941 127.179 137.293 127.107 137.63C127.035 137.967 126.841 138.266 126.564 138.47C126.286 138.674 125.943 138.769 125.599 138.738C125.256 138.706 124.936 138.55 124.7 138.299C122.85 136.477 121.261 134.408 119.979 132.151C119.242 130.877 118.721 129.49 118.44 128.045C118.369 127.597 118.341 127.144 118.355 126.691C118.367 126.237 118.428 125.785 118.536 125.343C118.677 124.706 118.818 124.063 118.987 123.448C119.642 121.004 120.446 118.603 121.395 116.257C122.343 113.939 123.347 111.695 124.525 109.433L124.52 109.467Z" fill="#CB7A63"/>
<path d="M125.338 136.561L124.943 136.855C124.75 136.99 124.604 137.183 124.526 137.405C124.448 137.628 124.442 137.869 124.509 138.095C124.8 138.979 125.313 139.773 125.997 140.402L128.761 137.103L126.387 136.381C126.21 136.326 126.023 136.313 125.84 136.345C125.658 136.376 125.486 136.45 125.338 136.561Z" fill="#CB7A63"/>
<path d="M128.772 137.103L126.009 140.402L129.1 141.497L132.066 139.083L128.772 137.103Z" fill="#CB7A63"/>
<path d="M142.027 92.0054C142.219 91.9659 142.427 92.169 142.489 92.4622C142.551 92.7555 142.45 93.0262 142.258 93.0657C142.066 93.1052 141.858 92.9021 141.796 92.6089C141.733 92.3156 141.835 92.0392 142.027 92.0054Z" fill="#263238"/>
<path d="M142.63 95.8799C142.883 95.8925 143.135 95.8485 143.368 95.7509C143.602 95.6533 143.81 95.5046 143.978 95.3159C143.234 94.6707 142.581 93.9269 142.038 93.105L142.63 95.8799Z" fill="#B74D3C"/>
<path d="M140.493 91.1765C140.635 91.004 140.815 90.8676 141.02 90.7783C141.225 90.6891 141.448 90.6497 141.671 90.6633H141.728C141.776 90.6633 141.822 90.6442 141.855 90.6104C141.889 90.5766 141.908 90.5306 141.908 90.4828C141.908 90.4349 141.889 90.389 141.855 90.3552C141.822 90.3213 141.776 90.3023 141.728 90.3023C141.451 90.2768 141.172 90.3177 140.914 90.4217C140.656 90.5257 140.426 90.6897 140.244 90.9001C140.216 90.9329 140.2 90.9749 140.199 91.0186C140.199 91.042 140.203 91.0654 140.211 91.0872C140.219 91.1091 140.232 91.129 140.248 91.1459C140.265 91.1627 140.284 91.1761 140.306 91.1852C140.328 91.1944 140.351 91.1991 140.374 91.1991C140.415 91.2069 140.457 91.1988 140.493 91.1765Z" fill="#263238"/>
<path d="M138.547 109.089C133.471 109.14 132.715 106.387 132.715 106.387C134.221 104.921 134.294 102.219 133.973 99.811C134.377 100.383 134.888 100.872 135.478 101.249C136.015 101.614 136.622 101.861 137.26 101.976C137.899 102.091 138.554 102.07 139.184 101.915C139.204 101.921 139.226 101.921 139.246 101.915C139.241 101.963 139.241 102.013 139.246 102.061C138.941 103.99 139.212 106.055 141.237 106.658C141.209 106.635 144.119 109.027 138.547 109.089Z" fill="#CB7A63"/>
<path d="M139.387 101.182C139.325 101.415 139.278 101.653 139.246 101.892C139.226 101.898 139.204 101.898 139.184 101.892C138.554 102.047 137.899 102.068 137.261 101.954C136.622 101.839 136.015 101.591 135.479 101.227C134.888 100.849 134.377 100.361 133.973 99.7884C133.899 99.1793 133.787 98.5815 133.674 98.04L139.178 101.046L139.387 101.182Z" fill="#CB7A63"/>
<path d="M131.175 106.855C131.175 106.855 131.976 104.385 133.183 103.607C134.39 102.828 139.686 103.635 140.515 103.962C141.344 104.289 142.207 106.218 142.207 106.218L131.175 106.855Z" fill="#BF2132"/>
<path d="M130.51 114.599C129.909 117.2 128.394 119.498 126.24 121.074L120.363 116.748C120.363 116.748 123.832 107.211 127.306 106.371C130.848 105.53 131.643 109.918 130.51 114.599Z" fill="#263238"/>
<path opacity="0.2" d="M130.667 113.765C130.622 114.041 130.56 114.329 130.492 114.599C129.894 117.198 128.383 119.496 126.234 121.074L125.924 120.837C126.006 117.926 127.135 115.142 129.105 112.998L130.667 113.765Z" fill="black"/>
<path d="M119.608 114.633L118.863 117.611L126.212 122.36L127.453 120.014L119.608 114.633Z" fill="#BF2132"/>
<path d="M143.82 105.801C143.003 105.666 142.089 105.542 141.153 105.468C138.333 105.335 135.509 105.365 132.693 105.558C130.877 105.692 129.074 105.967 127.301 106.382C128.745 126.263 127.865 136.009 127.549 138.851L147.458 138.637C149.517 122.247 148.947 113.985 148.146 109.975C147.934 108.922 147.406 107.959 146.634 107.214C145.861 106.468 144.88 105.976 143.82 105.801Z" fill="#263238"/>
<path opacity="0.2" d="M147.306 138.637H147.481C148.755 128.372 149.015 121.299 148.828 116.46L140.075 111.384C141.418 125.044 144.982 131.282 147.306 138.637Z" fill="black"/>
<path d="M143.008 97.0533C142.992 97.9233 142.755 98.7749 142.319 99.5279C141.883 100.281 141.262 100.91 140.515 101.357C140.132 101.595 139.713 101.772 139.274 101.881C139.254 101.887 139.233 101.887 139.212 101.881C138.583 102.036 137.927 102.057 137.289 101.942C136.65 101.828 136.043 101.58 135.507 101.216C134.917 100.838 134.405 100.35 134.001 99.7774C133.008 98.4182 132.597 96.6077 131.886 94.0528C131.655 93.2311 131.636 92.3641 131.831 91.533C132.025 90.702 132.428 89.9339 133 89.3006C133.573 88.6673 134.296 88.1896 135.104 87.912C135.911 87.6344 136.775 87.5661 137.616 87.7134C141.446 88.3902 143.081 93.6242 143.008 97.0533Z" fill="#CB7A63"/>
<path opacity="0.2" d="M140.487 101.368C140.103 101.607 139.685 101.784 139.246 101.892C139.246 101.892 139.381 99.6362 139.381 99.6362C139.381 99.6362 140.222 101.368 140.487 101.368Z" fill="black"/>
<path d="M140.796 95.1072C140.723 95.8956 140.484 96.6597 140.095 97.3496C139.706 98.0395 139.177 98.6399 138.54 99.1116C138.371 99.2329 138.179 99.3209 137.976 99.371C137.334 99.5176 136.73 98.9649 136.437 98.3727C136.101 97.581 135.934 96.7283 135.946 95.8686C135.873 93.8551 136.121 91.6442 137.542 90.2286C137.856 89.8653 138.295 89.6337 138.772 89.58C140.593 89.4897 140.921 93.951 140.796 95.1072Z" fill="#263238"/>
<path d="M140.875 87.9107C140.311 87.3612 139.61 86.9719 138.845 86.7827C137.766 86.4197 136.643 86.2053 135.506 86.1454C134.357 86.0939 133.227 86.4583 132.325 87.1719C131.366 87.9953 130.909 89.2418 130.486 90.4318L129.719 92.5637C129.512 92.9419 129.423 93.3733 129.464 93.8024C129.504 94.2316 129.671 94.6389 129.945 94.972C130.644 96.1 131.346 97.228 132.049 98.356C132.376 98.8302 132.62 99.3566 132.771 99.9127C132.84 100.191 132.837 100.484 132.759 100.76C132.682 101.037 132.535 101.289 132.331 101.492C132.685 101.447 133.027 101.329 133.333 101.145C133.64 100.962 133.906 100.717 134.113 100.426C134.141 100.759 134.083 101.093 133.943 101.396C133.804 101.7 133.588 101.962 133.318 102.157C134.138 101.857 134.865 101.348 135.427 100.68C135.31 101.046 135.091 101.371 134.795 101.616C135.923 101.785 136.848 100.77 137.491 99.8281C138.287 98.6662 139.031 97.1998 138.467 95.9139C138.281 95.4909 137.965 95.13 137.779 94.7013C137.616 94.2259 137.579 93.7164 137.671 93.2224C137.762 92.7283 137.98 92.2663 138.303 91.8813C138.955 91.1158 139.736 90.4706 140.61 89.975C140.61 89.975 141.733 88.8526 140.875 87.9107Z" fill="#263238"/>
<path d="M139.872 92.4282C140.932 92.744 141.49 94.3119 141.564 95.3046C141.614 96.4326 140.881 97.0981 139.922 96.3649C139.199 95.7937 138.682 95.0014 138.45 94.1089C138.18 93.0599 138.811 92.118 139.872 92.4282Z" fill="#CB7A63"/>
<path d="M137.999 233.242C137.981 233.24 137.963 233.231 137.95 233.218C137.937 233.205 137.928 233.187 137.926 233.169C137.92 233.151 137.921 233.131 137.928 233.113C137.935 233.096 137.948 233.081 137.966 233.073C138.039 233.039 139.404 232.227 140.064 232.39C140.127 232.402 140.187 232.427 140.24 232.464C140.292 232.501 140.336 232.549 140.368 232.605C140.41 232.664 140.433 232.735 140.433 232.808C140.433 232.881 140.41 232.952 140.368 233.011C140.21 233.242 139.742 233.321 139.24 233.332C138.825 233.34 138.409 233.309 137.999 233.242ZM139.832 232.543C139.29 232.621 138.767 232.803 138.293 233.078C139.031 233.169 140.03 233.141 140.21 232.887C140.25 232.847 140.272 232.796 140.21 232.678C140.189 232.644 140.161 232.615 140.128 232.593C140.095 232.571 140.058 232.555 140.018 232.548C139.959 232.54 139.898 232.54 139.838 232.548L139.832 232.543Z" fill="#BF2132"/>
<path d="M137.959 233.225C137.947 233.214 137.938 233.201 137.931 233.187C137.924 233.172 137.92 233.157 137.92 233.141C137.927 232.58 138.126 232.038 138.484 231.606C138.554 231.542 138.637 231.494 138.728 231.464C138.818 231.435 138.914 231.426 139.008 231.437C139.268 231.437 139.358 231.59 139.364 231.691C139.448 232.148 138.529 233.005 138.05 233.231H138.016C137.997 233.235 137.977 233.233 137.959 233.225ZM138.958 231.618C138.834 231.62 138.717 231.67 138.631 231.759C138.346 232.11 138.173 232.538 138.134 232.988C138.619 232.684 139.262 232.001 139.189 231.731C139.189 231.731 139.189 231.629 139.003 231.629H138.952L138.958 231.618Z" fill="#BF2132"/>
<path d="M133.832 224.117L137.774 224.043L137.627 233.146L133.668 233.225L133.832 224.117Z" fill="#CB7A63"/>
<path d="M138.552 232.983C141.282 234.579 142.111 234.635 145.241 235.239C145.924 235.374 145.523 237.027 143.893 237.06C141.197 237.111 140.915 236.993 138.614 237.032C136.646 237.072 134.39 237.207 132.822 237.263C132.775 237.269 132.728 237.269 132.681 237.263C132.606 237.249 132.535 237.22 132.472 237.178C132.408 237.136 132.354 237.081 132.312 237.017C132.271 236.954 132.243 236.882 132.229 236.807C132.216 236.732 132.218 236.655 132.235 236.581L132.929 233.045C132.946 232.969 132.988 232.9 133.049 232.85C133.109 232.8 133.184 232.771 133.262 232.768L137.593 232.689C137.934 232.695 138.266 232.797 138.552 232.983Z" fill="#263238"/>
<path opacity="0.2" d="M133.826 224.122L133.747 228.803L137.701 228.724L137.774 224.049L133.826 224.122Z" fill="black"/>
<path d="M104.954 233.834C104.951 233.853 104.943 233.871 104.93 233.885C104.917 233.899 104.9 233.909 104.881 233.913C104.862 233.917 104.841 233.915 104.824 233.905C104.806 233.896 104.793 233.881 104.785 233.863C104.746 233.795 103.962 232.424 104.142 231.765C104.174 231.642 104.251 231.535 104.356 231.466C104.417 231.423 104.489 231.4 104.562 231.4C104.636 231.4 104.708 231.423 104.768 231.466C104.999 231.629 105.061 232.097 105.067 232.627C105.066 233.032 105.028 233.436 104.954 233.834ZM104.294 232.001C104.359 232.542 104.528 233.065 104.791 233.541C104.892 232.808 104.887 231.81 104.633 231.629C104.599 231.59 104.543 231.567 104.424 231.629C104.39 231.648 104.36 231.675 104.338 231.707C104.315 231.74 104.301 231.776 104.294 231.815C104.289 231.875 104.289 231.936 104.294 231.996V232.001Z" fill="#BF2132"/>
<path d="M104.949 233.874C104.94 233.887 104.927 233.898 104.912 233.905C104.897 233.912 104.881 233.915 104.865 233.913C104.825 233.913 103.737 233.84 103.342 233.316C103.279 233.245 103.233 233.161 103.205 233.071C103.176 232.98 103.167 232.885 103.178 232.791C103.207 232.537 103.336 232.447 103.443 232.447C103.895 232.368 104.746 233.299 104.961 233.772V233.812C104.965 233.833 104.961 233.856 104.949 233.874ZM103.348 232.87C103.354 232.99 103.402 233.103 103.483 233.192C103.83 233.482 104.257 233.659 104.707 233.699C104.408 233.214 103.742 232.571 103.472 232.628C103.472 232.628 103.364 232.628 103.364 232.808V232.87H103.348Z" fill="#BF2132"/>
<path d="M106.997 224.619L110.843 224.816L108.767 234.037L104.898 233.834L106.997 224.619Z" fill="#CB7A63"/>
<path d="M103.962 233.349C102.924 234.601 102.377 235.244 99.3485 236.254C98.6829 236.474 99.2864 238.064 100.911 237.889C103.595 237.602 102.112 237.636 104.402 237.388C106.359 237.173 108.615 237.027 110.177 236.886C110.229 236.882 110.28 236.872 110.33 236.857C110.403 236.835 110.471 236.798 110.53 236.749C110.588 236.699 110.636 236.638 110.671 236.57C110.705 236.501 110.725 236.426 110.729 236.35C110.734 236.273 110.722 236.196 110.696 236.124L109.568 232.706C109.543 232.632 109.493 232.568 109.426 232.526C109.359 232.484 109.28 232.466 109.202 232.475L104.904 232.932C104.727 232.935 104.553 232.974 104.391 233.046C104.229 233.117 104.083 233.221 103.962 233.349Z" fill="#263238"/>
<path opacity="0.2" d="M106.991 224.625L105.919 229.362L109.771 229.56L110.843 224.816L106.991 224.625Z" fill="black"/>
<path d="M127.554 138.851C126.255 141.322 125.136 143.884 124.204 146.516C122.743 150.575 121.708 154.775 121.114 159.048C119.986 165.872 119.422 170.96 118.215 176.148C114.481 192.38 105.102 226.671 105.102 226.671L112.078 228.053C112.078 228.053 125.614 188.156 129.038 176.532C132.117 166.07 139.996 138.586 139.996 138.586L127.554 138.851Z" fill="#BF2132"/>
<path opacity="0.5" d="M127.554 138.851C126.255 141.322 125.136 143.884 124.204 146.516C122.743 150.575 121.708 154.775 121.114 159.048C119.986 165.872 119.422 170.96 118.215 176.148C114.481 192.38 105.102 226.671 105.102 226.671L112.078 228.053C112.078 228.053 125.614 188.156 129.038 176.532C132.117 166.07 139.996 138.586 139.996 138.586L127.554 138.851Z" fill="black"/>
<path d="M104.261 225.386V227.856L112.642 228.584C112.642 228.584 113.33 225.871 113.296 225.871L104.261 225.386Z" fill="#BF2132"/>
<path opacity="0.3" d="M136.352 151.231C133.871 159.86 130.712 170.773 129.02 176.504C128.941 176.78 128.851 177.068 128.767 177.372C129.274 167.852 130.808 151.879 135.574 151.191C135.833 151.147 136.099 151.161 136.352 151.231Z" fill="black"/>
<path d="M133.956 138.682C133.956 138.682 132.472 164.919 132.5 177.305C132.5 188.855 132.687 227.912 132.687 227.912L139.381 227.783C139.381 227.783 143.245 187.936 144.186 176.193C145.083 165.071 147.463 138.637 147.463 138.637L133.956 138.682Z" fill="#BF2132"/>
<path opacity="0.5" d="M133.956 138.682C133.956 138.682 132.472 164.919 132.5 177.305C132.5 188.855 132.687 227.912 132.687 227.912L139.381 227.783C139.381 227.783 143.245 187.936 144.186 176.193C145.083 165.071 147.463 138.637 147.463 138.637L133.956 138.682Z" fill="black"/>
<path d="M131.648 225.6L131.925 228.048L140.063 227.89C140.063 227.89 140.39 225.132 140.357 225.132L131.648 225.6Z" fill="#BF2132"/>
<path d="M153.323 124.734C155.235 124.949 156.961 122.405 157.339 120.521C157.987 117.301 156.211 114.137 154.474 111.339L148.224 101.187C147.926 100.702 149.832 103.804 148.788 101.949C148.224 100.911 146.177 100.9 145.359 102.62C147.548 106.63 147.942 109.952 149.234 114.334C149.614 115.33 149.725 116.407 149.556 117.459C149.087 119.371 145.218 117.792 146.172 119.647C146.86 121.012 149.251 124.266 153.323 124.734Z" fill="#CB7A63"/>
<path d="M147.288 107.82C150.672 110.979 152.364 117.329 152.364 117.329L146.352 120.572C146.352 120.572 139.183 114.684 140.148 109.642C140.864 105.778 143.148 103.9 147.288 107.82Z" fill="#263238"/>
<path d="M143.148 119.1L145.032 121.407L153.312 116.872L152.268 114.278L143.148 119.1Z" fill="#BF2132"/>
<path d="M149.11 102.648C148.546 101.52 147.294 99.1626 146.741 98.0064C146.664 97.81 146.538 97.637 146.374 97.5044C146.233 97.4236 146.078 97.37 145.917 97.3465C144.671 97.1152 143.374 96.8784 142.156 97.2224C142.063 97.2419 141.978 97.2891 141.913 97.3577C141.871 97.4261 141.846 97.5034 141.84 97.5834C141.75 98.2771 141.654 98.9708 141.558 99.6589C141.521 99.8109 141.521 99.9694 141.558 100.121C141.624 100.261 141.722 100.383 141.845 100.477C142.443 100.996 143.035 101.52 143.628 102.045C143.909 102.336 144.26 102.55 144.648 102.665C145.252 102.795 145.833 102.439 146.402 102.197C146.972 101.954 149.11 102.648 149.11 102.648Z" fill="#CB7A63"/>
</svg>
