<svg width="22" height="21" viewBox="0 0 22 21" fill="none" xmlns="http://www.w3.org/2000/svg">
    <path
        d="M10.1347 0.0665151C6.6428 0.525201 3.59476 2.71999 2.04608 5.8864C0.620706 8.8062 0.620706 12.1896 2.04608 15.1094C3.63915 18.3695 6.76117 20.5545 10.4011 20.954C11.2395 21.0477 12.5811 20.9934 13.4294 20.8356C17.1531 20.1303 20.2357 17.4571 21.449 13.8665C22.1839 11.7013 22.1839 9.29448 21.449 7.12929C20.142 3.27238 16.6944 0.495608 12.6501 0.0418545C12.0484 -0.0222628 10.7414 -0.0123986 10.1347 0.0665151ZM12.1766 2.11334C16.3344 2.48325 19.5402 5.71377 19.8756 9.8814C20.1222 12.8703 18.6327 15.8838 16.1026 17.5311C13.2469 19.3856 9.62179 19.3658 6.80556 17.4719C3.96467 15.5681 2.55902 12.1206 3.25445 8.78647C3.93508 5.52142 6.5195 2.94193 9.79442 2.25637C10.6329 2.08375 11.3382 2.03936 12.1766 2.11334Z"
        fill="#828282" />
    <path
        d="M11.2446 5.26618C10.8796 5.38455 10.6576 5.5769 10.5294 5.87282C10.416 6.14902 10.416 11.6927 10.5294 11.9689C10.8451 12.7186 11.8759 12.8172 12.3543 12.1366L12.5023 11.9196L12.5171 9.02937C12.5269 7.06146 12.5171 6.07504 12.4776 5.95174C12.3395 5.47332 11.6983 5.11821 11.2446 5.26618Z"
        fill="#828282" />
    <path
        d="M11.1263 13.7291C10.7318 13.8672 10.4556 14.2716 10.4556 14.7155C10.4556 15.3172 10.8797 15.7266 11.5061 15.7266C12.0486 15.7266 12.4728 15.3468 12.5172 14.8141C12.5813 14.025 11.8661 13.4627 11.1263 13.7291Z"
        fill="#828282" />
</svg>
    