<svg width="34" height="27" viewBox="0 0 34 27" fill="none" xmlns="http://www.w3.org/2000/svg">
    <path
        d="M15.0393 0.00980759C10.7726 0.149372 7.84843 0.827255 7.0908 1.84408C6.43285 2.72134 5.09038 5.37307 3.502 8.94193L2.98362 10.105L2.57157 10.3841C0.684131 11.6601 -0.11338 13.7203 0.0128926 17.0499C0.0727059 18.8443 0.544566 21.9281 0.817049 22.3467C0.876862 22.4398 1.02307 22.5528 1.14934 22.5993L1.36866 22.6923L1.39524 23.975C1.42183 25.1779 1.42847 25.2776 1.58798 25.6232C1.83387 26.1482 2.1263 26.4539 2.63139 26.6998L3.07666 26.9191L5.36286 26.9391C8.32029 26.9723 8.64594 26.9125 9.27066 26.2878C9.74252 25.8226 9.84886 25.5102 9.87544 24.613L9.90202 23.8421L10.1745 23.9684C10.4403 24.088 10.7195 24.0946 16.9999 24.0946C23.2803 24.0946 23.5594 24.088 23.8252 23.9684L24.0977 23.8421L24.1243 24.613C24.1509 25.5102 24.2572 25.8226 24.7291 26.2878C25.3538 26.9125 25.6794 26.9723 28.6369 26.9391L30.9231 26.9191L31.3683 26.6998C31.8734 26.4539 32.1659 26.1482 32.4118 25.6232C32.5713 25.2776 32.5779 25.1779 32.6045 23.975L32.6311 22.6923L32.8504 22.5993C32.9767 22.5528 33.1229 22.4398 33.1827 22.3467C33.4552 21.9281 33.927 18.8443 33.9868 17.0499C34.1131 13.7336 33.3355 11.7 31.4547 10.404C30.9962 10.085 30.9829 10.0717 30.6971 9.39385C29.3679 6.31679 27.5536 2.68811 26.9156 1.84408C26.2709 0.993404 24.018 0.348749 20.8213 0.109497C19.8908 0.0363922 16.1292 -0.0234222 15.0393 0.00980759ZM21.6188 1.59154C23.5394 1.81085 24.8952 2.1365 25.5797 2.5419C25.9918 2.7878 27.0485 4.78158 28.7698 8.56311C29.0622 9.20112 29.1287 9.40714 29.0423 9.38056C28.9825 9.36062 28.6169 9.28087 28.2315 9.20776C25.6196 8.71596 22.5824 8.52988 16.9999 8.52988C11.4173 8.52988 8.38011 8.71596 5.76826 9.20776C5.3828 9.28087 5.01727 9.36062 4.95746 9.38056C4.87106 9.40714 4.93752 9.20112 5.22994 8.56311C6.59235 5.55915 7.85508 3.09352 8.20731 2.72799C8.57284 2.34917 9.76246 1.97035 11.2844 1.73775C11.8293 1.65135 12.6601 1.5716 13.8763 1.47191C14.0424 1.45862 15.6441 1.45862 17.4319 1.46527C19.9108 1.47856 20.9077 1.51179 21.6188 1.59154ZM21.7251 10.0053C26.2975 10.1914 29.122 10.6433 30.3449 11.381C31.2421 11.9259 31.8003 12.5706 32.1592 13.4877C32.4649 14.252 32.5513 14.1922 31.036 14.1922C28.7499 14.1922 28.7698 14.1789 26.1247 16.8173L24.111 18.8111V19.1035C24.111 19.3428 24.1509 19.4292 24.337 19.6153L24.5629 19.8412H28.4308H32.2921L32.2523 20.1204C32.2257 20.2799 32.1725 20.5856 32.126 20.8049L32.0462 21.2036L29.029 21.2369L26.0051 21.2701L24.5962 21.9879L23.1806 22.699H16.9999H10.8192L9.40358 21.9812L7.99464 21.2701L4.97075 21.2369L1.9535 21.2036L1.87375 20.8049C1.82723 20.5856 1.77406 20.2799 1.74748 20.1204L1.7076 19.8412H5.56888H9.43681L9.66277 19.6153C9.84886 19.4292 9.88873 19.3428 9.88873 19.1035V18.8111L7.88166 16.8173C5.22994 14.1789 5.24988 14.1922 2.96368 14.1922C1.44841 14.1922 1.53481 14.252 1.84052 13.4877C2.33232 12.2317 3.30262 11.3677 4.71156 10.9291C6.20024 10.4638 8.78551 10.1448 12.0487 10.0119C13.9693 9.93217 19.831 9.93217 21.7251 10.0053ZM4.66504 15.8072C4.9774 15.9534 5.2964 16.2259 6.24012 17.1629C6.89807 17.8076 7.42974 18.3592 7.42974 18.3924C7.42974 18.4589 1.51487 18.4655 1.51487 18.3924C1.50822 18.3658 1.48164 17.8541 1.44841 17.256C1.41518 16.6512 1.40854 16.0265 1.42847 15.867L1.46835 15.5812L2.87064 15.6011C4.2397 15.6211 4.27957 15.6277 4.66504 15.8072ZM32.5713 15.8736C32.5912 16.0331 32.5845 16.6512 32.5513 17.256C32.5181 17.8541 32.4915 18.3658 32.4849 18.3924C32.4849 18.4655 26.57 18.4589 26.57 18.3924C26.57 18.2861 28.9293 16.0065 29.1619 15.8869C29.6537 15.6344 29.9062 15.5945 31.2288 15.5945L32.5314 15.5878L32.5713 15.8736ZM8.0611 22.9117L8.49973 23.131L8.4798 24.1146L8.45986 25.1048L8.24054 25.2975L8.02787 25.4903H5.64199H3.2561L3.05008 25.2842L2.84405 25.0782V23.8886V22.699H5.23659H7.62912L8.0611 22.9117ZM31.1557 23.8886V25.0782L30.9497 25.2842L30.7436 25.4903H28.3577H25.9719L25.7592 25.2975L25.5399 25.1048L25.5199 24.1146L25.5 23.131L25.9187 22.9183L26.3374 22.7056H28.7499L31.1557 22.699V23.8886Z"
        fill="black" />
    <path
        d="M8.71918 14.4177C8.48657 14.6504 8.44005 14.8497 8.55303 15.1355C8.63943 15.3615 12.1152 19.5152 12.3611 19.688L12.5672 19.8408H17H21.4328L21.6388 19.688C21.8847 19.5152 25.3606 15.3615 25.447 15.1355C25.5599 14.8497 25.5134 14.6504 25.2808 14.4177L25.0549 14.1918H17H8.94514L8.71918 14.4177ZM23.1674 15.7071C23.1209 15.7735 22.5892 16.4182 21.9911 17.1359L20.9012 18.4452H17H13.0988L12.0089 17.1359C11.4108 16.4182 10.8791 15.7735 10.8326 15.7071C10.7462 15.5941 10.9589 15.5874 17 15.5874C23.0411 15.5874 23.2538 15.5941 23.1674 15.7071Z"
        fill="black" />
</svg>
    