<svg width="48" height="41" viewBox="0 0 48 41" fill="none" xmlns="http://www.w3.org/2000/svg">
    <path
        d="M37.2302 22.9584C37.2302 22.9584 36.5218 22.2713 36.3249 26.4306C36.1337 30.3548 35.8546 36.0143 36.8307 38.4424C36.9363 38.7074 37.1259 38.9303 37.3704 39.0771C37.6317 39.2302 37.9205 39.3308 38.2204 39.3732C39.0704 39.5007 42.425 39.4284 42.425 39.4284C42.425 39.4284 44.3304 39.4284 44.3588 37.9126C44.3829 36.666 44.3588 33.9531 44.3588 33.9531L37.2302 22.9584Z"
        fill="#263238" />
    <g opacity="0.3">
        <path
            d="M37.2306 22.9584C37.2306 22.9584 36.5223 22.2713 36.3254 26.4306C36.1342 30.3548 35.8551 36.0143 36.8311 38.4424C36.9368 38.7074 37.1264 38.9303 37.3709 39.0771C37.6322 39.2302 37.921 39.3308 38.2209 39.3732C39.0709 39.5007 42.4255 39.4284 42.4255 39.4284C42.4255 39.4284 44.3309 39.4284 44.3593 37.9126C44.3833 36.666 44.3593 33.9531 44.3593 33.9531L37.2306 22.9584Z"
            fill="black" />
    </g>
    <path
        d="M45.2401 23.8734C45.2401 23.8734 45.9484 23.1864 46.1467 27.3443C46.3365 31.2698 46.6156 36.9279 45.641 39.3561C45.5348 39.6215 45.3447 39.8448 45.0998 39.9922C44.8388 40.1456 44.5498 40.2458 44.2498 40.2868C43.3998 40.4143 40.0452 40.3435 40.0452 40.3435C40.0452 40.3435 38.1412 40.3435 38.1114 38.8277C38.0888 37.5796 38.2602 33.2092 38.2602 33.2092L45.2401 23.8734Z"
        fill="#263238" />
    <path
        d="M45.2402 23.8729L45.209 23.9182C45.1877 23.9494 45.1552 23.9933 45.1141 24.0499L44.7415 24.5571C44.4114 25.0019 43.9312 25.6493 43.3248 26.471L38.2929 33.227V33.21C38.2433 34.5828 38.1895 36.0561 38.1512 37.6017C38.1441 37.9884 38.137 38.3808 38.1427 38.7747C38.1427 38.8738 38.1597 38.9687 38.1668 39.0665C38.1759 39.1143 38.1877 39.1616 38.2022 39.2082C38.2129 39.2567 38.228 39.3041 38.2475 39.3498C38.3265 39.5319 38.4445 39.6944 38.5932 39.8258C38.9216 40.0794 39.3139 40.2369 39.7265 40.2806C39.9366 40.3062 40.1482 40.3176 40.3598 40.3146L41.0044 40.3231C41.7453 40.3301 42.4777 40.333 43.1988 40.3231C43.5548 40.3196 43.9104 40.2974 44.2641 40.2565C44.6069 40.2082 44.9327 40.0769 45.2132 39.874C45.3425 39.7692 45.4506 39.6409 45.532 39.4957C45.6029 39.3466 45.6621 39.1922 45.7091 39.0339C45.7636 38.8786 45.8086 38.7201 45.8437 38.5593L45.9046 38.3227C45.9216 38.242 45.9343 38.1627 45.9499 38.0833C46.0668 37.459 46.1482 36.8285 46.1936 36.1949C46.2871 34.9582 46.3012 33.7781 46.2942 32.676C46.2871 31.5738 46.2531 30.5439 46.2162 29.6061C46.1326 27.7318 46.0958 26.2061 45.9159 25.1733C45.8295 24.6577 45.7289 24.2539 45.5759 24.0202C45.5065 23.9026 45.4073 23.8346 45.3337 23.8445C45.2972 23.8465 45.2622 23.8593 45.2331 23.8814C45.2389 23.8739 45.2461 23.8677 45.2543 23.8629C45.2782 23.8479 45.3055 23.8391 45.3337 23.8374C45.4116 23.8247 45.5164 23.8941 45.5887 24.0131C45.7473 24.2483 45.8522 24.652 45.9442 25.1691C46.1327 26.2061 46.178 27.729 46.2687 29.6046C46.3083 30.5425 46.3437 31.571 46.3551 32.6745C46.3664 33.7781 46.3551 34.961 46.2616 36.2006C46.2191 36.833 46.141 37.4625 46.0278 38.0862C46.0122 38.1669 45.9995 38.2477 45.9825 38.3284L45.9216 38.5678C45.884 38.7301 45.8367 38.89 45.7799 39.0467C45.7324 39.2092 45.6712 39.3675 45.5972 39.5198C45.5126 39.6738 45.3985 39.8096 45.2614 39.9193C44.9714 40.1299 44.6344 40.2665 44.2797 40.3174C43.9222 40.3592 43.5628 40.3819 43.203 40.3854C42.4805 40.4024 41.7481 40.3996 41.0072 40.3854L40.3612 40.3769C40.1468 40.3796 39.9324 40.3683 39.7194 40.3429C39.2932 40.2963 38.8882 40.1325 38.5493 39.8697C38.3922 39.7311 38.2679 39.5593 38.1852 39.3668C38.165 39.3212 38.1494 39.2738 38.1385 39.2252C38.1229 39.1763 38.1101 39.1267 38.1002 39.0764C38.0931 38.9758 38.0761 38.8738 38.0747 38.7747C38.0747 38.378 38.0747 37.987 38.086 37.5988C38.12 36.0518 38.1739 34.5771 38.2277 33.2072V33.1973V33.1902C40.3059 30.4192 42.0527 28.0902 43.2823 26.4469L44.716 24.5443L45.0971 24.0428L45.1948 23.9154C45.209 23.9002 45.2241 23.886 45.2402 23.8729Z"
        fill="#455A64" />
    <path
        d="M9.82814 22.9935C9.82814 22.9935 10.5365 22.3065 10.7348 26.4658C10.9261 30.3899 11.2051 36.0495 10.2291 38.4776C10.1229 38.7426 9.93279 38.9655 9.68789 39.1123C9.42666 39.2656 9.13787 39.3662 8.8379 39.4083C7.98791 39.5358 4.63326 39.4636 4.63326 39.4636C4.63326 39.4636 2.72928 39.4636 2.69953 37.9478C2.67686 36.7011 2.69953 33.9882 2.69953 33.9882L9.82814 22.9935Z"
        fill="#263238" />
    <g opacity="0.3">
        <path
            d="M9.82863 22.9945C9.82863 22.9945 10.537 22.3074 10.7353 26.4667C10.9265 30.3909 11.2056 36.0504 10.2295 38.4786C10.1234 38.7436 9.93328 38.9665 9.68838 39.1132C9.42715 39.2666 9.13836 39.3672 8.83839 39.4093C7.98839 39.5368 4.63375 39.4646 4.63375 39.4646C4.63375 39.4646 2.72977 39.4646 2.70002 37.9487C2.67735 36.7021 2.70002 33.9892 2.70002 33.9892L9.82863 22.9945Z"
            fill="black" />
    </g>
    <path
        d="M2.15691 23.8559C2.15691 23.8559 1.44858 23.1688 1.25167 27.3267C1.06042 31.2522 0.781338 36.9118 1.75741 39.3385C1.86269 39.6044 2.05296 39.8281 2.29858 39.9746C2.55971 40.1281 2.84854 40.2288 3.14857 40.2707C3.99857 40.3982 7.35321 40.3259 7.35321 40.3259C7.35321 40.3259 9.25861 40.3259 9.28694 38.8101C9.31103 37.5634 9.14528 33.1916 9.14528 33.1916L2.15691 23.8559Z"
        fill="#263238" />
    <path
        d="M2.15698 23.8559L2.1924 23.8984L2.29156 24.0259L2.67831 24.5274L4.11055 26.4299L9.16518 33.1732V33.1817V33.1902C9.2176 34.563 9.27285 36.0377 9.30684 37.5819C9.30684 37.9686 9.32101 38.3596 9.31676 38.7563C9.31676 38.8554 9.29976 38.9574 9.29126 39.058C9.29126 39.109 9.26576 39.1572 9.25443 39.2068C9.24304 39.2554 9.22691 39.3029 9.20626 39.3484C9.12412 39.5412 8.9997 39.7131 8.84218 39.8513C8.50396 40.1143 8.09934 40.2781 7.67344 40.3245C7.46009 40.3506 7.24519 40.362 7.03028 40.3585L6.3857 40.367C5.64479 40.3755 4.91096 40.3769 4.18988 40.367C3.83009 40.3634 3.47072 40.3411 3.11322 40.3004C2.75802 40.2487 2.42067 40.1116 2.13006 39.9009C1.99331 39.7908 1.87927 39.6551 1.79432 39.5014C1.72083 39.3489 1.65972 39.1906 1.61157 39.0283C1.55546 38.8714 1.50816 38.7116 1.4699 38.5494L1.4104 38.31C1.3934 38.2293 1.37924 38.1485 1.36365 38.0692C1.24736 37.4424 1.16648 36.8096 1.1214 36.1737C1.03074 34.9341 1.0194 33.7526 1.02932 32.6476C1.03924 31.5427 1.07607 30.5156 1.11432 29.5778C1.20499 27.7035 1.25599 26.1778 1.43874 25.1422C1.53082 24.6251 1.63565 24.2214 1.79432 23.9862C1.8171 23.9364 1.853 23.8938 1.89817 23.8628C1.94334 23.8319 1.99607 23.8138 2.05073 23.8105C2.07857 23.8128 2.10538 23.822 2.12865 23.8375C2.13652 23.8421 2.14368 23.8478 2.1499 23.8545C2.1206 23.8328 2.08568 23.82 2.04931 23.8176C1.97565 23.8077 1.87648 23.8757 1.80707 23.9947C1.65548 24.2285 1.5549 24.6308 1.46707 25.1465C1.28857 26.182 1.25032 27.7049 1.16674 29.5792C1.13132 30.517 1.09874 31.5455 1.09024 32.6491C1.08174 33.7526 1.09024 34.9327 1.1894 36.1695C1.23559 36.8025 1.31694 37.4324 1.43307 38.0564C1.44865 38.1358 1.46282 38.2165 1.47982 38.2959L1.54498 38.5353C1.58371 38.6954 1.631 38.8534 1.68665 39.0084C1.73405 39.1668 1.79373 39.3212 1.86515 39.4703C1.94526 39.6162 2.05361 39.7448 2.1839 39.8485C2.46399 40.0512 2.78931 40.1825 3.13164 40.231C3.4858 40.2719 3.84188 40.2942 4.19838 40.2976C4.91946 40.3146 5.65045 40.3118 6.39137 40.2976L7.03594 40.2891C7.24751 40.2919 7.45903 40.281 7.66919 40.2565C8.0817 40.2115 8.47383 40.0536 8.80252 39.8003C8.95081 39.6689 9.06834 39.5064 9.14676 39.3244C9.16692 39.2789 9.18212 39.2314 9.1921 39.1827C9.20672 39.1362 9.21855 39.0889 9.22751 39.041C9.23601 38.9433 9.2516 38.8484 9.25301 38.7506C9.25301 38.3554 9.25301 37.9644 9.24309 37.5776C9.21051 36.0292 9.1581 34.5559 9.10143 33.186V33.203L4.07513 26.454L2.65848 24.5401C2.49698 24.3191 2.37514 24.1491 2.2859 24.033L2.19098 23.9012L2.15698 23.8559Z"
        fill="#455A64" />
    <path
        d="M47.2889 12.4698C47.2889 12.4698 47.0764 13.1781 46.6372 13.2461C46.1981 13.3141 42.7344 13.4218 42.7344 13.4218L42.3958 14.0961H41.7441L41.2695 11.3945L41.6733 11.4753C41.7406 11.488 41.8038 11.5168 41.8576 11.5592C41.9114 11.6017 41.9541 11.6565 41.9821 11.7189C42.0131 11.788 42.0621 11.8476 42.1238 11.8914C42.1856 11.9353 42.258 11.9618 42.3334 11.9683L47.2889 12.4698Z"
        fill="#263238" />
    <path
        d="M47.1441 12.5748C47.204 12.5716 47.2626 12.556 47.3162 12.5291C47.3698 12.5021 47.4173 12.4644 47.4556 12.4182C47.4939 12.3721 47.5223 12.3184 47.5389 12.2608C47.5555 12.2031 47.56 12.1427 47.5521 12.0832C47.4387 11.3111 47.0208 9.81653 45.4795 9.58986C44.5272 9.43958 43.5593 9.41576 42.6008 9.51903C42.3614 9.54878 42.2438 9.75845 42.2141 9.99078C42.0838 11.0519 42.19 12.3665 42.5059 12.528C42.8218 12.6895 46.0192 12.6612 47.1441 12.5748Z"
        fill="#BF2132" />
    <path
        d="M45.0787 9.59668C45.1136 9.62737 45.1441 9.66264 45.1694 9.70151C45.2233 9.77093 45.2983 9.87576 45.3847 10.0075C45.8366 10.6955 46.1748 11.4518 46.3863 12.2472C46.426 12.3988 46.4543 12.5235 46.4699 12.6099C46.4823 12.6537 46.488 12.699 46.4869 12.7445C46.4756 12.7445 46.4288 12.5589 46.3367 12.26C46.218 11.8713 46.076 11.49 45.9117 11.1182C45.7451 10.7457 45.5559 10.3838 45.3451 10.0344C45.1779 9.76243 45.0688 9.60235 45.0787 9.59668Z"
        fill="#263238" />
    <path
        d="M0.27002 12.6353C0.27002 12.6353 0.483935 13.3436 0.923098 13.4116C1.36226 13.4796 4.82315 13.5872 4.82315 13.5872L5.16173 14.2602H5.8134L6.28798 11.5586L5.88423 11.6393C5.8165 11.653 5.75301 11.6826 5.69905 11.7257C5.64508 11.7688 5.6022 11.8242 5.57398 11.8873C5.54303 11.955 5.4948 12.0135 5.43413 12.0568C5.37346 12.1 5.30249 12.1266 5.22832 12.1338L0.27002 12.6353Z"
        fill="#263238" />
    <path
        d="M0.411599 12.7374C0.351756 12.734 0.293254 12.7183 0.239743 12.6913C0.186232 12.6643 0.138858 12.6266 0.100577 12.5804C0.0622966 12.5343 0.0339293 12.4808 0.0172447 12.4232C0.000560057 12.3657 -0.00408387 12.3053 0.00360226 12.2458C0.116935 11.4737 0.534848 9.97917 2.07617 9.75251C3.02787 9.60149 3.99542 9.57767 4.9534 9.68168C5.19423 9.71143 5.31181 9.92109 5.34015 10.1534C5.4719 11.2145 5.36565 12.5292 5.05682 12.6907C4.74798 12.8522 1.54492 12.8252 0.411599 12.7374Z"
        fill="#BF2132" />
    <path
        d="M2.47842 9.7627C2.39856 9.91297 2.31108 10.0591 2.21634 10.2004C2.00612 10.5501 1.8169 10.912 1.64968 11.2842C1.4845 11.6561 1.34256 12.0379 1.22468 12.4274C1.1326 12.7263 1.08301 12.9133 1.07451 12.9119C1.07281 12.8641 1.07854 12.8163 1.09151 12.7703C1.1071 12.6838 1.13401 12.5606 1.17368 12.409C1.38577 11.6135 1.72442 10.8573 2.17667 10.1693C2.26309 10.0375 2.33817 9.93269 2.392 9.86186C2.41686 9.82556 2.44586 9.79228 2.47842 9.7627Z"
        fill="#263238" />
    <path
        d="M47.6131 22.1234C47.4927 21.0765 45.1368 18.3338 45.1368 18.3338C44.4823 16.7755 43.2229 14.523 41.7864 12.3173C40.6432 8.30531 38.6698 3.45468 37.7659 2.40777C36.8621 1.36086 36.1835 0.957117 34.3192 1.0152C32.4549 1.07328 25.9949 1.04353 24.4253 1.0152H23.7864C22.2181 1.04353 15.9183 1.07328 14.0525 1.0152C12.1868 0.957117 11.5025 1.36086 10.6058 2.40777C9.70905 3.45468 7.72998 8.30531 6.58674 12.313C5.15167 14.523 3.89084 16.7741 3.24485 18.3338C3.24485 18.3338 0.887532 21.0765 0.767116 22.1234C0.6467 23.1703 0.546118 29.6628 1.1482 31.4662C1.57319 32.754 2.08886 33.3079 3.20093 33.7555C4.09182 34.1037 5.04094 34.2787 5.99741 34.2712H42.5812C43.3958 34.2764 44.203 34.1164 44.954 33.8009C46.0874 33.315 46.4401 32.7157 46.892 31.3642C47.4927 29.5665 47.7279 23.1703 47.6131 22.1234Z"
        fill="#BF2132" />
    <path
        d="M35.9897 1.63116C35.9897 1.53341 35.3848 0.724494 35.0519 0.347663C34.719 -0.0291678 34.5901 -0.016418 34.3025 0.0133318C33.9427 0.0487482 33.087 0.486496 33.0431 0.653661C33.0071 0.888298 32.9844 1.12479 32.9751 1.36199L33.5517 1.34782C33.5517 1.34782 33.4242 0.834993 33.5942 0.732994C33.8463 0.581411 33.9413 0.538912 34.1438 0.622495C34.3464 0.706077 34.6057 1.37474 34.6057 1.37474L35.9897 1.63116Z"
        fill="#E0E0E0" />
    <path
        d="M12.5081 1.03516C12.4994 1.04313 12.4899 1.05024 12.4798 1.05641L12.3962 1.11307C12.324 1.16549 12.2163 1.24057 12.0888 1.35107C11.7341 1.6658 11.4293 2.03266 11.185 2.43906C11.1057 2.56515 11.0249 2.69973 10.947 2.84281L10.7147 3.29331C10.5532 3.60497 10.3874 3.94213 10.216 4.29772C9.87175 5.00604 9.49492 5.78945 9.12234 6.61962C8.47183 8.02888 7.92405 9.48333 7.48327 10.9716C7.32177 11.5382 7.21127 12.0114 7.14044 12.3358C7.10644 12.4945 7.08094 12.6192 7.06111 12.7098L7.03844 12.8076C7.03646 12.8188 7.03313 12.8297 7.02852 12.8402C7.02695 12.8289 7.02695 12.8174 7.02852 12.8062C7.02852 12.7807 7.03702 12.7481 7.04411 12.7084C7.05969 12.6163 7.08235 12.4902 7.10927 12.3302C7.1716 12.0043 7.27502 11.534 7.43085 10.9588C7.85785 9.46325 8.40016 8.00302 9.05292 6.59128C9.42692 5.76112 9.80517 4.97771 10.1537 4.26938C10.3265 3.9138 10.4937 3.57805 10.6594 3.26781C10.7402 3.11197 10.8195 2.96039 10.896 2.81589C10.9725 2.6714 11.0575 2.53256 11.1382 2.41215C11.3893 2.00486 11.7035 1.64001 12.069 1.33124C12.2032 1.21558 12.3506 1.1162 12.5081 1.03516Z"
        fill="#263238" />
    <path
        d="M23.9181 3.18377C23.9181 3.18377 19.0392 3.18377 16.4963 3.20077C14.751 3.21352 10.7872 3.0591 10.5761 3.4841C10.4812 3.67818 9.6 5.37958 8.76134 7.34449C7.74843 9.71597 6.77802 12.4445 7.02877 13.0734L23.3529 12.8354H40.6134C40.6134 12.8354 40.8061 12.2773 40.4491 11.2672C40.0921 10.2571 37.7121 4.05784 37.2999 3.63285C36.8876 3.20785 29.9262 3.26027 23.9181 3.18377Z"
        fill="#263238" />
    <path
        d="M23.9137 3.56445C23.9137 3.56445 19.2302 3.56445 16.7879 3.58004C15.112 3.59137 11.5703 3.56445 11.0802 4.06595C10.8563 4.29403 8.77386 8.24792 7.96354 10.6392C7.61646 11.6691 8.64495 12.4965 9.76552 12.5149H39.9403C39.9403 12.5149 40.1245 11.9978 39.7816 11.0614C39.4388 10.125 37.1651 4.63544 36.7273 4.28553C35.9893 3.68912 29.6823 3.63529 23.9137 3.56445Z"
        fill="#455A64" />
    <g opacity="0.3">
        <path
            d="M8.79639 12.293C8.79639 12.293 10.1946 10.253 11.046 10.1552C11.4144 10.1141 14.5126 10.0731 18.4127 10.0376C18.4935 10.0368 18.5736 10.0538 18.6471 10.0877C18.7206 10.1215 18.7857 10.1711 18.8376 10.2331C18.8918 10.1704 18.9588 10.12 19.034 10.0853C19.1093 10.0506 19.1911 10.0324 19.274 10.032C22.0974 10.0079 25.248 9.98806 28.0572 9.97248C28.1753 9.97143 28.2893 10.0155 28.376 10.0957C28.4622 10.0164 28.5748 9.97195 28.6919 9.97106C32.7804 9.94839 35.9934 9.93706 36.1237 9.94131C36.8391 9.96398 39.9487 12.5536 39.9487 12.5536L9.65913 12.5196C9.35985 12.499 9.06715 12.4221 8.79639 12.293Z"
            fill="black" />
    </g>
    <path
        d="M13.1926 19.2422C13.1926 19.2422 12.0706 19.2422 12.1414 20.5653C12.1797 21.2907 11.8822 24.8847 14.5016 25.3905C17.1209 25.8962 34.0514 25.5661 34.0514 25.5661C34.0514 25.5661 35.3264 25.5109 35.6593 23.6792L35.8704 20.5073C35.8704 20.5073 35.7797 19.6573 35.0686 19.5538C34.3574 19.4504 13.1926 19.2422 13.1926 19.2422Z"
        fill="#E0E0E0" />
    <path
        d="M13.1924 19.2429H13.3072H13.6472L14.959 19.25L19.8408 19.2911L27.2074 19.3718L31.6259 19.4342L33.9847 19.4795L34.5882 19.4979C34.6888 19.4979 34.7908 19.5064 34.8942 19.5121L35.0472 19.522C35.0997 19.529 35.1518 19.5394 35.203 19.5532C35.404 19.6197 35.5757 19.7539 35.6889 19.9328C35.8009 20.1067 35.8734 20.303 35.9014 20.508C35.8334 21.5195 35.7597 22.5905 35.6903 23.6799C35.6363 23.9731 35.5464 24.2586 35.4226 24.5299C35.2884 24.8153 35.0901 25.066 34.8432 25.2623C34.6477 25.4173 34.4195 25.5259 34.1759 25.5796C34.0536 25.5983 33.9299 25.6059 33.8062 25.6023H33.4421L32.0014 25.6264L29.1822 25.6618C27.3335 25.6816 25.5513 25.6944 23.8527 25.6944C22.1542 25.6944 20.5406 25.6873 19.0361 25.6561C18.6579 25.6561 18.2881 25.6391 17.9226 25.6306C17.5571 25.6221 17.2015 25.6108 16.8516 25.5938C16.5017 25.5768 16.1575 25.5683 15.8217 25.5399C15.486 25.5116 15.1573 25.5003 14.8386 25.4493C14.5242 25.4234 14.2161 25.3469 13.9262 25.2226C13.6536 25.1029 13.4061 24.9327 13.1967 24.7211C12.8283 24.3307 12.5613 23.856 12.4189 23.3385C12.2893 22.897 12.2071 22.443 12.1738 21.9841C12.1384 21.5591 12.1356 21.1752 12.137 20.8281C12.137 20.6539 12.137 20.491 12.137 20.3352C12.137 20.2587 12.154 20.185 12.1625 20.1127C12.171 20.0405 12.1951 19.9711 12.2206 19.9102C12.298 19.6923 12.4481 19.5077 12.6456 19.3874C12.7705 19.3163 12.9073 19.2683 13.0493 19.2457C13.0961 19.2378 13.1435 19.234 13.191 19.2344C13.1434 19.2376 13.096 19.2443 13.0493 19.2542C12.9099 19.2781 12.7757 19.326 12.6527 19.3959C12.4587 19.5162 12.3118 19.6991 12.2362 19.9144C12.2121 19.9767 12.2007 20.0447 12.1809 20.1142C12.1611 20.1836 12.1625 20.2558 12.1568 20.3337C12.1568 20.4867 12.1568 20.6511 12.1568 20.8253C12.1568 21.1724 12.1568 21.5577 12.2007 21.9785C12.2354 22.4347 12.319 22.8859 12.4501 23.3243C12.5921 23.8349 12.8572 24.3028 13.2222 24.6871C13.4281 24.8942 13.6713 25.0605 13.939 25.1773C14.225 25.2985 14.5288 25.3727 14.8386 25.3969C15.1531 25.4464 15.4831 25.4578 15.8175 25.4847C16.1518 25.5116 16.4946 25.5187 16.8445 25.5357C17.1945 25.5527 17.5529 25.5612 17.917 25.5697C18.281 25.5782 18.6508 25.5909 19.029 25.5952C20.5378 25.6235 22.1457 25.6249 23.8457 25.6249C25.5457 25.6249 27.3264 25.6094 29.1737 25.5895L31.9929 25.5513L33.4336 25.5286L33.7977 25.5215C33.9166 25.5253 34.0356 25.5182 34.1533 25.5003C34.3855 25.4495 34.6031 25.3463 34.7893 25.1985C35.0278 25.0086 35.2193 24.7662 35.3489 24.4902C35.4707 24.2255 35.5587 23.9466 35.611 23.66C35.6832 22.5706 35.7527 21.4982 35.8235 20.4881C35.7963 20.3013 35.7302 20.1222 35.6294 19.9626C35.5263 19.7963 35.3678 19.6718 35.1817 19.6112C35.1352 19.5985 35.0879 19.5886 35.0401 19.5815L34.8899 19.573C34.7893 19.573 34.6902 19.5602 34.5882 19.5588L33.9861 19.5404L31.6274 19.4922L27.2088 19.4242L19.8422 19.3293L14.9604 19.267L13.6486 19.2472H13.3086L13.1924 19.2429Z"
        fill="#263238" />
    <path
        d="M13.9042 20.0332C13.9042 20.0332 12.853 20.0332 12.9508 21.0093C13.0032 21.5377 12.6929 24.1443 15.1154 24.5141C17.5379 24.8838 32.3986 24.7379 32.3986 24.7379C32.3986 24.7379 34.2601 24.6529 34.6568 23.4063L34.8636 20.9554C34.8636 20.9554 34.933 20.4285 34.2757 20.3491C33.6184 20.2698 13.9042 20.0332 13.9042 20.0332Z"
        fill="#263238" />
    <path
        d="M32.7184 20.0332C32.6887 20.104 32.1772 25.0482 32.1772 25.0482H33.0272L33.6747 20.0332H32.7184Z"
        fill="#E0E0E0" />
    <path
        d="M29.8622 20.0295C29.8367 20.1031 29.6738 25.0685 29.6738 25.0685L30.5238 25.0119L30.8227 19.9629L29.8622 20.0295Z"
        fill="#E0E0E0" />
    <path
        d="M27.2431 20.0535C27.2191 20.1272 27.0562 25.0926 27.0562 25.0926L28.062 25.026L28.2036 19.9912L27.2431 20.0535Z"
        fill="#E0E0E0" />
    <path
        d="M15.2116 19.833C15.2414 19.9053 15.7528 24.848 15.7528 24.848H14.9028L14.2554 19.833H15.2116Z"
        fill="#E0E0E0" />
    <path
        d="M18.0676 19.828C18.0931 19.9016 18.256 24.867 18.256 24.867L17.406 24.8103L17.1128 19.7656L18.0676 19.828Z"
        fill="#E0E0E0" />
    <path
        d="M20.6871 19.8538C20.7111 19.9275 20.8741 24.8914 20.8741 24.8914L19.8682 24.8263L19.7266 19.79L20.6871 19.8538Z"
        fill="#E0E0E0" />
    <path
        d="M21.0181 19.9629C21.1158 20.1216 22.9376 21.3243 22.9376 21.3243H25.1519L26.9029 19.9629H21.0181Z"
        fill="#E0E0E0" />
    <path d="M22.6914 20.6465L23.1589 24.8936H24.8079L25.2754 20.6465H22.6914Z" fill="#E0E0E0" />
    <path
        d="M13.1163 24.6906C13.0771 24.6927 13.0379 24.6927 12.9987 24.6906H12.6615C12.3683 24.6906 11.9447 24.6693 11.422 24.6396C10.8992 24.6098 10.2759 24.5588 9.5803 24.4851C8.88472 24.4115 8.14381 24.3066 7.35332 24.1763C6.56282 24.046 5.81908 23.893 5.14475 23.74C4.47042 23.587 3.86976 23.4297 3.36401 23.2881C2.85827 23.1464 2.45594 23.0246 2.17827 22.9325L1.85952 22.8277C1.82163 22.8164 1.78469 22.8022 1.74902 22.7852C1.78795 22.7916 1.82631 22.8011 1.86377 22.8135L2.18677 22.9056C2.4701 22.9892 2.87385 23.1039 3.37818 23.2399C3.88251 23.3759 4.486 23.5232 5.16033 23.6762C5.83466 23.8292 6.57699 23.9737 7.36607 24.1012C8.15514 24.2287 8.90739 24.3336 9.59305 24.4129C10.2787 24.4922 10.902 24.5461 11.4234 24.5815C11.9447 24.6169 12.3683 24.6424 12.6615 24.6551L12.9973 24.6736C13.0374 24.6751 13.0773 24.6808 13.1163 24.6906Z"
        fill="#263238" />
    <path
        d="M4.80355 16.9287C4.72637 16.8996 4.64141 16.8988 4.56365 16.9262C4.48589 16.9537 4.42034 17.0078 4.37855 17.0789C4.13347 17.5039 3.67022 18.4275 3.59939 19.4362C3.49881 20.8174 3.59939 23.3277 3.59939 23.3277C3.59939 23.3277 8.6696 24.4696 10.7677 24.5007C10.7677 24.5007 10.1174 21.0115 9.58476 19.6926C9.13852 18.5706 5.79521 17.2871 4.80355 16.9287Z"
        fill="#F5F5F5" />
    <path
        d="M4.80324 16.9284C4.82121 16.9318 4.83878 16.937 4.85566 16.944L5.00441 16.995C5.13616 17.0418 5.33024 17.1126 5.57815 17.2089C6.28496 17.4766 6.97724 17.7811 7.65214 18.1213C8.12345 18.3543 8.57168 18.6313 8.99088 18.9486C9.22955 19.1228 9.43049 19.3435 9.58162 19.5974C9.70217 19.8804 9.80391 20.1709 9.88621 20.4672C10.0647 21.0707 10.2205 21.7153 10.3721 22.3882C10.5237 23.0611 10.6696 23.7624 10.8084 24.4891L10.8169 24.5316H10.7716C10.1711 24.5103 9.57226 24.4545 8.97813 24.3645C7.99922 24.2228 7.05431 24.0585 6.15332 23.8856C5.25232 23.7128 4.39525 23.5371 3.59625 23.3629H3.57217V23.3388C3.53817 22.3202 3.524 21.381 3.53817 20.5466C3.53817 20.1287 3.55658 19.7377 3.58775 19.375C3.62099 19.0419 3.68937 18.7133 3.79175 18.3947C3.93278 17.9446 4.1228 17.5113 4.35841 17.1027C4.38863 17.045 4.43404 16.9967 4.48972 16.963C4.5454 16.9293 4.60924 16.9115 4.67433 16.9114C4.71889 16.9093 4.76326 16.9186 4.80324 16.9384C4.76137 16.9262 4.71791 16.9205 4.67433 16.9214C4.61215 16.9236 4.55173 16.9426 4.49939 16.9762C4.44705 17.0099 4.40472 17.057 4.37683 17.1126C4.1467 17.5228 3.96101 17.9564 3.82292 18.406C3.72349 18.7225 3.65842 19.0488 3.62883 19.3793C3.6005 19.7391 3.59058 20.1301 3.58492 20.5466C3.57642 21.381 3.59342 22.3188 3.63167 23.336L3.60617 23.3062C4.40375 23.4819 5.26082 23.659 6.15615 23.8318C7.05148 24.0046 7.9978 24.1732 8.97671 24.3078C9.56802 24.3977 10.164 24.4535 10.7617 24.475L10.7249 24.5175C10.5832 23.7921 10.4415 23.0909 10.2999 22.418C10.1582 21.7451 9.99529 21.1019 9.81962 20.4998C9.73888 20.2067 9.63951 19.919 9.52212 19.6385C9.37678 19.3926 9.18419 19.1778 8.95546 19.0067C8.54255 18.6872 8.10105 18.4064 7.63656 18.168C6.78656 17.726 6.07823 17.4342 5.58099 17.2316L5.01432 17.0078L4.87266 16.9497L4.80324 16.9284Z"
        fill="#263238" />
    <path
        d="M7.11384 12.7373C7.08262 12.7974 7.04561 12.8544 7.00334 12.9073L6.68742 13.3578C6.42393 13.7403 6.07259 14.2772 5.69576 14.8807C5.31893 15.4842 5.0016 16.0367 4.76785 16.439L4.48452 16.9122C4.45321 16.9718 4.4162 17.0283 4.37402 17.0808C4.3958 17.0175 4.4243 16.9567 4.45902 16.8994C4.51852 16.7833 4.60069 16.6161 4.71827 16.4149C4.9421 16.0084 5.25802 15.4502 5.62918 14.8453C6.00035 14.2404 6.35876 13.712 6.63501 13.3309C6.77667 13.1425 6.88717 12.9923 6.97076 12.8917C7.01424 12.8365 7.06208 12.7849 7.11384 12.7373Z"
        fill="#263238" />
    <path
        d="M12.4317 19.4608C12.4317 19.4608 12.4161 19.4423 12.392 19.4041C12.368 19.3658 12.334 19.3007 12.2943 19.2327C12.2422 19.1408 12.1949 19.0462 12.1526 18.9493C12.1002 18.8403 12.0393 18.7156 11.984 18.5725C11.8461 18.2425 11.7274 17.9047 11.6285 17.561C11.5125 17.1411 11.418 16.7155 11.3451 16.286C11.2672 15.827 11.219 15.3879 11.1865 14.987C11.1539 14.586 11.1454 14.2234 11.151 13.9202C11.151 13.7672 11.151 13.6298 11.1595 13.5094C11.168 13.389 11.168 13.2856 11.1751 13.2006C11.1822 13.1156 11.1879 13.0589 11.1921 13.0051C11.1918 12.9824 11.1956 12.9598 11.2035 12.9385C11.2056 12.9611 11.2056 12.9839 11.2035 13.0065C11.2035 13.0589 11.2035 13.1241 11.2035 13.202C11.2035 13.2799 11.2035 13.3904 11.2035 13.5108C11.2035 13.6312 11.2035 13.7672 11.2035 13.9188C11.2035 14.222 11.2261 14.5832 11.2559 14.9813C11.2856 15.3794 11.3423 15.8185 11.4188 16.2747C11.4953 16.7309 11.5973 17.1601 11.7021 17.5497C11.7938 17.8916 11.9025 18.2287 12.028 18.5598C12.0804 18.7014 12.137 18.8289 12.1866 18.9394C12.2362 19.0499 12.2773 19.1448 12.317 19.2228L12.4034 19.3998C12.4149 19.4191 12.4244 19.4395 12.4317 19.4608Z"
        fill="#263238" />
    <g opacity="0.3">
        <path
            d="M3.03412 22.8077C3.03412 22.8077 2.45895 24.0827 6.03176 24.8548C9.64849 25.6339 12.9989 24.6933 12.9989 24.6933L11.0156 24.6068C11.0156 24.6068 3.64895 23.5543 3.6192 23.2412C3.50303 22.0158 3.56395 20.0537 3.56395 20.0537L3.03412 22.8077Z"
            fill="black" />
    </g>
    <path
        d="M5.56104 20.6658C6.22686 20.6658 6.76662 20.1438 6.76662 19.4999C6.76662 18.856 6.22686 18.334 5.56104 18.334C4.89522 18.334 4.35547 18.856 4.35547 19.4999C4.35547 20.1438 4.89522 20.6658 5.56104 20.6658Z"
        fill="#F5F5F5" />
    <path
        d="M6.76702 19.4994C6.75852 19.4994 6.76702 19.396 6.71602 19.2161C6.64384 18.9637 6.4886 18.7431 6.27544 18.5899C6.12779 18.4832 5.95773 18.4115 5.7782 18.3803C5.57169 18.3446 5.35947 18.3626 5.16195 18.4327C4.94596 18.5086 4.75719 18.6466 4.61937 18.8294C4.47232 19.0212 4.39263 19.2563 4.39263 19.498C4.39263 19.7398 4.47232 19.9748 4.61937 20.1667C4.68804 20.2597 4.77127 20.341 4.86587 20.4075C4.95609 20.4738 5.05594 20.5259 5.16195 20.5619C5.35947 20.632 5.57169 20.65 5.7782 20.6143C5.95773 20.5832 6.12779 20.5115 6.27544 20.4047C6.48874 20.2523 6.64406 20.032 6.71602 19.7799C6.73783 19.6864 6.75485 19.5918 6.76702 19.4966C6.77073 19.5215 6.77073 19.5468 6.76702 19.5717C6.7662 19.6439 6.75668 19.7157 6.73869 19.7856C6.67559 20.0498 6.52102 20.2832 6.30236 20.4443C6.15255 20.5572 5.97918 20.6347 5.7952 20.671C5.57794 20.7116 5.35386 20.695 5.14495 20.6228C5.03274 20.5848 4.92676 20.5304 4.83045 20.4613C4.72926 20.3913 4.64025 20.3052 4.56696 20.2063C4.41026 20.0034 4.32508 19.7544 4.32471 19.498C4.32592 19.2418 4.41101 18.993 4.56696 18.7897C4.64027 18.6913 4.72929 18.6056 4.83045 18.5361C4.92638 18.4661 5.03243 18.4112 5.14495 18.3732C5.35397 18.3016 5.57791 18.285 5.7952 18.325C5.98296 18.3598 6.16002 18.4379 6.31228 18.5531C6.53094 18.7143 6.68551 18.9476 6.74861 19.2119C6.76658 19.2813 6.77609 19.3526 6.77694 19.4244C6.77739 19.4497 6.77405 19.475 6.76702 19.4994Z"
        fill="#263238" />
    <path
        d="M5.56107 19.4493C5.76895 19.4477 5.97353 19.5013 6.15396 19.6046C6.33438 19.7079 6.4842 19.8572 6.58814 20.0372C6.68188 19.8703 6.7307 19.6818 6.72981 19.4904C6.72981 19.1793 6.60622 18.8809 6.38625 18.6609C6.16627 18.441 5.86791 18.3174 5.55682 18.3174C5.24572 18.3174 4.94736 18.441 4.72739 18.6609C4.50741 18.8809 4.38382 19.1793 4.38382 19.4904C4.38228 19.6819 4.43114 19.8705 4.52549 20.0372C4.62991 19.8557 4.78102 19.7054 4.96312 19.6021C5.14523 19.4987 5.35169 19.4459 5.56107 19.4493Z"
        fill="#E0E0E0" />
    <path
        d="M6.07807 19.4615C6.08174 19.5651 6.0544 19.6673 5.99955 19.7552C5.94469 19.8431 5.86484 19.9126 5.77022 19.9548C5.6756 19.997 5.57053 20.0099 5.46849 19.992C5.36646 19.9741 5.27211 19.9261 5.19754 19.8541C5.12298 19.7822 5.0716 19.6897 5.05 19.5883C5.0284 19.487 5.03756 19.3816 5.07632 19.2855C5.11507 19.1894 5.18164 19.1071 5.26749 19.0491C5.35334 18.9911 5.45456 18.9601 5.55816 18.96C5.69356 18.9578 5.82434 19.0093 5.9218 19.1033C6.01927 19.1973 6.07547 19.3261 6.07807 19.4615Z"
        fill="white" />
    <path
        d="M6.07832 19.4602C6.07832 19.4602 6.07832 19.4163 6.04857 19.3412C6.02788 19.2762 5.99424 19.216 5.94968 19.1643C5.90511 19.1126 5.85054 19.0705 5.78926 19.0404C5.72798 19.0104 5.66124 18.993 5.59308 18.9895C5.52493 18.9859 5.45675 18.9962 5.39266 19.0196C5.30048 19.051 5.22043 19.1104 5.16374 19.1895C5.10705 19.2687 5.07656 19.3636 5.07656 19.4609C5.07656 19.5583 5.10705 19.6532 5.16374 19.7323C5.22043 19.8115 5.30048 19.8709 5.39266 19.9022C5.45685 19.9254 5.52508 19.9355 5.59325 19.9317C5.66141 19.928 5.72812 19.9105 5.78937 19.8803C5.85062 19.8502 5.90514 19.808 5.94968 19.7562C5.99422 19.7045 6.02786 19.6443 6.04857 19.5792C6.07124 19.5055 6.07124 19.4602 6.07832 19.4602C6.08912 19.5015 6.08912 19.545 6.07832 19.5863C6.05296 19.7032 5.98664 19.8072 5.89132 19.8795C5.81806 19.9354 5.73205 19.9722 5.64104 19.9865C5.55003 20.0009 5.45689 19.9923 5.36999 19.9617C5.26287 19.9282 5.16926 19.8613 5.10279 19.7708C5.03633 19.6804 5.00049 19.571 5.00049 19.4588C5.00049 19.3465 5.03633 19.2372 5.10279 19.1468C5.16926 19.0563 5.26287 18.9894 5.36999 18.9559C5.45675 18.9269 5.54922 18.9194 5.63951 18.934C5.7298 18.9485 5.81522 18.9847 5.88849 19.0395C5.98515 19.1117 6.05255 19.2163 6.07832 19.3341C6.08912 19.3755 6.08912 19.4189 6.07832 19.4602Z"
        fill="#263238" />
    <path
        d="M6.0159 18.6717C5.98898 18.7156 5.87423 18.6943 5.71415 18.6929C5.51605 18.6851 5.31907 18.726 5.1404 18.8119C4.96817 18.9058 4.8221 19.0411 4.71541 19.2057C4.62757 19.3361 4.58224 19.4395 4.52982 19.4367C4.47741 19.4338 4.43066 19.3134 4.47174 19.1151C4.50455 18.9827 4.56559 18.8589 4.65068 18.7523C4.73577 18.6457 4.8429 18.5588 4.96474 18.4974C5.08809 18.4339 5.22326 18.3965 5.36173 18.3878C5.50021 18.379 5.63901 18.3989 5.7694 18.4464C5.96631 18.5243 6.0414 18.6334 6.0159 18.6717Z"
        fill="white" />
    <path
        d="M7.9665 22.0457C8.28164 22.0425 8.59198 22.123 8.86578 22.2791C9.13957 22.4351 9.36701 22.6611 9.52482 22.9339C9.66914 22.6826 9.74486 22.3978 9.7444 22.108C9.71881 21.6557 9.52108 21.2303 9.1918 20.9191C8.86252 20.6079 8.42664 20.4346 7.97358 20.4346C7.52053 20.4346 7.08465 20.6079 6.75537 20.9191C6.42608 21.2303 6.22836 21.6557 6.20276 22.108C6.1992 22.3983 6.27147 22.6844 6.41243 22.9382C6.56945 22.6653 6.79601 22.439 7.06901 22.2822C7.34201 22.1254 7.65169 22.0438 7.9665 22.0457Z"
        fill="#E0E0E0" />
    <path
        d="M8.73039 22.0521C8.73518 22.2041 8.69451 22.354 8.61357 22.4827C8.53264 22.6114 8.41513 22.713 8.27609 22.7745C8.13706 22.836 7.98283 22.8546 7.83316 22.8279C7.68349 22.8012 7.54519 22.7305 7.43598 22.6247C7.32677 22.5189 7.25162 22.383 7.22015 22.2342C7.18868 22.0855 7.20233 21.9307 7.25935 21.7898C7.31637 21.6489 7.41416 21.5282 7.54019 21.4432C7.66623 21.3581 7.81478 21.3127 7.96681 21.3126C8.06553 21.3109 8.16362 21.3287 8.25545 21.365C8.34728 21.4013 8.43106 21.4553 8.50199 21.524C8.57291 21.5927 8.6296 21.6747 8.66879 21.7653C8.70798 21.8559 8.72891 21.9534 8.73039 22.0521Z"
        fill="white" />
    <path
        d="M8.72991 22.0523C8.72991 22.0523 8.72991 21.9857 8.69166 21.8752C8.64426 21.7169 8.54432 21.5795 8.40833 21.4856C8.30881 21.4145 8.19354 21.3687 8.0724 21.3519C7.95125 21.3351 7.82785 21.3479 7.71275 21.3893C7.5739 21.4358 7.45316 21.5247 7.36762 21.6436C7.28208 21.7624 7.23605 21.9052 7.23605 22.0516C7.23605 22.198 7.28208 22.3408 7.36762 22.4596C7.45316 22.5784 7.5739 22.6674 7.71275 22.7139C7.8278 22.7551 7.95107 22.768 8.07215 22.7515C8.19322 22.7349 8.30854 22.6895 8.40833 22.619C8.544 22.5248 8.64385 22.3875 8.69166 22.2294C8.72425 22.1175 8.72283 22.0509 8.72991 22.0523C8.737 22.0537 8.72991 22.0679 8.72991 22.099C8.73083 22.1467 8.72559 22.1944 8.71433 22.2407C8.67442 22.412 8.57376 22.563 8.431 22.6657C8.32516 22.745 8.20153 22.7971 8.0709 22.8176C7.94027 22.8381 7.80662 22.8263 7.68159 22.7833C7.53763 22.7305 7.41246 22.6363 7.32176 22.5127C7.22078 22.3818 7.16602 22.2212 7.16602 22.0558C7.16602 21.8905 7.22078 21.7299 7.32176 21.599C7.41699 21.4751 7.54656 21.382 7.69434 21.3312C7.81937 21.2882 7.95302 21.2764 8.08365 21.2969C8.21428 21.3174 8.33791 21.3695 8.44375 21.4488C8.58622 21.5518 8.68681 21.7027 8.72708 21.8738C8.73834 21.9202 8.74357 21.9678 8.74266 22.0155C8.73416 22.0353 8.73275 22.0523 8.72991 22.0523Z"
        fill="#263238" />
    <path
        d="M9.73875 22.1075C9.72528 21.9677 9.70208 21.829 9.66934 21.6924C9.56589 21.319 9.33797 20.9921 9.02334 20.7659C8.80539 20.6071 8.55382 20.5004 8.2881 20.4543C7.98213 20.4001 7.66737 20.426 7.37435 20.5293C7.21723 20.5833 7.06917 20.6606 6.93519 20.7588C6.79477 20.8577 6.67093 20.9782 6.56827 21.1158C6.35 21.4004 6.2317 21.7489 6.2317 22.1075C6.2317 22.4661 6.35 22.8147 6.56827 23.0992C6.67093 23.2368 6.79477 23.3573 6.93519 23.4562C7.06951 23.5538 7.21748 23.6312 7.37435 23.6857C7.66753 23.7883 7.9821 23.8141 8.2881 23.7607C8.55364 23.714 8.80506 23.6074 9.02334 23.4491C9.33823 23.2225 9.56618 22.8951 9.66934 22.5212C9.70232 22.3846 9.72552 22.2459 9.73875 22.1061C9.74215 22.1428 9.74215 22.1798 9.73875 22.2166C9.73913 22.2607 9.73581 22.3048 9.72883 22.3483C9.72225 22.409 9.71136 22.4691 9.69625 22.5282C9.60094 22.9142 9.37336 23.2546 9.05309 23.4902C8.83022 23.6569 8.57179 23.7699 8.29801 23.8202C7.98118 23.8788 7.65456 23.8539 7.35027 23.748C7.18589 23.6935 7.03102 23.6137 6.89127 23.5114C6.74505 23.4091 6.61595 23.2843 6.50877 23.1417C6.34624 22.9218 6.23805 22.6666 6.19306 22.3969C6.14806 22.1272 6.16753 21.8507 6.24988 21.5899C6.33223 21.3292 6.47512 21.0917 6.66686 20.8968C6.85861 20.7018 7.09376 20.5551 7.3531 20.4684C7.65739 20.3625 7.98402 20.3376 8.30085 20.3962C8.57383 20.4463 8.83139 20.5593 9.05309 20.7263C9.37309 20.9615 9.60064 21.3013 9.69625 21.6868C9.71147 21.7454 9.72236 21.805 9.72883 21.8653C9.73582 21.9093 9.73913 21.9538 9.73875 21.9984C9.74219 22.0347 9.74219 22.0712 9.73875 22.1075Z"
        fill="#263238" />
    <path
        d="M8.63549 20.8916C8.60857 20.9369 8.44991 20.8845 8.21049 20.8647C7.90219 20.8334 7.59127 20.8884 7.31233 21.0233C7.04393 21.1689 6.82273 21.3881 6.67483 21.6552C6.55725 21.862 6.51334 22.0178 6.4595 22.015C6.40567 22.0122 6.35892 21.8408 6.43259 21.5631C6.48639 21.3806 6.57699 21.211 6.69881 21.0648C6.82063 20.9186 6.97108 20.7989 7.14091 20.7131C7.3145 20.624 7.50401 20.5701 7.69852 20.5545C7.89303 20.539 8.08869 20.562 8.27424 20.6224C8.54199 20.7145 8.66099 20.8548 8.63549 20.8916Z"
        fill="white" />
    <path
        d="M9.07854 21.1637C8.99495 21.2189 8.91562 21.2487 8.8972 21.2317C8.87879 21.2147 8.90712 21.1368 8.96237 21.0532C9.01762 20.9696 9.10404 20.9328 9.15362 20.9767C9.2032 21.0206 9.16354 21.1084 9.07854 21.1637Z"
        fill="white" />
    <g opacity="0.3">
        <path
            d="M6.34819 17.0102C6.23911 17.0102 9.74817 18.1761 10.2057 18.5444L10.924 18.3928L8.41651 14.3738L8.13318 14.3086C8.13318 14.3086 7.2676 17.0144 6.34819 17.0102Z"
            fill="white" />
    </g>
    <path
        d="M35.2329 24.7922C35.27 24.7865 35.3073 24.7832 35.3448 24.7823L35.6636 24.7653C35.9469 24.7539 36.3422 24.7341 36.8366 24.7044C37.8282 24.6449 39.1939 24.5329 40.6885 24.3034C41.962 24.1037 43.2241 23.837 44.4695 23.5044C44.9469 23.3769 45.3323 23.2679 45.6028 23.1885L45.9088 23.1021C45.9445 23.0906 45.981 23.0816 46.0179 23.0752C45.985 23.0922 45.9504 23.1056 45.9145 23.1149L45.6028 23.2211C45.3408 23.3089 44.9568 23.4237 44.4808 23.5583C43.2359 23.9061 41.9714 24.18 40.6941 24.3785C39.4147 24.5712 38.1262 24.6984 36.8337 24.7596C36.3379 24.7823 35.937 24.795 35.6593 24.7979H35.3392C35.3036 24.7992 35.2681 24.7973 35.2329 24.7922Z"
        fill="#263238" />
    <path
        d="M42.9563 17.2194C43.0335 17.1906 43.1184 17.1899 43.1961 17.2173C43.2738 17.2448 43.3393 17.2987 43.3813 17.3696C43.6264 17.7946 44.0896 18.7182 44.1605 19.7269C44.2596 21.1081 44.1605 23.6184 44.1605 23.6184C44.1605 23.6184 39.0888 24.7617 36.9922 24.7914C36.9922 24.7914 37.641 21.3022 38.1737 19.9833C38.6284 18.8613 41.9689 17.5778 42.9563 17.2194Z"
        fill="#F5F5F5" />
    <path
        d="M42.957 17.2195C42.9413 17.2284 42.9247 17.2355 42.9074 17.2408L42.7658 17.2989L42.1991 17.5227C41.7075 17.7253 40.9921 18.0171 40.1421 18.4591C39.6762 18.6944 39.2329 18.9718 38.8175 19.2879C38.5888 19.4596 38.3962 19.6748 38.2509 19.9211C38.1338 20.2011 38.0349 20.4883 37.9548 20.781C37.7777 21.3831 37.6247 22.0277 37.4731 22.6992C37.3216 23.3707 37.1785 24.0733 37.0481 24.7987L37.0113 24.7562C37.609 24.7347 38.205 24.6788 38.7963 24.589C39.7724 24.4473 40.7173 24.2844 41.6169 24.113C42.5164 23.9416 43.3749 23.7631 44.1668 23.5874L44.1413 23.6172C44.1796 22.6 44.1966 21.6622 44.1881 20.8278C44.1881 20.4113 44.1725 20.0203 44.1442 19.6604C44.1143 19.3302 44.0498 19.0039 43.9515 18.6872C43.8122 18.238 43.6265 17.8046 43.3976 17.3938C43.3693 17.3382 43.3267 17.2911 43.2742 17.2575C43.2216 17.2238 43.161 17.2049 43.0987 17.2025C43.0551 17.2019 43.0117 17.2076 42.9698 17.2195C43.0103 17.2 43.0551 17.1907 43.1001 17.1926C43.1652 17.1928 43.2289 17.2107 43.2846 17.2444C43.3402 17.2781 43.3857 17.3263 43.416 17.3839C43.6505 17.7931 43.8404 18.2262 43.9827 18.6759C44.0839 18.9948 44.1518 19.3233 44.1853 19.6562C44.2164 20.0189 44.2292 20.4098 44.2363 20.8278C44.249 21.6622 44.2363 22.6014 44.2008 23.62V23.6455H44.1753C43.3763 23.824 42.5193 24.0025 41.6183 24.1767C40.7173 24.351 39.7766 24.521 38.7935 24.6556C38.1993 24.7457 37.6005 24.8015 37 24.8227H36.9561L36.9631 24.7802C37.102 24.054 37.2474 23.3537 37.3995 22.6793C37.5525 22.0064 37.7069 21.3618 37.8868 20.7583C37.9695 20.4623 38.0707 20.1718 38.19 19.8885C38.3416 19.6345 38.543 19.4138 38.7821 19.2397C39.2008 18.9224 39.6486 18.6454 40.1195 18.4124C40.7928 18.0704 41.4837 17.764 42.1892 17.4944C42.4371 17.398 42.6298 17.3272 42.7558 17.2805L42.906 17.2295L42.957 17.2195Z"
        fill="#263238" />
    <path
        d="M40.5767 12.752C40.6286 12.8019 40.676 12.8565 40.7183 12.9149C40.8033 13.0211 40.9252 13.1798 41.0654 13.3809C41.3487 13.7819 41.7142 14.3542 42.0911 14.9988C42.4679 15.6433 42.7923 16.2369 43.0232 16.6676L43.2938 17.179C43.3294 17.2401 43.3597 17.3041 43.3845 17.3703C43.3404 17.3144 43.3015 17.2546 43.2683 17.1918L42.9765 16.6903C42.7342 16.2653 42.4098 15.6773 42.0273 15.0328C41.6448 14.3882 41.2949 13.8159 41.0215 13.4093C40.8869 13.2053 40.7736 13.0424 40.6942 12.9304C40.6494 12.8749 40.61 12.8151 40.5767 12.752Z"
        fill="#263238" />
    <path
        d="M35.335 19.752C35.3406 19.7282 35.3496 19.7053 35.3619 19.684C35.386 19.633 35.4157 19.5707 35.4525 19.4956C35.4894 19.4205 35.539 19.3129 35.5942 19.1939L35.6764 19.0054C35.7019 18.936 35.7288 18.8638 35.7585 18.7887C35.8761 18.4869 35.9895 18.1186 36.1056 17.7064C36.2218 17.2941 36.3153 16.8337 36.4017 16.3478C36.544 15.5179 36.6278 14.6791 36.6525 13.8375C36.6525 13.676 36.6525 13.5301 36.6525 13.4026C36.6525 13.2751 36.6525 13.1632 36.6525 13.0725C36.6525 12.9818 36.6525 12.9195 36.6525 12.8642C36.6487 12.8403 36.6487 12.8159 36.6525 12.792C36.6584 12.8156 36.6617 12.8399 36.6624 12.8642C36.6624 12.9195 36.6723 12.9875 36.6794 13.0711C36.6865 13.1547 36.6907 13.2722 36.6935 13.4012C36.6964 13.5301 36.7006 13.676 36.6935 13.8389C36.6852 14.6843 36.6084 15.5276 36.464 16.3605C36.379 16.8479 36.2742 17.3083 36.1609 17.7234C36.0596 18.091 35.938 18.4528 35.7968 18.8071C35.767 18.8822 35.7373 18.9488 35.709 19.0224C35.6806 19.0961 35.6495 19.1514 35.6211 19.2109C35.5673 19.3284 35.5191 19.429 35.4724 19.5084L35.369 19.6911C35.3599 19.7126 35.3485 19.733 35.335 19.752Z"
        fill="#263238" />
    <g opacity="0.3">
        <path
            d="M44.7316 23.2538C44.7316 23.2538 45.3068 24.5288 41.7339 25.3009C39.5634 25.765 37.3048 25.5883 35.2329 24.7923L36.9924 24.7569C36.9924 24.7569 44.1366 24.0825 44.1621 23.4691C44.2145 22.238 44.206 20.4941 44.206 20.4941L44.7316 23.2538Z"
            fill="black" />
    </g>
    <path
        d="M42.2041 20.9568C42.8699 20.9568 43.4097 20.4348 43.4097 19.7909C43.4097 19.147 42.8699 18.625 42.2041 18.625C41.5383 18.625 40.9985 19.147 40.9985 19.7909C40.9985 20.4348 41.5383 20.9568 42.2041 20.9568Z"
        fill="#F5F5F5" />
    <path
        d="M40.9986 19.7904C40.9946 19.7655 40.9946 19.7402 40.9986 19.7153C40.9988 19.6437 41.0079 19.5723 41.0255 19.5028C41.0886 19.2386 41.2432 19.0052 41.4619 18.8441C41.6144 18.7293 41.7914 18.6513 41.9789 18.616C42.1967 18.576 42.4211 18.5926 42.6306 18.6642C42.743 18.7024 42.849 18.7573 42.9451 18.8271C43.0459 18.897 43.1349 18.9826 43.2086 19.0807C43.3651 19.2836 43.4499 19.5327 43.4499 19.789C43.4499 20.0453 43.3651 20.2943 43.2086 20.4973C43.135 20.5958 43.046 20.6819 42.9451 20.7523C42.8486 20.8211 42.7427 20.8755 42.6306 20.9138C42.4213 20.9862 42.1967 21.0028 41.9789 20.962C41.7917 20.9265 41.6149 20.849 41.4619 20.7353C41.2432 20.5741 41.0886 20.3408 41.0255 20.0766C41.0079 20.0066 40.9988 19.9348 40.9986 19.8626C40.9946 19.8378 40.9946 19.8124 40.9986 19.7876C41.0109 19.8829 41.0284 19.9775 41.051 20.0709C41.1218 20.3232 41.2768 20.5436 41.4902 20.6956C41.6379 20.8024 41.8079 20.8741 41.9874 20.9053C42.194 20.9411 42.4062 20.923 42.6037 20.8529C42.7098 20.8172 42.8097 20.7651 42.8998 20.6985C42.9945 20.6317 43.0781 20.5504 43.1477 20.4576C43.2952 20.266 43.3752 20.0309 43.3752 19.789C43.3752 19.5471 43.2952 19.312 43.1477 19.1203C43.0097 18.9381 42.8209 18.8006 42.6051 18.7251C42.4076 18.655 42.1954 18.6369 41.9889 18.6727C41.8099 18.7042 41.6404 18.7759 41.493 18.8823C41.279 19.0346 41.1235 19.2556 41.0525 19.5085C41.0296 19.6015 41.0116 19.6956 40.9986 19.7904Z"
        fill="#263238" />
    <path
        d="M42.2029 19.7415C41.9951 19.7401 41.7906 19.7938 41.6102 19.8971C41.4298 20.0003 41.2799 20.1495 41.1759 20.3295C41.0821 20.1625 41.0332 19.9741 41.0342 19.7826C41.0448 19.4788 41.1729 19.1909 41.3916 18.9797C41.6103 18.7684 41.9024 18.6504 42.2065 18.6504C42.5105 18.6504 42.8027 18.7684 43.0214 18.9797C43.2401 19.1909 43.3682 19.4788 43.3788 19.7826C43.3797 19.9741 43.3309 20.1625 43.2371 20.3295C43.1324 20.1485 42.9815 19.9986 42.7997 19.8953C42.618 19.7919 42.412 19.7389 42.2029 19.7415Z"
        fill="#E0E0E0" />
    <path
        d="M41.686 19.7536C41.6817 19.8573 41.7087 19.96 41.7633 20.0483C41.8179 20.1366 41.8977 20.2065 41.9924 20.2491C42.0871 20.2916 42.1924 20.3048 42.2947 20.287C42.397 20.2692 42.4916 20.2211 42.5664 20.1491C42.6411 20.077 42.6926 19.9842 42.7141 19.8826C42.7356 19.781 42.7262 19.6753 42.6871 19.5791C42.648 19.4829 42.581 19.4006 42.4948 19.3428C42.4085 19.2851 42.3069 19.2544 42.2031 19.2549C42.0686 19.2534 41.939 19.3049 41.8422 19.3982C41.7455 19.4915 41.6893 19.6192 41.686 19.7536Z"
        fill="white" />
    <path
        d="M41.6859 19.7531C41.6737 19.7119 41.6737 19.6681 41.6859 19.627C41.7113 19.5101 41.7776 19.4061 41.8729 19.3337C41.9464 19.2788 42.032 19.2424 42.1226 19.2279C42.2132 19.2133 42.3059 19.221 42.3929 19.2502C42.4992 19.2845 42.592 19.3516 42.6578 19.442C42.7236 19.5324 42.7591 19.6413 42.7591 19.7531C42.7591 19.8649 42.7236 19.9738 42.6578 20.0641C42.592 20.1545 42.4992 20.2217 42.3929 20.256C42.306 20.2859 42.2131 20.2939 42.1224 20.2794C42.0317 20.2648 41.946 20.228 41.8729 20.1724C41.7776 20.1001 41.7113 19.9961 41.6859 19.8792C41.6737 19.838 41.6737 19.7942 41.6859 19.7531C41.6859 19.7531 41.6859 19.7984 41.7157 19.8721C41.7489 19.9777 41.8162 20.0693 41.9069 20.1327C41.9736 20.1792 42.0505 20.2091 42.131 20.2199C42.2116 20.2308 42.2936 20.2222 42.3702 20.1951C42.4624 20.1637 42.5424 20.1043 42.5991 20.0252C42.6558 19.946 42.6863 19.8511 42.6863 19.7538C42.6863 19.6564 42.6558 19.5615 42.5991 19.4824C42.5424 19.4032 42.4624 19.3438 42.3702 19.3125C42.2937 19.2848 42.2117 19.2758 42.1311 19.2864C42.0505 19.297 41.9736 19.3269 41.9069 19.3734C41.8162 19.4368 41.7489 19.5285 41.7157 19.6341C41.693 19.7092 41.6916 19.7531 41.6859 19.7531Z"
        fill="#263238" />
    <path
        d="M41.7494 18.9715C41.7239 18.9333 41.799 18.8299 41.9945 18.7463C42.1247 18.6988 42.2632 18.6788 42.4015 18.6876C42.5397 18.6963 42.6747 18.7337 42.7978 18.7973C42.9196 18.8586 43.0267 18.9456 43.1118 19.0522C43.1969 19.1588 43.258 19.2826 43.2908 19.415C43.3333 19.6133 43.2808 19.7351 43.2341 19.7365C43.1873 19.738 43.1363 19.636 43.0471 19.5056C42.9412 19.3404 42.7949 19.2049 42.6221 19.1118C42.4434 19.0259 42.2465 18.985 42.0484 18.9928C41.8897 18.9871 41.7778 19.0084 41.7494 18.9715Z"
        fill="white" />
    <path
        d="M39.7945 22.3367C39.4794 22.3336 39.1691 22.4142 38.8953 22.5703C38.6216 22.7263 38.3941 22.9522 38.2362 23.2249C38.0925 22.9734 38.0169 22.6887 38.0166 22.399C38.0422 21.9467 38.2399 21.5213 38.5692 21.2101C38.8985 20.899 39.3344 20.7256 39.7874 20.7256C40.2405 20.7256 40.6764 20.899 41.0056 21.2101C41.3349 21.5213 41.5326 21.9467 41.5582 22.399C41.5616 22.686 41.4908 22.969 41.3528 23.2207C41.1944 22.9488 40.9667 22.7237 40.6929 22.5684C40.4192 22.4132 40.1092 22.3332 39.7945 22.3367Z"
        fill="#E0E0E0" />
    <path
        d="M39.0351 22.3441C39.03 22.4964 39.0706 22.6468 39.1515 22.776C39.2325 22.9051 39.3502 23.0071 39.4896 23.0689C39.6289 23.1307 39.7835 23.1495 39.9336 23.1228C40.0837 23.0961 40.2224 23.0252 40.3319 22.9191C40.4414 22.8131 40.5167 22.6767 40.5482 22.5276C40.5796 22.3785 40.5659 22.2233 40.5086 22.0821C40.4513 21.9408 40.3531 21.8199 40.2266 21.7348C40.1001 21.6497 39.9511 21.6044 39.7987 21.6046C39.6999 21.6029 39.6019 21.6207 39.51 21.657C39.4182 21.6933 39.3344 21.7473 39.2635 21.816C39.1926 21.8847 39.1359 21.9667 39.0967 22.0573C39.0575 22.1479 39.0366 22.2454 39.0351 22.3441Z"
        fill="white" />
    <path
        d="M39.0354 22.3449C39.0354 22.3449 39.0354 22.3279 39.0354 22.2967C39.0339 22.2491 39.0386 22.2014 39.0496 22.155C39.0899 21.9839 39.1905 21.833 39.3329 21.7301C39.4388 21.6508 39.5624 21.5986 39.693 21.5782C39.8237 21.5577 39.9573 21.5694 40.0824 21.6125C40.2303 21.6628 40.36 21.756 40.4549 21.8802C40.5568 22.0107 40.6122 22.1715 40.6122 22.3371C40.6122 22.5027 40.5568 22.6635 40.4549 22.794C40.3604 22.9186 40.2306 23.0119 40.0824 23.0617C39.9573 23.1047 39.8237 23.1165 39.693 23.096C39.5624 23.0755 39.4388 23.0234 39.3329 22.9441C39.1902 22.8414 39.0895 22.6904 39.0496 22.5191C39.0386 22.4727 39.0339 22.4251 39.0354 22.3775C39.0354 22.3463 39.0354 22.3307 39.0354 22.3307C39.0425 22.3307 39.0354 22.3959 39.0737 22.5078C39.1215 22.6659 39.2214 22.8032 39.357 22.8974C39.4568 22.9679 39.5721 23.0133 39.6932 23.0299C39.8143 23.0464 39.9376 23.0335 40.0526 22.9923C40.1922 22.9465 40.3137 22.8578 40.3998 22.7389C40.486 22.62 40.5324 22.4769 40.5324 22.33C40.5324 22.1831 40.486 22.04 40.3998 21.9211C40.3137 21.8022 40.1922 21.7135 40.0526 21.6677C39.9375 21.6264 39.8141 21.6135 39.693 21.6303C39.5718 21.6471 39.4565 21.693 39.357 21.7641C39.2214 21.8582 39.1215 21.9955 39.0737 22.1536C39.0411 22.2783 39.0425 22.3449 39.0354 22.3449Z"
        fill="#263238" />
    <path
        d="M38.0269 22.3995C38.0235 22.3632 38.0235 22.3267 38.0269 22.2904C38.0266 22.2458 38.0299 22.2013 38.0368 22.1572C38.0431 22.0969 38.0545 22.0372 38.0708 21.9788C38.1661 21.5935 38.3931 21.2537 38.7126 21.0183C38.9358 20.8511 39.1948 20.7381 39.4691 20.6882C39.7859 20.6296 40.1125 20.6545 40.4168 20.7604C40.5806 20.8152 40.735 20.895 40.8744 20.997C41.0213 21.0985 41.1505 21.2234 41.2569 21.3668C41.4861 21.6625 41.6104 22.026 41.6104 22.4002C41.6104 22.7744 41.4861 23.1379 41.2569 23.4337C41.1492 23.5763 41.0196 23.7011 40.873 23.8034C40.7337 23.9057 40.5793 23.9855 40.4154 24.04C40.1106 24.1459 39.7835 24.1708 39.4662 24.1122C39.1926 24.0614 38.9343 23.9485 38.7112 23.7822C38.3917 23.5467 38.1647 23.2069 38.0694 22.8217C38.0534 22.7632 38.042 22.7035 38.0354 22.6432C38.0285 22.5991 38.0252 22.5546 38.0255 22.51C38.0221 22.4732 38.0221 22.4363 38.0255 22.3995C38.0396 22.5392 38.0628 22.6779 38.0949 22.8146C38.1992 23.1884 38.4275 23.5156 38.7423 23.7425C38.9599 23.901 39.211 24.0076 39.4762 24.0542C39.7822 24.1076 40.0967 24.0817 40.3899 23.9791C40.5471 23.9243 40.6955 23.847 40.8305 23.7496C40.9705 23.6507 41.0938 23.5302 41.196 23.3926C41.4142 23.1081 41.5326 22.7595 41.5326 22.4009C41.5326 22.0423 41.4142 21.6938 41.196 21.4093C41.0933 21.2716 40.9695 21.1511 40.8291 21.0523C40.6951 20.9541 40.547 20.8767 40.3899 20.8228C40.0969 20.7194 39.7821 20.6935 39.4762 20.7477C39.2108 20.7938 38.9597 20.9004 38.7423 21.0593C38.4272 21.2853 38.1987 21.6122 38.0949 21.9858C38.0636 22.1222 38.0409 22.2603 38.0269 22.3995Z"
        fill="#263238" />
    <path
        d="M39.1303 21.1839C39.1048 21.1471 39.2252 21.0069 39.5029 20.9105C39.6884 20.8501 39.8841 20.827 40.0786 20.8426C40.2731 20.8582 40.4626 20.9121 40.6362 21.0012C40.8058 21.0874 40.956 21.2072 41.0778 21.3533C41.1996 21.4994 41.2903 21.6688 41.3445 21.8512C41.4168 22.1345 41.3629 22.3031 41.3162 22.3031C41.2694 22.3031 41.2199 22.1501 41.1009 21.9433C40.9533 21.6759 40.7321 21.4566 40.4634 21.3114C40.1849 21.1766 39.8745 21.1216 39.5666 21.1528C39.3159 21.1769 39.1586 21.2293 39.1303 21.1839Z"
        fill="white" />
    <path
        d="M38.6866 21.456C38.603 21.4008 38.5648 21.3144 38.6115 21.269C38.6583 21.2237 38.7532 21.269 38.8028 21.3455C38.8523 21.422 38.8863 21.507 38.8693 21.524C38.8523 21.541 38.7702 21.5113 38.6866 21.456Z"
        fill="white" />
    <g opacity="0.3">
        <path
            d="M41.4167 17.3013C41.5258 17.3013 38.0167 18.4672 37.5591 18.8355L36.8423 18.6868L39.3498 14.6677L39.6331 14.6025C39.6331 14.6025 40.5029 17.3055 41.4167 17.3013Z"
            fill="white" />
    </g>
    <g opacity="0.3">
        <path
            d="M12.4321 16.1455C12.4321 16.1455 12.9775 15.9656 12.8699 15.5703C14.0266 16.1558 15.3078 16.4528 16.6042 16.4359C18.7561 16.4047 26.6398 16.8708 26.6398 16.8708L27.5436 18.0764C27.5436 18.0764 13.2906 18.0211 12.7962 18.3328L12.4321 16.1455Z"
            fill="white" />
    </g>
    <g opacity="0.3">
        <path
            d="M37.8755 31.3313V28.6737L45.2053 27.8945C45.2053 27.8945 44.8384 30.0564 43.9954 30.4105C43.1525 30.7647 37.8755 31.3313 37.8755 31.3313Z"
            fill="black" />
    </g>
    <path
        d="M44.8054 27.9375C44.8054 27.9375 44.4328 29.3131 44.1453 29.7069C43.8846 30.0653 43.6154 30.1801 42.7938 30.3345C42.1251 30.4591 41.54 30.513 41.54 30.513L41.7214 28.2662L44.8054 27.9375Z"
        fill="white" />
    <path
        d="M44.413 29.207C44.4116 29.2303 44.4068 29.2532 44.3988 29.275C44.3796 29.3389 44.355 29.401 44.3251 29.4606C44.2125 29.6841 44.0448 29.8752 43.8378 30.016C43.5757 30.2044 43.1947 30.2993 42.7824 30.3673C42.3702 30.4353 41.9097 30.4835 41.4295 30.5458C40.4704 30.6662 39.6006 30.771 38.9716 30.8433L38.225 30.9255L38.0224 30.9439C37.9985 30.9479 37.9741 30.9479 37.9502 30.9439C37.9729 30.9367 37.9961 30.9315 38.0196 30.9283L38.2208 30.8971L38.9645 30.7923C39.5921 30.7073 40.4605 30.594 41.4196 30.4735C41.8984 30.4112 42.3588 30.3602 42.7711 30.3007C43.1833 30.2412 43.5531 30.1491 43.8081 29.9735C44.0112 29.842 44.1798 29.6637 44.2996 29.4535C44.3832 29.2991 44.4059 29.2056 44.413 29.207Z"
        fill="#263238" />
    <g opacity="0.3">
        <path
            d="M10.47 31.721V29.0633L3.1416 28.2842C3.1416 28.2842 3.5071 30.4446 4.35001 30.7987C5.19292 31.1529 10.47 31.721 10.47 31.721Z"
            fill="black" />
    </g>
    <path
        d="M3.54395 28.3203C3.54395 28.3203 3.91653 29.6959 4.20411 30.0883C4.46477 30.4467 4.73394 30.5629 5.5556 30.7159C6.22284 30.842 6.80934 30.8958 6.80934 30.8958L6.62801 28.6476L3.54395 28.3203Z"
        fill="white" />
    <path
        d="M3.93604 29.5967C3.93604 29.5967 3.96578 29.6873 4.04937 29.8375C4.16866 30.05 4.33725 30.2307 4.54095 30.3645C4.79595 30.5402 5.16711 30.6294 5.57794 30.6918C5.98877 30.7541 6.44918 30.8023 6.92943 30.8632C7.88851 30.9836 8.75692 31.0969 9.3845 31.1819L10.1268 31.2867L10.3294 31.3193C10.3532 31.3208 10.3766 31.3261 10.3988 31.3349C10.3748 31.338 10.3506 31.338 10.3266 31.3349L10.124 31.3151L9.37741 31.2329C8.747 31.1607 7.87859 31.0558 6.91951 30.9354C6.43927 30.8745 5.9831 30.8221 5.56661 30.7569C5.15011 30.6918 4.77328 30.5954 4.5112 30.407C4.30418 30.2663 4.13645 30.0752 4.02387 29.8517C3.99428 29.7919 3.96964 29.7299 3.9502 29.6661C3.94218 29.6438 3.93741 29.6204 3.93604 29.5967Z"
        fill="#263238" />
    <path
        d="M14.6615 27.8196C14.5819 27.8173 14.5026 27.8316 14.4288 27.8615C14.3549 27.8915 14.2881 27.9365 14.2326 27.9936C14.177 28.0507 14.134 28.1188 14.1061 28.1935C14.0782 28.2681 14.0662 28.3478 14.0708 28.4273C14.1444 29.4034 14.3385 31.2337 14.7649 31.568C15.3514 32.0285 32.1898 32.5087 33.7807 31.5907C34.506 31.1657 34.7015 29.4657 34.7539 28.5718C34.7568 28.5001 34.7451 28.4286 34.7195 28.3615C34.6939 28.2945 34.655 28.2334 34.605 28.1818C34.5551 28.1303 34.4952 28.0894 34.429 28.0617C34.3628 28.0341 34.2916 28.0201 34.2199 28.0207L14.6615 27.8196Z"
        fill="#455A64" />
    <path
        d="M14.6615 27.8197C14.702 27.8113 14.7434 27.808 14.7847 27.8098L15.1417 27.8027H16.5173L21.5776 27.8212L29.0859 27.875L33.5172 27.9132H34.0966C34.1462 27.9132 34.1887 27.9132 34.2453 27.9132C34.3035 27.9153 34.3612 27.9253 34.4167 27.943C34.5282 27.9774 34.6285 28.041 34.7071 28.1271C34.7852 28.2123 34.8373 28.318 34.8573 28.4317C34.8666 28.4865 34.869 28.5422 34.8644 28.5975L34.8559 28.7391C34.8403 28.9318 34.8233 29.1231 34.8006 29.3157C34.756 29.7057 34.6816 30.0917 34.5782 30.4703C34.5239 30.6648 34.4532 30.8543 34.3672 31.037C34.2812 31.2318 34.158 31.4079 34.0045 31.5555C33.9206 31.6306 33.8249 31.6914 33.7212 31.7354C33.6221 31.7741 33.5203 31.8053 33.4166 31.8289C33.214 31.877 33.0114 31.911 32.8102 31.9394C32.4079 31.996 32.007 32.0315 31.6103 32.0626C30.8156 32.1207 30.0322 32.1519 29.2629 32.1731C27.7245 32.2142 26.2412 32.2156 24.8274 32.2015C21.9941 32.1689 19.4568 32.0796 17.3191 31.9408C16.785 31.904 16.2779 31.8657 15.7976 31.8147C15.5568 31.7892 15.3245 31.7609 15.0978 31.7212C15.0411 31.7127 14.9859 31.7 14.9292 31.6872C14.8389 31.6761 14.7539 31.6386 14.6848 31.5794C14.6158 31.5201 14.5658 31.4418 14.541 31.3543C14.4559 31.1701 14.3909 30.9772 14.347 30.7791C14.3002 30.5921 14.2662 30.4108 14.235 30.2365C14.177 29.8881 14.1401 29.5679 14.1104 29.2803C14.0806 28.9927 14.0622 28.7363 14.048 28.5139C14.0322 28.4084 14.0414 28.3007 14.075 28.1994C14.1038 28.1146 14.1524 28.0379 14.2166 27.9756C14.2706 27.9208 14.3354 27.8779 14.4068 27.8496C14.4783 27.8213 14.5549 27.8082 14.6317 27.8112H14.6615C14.6615 27.8112 14.6204 27.8112 14.5425 27.8325C14.4302 27.8594 14.3279 27.9179 14.2478 28.0011C14.1853 28.0675 14.1399 28.1481 14.1152 28.2359C14.0905 28.3237 14.0874 28.4161 14.1061 28.5054C14.1274 28.7264 14.1543 28.9814 14.1883 29.2676C14.2223 29.5537 14.269 29.8711 14.33 30.2153C14.364 30.3867 14.3994 30.5652 14.4475 30.748C14.4934 30.9375 14.5589 31.1217 14.643 31.2976C14.6813 31.3834 14.739 31.4591 14.8116 31.5186C14.9086 31.5544 15.0094 31.5791 15.112 31.5923C15.3315 31.6277 15.5639 31.6518 15.8019 31.6745C16.2793 31.7198 16.7864 31.7538 17.3191 31.785C19.4441 31.904 21.9941 31.9776 24.8146 32.0003C26.2313 32.0088 27.7089 32.0003 29.2431 31.9592C30.0095 31.9365 30.7901 31.904 31.5792 31.8459C31.973 31.8161 32.3697 31.7793 32.7635 31.724C32.9604 31.6957 33.1573 31.6631 33.3486 31.6178C33.4414 31.5959 33.5328 31.568 33.622 31.5342C33.7029 31.4994 33.7776 31.4516 33.843 31.3925C33.9757 31.2633 34.0824 31.1099 34.1575 30.9406C34.2382 30.7684 34.3046 30.5898 34.3558 30.4065C34.4557 30.0385 34.5277 29.6634 34.5711 29.2846C34.5952 29.0961 34.6122 28.9077 34.6264 28.7179L34.6363 28.5762C34.6407 28.5372 34.6407 28.4977 34.6363 28.4586C34.6222 28.3835 34.5873 28.3139 34.5357 28.2575C34.4838 28.2004 34.4179 28.1579 34.3445 28.1342C34.3072 28.1232 34.2686 28.117 34.2297 28.1158C34.1887 28.1158 34.1348 28.1158 34.0881 28.1158L33.5087 28.1087L29.0774 28.0577L21.5691 27.9586L16.5102 27.8721L15.1346 27.8382L14.7762 27.824C14.7379 27.8274 14.6994 27.826 14.6615 27.8197Z"
        fill="#263238" />
    <path
        d="M34.097 31.1829C34.097 31.2027 29.7167 31.2183 24.3136 31.2183C18.9105 31.2183 14.5273 31.2027 14.5273 31.1829C14.5273 31.163 18.9076 31.1475 24.3136 31.1475C29.7196 31.1475 34.097 31.163 34.097 31.1829Z"
        fill="#263238" />
    <path
        d="M33.0244 31.7083C33.0244 31.7281 29.3156 31.7451 24.7412 31.7451C20.1668 31.7451 16.458 31.7281 16.458 31.7083C16.458 31.6884 20.1668 31.6729 24.7412 31.6729C29.3156 31.6729 33.0244 31.6899 33.0244 31.7083Z"
        fill="#263238" />
    <path
        d="M34.42 30.6077C34.42 30.6275 29.9661 30.6431 24.4737 30.6431C18.9813 30.6431 14.5273 30.6275 14.5273 30.6077C14.5273 30.5878 18.9799 30.5723 24.4737 30.5723C29.9675 30.5723 34.42 30.5878 34.42 30.6077Z"
        fill="#263238" />
    <path
        d="M34.5716 30.0305C34.5716 30.0504 30.0836 30.066 24.5502 30.066C19.0167 30.066 14.5273 30.0504 14.5273 30.0305C14.5273 30.0107 19.0139 29.9951 24.5502 29.9951C30.0865 29.9951 34.5716 30.0107 34.5716 30.0305Z"
        fill="#263238" />
    <path
        d="M34.5716 29.4548C34.5716 29.4746 30.0836 29.4902 24.5502 29.4902C19.0167 29.4902 14.5273 29.4746 14.5273 29.4548C14.5273 29.435 19.0139 29.418 24.5502 29.418C30.0865 29.418 34.5716 29.4364 34.5716 29.4548Z"
        fill="#263238" />
    <path
        d="M34.7331 28.8792C34.7331 28.899 30.2097 28.9146 24.6309 28.9146C19.0521 28.9146 14.5273 28.899 14.5273 28.8792C14.5273 28.8593 19.0507 28.8438 24.6309 28.8438C30.2111 28.8438 34.7331 28.8593 34.7331 28.8792Z"
        fill="#263238" />
    <path
        d="M34.7331 28.3044C34.7331 28.3228 30.2097 28.3398 24.6309 28.3398C19.0521 28.3398 14.5273 28.3228 14.5273 28.3044C14.5273 28.286 19.0507 28.2676 24.6309 28.2676C30.2111 28.2676 34.7331 28.2846 34.7331 28.3044Z"
        fill="#263238" />
    <path d="M21.877 20.1689L23.3234 21.1082H24.5884L26.0278 20.1689H21.877Z" fill="white" />
    <path
        d="M21.8403 3.57083C21.8998 3.57083 22.0797 4.58232 22.9255 4.56249C23.7712 4.54265 25.8325 4.56249 25.8325 4.56249V3.29883L21.8403 3.57083Z"
        fill="#263238" />
    <path
        d="M26.7768 3.57083C26.7158 3.57083 26.7654 4.58232 25.9197 4.56249C25.0739 4.54265 23.483 4.56249 23.483 4.56249L22.7832 3.29883L26.7768 3.57083Z"
        fill="#263238" />
    <path
        d="M26.4016 4.91354C26.4587 4.91297 26.5151 4.92544 26.5667 4.94999C26.6182 4.97453 26.6635 5.01052 26.6991 5.0552C26.9002 5.32154 27.304 5.8712 27.3139 6.04686C27.3206 6.1001 27.3164 6.15413 27.3016 6.2057C27.2868 6.25727 27.2616 6.3053 27.2277 6.34688C27.1938 6.38847 27.1519 6.42274 27.1043 6.44763C27.0568 6.47252 27.0047 6.48751 26.9512 6.49169C26.7189 6.51861 22.2621 6.49169 21.8003 6.49169C21.7717 6.49119 21.7432 6.48787 21.7153 6.48178C21.5934 6.45203 21.2775 6.35569 21.3016 6.14744C21.3257 5.9392 21.6657 5.3782 21.847 5.08637C21.8803 5.03267 21.9268 4.98843 21.9822 4.95792C22.0375 4.9274 22.0997 4.91163 22.1629 4.91212L26.4016 4.91354Z"
        fill="#263238" />
    <path d="M24.4521 4.47754H24.1489V5.00454H24.4521V4.47754Z" fill="#263238" />
    <path
        d="M11.5708 1.63116C11.5708 1.53341 12.1771 0.724494 12.5086 0.347663C12.8401 -0.0291678 12.9705 -0.016418 13.2595 0.0133318C13.6179 0.0487482 14.4749 0.486496 14.5174 0.653661C14.5545 0.888203 14.5777 1.12472 14.5869 1.36199L14.0089 1.34782C14.0089 1.34782 14.1378 0.834993 13.9664 0.732994C13.7142 0.581411 13.6193 0.538912 13.4181 0.622495C13.217 0.706077 12.9563 1.37474 12.9563 1.37474L11.5708 1.63116Z"
        fill="#E0E0E0" />
    <path
        d="M36.596 1.64816C36.596 1.66658 30.9293 1.68358 23.9537 1.68358C16.9781 1.68358 11.3101 1.66658 11.3101 1.64816C11.3101 1.62974 16.9696 1.61133 23.9537 1.61133C30.9378 1.61133 36.596 1.62833 36.596 1.64816Z"
        fill="#263238" />
    <g opacity="0.3">
        <path
            d="M25.9513 9.21646C25.9513 8.79146 25.8011 7.59722 25.4384 7.27848C25.1551 7.03198 24.4978 6.95831 24.1719 6.93848H24.1408C23.9679 6.93848 22.8119 6.97531 22.4663 7.27989C22.1206 7.58447 21.9535 8.79571 21.9535 9.21788V9.23063C21.9489 9.35191 21.9925 9.47008 22.0748 9.55929C22.1571 9.64849 22.2714 9.70147 22.3926 9.70662H25.5093C25.6305 9.70147 25.7448 9.64849 25.8271 9.55929C25.9094 9.47008 25.953 9.35191 25.9484 9.23063L25.9513 9.21646Z"
            fill="black" />
    </g>
    <g opacity="0.3">
        <path
            d="M33.692 9.21646C33.692 8.79146 33.5418 7.59722 33.1806 7.27848C32.8972 7.03198 32.2399 6.95831 31.9127 6.93848H31.8815C31.7087 6.93848 30.5527 6.97531 30.207 7.27989C29.8613 7.58447 29.6942 8.79571 29.6942 9.21788V9.23063C29.6896 9.35215 29.7334 9.47052 29.816 9.55977C29.8986 9.64901 30.0132 9.70183 30.1348 9.70662H33.2514C33.3727 9.70147 33.4869 9.64849 33.5692 9.55929C33.6516 9.47008 33.6952 9.35191 33.6906 9.23063L33.692 9.21646Z"
            fill="black" />
    </g>
    <g opacity="0.3">
        <path
            d="M17.545 9.21646C17.545 8.79146 17.3948 7.59722 17.0322 7.27848C16.7489 7.03198 16.0915 6.95831 15.7657 6.93848H15.7345C15.5617 6.93848 14.4057 6.97531 14.06 7.27989C13.7144 7.58447 13.5472 8.79571 13.5472 9.21788V9.23063C13.5426 9.35191 13.5862 9.47008 13.6685 9.55929C13.7508 9.64849 13.8651 9.70147 13.9864 9.70662H17.103C17.2243 9.70147 17.3386 9.64849 17.4209 9.55929C17.5032 9.47008 17.5468 9.35191 17.5422 9.23063L17.545 9.21646Z"
            fill="black" />
    </g>
    <path
        d="M18.5535 9.13925C18.5535 8.50317 18.3268 6.7026 17.7828 6.22235C17.3578 5.8526 16.3662 5.7421 15.876 5.71094H15.8292C15.5686 5.71094 13.8303 5.76477 13.309 6.22377C12.765 6.70402 12.5383 8.50458 12.5383 9.14066V9.1605C12.5334 9.34183 12.6 9.51783 12.7238 9.6504C12.8476 9.78297 13.0187 9.86144 13.1999 9.86882H17.8919C18.0731 9.86144 18.2442 9.78297 18.368 9.6504C18.4918 9.51783 18.5585 9.34183 18.5535 9.1605V9.13925Z"
        fill="#263238" />
    <path
        d="M10.1865 12.8909C10.1865 12.8909 10.4316 11.1909 10.8524 10.6625C11.5933 9.73604 15.5486 10.069 15.5486 10.069C15.5486 10.069 19.324 9.82812 19.868 10.4458C20.412 11.0634 20.7335 12.8272 20.7335 12.8272L10.1865 12.8909Z"
        fill="#263238" />
    <path
        d="M35.4228 8.96932C35.4228 8.33325 35.1961 6.53268 34.6507 6.05243C34.2257 5.68268 33.2341 5.57218 32.7439 5.54102H32.6986C32.4379 5.54102 30.6982 5.59485 30.1769 6.05385C29.6329 6.53409 29.4063 8.33466 29.4063 8.97074V8.99058C29.3994 9.17311 29.4651 9.35093 29.5891 9.48505C29.7132 9.61916 29.8853 9.69862 30.0678 9.70599H34.7612C34.9436 9.69825 35.1155 9.61868 35.2395 9.48465C35.3634 9.35062 35.4293 9.17301 35.4228 8.99058V8.96932Z"
        fill="#263238" />
    <path
        d="M27.186 12.6233C27.186 12.6233 27.4325 10.9375 27.8533 10.4162C28.5942 9.49818 32.5481 9.82827 32.5481 9.82827C32.5481 9.82827 36.3249 9.58885 36.8675 10.2008C37.41 10.8128 37.733 12.561 37.733 12.561L27.186 12.6233Z"
        fill="#263238" />
    <g opacity="0.3">
        <path
            d="M10.874 4.54929C10.1657 5.64295 8.37646 10.2159 8.37646 10.2159C8.37646 10.2159 14.6098 10.4695 14.8265 9.96234C15.0433 9.45517 18.2888 3.9543 18.2888 3.9543C18.2888 3.9543 11.3968 3.74463 10.874 4.54929Z"
            fill="white" />
    </g>
    <path
        d="M45.7233 25.0482C45.7233 25.0482 45.7006 25.0794 45.6539 25.1389C45.6259 25.1774 45.5947 25.2135 45.5604 25.2465C45.5165 25.2948 45.4692 25.3398 45.4187 25.3811C45.0831 25.6587 44.6988 25.8715 44.2854 26.0087C43.6373 26.232 42.9664 26.3826 42.2851 26.4578C41.8884 26.5074 41.462 26.5414 41.0101 26.5584C40.5582 26.5754 40.0765 26.5584 39.5736 26.5669L23.8487 26.5782C17.7089 26.5782 12.1514 26.5782 8.12381 26.5598C7.61948 26.5513 7.14206 26.5513 6.68732 26.5371C6.25984 26.5072 5.83425 26.4547 5.41232 26.3799C4.73775 26.266 4.0742 26.0945 3.429 25.867C3.01902 25.7289 2.62857 25.5385 2.26735 25.3004C2.17299 25.2389 2.08391 25.1697 2.00102 25.0935L1.91602 25.0156L2.00668 25.0879C2.09091 25.1616 2.18092 25.2284 2.27585 25.2876C2.63874 25.5207 3.0295 25.7073 3.43892 25.843C4.08492 26.0644 4.74835 26.2312 5.42224 26.3416C5.84417 26.4153 6.2698 26.4659 6.69723 26.4932C7.14773 26.5059 7.62797 26.5031 8.13089 26.5102H23.8558L39.5807 26.5201C40.0836 26.5201 40.5638 26.5286 41.0157 26.5201C41.4676 26.5116 41.8926 26.4719 42.2907 26.4252C42.9696 26.3539 43.6385 26.2081 44.2854 25.9903C44.6969 25.8561 45.0808 25.6488 45.4187 25.3783C45.4687 25.3375 45.516 25.2935 45.5604 25.2465C45.5945 25.2144 45.6262 25.1799 45.6553 25.1431C45.6964 25.0765 45.7233 25.0482 45.7233 25.0482Z"
        fill="#263238" />
</svg>
    