<svg width="46" height="26" viewBox="0 0 46 26" fill="none" xmlns="http://www.w3.org/2000/svg">
    <path
        d="M6.89995 0.000358716H7.06697C8.05032 1.73576e-05 9.02814 0.148858 9.96663 0.441425L35.9491 8.54034C38.8676 9.43988 41.4198 11.2502 43.229 13.7051C45.0385 16.16 46.0098 19.1296 45.9999 22.1765C45.9986 23.1901 45.5943 24.162 44.876 24.8789C44.1572 25.5954 43.1828 25.9986 42.1666 26H12.703C10.2555 26.0071 7.90697 25.0366 6.18158 23.3051C5.20919 22.3335 4.46548 21.1578 4.00513 19.864L0.555141 10.11C0.186527 9.07362 -0.00103378 7.98181 0 6.88223C0.00205231 5.05754 0.729698 3.30828 2.02312 2.01791C3.31689 0.727813 5.07059 0.00209744 6.89998 0L6.89995 0.000358716ZM2.00014 9.59965L5.45013 19.3536C5.83482 20.4328 6.45502 21.4131 7.2655 22.2243C8.70437 23.6677 10.6625 24.4767 12.703 24.4709H42.1666C42.7765 24.4709 43.3618 24.2292 43.793 23.7991C44.2241 23.369 44.4665 22.7852 44.4665 22.1769C44.4754 19.4561 43.6081 16.8046 41.9924 14.6126C40.3766 12.4206 38.0981 10.8038 35.4921 10.0006L9.507 1.902C8.71741 1.65586 7.895 1.53057 7.06735 1.53023H6.90033C5.47757 1.53194 4.11326 2.09624 3.1074 3.0999C2.10118 4.10318 1.53543 5.46398 1.53368 6.88308C1.53299 7.80857 1.69112 8.72751 2.00052 9.60013L2.00014 9.59965Z"
        fill="black" />
    <path
        d="M32 11C33.5914 11 35.1175 11.6321 36.2425 12.7575C37.3679 13.8825 38 15.4086 38 17C38 18.5914 37.3679 20.1175 36.2425 21.2425C35.1175 22.3679 33.5914 23 32 23C30.4086 23 28.8825 22.3679 27.7575 21.2425C26.6321 20.1175 26 18.5914 26 17C26.0017 15.4092 26.6345 13.8841 27.7595 12.7595C28.8841 11.6345 30.4092 11.0016 32 11ZM32 21.5C33.1937 21.5 34.338 21.0259 35.1821 20.1821C36.0259 19.3381 36.5 18.1937 36.5 17C36.5 15.8063 36.0259 14.662 35.1821 13.8179C34.3381 12.9741 33.1937 12.5 32 12.5C30.8063 12.5 29.662 12.9741 28.8179 13.8179C27.9741 14.6619 27.5 15.8063 27.5 17C27.5013 18.193 27.9758 19.3371 28.8192 20.1808C29.663 21.0242 30.807 21.4986 32 21.5Z"
        fill="black" />
    <path
        d="M32 13C32.7955 13 33.5586 13.3688 34.1214 14.025C34.6839 14.6816 35 15.5719 35 16.5C35 17.4281 34.6839 18.3184 34.1214 18.975C33.5586 19.6312 32.7955 20 32 20C31.2045 20 30.4414 19.6312 29.8786 18.975C29.3161 18.3184 29 17.4281 29 16.5C29 15.5719 29.3161 14.6816 29.8786 14.025C30.4414 13.3688 31.2045 13 32 13ZM32 18.25C32.3978 18.25 32.7795 18.0656 33.0607 17.7375C33.342 17.4094 33.5 16.9641 33.5 16.5C33.5 16.0359 33.342 15.5906 33.0607 15.2625C32.7795 14.9344 32.3978 14.75 32 14.75C31.6022 14.75 31.2205 14.9344 30.9393 15.2625C30.658 15.5906 30.5 16.0359 30.5 16.5C30.5 16.9641 30.658 17.4094 30.9393 17.7375C31.2205 18.0656 31.6022 18.25 32 18.25Z"
        fill="black" />
    <path
        d="M16 6C18.3869 6 20.6761 6.89557 22.364 8.48959C24.0518 10.0837 25 12.2456 25 14.5C25 16.7544 24.0517 18.9163 22.364 20.5104C20.6761 22.1045 18.387 23 16 23C13.613 23 11.3239 22.1044 9.63604 20.5104C7.94816 18.9163 7 16.7544 7 14.5C7.00292 12.2463 7.95189 10.0862 9.63903 8.49242C11.3265 6.89901 13.6138 6.00283 16 6ZM16 21.4545C17.9531 21.4545 19.8261 20.7218 21.2068 19.4175C22.5879 18.1135 23.3636 16.3446 23.3636 14.5C23.3636 12.6554 22.5878 10.8865 21.2068 9.58245C19.8261 8.27809 17.9531 7.54545 16 7.54545C14.0469 7.54545 12.1739 8.27817 10.7932 9.58245C9.41209 10.8865 8.63636 12.6554 8.63636 14.5C8.63856 16.3439 9.4151 18.1115 10.7954 19.4154C12.1761 20.7191 14.0477 21.4524 16 21.4545Z"
        fill="black" />
    <path
        d="M16.5 10C17.6937 10 18.838 10.4741 19.6821 11.3179C20.5259 12.1619 21 13.3063 21 14.5C21 15.6937 20.5259 16.838 19.6821 17.6821C18.8381 18.5259 17.6937 19 16.5 19C15.3063 19 14.162 18.5259 13.3179 17.6821C12.4741 16.8381 12 15.6937 12 14.5C12.0013 13.307 12.4758 12.1629 13.3192 11.3192C14.163 10.4758 15.307 10.0014 16.5 10ZM16.5 17.5C17.2955 17.5 18.0586 17.1839 18.6214 16.6214C19.1839 16.0586 19.5 15.2955 19.5 14.5C19.5 13.7045 19.1839 12.9414 18.6214 12.3786C18.0586 11.8161 17.2955 11.5 16.5 11.5C15.7045 11.5 14.9414 11.8161 14.3786 12.3786C13.8161 12.9414 13.5 13.7045 13.5 14.5C13.5 15.2955 13.8161 16.0586 14.3786 16.6214C14.9414 17.1839 15.7045 17.5 16.5 17.5Z"
        fill="black" />
</svg>
    