<svg xmlns="http://www.w3.org/2000/svg" width="21.087" height="21.087" viewBox="0 0 21.087 21.087">
    <path id="noun-time-534806"
        d="M80.543,21.087A10.543,10.543,0,0,1,80.543,0a.879.879,0,1,1,0,1.757,8.786,8.786,0,1,0,8.786,8.786.879.879,0,1,1,1.757,0A10.555,10.555,0,0,1,80.543,21.086Zm0-19.329A.924.924,0,0,1,79.92,1.5a.924.924,0,0,1-.255-.624A.924.924,0,0,1,79.92.255a.92.92,0,0,1,1.248,0,.924.924,0,0,1,.255.624.924.924,0,0,1-.255.624.924.924,0,0,1-.624.255Zm8.118,5.421a.88.88,0,1,1,1.151.475.948.948,0,0,1-.334.07.874.874,0,0,1-.817-.545ZM86.754,4.331a.885.885,0,0,1,0-1.248.875.875,0,0,1,1.239,0,.879.879,0,0,1-.614,1.5.9.9,0,0,1-.625-.255ZM83.908,2.425A.88.88,0,1,1,84.585.8a.878.878,0,0,1-.343,1.687.865.865,0,0,1-.334-.061Zm6.3,9a.87.87,0,1,1,.624-.255.922.922,0,0,1-.624.255Zm-6.151,1.757a.881.881,0,0,1-.392-.092l-3.514-1.757a.879.879,0,0,1-.486-.786V4.393a.879.879,0,1,1,1.757,0V10l3.029,1.515a.878.878,0,0,1-.394,1.664Z"
        transform="translate(-70)" fill="#3a5c79" />
</svg>
  