<svg width="46" height="29" viewBox="0 0 46 29" fill="none" xmlns="http://www.w3.org/2000/svg">
    <path
        d="M45.9513 20.3974L42.5368 2.25216C42.2923 0.947918 41.1423 0 39.8054 0H6.19424C4.85733 0 3.70705 0.947918 3.46282 2.25216L0.0483283 20.3974C-0.174382 21.5875 0.386202 22.7635 1.45013 23.3196C8.60238 27.1042 15.8044 29 23.0002 29C30.2028 29 37.4054 27.1042 44.5571 23.3196C45.6138 22.7638 46.1744 21.5878 45.9516 20.3974H45.9513ZM43.8956 22.1082C39.3672 24.51 34.8098 26.1208 30.2529 26.9476L16.5958 24.0254C16.2218 23.947 15.8482 24.1822 15.7691 24.5527C15.69 24.9234 15.9273 25.2939 16.3009 25.3723L26.1483 27.4817C23.7402 27.674 21.3251 27.6458 18.917 27.4033L4.86432 20.6611C4.51917 20.4971 4.10253 20.6398 3.92981 20.9817C3.76435 21.3239 3.9083 21.737 4.25313 21.9011L14.0506 26.5977C10.0616 25.7072 6.07232 24.2103 2.10387 22.1081C1.59359 21.8374 1.30602 21.2386 1.42085 20.6542L4.83534 2.50893C4.95745 1.86024 5.53259 1.39008 6.19376 1.39008H22.3017V2.65862H19.3476C18.9594 2.65862 18.6503 2.96507 18.6503 3.34996V5.79447C18.6503 6.17935 18.9594 6.48582 19.3476 6.48582H22.3017V7.40518C22.3017 7.79006 22.6108 8.09653 22.999 8.09653C23.3871 8.09653 23.6962 7.79007 23.6962 7.40518V6.48582H26.6504C27.0385 6.48582 27.3476 6.17936 27.3476 5.79447V3.34996C27.3476 2.96508 27.0385 2.65862 26.6504 2.65862H23.6962V1.39008H39.8042C40.4726 1.39008 41.0405 1.8606 41.1626 2.50893L44.5771 20.6542C44.6926 21.2386 44.4119 21.8298 43.8947 22.1081L43.8956 22.1082ZM20.0454 5.1028V4.04098H25.9613V5.1028H20.0454Z"
        fill="black" />
</svg>
    