<svg id="Group_20080" data-name="Group 20080" xmlns="http://www.w3.org/2000/svg" width="20" height="20" viewBox="0 0 20 20">
  <path id="Path_33433" data-name="Path 33433" d="M0,0H20V20H0Z" fill="none"/>
  <path id="Path_33434" data-name="Path 33434" d="M6.1,4.429V1.857A.839.839,0,0,1,6.917,1h6.556a.839.839,0,0,1,.819.857V4.429H17.57a.839.839,0,0,1,.819.857v12a.839.839,0,0,1-.819.857H2.819A.839.839,0,0,1,2,17.287v-12a.839.839,0,0,1,.819-.857Zm1.639,6.858h-4.1V16.43H16.75V11.286h-4.1v2.572H7.736ZM16.75,6.143H3.639V9.572h4.1V7.858h4.917V9.572h4.1ZM9.375,9.572v2.572h1.639V9.572ZM7.736,2.714V4.429h4.917V2.714Z" transform="translate(-0.347 -0.133)" fill="#fff"/>
</svg>
