<svg width="30" height="43" viewBox="0 0 30 43" fill="none" xmlns="http://www.w3.org/2000/svg">
    <path
        d="M8.29514 7.03533C16.8665 -0.915771 28.848 0.00902352 29.3549 0.0550857C29.7236 0.101197 30 0.378834 30 0.748364V42.3067C30 42.6766 29.6773 43 29.3089 43H14.7929C14.4242 43 14.1018 42.6763 14.1018 42.3067C14.1018 36.4822 9.40129 31.7669 3.59497 31.7669C2.71932 31.7669 1.79774 31.9056 0.876177 32.1368C0.645697 32.1829 0.461508 32.1368 0.277004 31.9981C0.0928154 31.8594 0.00056076 31.6743 0.00056076 31.4435V29.4559C-0.0457268 19.6557 2.76535 12.1206 8.29542 7.03478L8.29514 7.03533ZM1.33651 30.6113C2.0739 30.4726 2.81132 30.3801 3.54839 30.3801C9.90786 30.3801 15.069 35.3726 15.4377 41.6133H28.6173V1.44176C26.0364 1.34921 16.2672 1.53398 9.21654 8.0521C4.00913 12.8596 1.33626 20.0712 1.33626 29.5016L1.33651 30.6113Z"
        fill="black" />
    <path
        d="M25.3654 5.02386C25.7281 5.07 26 5.34782 26 5.71759V21.3063C26 21.6764 25.6826 22 25.3202 22H4.69672C4.51555 22 4.28886 21.9074 4.1529 21.7686C4.01695 21.6299 3.97174 21.3985 4.01695 21.2137C7.41643 3.68217 25.2297 5.02363 25.3657 5.02363L25.3654 5.02386ZM24.6402 20.6125V6.36532C21.6033 6.27272 8.68526 6.73542 5.55774 20.6125H24.6402Z"
        fill="black" />
    <path
        d="M18.6856 25H25.3144C25.6802 25 26 25.2335 26 25.5C26 25.7667 25.6798 26 25.3144 26H18.6856C18.3198 26 18 25.7665 18 25.5C17.9997 25.2335 18.3199 25 18.6856 25Z"
        fill="black" />
</svg>
    