<svg xmlns="http://www.w3.org/2000/svg" width="15" height="18" viewBox="0 0 15 18">
  <g id="Group_20789" data-name="Group 20789" transform="translate(-24 -783)">
    <text id="_" data-name="(  )" transform="translate(24 797)" fill="#242424" font-size="14" font-family="Outfit-Regular, Outfit"><tspan x="0" y="0" xml:space="preserve">(  )</tspan></text>
    <g id="square-root" transform="translate(22.128 1296.662)">
      <path id="Path_33524" data-name="Path 33524" d="M12.231-511.979a.246.246,0,0,0-.072.066c-.029.038-.579,2-3.047,10.866l-.09.327-1.074-2.151c-.591-1.182-1.1-2.187-1.139-2.23l-.067-.076H5v.5H6.556l1.182,2.367c.845,1.692,1.2,2.377,1.235,2.4.123.088.249.014.309-.18.022-.069.746-2.665,1.611-5.772l1.571-5.644h2.36v-.5l-1.276,0C12.846-512,12.253-511.988,12.231-511.979Z" transform="translate(0 0)"/>
    </g>
  </g>
</svg>
