<svg width="24" height="28" viewBox="0 0 24 28" fill="none" xmlns="http://www.w3.org/2000/svg">
    <defs>
        <linearGradient id="paint0_linear_853_5951" x1="12.5" y1="1" x2="12.5" y2="28"
            gradientUnits="userSpaceOnUse">
            <stop stop-color="#219653" />
            <stop offset="1" stop-color="#61ACE8" />
        </linearGradient>
        <linearGradient id="paint1_linear_853_5951" x1="12.2501" y1="9.32143" x2="12.2501" y2="18"
            gradientUnits="userSpaceOnUse">
            <stop stop-color="#219653" />
            <stop offset="1" stop-color="#61ACE8" />
        </linearGradient>
    </defs>
    <path
        d="M23.9717 7.59666L23.971 7.57493C23.9587 7.30612 23.9506 7.02144 23.9457 6.70477C23.9228 5.16078 22.6872 3.88361 21.1334 3.79767C17.893 3.61822 15.3864 2.56812 13.2444 0.494296L13.226 0.477205C12.5274 -0.159068 11.4736 -0.159068 10.7747 0.477205L10.7563 0.494296C8.61435 2.56862 6.10775 3.61816 2.8673 3.7981C1.31322 3.88429 0.0778466 5.1614 0.0550102 6.70521C0.050341 7.01943 0.0419856 7.30411 0.0296985 7.57487L0.0282241 7.62565C-0.0349317 10.9085 -0.113079 14.994 1.26259 18.7023C2.01896 20.7414 3.16462 22.5142 4.66762 23.9713C6.37897 25.6308 8.62116 26.9482 11.3311 27.887C11.4191 27.9175 11.5107 27.9424 11.6041 27.9607C11.7353 27.9868 11.8678 28 12.0002 28C12.1327 28 12.2657 27.9871 12.3966 27.9607C12.49 27.9421 12.5824 27.917 12.6706 27.8865C15.377 26.946 17.6165 25.6278 19.3266 23.9688C20.8288 22.5113 21.9745 20.7382 22.7316 18.6984C24.1127 14.9785 24.0344 10.8855 23.9717 7.59666ZM21.1796 18.1302C19.7285 22.0388 16.7667 24.7229 12.1242 26.3361C12.1078 26.3417 12.0901 26.3466 12.0717 26.35C12.0237 26.3595 11.9748 26.3595 11.9262 26.3498C11.9082 26.3464 11.8905 26.3415 11.8741 26.3359C7.22683 24.7257 4.26318 22.0432 2.81309 18.1343C1.54507 14.716 1.61704 10.9653 1.68046 7.65642L1.6807 7.63811C1.69373 7.35391 1.70208 7.05605 1.70675 6.72889C1.71707 6.0433 2.26655 5.47615 2.9581 5.43809C4.79181 5.33628 6.40295 4.98446 7.88279 4.36186C9.36093 3.74026 10.6739 2.86374 11.8963 1.68283C11.9582 1.63058 12.0391 1.63033 12.101 1.68283C13.3236 2.86381 14.6366 3.74028 16.1145 4.36186C17.5948 4.98444 19.2055 5.33627 21.0397 5.43809C21.7309 5.47618 22.2805 6.04358 22.2908 6.72939C22.2957 7.0585 22.3041 7.35635 22.3173 7.63861C22.3812 10.951 22.4516 14.7044 21.1796 18.1302Z"
        fill="url(#paint0_linear_853_5951)" />
    <path
        d="M17.9992 13.9994C17.9992 13.7858 17.946 13.5819 17.8495 13.395C17.8395 13.3476 17.8281 13.3003 17.8141 13.2519L16.7718 10.9137L16.7649 10.8926C16.4003 9.90961 15.8813 9 14.5657 9H9.53488C8.18664 9 7.71025 9.93234 7.33778 10.8872L6.24761 13.2312C6.08975 13.46 6 13.7216 6 13.9994V14.7268C6 14.8393 6.01465 14.9494 6.04278 15.0553C6.01534 15.1197 6 15.1885 6 15.2613V17.4252C6 17.7426 6.28434 18 6.63472 18H7.95207C8.30244 18 8.58678 17.7426 8.58678 17.4252V16.3431H15.4881V17.4252C15.4881 17.7426 15.7724 18 16.123 18H17.365C17.7157 18 18 17.7426 18 17.4252V15.2611C18 15.1887 17.9844 15.1193 17.9572 15.0557C17.9847 14.9492 17.9993 14.8393 17.9993 14.727L17.9992 13.9994ZM8.11061 11.1223C8.52562 10.0624 8.85925 9.73891 9.5342 9.73891H14.5646C15.2346 9.73891 15.6075 10.0998 15.9868 11.1178L16.7473 12.513C16.499 12.4296 16.2255 12.3836 15.9384 12.3836H8.05978C7.80124 12.3836 7.5541 12.4212 7.32626 12.4892L8.11061 11.1223ZM8.76414 15.0033H7.37423C7.12383 15.0033 6.92086 14.8196 6.92086 14.5929C6.92086 14.3662 7.12383 14.1825 7.37423 14.1825H8.76414C9.01454 14.1825 9.21751 14.3662 9.21751 14.5929C9.21751 14.8196 9.01431 15.0033 8.76414 15.0033ZM13.6736 14.9212H10.4409C10.2824 14.9212 10.154 14.8048 10.154 14.6615C10.154 14.518 10.2824 14.4014 10.4409 14.4014H13.6736C13.8321 14.4014 13.9605 14.5176 13.9605 14.6615C13.9609 14.8046 13.8321 14.9212 13.6736 14.9212ZM16.5891 15.0033H15.1992C14.9488 15.0033 14.7458 14.8196 14.7458 14.5929C14.7458 14.3662 14.9488 14.1825 15.1992 14.1825H16.5891C16.8395 14.1825 17.0424 14.3662 17.0424 14.5929C17.0427 14.8196 16.8397 15.0033 16.5891 15.0033Z"
        fill="url(#paint1_linear_853_5951)" />

</svg>
    