<svg xmlns="http://www.w3.org/2000/svg" width="13.208" height="15.691" viewBox="0 0 13.208 15.691">
  <path id="Path_32358" data-name="Path 32358" d="M9.6,15.648l3.632-3.575a5,5,0,0,0,0-7.149,5.2,5.2,0,0,0-7.264,0,5,5,0,0,0,0,7.149Zm0,2.042-4.67-4.6a6.427,6.427,0,0,1,0-9.191,6.679,6.679,0,0,1,9.339,0,6.427,6.427,0,0,1,0,9.191Zm0-7.747A1.444,1.444,0,1,0,8.136,8.5,1.456,1.456,0,0,0,9.6,9.944Zm0,1.444A2.889,2.889,0,1,1,12.539,8.5,2.912,2.912,0,0,1,9.6,11.388Z" transform="translate(-3 -2)" fill="#707070"/>
</svg>
