<svg xmlns="http://www.w3.org/2000/svg" width="20.008" height="19.874" viewBox="0 0 20.008 19.874">
    <g id="invoice" transform="translate(-0.123 509.908)">
        <path id="Path_33524" data-name="Path 33524"
            d="M3.863-509.853a.717.717,0,0,0-.423.379c-.07.141-.074.336-.074,6.78v6.632H2.047c-1.471,0-1.526.012-1.745.27-.18.215-.192.325-.172,1.628a4.166,4.166,0,0,0,.246,1.948,3.607,3.607,0,0,0,2.641,2.14c.344.055,13.886.055,14.234,0a3.526,3.526,0,0,0,1.886-1.006,3.592,3.592,0,0,0,.923-1.655c.067-.243.07-.677.07-8.451,0-8.189,0-8.2-.078-8.334a1.062,1.062,0,0,0-.246-.25.723.723,0,0,0-.712-.051c-.074.039-.6.481-1.17.986s-1.045.919-1.06.919-.5-.426-1.076-.943a15.294,15.294,0,0,0-1.182-1,.862.862,0,0,0-.626.016c-.067.035-.595.485-1.166,1s-1.056.927-1.072.919-.5-.426-1.06-.931-1.084-.951-1.15-.986a.851.851,0,0,0-.622-.016,14.516,14.516,0,0,0-1.182,1c-.583.516-1.068.943-1.08.943s-.477-.4-1.029-.892C4.375-509.908,4.238-509.99,3.863-509.853Zm6.409,2.606c.579.516,1.1.966,1.166,1a.928.928,0,0,0,.642,0c.059-.031.575-.473,1.142-.978s1.045-.935,1.064-.947a13.562,13.562,0,0,1,1.076.912c.571.513,1.1.962,1.182,1.005a.787.787,0,0,0,.638,0,9.342,9.342,0,0,0,.786-.653c.36-.317.665-.579.677-.579s.02,3.208.02,7.129c0,5.834-.012,7.168-.055,7.328a2.116,2.116,0,0,1-1.33,1.424,2.075,2.075,0,0,1-2.61-1.385,10.536,10.536,0,0,1-.07-1.373c-.023-1.213-.023-1.217-.121-1.358a.813.813,0,0,0-.29-.243l-.2-.1H4.813v-5.716c0-5,.008-5.712.059-5.7.031.016.34.274.685.583a9.169,9.169,0,0,0,.767.634.731.731,0,0,0,.689-.031c.094-.055.618-.5,1.166-1s1.006-.9,1.017-.9S9.688-507.768,10.271-507.248Zm2.887,13.522a3.842,3.842,0,0,0,.1,1.127,4.614,4.614,0,0,0,.419.951l.1.164L8.5-491.492,3.229-491.5l-.223-.086a2.138,2.138,0,0,1-1.346-1.44,4.335,4.335,0,0,1-.055-.872v-.673H13.139Z"
            transform="translate(0 0)" fill="#3a5c79" />
        <path id="Path_33525" data-name="Path 33525"
            d="M177.88-341.918a.658.658,0,0,0-.38.642.58.58,0,0,0,.11.4.811.811,0,0,0,.262.243c.149.074.223.078,2.6.078,1.632,0,2.481-.016,2.555-.043a.73.73,0,0,0,.454-.681.73.73,0,0,0-.454-.681c-.074-.027-.919-.043-2.543-.043C178.071-342,178.048-342,177.88-341.918Z"
            transform="translate(-170.437 -161.339)" fill="#3a5c79" />
        <path id="Path_33526" data-name="Path 33526"
            d="M177.577-253.933a.676.676,0,0,0-.356.387.731.731,0,0,0,.344.912c.172.082.176.082,4.331.082,4.006,0,4.159,0,4.3-.074a.659.659,0,0,0,.4-.653.717.717,0,0,0-.442-.677c-.074-.031-1.428-.043-4.284-.043A33.254,33.254,0,0,0,177.577-253.933Z"
            transform="translate(-170.123 -245.896)" fill="#3a5c79" />
    </g>
</svg>