<svg xmlns="http://www.w3.org/2000/svg" width="20.426" height="20.474" viewBox="0 0 20.426 20.474">
  <g id="phone-call" transform="translate(-0.646 512)">
    <path id="Path_32483" data-name="Path 32483" d="M269.413-511.928a.575.575,0,0,0-.06.992,3.373,3.373,0,0,0,.612.18,8.669,8.669,0,0,1,2.048.676A9.739,9.739,0,0,1,275-507.955a9.707,9.707,0,0,1,2.572,4.841c.108.508.136.572.292.688a.565.565,0,0,0,.764-.044c.184-.192.2-.316.084-.86a11.093,11.093,0,0,0-7.637-8.346,11.166,11.166,0,0,0-1.428-.324A.631.631,0,0,0,269.413-511.928Z" transform="translate(-257.711)" fill="#364cf7"/>
    <path id="Path_32484" data-name="Path 32484" d="M3.976-481.831c-.512.164-.94.52-2.14,1.792a3.25,3.25,0,0,0-1.172,2.284,9.469,9.469,0,0,0,1.3,4.869,14.343,14.343,0,0,0,1.112,1.9,20.861,20.861,0,0,0,7.569,6.893,10.9,10.9,0,0,0,4.5,1.452,3.3,3.3,0,0,0,2.392-.752c.076-.064.536-.524,1.024-1.028.808-.828.9-.94,1.056-1.248a1.826,1.826,0,0,0,0-1.756c-.164-.332-.2-.376-1.652-1.824-1.4-1.408-1.5-1.5-1.788-1.632a1.9,1.9,0,0,0-1.836.084,11.806,11.806,0,0,0-1.008.924l-.828.816-.4-.212a13.938,13.938,0,0,1-4.929-4.961l-.156-.3.768-.776c.82-.828,1.02-1.076,1.152-1.452a1.886,1.886,0,0,0-.112-1.516c-.132-.264-.268-.412-1.628-1.772-1.548-1.548-1.672-1.652-2.144-1.792A2.258,2.258,0,0,0,3.976-481.831Zm.9,1.164a30.7,30.7,0,0,1,2.945,2.961c.208.46.12.612-.976,1.7a12.062,12.062,0,0,0-.96,1.016A1.308,1.308,0,0,0,6-473.97a12.559,12.559,0,0,0,2.616,3.465,12.941,12.941,0,0,0,3.2,2.4c.452.236.512.256.74.252a.912.912,0,0,0,.384-.072,13.955,13.955,0,0,0,1.04-.964,13.805,13.805,0,0,1,1.036-.96.841.841,0,0,1,.752.072c.284.2,2.717,2.677,2.813,2.865a.805.805,0,0,1,0,.728,21.133,21.133,0,0,1-1.82,1.9c-.64.56-1.54.628-3.021.228a16.74,16.74,0,0,1-4.121-2,19.941,19.941,0,0,1-6.945-8.042c-.868-1.952-1.08-3.449-.624-4.381a6.491,6.491,0,0,1,1.028-1.152,9.2,9.2,0,0,1,1.1-1.028A.756.756,0,0,1,4.873-480.667Z" transform="translate(0 -28.892)" fill="#364cf7"/>
    <path id="Path_32485" data-name="Path 32485" d="M265.345-418.792a.585.585,0,0,0-.208.788c.112.184.208.232.692.352a5.455,5.455,0,0,1,2.757,1.576A5.485,5.485,0,0,1,270-413.451c.084.376.14.5.284.616a.582.582,0,0,0,.916-.332,5.182,5.182,0,0,0-.588-2.04,6.723,6.723,0,0,0-4.453-3.569C265.673-418.892,265.517-418.9,265.345-418.792Z" transform="translate(-253.835 -89.407)" fill="#364cf7"/>
  </g>
</svg>
