<svg id="Group_20202" data-name="Group 20202" xmlns="http://www.w3.org/2000/svg" width="19.839" height="19.839" viewBox="0 0 19.839 19.839">
  <path id="Path_33447" data-name="Path 33447" d="M0,0H19.839V19.839H0Z" fill="none"/>
  <path id="Path_33448" data-name="Path 33448" d="M2,3.821A.827.827,0,0,1,2.82,3H17.713a.821.821,0,0,1,.82.821V17.059a.827.827,0,0,1-.82.821H2.82A.821.821,0,0,1,2,17.059Zm1.653.832V16.226H16.879V4.653Zm6.613,8.266a2.48,2.48,0,1,0-2.48-2.48A2.48,2.48,0,0,0,10.266,12.92Zm0,1.653A4.133,4.133,0,1,1,14.4,10.44,4.133,4.133,0,0,1,10.266,14.573ZM14.4,5.48h1.653V7.133H14.4Z" transform="translate(-0.347 -0.52)" fill="#fff"/>
</svg>
