<svg xmlns="http://www.w3.org/2000/svg" width="43" height="40" viewBox="0 0 43 40">
    <g id="Group_20828" data-name="Group 20828" transform="translate(-22 -816)">
        <rect id="Rectangle_17997" data-name="Rectangle 17997" width="43" height="40" rx="8"
            transform="translate(22 816)" fill="#580936" opacity="0.1" />
        <g id="noun-pdf-3836262" transform="translate(-162.085 761.38)">
            <path id="Path_33562" data-name="Path 33562"
                d="M260.638,180.959a1.413,1.413,0,0,1-1.092-.526,1.443,1.443,0,0,1-.04-1.982,5.177,5.177,0,0,1,2.346-1.375,12.05,12.05,0,0,1,1.294-.364,16.533,16.533,0,0,0,.809-1.7,16.165,16.165,0,0,0,.607-1.618,7.083,7.083,0,0,1-1.214-3.4,1.489,1.489,0,0,1,1.375-1.577,1.394,1.394,0,0,1,1.577,1.011,7.368,7.368,0,0,1-.364,3.761,12.761,12.761,0,0,0,1.133,1.577c.364.445.688.85,1.052,1.254a8.1,8.1,0,0,1,3.56.566,1.434,1.434,0,0,1,.809,1.739,1.453,1.453,0,0,1-1.7,1.092,6.4,6.4,0,0,1-3.2-2.1,20.423,20.423,0,0,0-2.1.2c-.526.081-1.052.162-1.537.283a7.781,7.781,0,0,1-.526.85,6.893,6.893,0,0,1-1.941,2.063,1.7,1.7,0,0,1-.849.242Zm1.577-2.67a4.391,4.391,0,0,0-1.78.971c-.121.121-.121.2.04.4.081.081.121.162.445,0a5.384,5.384,0,0,0,1.294-1.375Zm7.2-.93a3.257,3.257,0,0,0,1.537.89c.162.04.243.04.364-.243.04-.081.04-.121-.2-.283a5.1,5.1,0,0,0-1.7-.364Zm-3.964-2.629c-.121.324-.243.607-.324.809-.121.324-.283.607-.4.89a3.132,3.132,0,0,1,.607-.081c.4-.04.809-.121,1.214-.121-.2-.243-.364-.445-.445-.566-.162-.243-.4-.566-.647-.93Zm-.566-5.056c-.162.04-.283.04-.283.364a4.245,4.245,0,0,0,.485,1.658,4.112,4.112,0,0,0,.081-1.82c-.081-.2-.121-.2-.283-.2Z"
                transform="translate(-60.129 -101.882)" fill="#fe0103" />
            <path id="Path_33563" data-name="Path 33563"
                d="M273.84,374.045a.488.488,0,0,1,.526-.526H275.7a1.557,1.557,0,0,1,1.658,1.618,1.507,1.507,0,0,1-1.618,1.618h-.809v1.011a.521.521,0,0,1-.526.566.5.5,0,0,1-.526-.566v-3.721Zm1.092,1.739h.566a.686.686,0,0,0,.728-.647c0-.445-.283-.647-.728-.647h-.566Z"
                transform="translate(-73.776 -292.177)" fill="#fe0103" />
            <path id="Path_33564" data-name="Path 33564"
                d="M330.4,374.045a.488.488,0,0,1,.526-.526h1.294a2.392,2.392,0,0,1,0,4.773h-1.294a.51.51,0,0,1-.526-.526Zm1.092,3.236h.566c.85,0,1.254-.566,1.254-1.416,0-.809-.4-1.335-1.214-1.335h-.607Z"
                transform="translate(-126.251 -292.177)" fill="#fe0103" />
            <path id="Path_33565" data-name="Path 33565"
                d="M395.36,374.045a.488.488,0,0,1,.526-.526h1.658a.479.479,0,0,1,.526.485c0,.324-.2.485-.526.485h-1.133v.85h.971a.479.479,0,0,1,.526.485c0,.324-.2.485-.526.485h-.971v1.375a.521.521,0,0,1-.526.566.5.5,0,0,1-.526-.566Z"
                transform="translate(-186.519 -292.177)" fill="#fe0103" />
            <path id="Path_33566" data-name="Path 33566"
                d="M216.2,67.023a.622.622,0,0,0-.607.607V88.1a1.26,1.26,0,0,1-1.254,1.254H196.788a1.26,1.26,0,0,1-1.254-1.254V61.077a1.26,1.26,0,0,1,1.254-1.254H209.57v3.761a2.244,2.244,0,0,0,2.225,2.225h4.368a.634.634,0,0,0,.566-.364.724.724,0,0,0-.121-.688l-5.986-5.986a.555.555,0,0,0-.526-.162H196.828a2.52,2.52,0,0,0-2.508,2.508V88.137a2.52,2.52,0,0,0,2.508,2.508h17.514a2.52,2.52,0,0,0,2.508-2.508V67.63a.659.659,0,0,0-.647-.607Zm-4.409-2.467a1,1,0,0,1-1.011-1.011V60.633l3.923,3.923Z"
                transform="translate(0 0)" fill="#fe0103" />
        </g>
    </g>
</svg>
  