<svg width="39" height="40" viewBox="0 0 39 40" fill="none" xmlns="http://www.w3.org/2000/svg">
    <path
        d="M37.346 20.0489C36.8925 20.0489 36.5216 20.4198 36.5216 20.8732C36.5216 30.4777 28.7309 38.2685 19.1264 38.2685C9.52193 38.2685 1.68995 30.4777 1.68995 20.9145C1.68995 11.7222 8.86247 4.17875 17.8898 3.56044L17.1479 4.13752C16.777 4.4262 16.6945 4.96186 16.9832 5.33278C17.1479 5.53894 17.3955 5.66258 17.6428 5.66258C17.8075 5.66258 18.0137 5.62146 18.1374 5.49782L20.9402 3.35426C21.1464 3.1895 21.27 2.94193 21.27 2.65354C21.27 2.36485 21.1053 2.11758 20.8991 1.99394L18.0962 0.139071C17.7253 -0.108211 17.1894 -0.025688 16.942 0.386352C16.6948 0.757274 16.7773 1.29321 17.1893 1.54054L17.725 1.87063C7.83198 2.57135 0 10.8156 0 20.9147C0 31.426 8.57395 40 19.0853 40C29.5966 40 38.1706 31.426 38.1706 20.9147C38.1703 20.4201 37.7994 20.0492 37.3459 20.0492L37.346 20.0489Z"
        fill="black" />
    <path
        d="M37.7583 16.4622C37.7583 17.0315 37.2968 17.4927 36.7278 17.4927C36.1585 17.4927 35.6973 17.0315 35.6973 16.4622C35.6973 15.8931 36.1585 15.4316 36.7278 15.4316C37.2968 15.4316 37.7583 15.8931 37.7583 16.4622Z"
        fill="black" />
    <path
        d="M36.398 12.6292C36.398 13.1982 35.9365 13.6597 35.3674 13.6597C34.7981 13.6597 34.3369 13.1982 34.3369 12.6292C34.3369 12.0601 34.7981 11.5986 35.3674 11.5986C35.9365 11.5986 36.398 12.0601 36.398 12.6292Z"
        fill="black" />
    <path
        d="M33.9248 9.04322C33.9248 9.61225 33.4633 10.0737 32.8943 10.0737C32.3253 10.0737 31.8638 9.61225 31.8638 9.04322C31.8638 8.4739 32.3253 8.0127 32.8943 8.0127C33.4633 8.0127 33.9248 8.4739 33.9248 9.04322Z"
        fill="black" />
    <path
        d="M30.5034 5.95142C30.5034 6.52045 30.0422 6.98195 29.4729 6.98195C28.9039 6.98195 28.4424 6.52045 28.4424 5.95142C28.4424 5.3821 28.9039 4.9209 29.4729 4.9209C30.0422 4.9209 30.5034 5.3821 30.5034 5.95142Z"
        fill="black" />
    <path
        d="M26.4224 3.80787C26.4224 4.3769 25.9609 4.83839 25.3919 4.83839C24.8225 4.83839 24.3613 4.3769 24.3613 3.80787C24.3613 3.23855 24.8225 2.77734 25.3919 2.77734C25.9609 2.77734 26.4224 3.23855 26.4224 3.80787Z"
        fill="black" />
    <path
        d="M18.3019 11.6397L13.2729 22.0686H17.1063L14.5097 30.5189L24.8973 18.029H19.4149L23.6607 11.6396L18.3019 11.6397Z"
        fill="black" />
</svg>
    