<svg width="36" height="36" viewBox="0 0 36 36" fill="none" xmlns="http://www.w3.org/2000/svg">
    <circle cx="18" cy="18" r="18" fill="#BF2132" />
    <path
        d="M18.0009 28.0003C17.5146 28.0003 17.0483 27.8072 16.7045 27.4634C16.3607 27.1195 16.1675 26.6532 16.1675 26.167H19.8342C19.8342 26.6532 19.641 27.1195 19.2972 27.4634C18.9534 27.8072 18.4871 28.0003 18.0009 28.0003ZM24.4175 24.3337H11.5842C11.3411 24.3337 11.1079 24.2371 10.936 24.0652C10.7641 23.8933 10.6675 23.6601 10.6675 23.417V22.8762C10.6693 22.6358 10.7647 22.4057 10.9334 22.2345L11.6942 21.4737C12.2083 20.9572 12.4981 20.259 12.5009 19.5303V17.0003C12.5032 15.8107 12.8889 14.6534 13.6009 13.7003L14.4259 12.6003C14.6827 12.2595 15.015 11.9828 15.3967 11.792C15.7784 11.6011 16.1991 11.5013 16.6259 11.5003H17.0842V10.1253C17.0842 10.0038 17.1325 9.88719 17.2184 9.80123C17.3044 9.71528 17.421 9.66699 17.5425 9.66699H18.4592C18.5808 9.66699 18.6973 9.71528 18.7833 9.80123C18.8692 9.88719 18.9175 10.0038 18.9175 10.1253V11.5003H19.3759C19.8026 11.5013 20.2233 11.6011 20.605 11.792C20.9867 11.9828 21.319 12.2595 21.5759 12.6003L22.4009 13.7003C23.1128 14.6534 23.4986 15.8107 23.5009 17.0003V19.5303C23.5036 20.259 23.7934 20.9572 24.3075 21.4737L25.0684 22.2345C25.2371 22.4057 25.3324 22.6358 25.3342 22.8762V23.417C25.3342 23.6601 25.2376 23.8933 25.0657 24.0652C24.8938 24.2371 24.6607 24.3337 24.4175 24.3337ZM26.7 17.0003H25.7834C25.6665 16.9981 25.5549 16.9513 25.4714 16.8695C25.3879 16.7877 25.3389 16.6771 25.3342 16.5603C25.2271 15.1254 24.7048 13.7526 23.8309 12.6095C23.779 12.5408 23.7557 12.4547 23.766 12.3692C23.7762 12.2838 23.8192 12.2056 23.8859 12.1512L24.8025 11.4362C24.8736 11.3818 24.9605 11.3522 25.05 11.3518H25.0858C25.1354 11.3574 25.1832 11.3736 25.2261 11.3992C25.2689 11.4248 25.3058 11.4593 25.3342 11.5003C26.4244 12.9554 27.062 14.6993 27.1675 16.5145C27.1661 16.6408 27.117 16.762 27.03 16.8537C26.9878 16.8992 26.9368 16.9357 26.8801 16.9609C26.8234 16.9861 26.7621 16.9995 26.7 17.0003ZM10.2092 17.0003H9.29254C9.23031 17.0004 9.16876 16.9874 9.1119 16.9622C9.05504 16.9369 9.00415 16.8999 8.96254 16.8537C8.91768 16.8099 8.88294 16.7569 8.86077 16.6983C8.8386 16.6397 8.82953 16.577 8.8342 16.5145C8.93493 14.6984 9.57305 12.9531 10.6675 11.5003C10.7161 11.4259 10.7917 11.3733 10.8784 11.3537H10.9178C11.0036 11.3537 11.0866 11.3839 11.1525 11.4389L12.0691 12.1539C12.1358 12.2084 12.1788 12.2866 12.1889 12.3721C12.199 12.4577 12.1754 12.5438 12.1232 12.6122C11.2674 13.7604 10.7619 15.1315 10.6675 16.5603C10.66 16.6777 10.6088 16.788 10.5239 16.8694C10.4391 16.9509 10.3268 16.9976 10.2092 17.0003Z"
        fill="white" />
</svg>
    