<svg width="39" height="40" viewBox="0 0 39 40" fill="none" xmlns="http://www.w3.org/2000/svg">
    <path
        d="M17.7697 1.06149C17.3161 1.18057 16.9362 1.41306 16.6413 1.73628C16.3237 2.08785 10.3697 12.686 10.1543 13.2757C10.0238 13.6443 10.0238 13.6556 10.0068 16.8651C9.98981 19.655 10.0012 20.1313 10.0805 20.4375C10.262 21.1407 10.727 21.7021 11.4018 22.0253C11.6966 22.1614 11.8724 22.2011 12.4225 22.2464C14.1066 22.3825 15.1783 22.8418 16.165 23.8342C17.3217 25.0079 17.7584 26.2158 17.764 28.3025C17.764 29.0056 17.8945 29.3572 18.2517 29.6521C18.7053 30.032 18.0362 30.0093 28.2601 29.9923L37.5257 29.9753L37.9056 29.7882C38.3422 29.5727 38.6428 29.2665 38.8526 28.8185L39 28.501V15.2604C39 2.45643 38.9943 2.01414 38.8923 1.82134C38.7448 1.54349 38.4726 1.26563 38.2061 1.12387L37.9793 0.999119L28.0276 0.987778C19.4652 0.976437 18.0306 0.987778 17.7697 1.06149ZM37.8999 2.09919L38.0644 2.26364V15.2434C38.0644 27.7525 38.0587 28.2231 37.9566 28.4499C37.8319 28.7164 37.6221 28.9036 37.3329 28.9829C37.1968 29.0283 34.2368 29.0397 28.039 29.0283L18.9435 29.0113L18.8358 28.8752C18.745 28.7675 18.728 28.6484 18.728 28.1948C18.728 27.4179 18.6316 26.5276 18.4955 26.0003C17.9228 23.8001 16.1877 22.0706 13.9875 21.4979C13.738 21.4355 13.171 21.3505 12.7343 21.3051C11.8441 21.2201 11.5549 21.1123 11.2657 20.7324C10.9651 20.3355 10.9595 20.2504 10.9595 17.0239C10.9595 14.5402 10.9765 13.9789 11.0445 13.7067C11.1069 13.4742 12.0255 11.7787 14.1633 7.9568C17.4181 2.13322 17.3841 2.18992 17.9285 2.02548C18.1496 1.95743 19.692 1.94042 27.9596 1.94042L37.7355 1.93475L37.8999 2.09919Z"
        fill="black" />
    <path
        d="M18.3595 2.96102C18.2631 2.9837 18.11 3.09144 18.0079 3.19351C17.8491 3.3693 12.8931 12.1472 12.6436 12.7029C12.5076 13.0091 12.5359 13.3153 12.7344 13.6102C13.0236 14.0468 11.9178 14.0128 24.8238 14.0128C37.7582 14.0128 36.6184 14.0525 36.919 13.5988L37.0721 13.3664L37.0891 8.60315C37.1004 5.39366 37.0891 3.76623 37.0437 3.63014C36.9643 3.34094 36.7772 3.13114 36.5107 3.00638C36.2896 2.90432 35.9266 2.89865 27.4039 2.90432C22.4763 2.90999 18.4559 2.93267 18.3595 2.96102ZM33.976 3.88531C33.9647 3.89665 32.0197 4.66784 29.6608 5.58645L25.3682 7.27059L23.3495 7.46905C22.2381 7.58246 21.3138 7.66185 21.2968 7.63917C21.2798 7.62216 21.3308 7.27059 21.4159 6.85664C21.5917 5.97205 21.5917 5.92101 21.4726 5.62048C21.3989 5.43335 21.2004 5.24056 20.4802 4.64515C19.9812 4.23688 19.5786 3.89665 19.5786 3.88531C19.5786 3.87397 22.8222 3.86263 26.7915 3.86263C30.7552 3.86263 33.9873 3.87397 33.976 3.88531ZM36.1365 8.56913V13.0488H31.8382H27.5457L26.1564 12.0508C25.3909 11.5064 24.7331 11.0415 24.6934 11.0131C24.6367 10.9848 24.7728 10.6162 25.2321 9.55012L25.8389 8.12116L27.8575 7.33296L29.8706 6.5391L30.3696 7.0381C30.8119 7.4804 30.8629 7.55411 30.8629 7.74124C30.8629 7.93403 30.8119 8.01342 30.3526 8.48407C29.9329 8.9207 29.8422 9.04545 29.8422 9.19288C29.8422 9.44238 30.0577 9.64652 30.3299 9.64652C30.517 9.64652 30.5964 9.58982 31.05 9.14752C31.6568 8.55779 31.8269 8.25158 31.8269 7.74691C31.8269 7.28193 31.6738 6.97572 31.2315 6.52775L30.8629 6.15917L33.4883 5.12715C34.9286 4.5601 36.1138 4.09512 36.1251 4.09512C36.1308 4.08945 36.1365 6.10247 36.1365 8.56913ZM19.5503 5.13282C20.0833 5.56944 20.5313 5.93802 20.5596 5.96071C20.5823 5.97772 20.5256 6.37465 20.4292 6.83963C20.3385 7.29894 20.2591 7.68453 20.2591 7.69587C20.2591 7.70154 19.7658 7.71856 19.159 7.7299C18.0816 7.74691 18.0533 7.75258 17.9115 7.883C17.7074 8.0758 17.7074 8.382 17.9115 8.5748C18.0533 8.71089 18.076 8.71089 19.2781 8.7279L20.5029 8.74491L22.1247 10.1399C23.0887 10.9621 24.1717 11.8297 24.7955 12.272L25.8445 13.0205L19.7261 13.0375C16.3578 13.0431 13.5963 13.0375 13.5849 13.0261C13.5679 13.0148 14.6623 11.0358 16.0062 8.6315C17.6053 5.78492 18.4786 4.2709 18.5239 4.29926C18.558 4.32194 19.0229 4.69619 19.5503 5.13282ZM24.3135 9.23257C24.1037 9.72591 23.9052 10.1739 23.8769 10.2306C23.8315 10.3156 23.6841 10.2079 22.8222 9.46506C21.8809 8.64852 21.8298 8.59748 21.9886 8.58047C23.514 8.4217 24.6594 8.31396 24.6764 8.3253C24.6877 8.33097 24.5233 8.73924 24.3135 9.23257Z"
        fill="black" />
    <path
        d="M13.1764 15.034C12.9383 15.0907 12.7228 15.2438 12.564 15.4876C12.4506 15.6464 12.4336 15.7484 12.4336 16.1907C12.4336 16.8995 12.5016 17.1037 12.8532 17.4553C13.3295 17.9372 13.3295 17.9316 16.4143 17.9146C18.9376 17.8976 19.051 17.8919 19.2949 17.7785C19.6124 17.631 19.93 17.2851 20.0604 16.9449C20.2022 16.5763 20.1681 15.6747 19.998 15.4536C19.8336 15.2268 19.6294 15.0907 19.3743 15.034C19.1021 14.9659 13.4429 14.9716 13.1764 15.034ZM19.1815 16.3041C19.1815 16.5537 19.1531 16.65 19.0454 16.7748L18.9093 16.9336H16.3009H13.6924L13.545 16.7975C13.4203 16.6784 13.3976 16.6104 13.3976 16.3268V15.9979H16.2895H19.1815V16.3041Z"
        fill="black" />
    <circle cx="14" cy="26" r="14" fill="#F8F8F8" />
    <path
        d="M15.0156 17.0003C14.7119 17.0003 14.4523 17.2174 14.3974 17.5154C14.3643 17.6976 13.5898 22.0029 13.5898 26.0001C13.5898 29.9972 14.3643 34.3032 14.3972 34.4837C14.4517 34.7826 14.7116 35 15.0155 35C21.3906 35 25.5101 31.4677 25.5101 26C25.5101 20.5326 21.3905 17 15.0155 17L15.0156 17.0003ZM15.5447 33.7356C15.3396 32.4619 14.8464 29.0869 14.8464 26.0003C14.8464 22.9121 15.3396 19.5377 15.5447 18.2649C20.9314 18.4443 24.2537 21.3729 24.2537 26.0003C24.2537 30.6276 20.9313 33.5556 15.5447 33.7356V33.7356Z"
        fill="black" />
    <path
        d="M11.11 18.1699H4.63C4.28226 18.1699 4 18.4522 4 18.7999C4 19.1477 4.28226 19.4299 4.63 19.4299H11.11C11.4577 19.4299 11.74 19.1477 11.74 18.7999C11.74 18.4522 11.4577 18.1699 11.11 18.1699Z"
        fill="black" />
    <path
        d="M11.11 22.9697H4.63C4.28226 22.9697 4 23.252 4 23.5997C4 23.9475 4.28226 24.2297 4.63 24.2297H11.11C11.4577 24.2297 11.74 23.9475 11.74 23.5997C11.74 23.252 11.4577 22.9697 11.11 22.9697Z"
        fill="black" />
    <path
        d="M11.11 27.7715H4.63C4.28226 27.7715 4 28.0533 4 28.4015C4 28.7496 4.28226 29.0315 4.63 29.0315H11.11C11.4577 29.0315 11.74 28.7496 11.74 28.4015C11.74 28.0533 11.4577 27.7715 11.11 27.7715Z"
        fill="black" />
    <path
        d="M11.11 32.5703H4.63C4.28226 32.5703 4 32.8522 4 33.2003C4 33.5485 4.28226 33.8303 4.63 33.8303H11.11C11.4577 33.8303 11.74 33.5485 11.74 33.2003C11.74 32.8522 11.4577 32.5703 11.11 32.5703Z"
        fill="black" />
</svg>
    