<svg width="44" height="30" viewBox="0 0 44 30" fill="none" xmlns="http://www.w3.org/2000/svg">
    <path
        d="M40.0878 1.6405H16.9994C13.494 1.6405 10.642 4.49256 10.642 7.99796V8.90192H6.54116V3.63775C6.54116 1.63198 4.90918 0 2.90341 0H1.03269C0.46234 0 0 0.46234 0 1.03269V28.7635C0 29.3338 0.46234 29.7961 1.03269 29.7961H2.90374C4.90951 29.7961 6.54149 28.1645 6.54149 26.1587V24.8386H11.0855C11.7385 26.0906 13.0472 26.9484 14.5537 26.9484H30.0802C37.7556 26.9484 44 20.7042 44 13.0286V5.55189C43.9997 3.3953 42.2449 1.6405 40.0876 1.6405H40.0878ZM4.4757 26.1586C4.4757 27.0253 3.77034 27.7306 2.90332 27.7306H2.06492L2.06525 2.0652H2.90365C3.77035 2.0652 4.47603 2.77057 4.47603 3.63758L4.4757 26.1586ZM6.54107 10.9667H10.6419V22.773H6.54107V10.9667ZM41.934 13.0288C41.934 19.5651 36.6164 24.8832 30.0796 24.8832L14.553 24.8828C13.5352 24.8828 12.7067 24.0543 12.7067 23.0361L12.7063 7.99772C12.7063 5.63105 14.6314 3.70562 16.9984 3.70562H40.0868C41.1049 3.70562 41.9335 4.53414 41.9335 5.55198L41.934 13.0288Z"
        fill="black" />
    <path
        d="M38.5248 5.24609H17.9924C15.9939 5.24609 14.3682 6.87184 14.3682 8.87036V21.5947C14.3682 22.5596 15.1526 23.344 16.1174 23.344H29.0095C35.2212 23.344 40.2738 18.2906 40.2738 12.0797V6.99593C40.2738 6.03144 39.4891 5.24668 38.5242 5.24668L38.5248 5.24609ZM38.7991 12.0794C38.7991 17.4773 34.4075 21.8685 29.01 21.8685H16.1179C15.9668 21.8685 15.8439 21.7453 15.8439 21.5945L15.8436 8.8701C15.8436 7.68526 16.8078 6.72111 17.9926 6.72111H38.5249C38.6761 6.72111 38.7989 6.84426 38.7989 6.99476L38.7991 12.0794Z"
        fill="black" />
    <path
        d="M21.0974 7.6212C20.7987 7.34393 20.3324 7.36073 20.0548 7.6594L16.8761 11.0775C16.5988 11.3759 16.6156 11.8425 16.9143 12.1201C17.0562 12.2521 17.2363 12.3173 17.4161 12.3173C17.614 12.3173 17.8113 12.2383 17.9565 12.0819L21.1353 8.66341C21.4129 8.36539 21.3961 7.89844 21.0974 7.62119L21.0974 7.6212Z"
        fill="black" />
    <path
        d="M34.652 14.9016L32.712 16.988C32.4347 17.2864 32.4515 17.753 32.7502 18.0306C32.8921 18.1626 33.0723 18.2278 33.2521 18.2278C33.45 18.2278 33.6472 18.1488 33.7925 17.9924L35.7324 15.9059C36.0097 15.6076 35.9929 15.141 35.6942 14.8634C35.3958 14.5861 34.9299 14.6029 34.652 14.9016L34.652 14.9016Z"
        fill="black" />
    <path
        d="M24.664 7.745L18.465 14.4117C18.1877 14.71 18.2045 15.1766 18.5031 15.4542C18.6451 15.5863 18.8252 15.6515 19.005 15.6515C19.2029 15.6515 19.4002 15.5724 19.5454 15.416L25.7445 8.75002C26.0217 8.45167 26.0049 7.98505 25.7063 7.70747C25.4076 7.42954 24.9416 7.44699 24.664 7.74501L24.664 7.745Z"
        fill="black" />
</svg>
    