<svg xmlns="http://www.w3.org/2000/svg" width="20.396" height="20.382" viewBox="0 0 20.396 20.382">
  <g id="timetable" transform="translate(0.1 511.735)">
    <path id="Path_33360" data-name="Path 33360" d="M3.857-511.682c-.247.128-.307.263-.319.741l-.016.43H1.948c-1.741,0-1.757,0-1.937.255-.088.124-.088.139-.1,1.725L-.1-506.924H19.076l-.012-1.606c-.012-1.586-.012-1.6-.1-1.725-.179-.251-.2-.255-1.921-.255H15.485v-.383c0-.438-.056-.6-.255-.745a.68.68,0,0,0-.685,0c-.2.143-.255.307-.255.745v.383H11.9v-.383c0-.438-.056-.6-.255-.745a.68.68,0,0,0-.685,0c-.2.143-.255.307-.255.745v.383H8.312v-.383c0-.438-.056-.6-.255-.745a.68.68,0,0,0-.685,0c-.2.143-.255.307-.255.745v.383H4.726v-.383c0-.434-.056-.6-.251-.741A.678.678,0,0,0,3.857-511.682Zm.869,2.132c0,1.064-.016,1.152-.255,1.323a.533.533,0,0,1-.343.088.533.533,0,0,1-.343-.088c-.239-.171-.255-.259-.255-1.323v-.96h1.2Zm3.586,0c0,1.064-.016,1.152-.255,1.323a.533.533,0,0,1-.343.088.533.533,0,0,1-.343-.088c-.239-.171-.255-.259-.255-1.323v-.96h1.2Zm3.586,0c0,1.064-.016,1.152-.255,1.323a.533.533,0,0,1-.343.088.533.533,0,0,1-.343-.088c-.239-.171-.255-.259-.255-1.323v-.96h1.2Zm3.586,0c0,1.064-.016,1.152-.255,1.323a.533.533,0,0,1-.343.088.533.533,0,0,1-.343-.088c-.239-.171-.255-.259-.255-1.323v-.96h1.2Z" transform="translate(0 0)"/>
    <path id="Path_33361" data-name="Path 33361" d="M0-355.262c0,5.675,0,5.742.08,5.9a.534.534,0,0,0,.239.239c.155.08.227.08,4.483.08,2.379,0,4.324-.008,4.324-.016s-.072-.163-.155-.351a6.3,6.3,0,0,1-.546-2.343,5.641,5.641,0,0,1,.167-1.71l.1-.45-.1-.108a.548.548,0,0,1-.1-.681.629.629,0,0,1,.53-.319c.128,0,.143-.02.323-.343.108-.187.271-.446.367-.578a2.083,2.083,0,0,0,.175-.255,3.008,3.008,0,0,0-.5-.02c-.6,0-.765-.06-.9-.319a.558.558,0,0,1,0-.558c.143-.279.279-.319,1.1-.319.638,0,.725.008.881.084a.566.566,0,0,1,.223.183l.052.1.2-.151a6.457,6.457,0,0,1,1.622-.936,6.663,6.663,0,0,1,1.881-.442c.068-.008-.084-.02-.331-.024-.542,0-.717-.072-.845-.323a.558.558,0,0,1,0-.558c.143-.279.279-.319,1.116-.319.642,0,.737.008.877.08a.629.629,0,0,1,.319.518.638.638,0,0,1-.311.514c-.135.072-.139.08-.048.084a9.388,9.388,0,0,1,1.4.215,6.586,6.586,0,0,1,2.271,1.088,1.744,1.744,0,0,0,.247.171c.012,0,.024-.869.024-1.933V-361H0Zm5.7-4.463a.629.629,0,0,1,.319.518.629.629,0,0,1-.319.518c-.139.072-.235.08-.877.08-.837,0-.972-.04-1.116-.319a.558.558,0,0,1,0-.558c.143-.279.263-.315,1.108-.319C5.467-359.8,5.559-359.8,5.7-359.725Zm4.782,0a.629.629,0,0,1,.319.518.629.629,0,0,1-.319.518c-.139.072-.235.08-.877.08-.837,0-.972-.04-1.116-.319a.558.558,0,0,1,0-.558c.143-.279.263-.315,1.108-.319C10.249-359.8,10.341-359.8,10.481-359.725ZM5.7-357.334a.629.629,0,0,1,.319.518.629.629,0,0,1-.319.518c-.139.072-.235.08-.877.08-.837,0-.972-.04-1.116-.319a.558.558,0,0,1,0-.558c.143-.279.263-.315,1.108-.319C5.467-357.414,5.559-357.406,5.7-357.334Zm0,2.391a.629.629,0,0,1,.319.518.629.629,0,0,1-.319.518c-.139.072-.235.08-.877.08-.837,0-.972-.04-1.116-.319a.558.558,0,0,1,0-.558c.143-.279.263-.315,1.108-.319C5.467-355.023,5.559-355.015,5.7-354.943Zm0,2.391a.629.629,0,0,1,.319.518.629.629,0,0,1-.319.518c-.139.072-.235.08-.877.08-.837,0-.972-.04-1.116-.319a.558.558,0,0,1,0-.558c.143-.279.263-.315,1.108-.319C5.467-352.632,5.559-352.624,5.7-352.552Z" transform="translate(-0.096 -144.729)"/>
    <path id="Path_33362" data-name="Path 33362" d="M246.845-269.768a5.436,5.436,0,0,0-4.16,3.168,5.35,5.35,0,0,0,.442,5.121,6.012,6.012,0,0,0,1.506,1.506,5.378,5.378,0,0,0,5.938,0,6.012,6.012,0,0,0,1.506-1.506,5.378,5.378,0,0,0,0-5.938,6.012,6.012,0,0,0-1.506-1.506A5.384,5.384,0,0,0,246.845-269.768Zm1.036,2.411a.534.534,0,0,1,.239.239c.072.143.08.231.08,1.116v.956h.956c.885,0,.972.008,1.116.08a.629.629,0,0,1,.319.518.629.629,0,0,1-.319.518c-.147.076-.231.08-1.474.08s-1.327,0-1.474-.08a.534.534,0,0,1-.239-.239c-.076-.147-.08-.231-.08-1.474s0-1.327.08-1.474A.577.577,0,0,1,247.881-267.357Z" transform="translate(-232.674 -232.274)"/>
  </g>
</svg>
