<svg xmlns="http://www.w3.org/2000/svg" width="19.097" height="19.106" viewBox="0 0 19.097 19.106">
  <g id="form-_1_" transform="translate(-0.5 511.723)">
    <path id="Path_33504" data-name="Path 33504" d="M2.914-511.677a2.9,2.9,0,0,0-1.357.654A3.1,3.1,0,0,0,.6-509.584l-.1.336v14.164l.1.336a3.069,3.069,0,0,0,2.026,2.026l.336.1H17.131l.336-.1a2.98,2.98,0,0,0,2.127-2.739c0-.348,0-.385-.1-.527a.667.667,0,0,0-.632-.329.581.581,0,0,0-.4.1.781.781,0,0,0-.351.665,1.5,1.5,0,0,1-1.02,1.372c-.179.064-.546.067-7.048.067s-6.869,0-7.048-.067a1.52,1.52,0,0,1-.919-.875l-.086-.217v-13.791l.086-.217A1.519,1.519,0,0,1,3-510.152c.179-.064.546-.067,7.048-.067s6.869,0,7.048.067a1.519,1.519,0,0,1,.919.875l.086.217.019,4.993.019,4.989.1.153a.672.672,0,0,0,.628.329.672.672,0,0,0,.628-.329l.1-.153v-10.169l-.1-.336a3.069,3.069,0,0,0-2.026-2.026l-.336-.1-6.989-.007C4.286-511.726,3.116-511.718,2.914-511.677Z" fill="#c6c6c6"/>
    <path id="Path_33505" data-name="Path 33505" d="M80.688-432.688a.838.838,0,0,0-.46.49.773.773,0,0,0,.329.856l.142.09H92.845l.142-.09a.983.983,0,0,0,.243-.239.567.567,0,0,0,.1-.4.567.567,0,0,0-.1-.4.983.983,0,0,0-.243-.239l-.142-.09-6.017-.007C83.1-432.722,80.763-432.711,80.688-432.688Z" transform="translate(-76.723 -76.051)" fill="#c6c6c6"/>
    <path id="Path_33506" data-name="Path 33506" d="M81.266-355.72a1.483,1.483,0,0,0-1.1,1.17,9.64,9.64,0,0,0-.026,1.14c.011.871.019.957.1,1.151a1.6,1.6,0,0,0,.9.882c.157.064.482.067,5.569.067s5.412,0,5.569-.067a1.6,1.6,0,0,0,.9-.882c.082-.2.086-.254.086-1.256a4.1,4.1,0,0,0-.067-1.237,1.519,1.519,0,0,0-.875-.919l-.217-.086-5.326-.007C82.282-355.773,81.43-355.765,81.266-355.72Zm10.528,2.186v.747H81.628v-1.495H91.793Z" transform="translate(-76.662 -150.127)" fill="#c6c6c6"/>
    <path id="Path_33507" data-name="Path 33507" d="M81.056-198.685a1.537,1.537,0,0,0-1.1,1.147,10.914,10.914,0,0,0,.019,2.156,1.481,1.481,0,0,0,1.211,1.1,12.974,12.974,0,0,0,1.943,0,1.481,1.481,0,0,0,1.211-1.1,10.913,10.913,0,0,0,.019-2.156,1.449,1.449,0,0,0-.811-1.028l-.284-.142-1.028-.007C81.665-198.719,81.138-198.7,81.056-198.685Zm1.846,2.2v.747H81.408v-1.495H82.9Z" transform="translate(-76.442 -301.309)" fill="#c6c6c6"/>
    <path id="Path_33508" data-name="Path 33508" d="M240.688-158.688a.838.838,0,0,0-.46.49.773.773,0,0,0,.329.856l.142.09h6.17l.153-.1a.672.672,0,0,0,.329-.628.672.672,0,0,0-.329-.628l-.153-.1-3.027-.007C242-158.722,240.763-158.711,240.688-158.688Z" transform="translate(-230.744 -339.811)" fill="#c6c6c6"/>
  </g>
</svg>
