<svg width="37" height="32" viewBox="0 0 37 32" fill="none" xmlns="http://www.w3.org/2000/svg">
    <path
        d="M29.7164 0.0988579C29.4979 0.218682 29.364 0.472426 29.3569 0.754364V0.986964H27.1296C24.6556 0.986964 24.6063 0.994012 24.3878 1.45216C24.2327 1.77639 24.2327 4.07419 24.3878 4.37022C24.5851 4.74379 24.6345 4.75789 27.0662 4.79313L29.3217 4.82837L29.3428 5.07507C29.3992 5.61075 29.9279 5.96318 30.4001 5.76582C30.7596 5.6178 33.6354 3.51031 33.7552 3.29886C33.9455 2.98873 33.9032 2.64335 33.6424 2.36141C33.5155 2.23454 32.7473 1.64247 31.9296 1.0645C30.6045 0.105906 30.4213 0.000179768 30.1675 0.000179768C30.0125 0.00722837 29.808 0.0495191 29.7164 0.0988579ZM32.564 2.8971C32.564 2.93234 32.0917 3.30591 31.5067 3.72881L30.4495 4.4971L30.3578 4.22221C30.1887 3.74291 30.1534 3.73586 27.5948 3.73586H25.3393V2.89005V2.04423H27.616C29.3006 2.04423 29.9279 2.01604 30.0618 1.9526C30.1675 1.90326 30.2803 1.7482 30.3367 1.57903L30.4354 1.29005L31.4997 2.05833C32.0847 2.48124 32.564 2.86185 32.564 2.8971Z"
        fill="black" />
    <path
        d="M13.3921 6.80176C13.3286 6.82291 8.4652 8.36652 6.91454 8.85991C6.04053 9.1348 5.50485 9.71982 5.41322 10.5022C5.36388 10.9251 5.4978 11.4819 5.72335 11.8203L5.89956 12.0811L5.64581 13.8079C5.50485 14.7595 5.37092 15.6053 5.35683 15.6828C5.33568 15.7745 5.18766 15.8802 4.95507 15.9859C4.75066 16.0705 4.56035 16.141 4.53216 16.141C4.50396 16.141 4.39824 15.8872 4.29956 15.57C4.20088 15.2599 4.08811 14.9357 4.04581 14.8652C3.94714 14.6819 3.56652 14.4493 3.36211 14.4493C3.14361 14.4493 1.38855 15.0062 1.17709 15.1401C0.979736 15.267 0.810573 15.5771 0.810573 15.8097C0.810573 15.9084 1.29692 17.5013 1.88899 19.3621L2.9674 22.7313L2.7348 23.0344C2.31189 23.5912 2.26255 24.2608 2.60088 24.8388C3.02379 25.5577 3.74978 25.7621 4.75771 25.4449C5.01145 25.3674 5.22291 25.304 5.22996 25.304C5.24405 25.304 5.33568 25.4379 5.43436 25.607C5.53304 25.7692 5.77974 26.0722 5.97709 26.2696C6.17445 26.474 6.32247 26.6502 6.30132 26.6643C6.28722 26.6855 5.24405 27.0167 3.98238 27.4185C1.07137 28.3348 1.01498 28.3559 0.648458 28.7084C0.176211 29.1736 0 29.5965 0 30.2731C0 30.7172 0.0281938 30.8934 0.148018 31.0837C0.317181 31.3797 0.697797 31.6476 0.937445 31.6476C1.03612 31.6476 1.88194 31.4079 2.81233 31.1119C4.8 30.4916 4.98326 30.3718 4.75066 29.8643C4.57445 29.4767 4.44758 29.4837 2.7489 30.0264C1.88194 30.2943 1.1348 30.5198 1.09251 30.5198C0.95859 30.5198 1.05022 29.9066 1.21233 29.6881C1.51542 29.2793 0.422907 29.6388 20.2996 23.3656C22.548 22.6537 25.4026 21.7515 26.6432 21.3568C30.3436 20.1797 29.6881 20.2996 32.5357 20.2996H34.9956V20.8282V21.3498L32.5145 21.3709L30.0264 21.3921L18.1145 25.1559C10.4176 27.5877 6.14626 28.9692 6.04758 29.0608C5.81498 29.2652 5.82907 29.6176 6.06872 29.8079C6.17445 29.8925 6.30132 29.9559 6.36476 29.9559C6.42114 29.9559 8.57092 29.2934 11.1436 28.4758C13.7233 27.6652 15.852 26.9956 15.8872 26.9956C15.9225 26.9956 15.9718 27.1084 15.9929 27.2423C16.0493 27.5242 16.3806 27.9401 16.6767 28.0952C16.8388 28.1727 17.2758 28.1938 18.9533 28.1938H21.0326L21.0749 28.5251C21.2018 29.5894 21.5048 30.2731 22.1322 30.9004C22.8581 31.6335 23.7322 32 24.7753 32C25.8115 32 26.6502 31.6546 27.3692 30.9286C28.0035 30.2943 28.3418 29.5894 28.4264 28.7013L28.4758 28.2291L30.1533 28.1938C31.7181 28.1586 31.8449 28.1515 31.9366 28.0247C32.0846 27.8203 32.0634 27.4608 31.8872 27.3057C31.7533 27.1859 31.5912 27.1718 29.9982 27.1507L28.2643 27.1295L28.1022 26.7559C28.0106 26.5515 27.8132 26.2344 27.6652 26.0511C27.5101 25.8608 27.3833 25.6987 27.3833 25.6846C27.3833 25.6705 29.096 25.6564 31.1894 25.6564H34.9956V26.3894V27.1225L34.2837 27.1507C33.6423 27.1718 33.5577 27.193 33.4379 27.341C33.2617 27.5524 33.2687 27.8767 33.4449 28.0529C33.5718 28.1797 33.6775 28.1938 34.6643 28.1938C35.7075 28.1938 35.7498 28.1868 35.8978 28.0317L36.0529 27.8696V23.7251V19.5877L35.8766 19.4185L35.7075 19.2423H32.9022C29.8643 19.2423 29.7515 19.2564 28.5251 19.6511C27.8696 19.8626 27.8626 19.8626 27.9048 19.7145C27.9965 19.3762 28.0881 18.6291 28.074 18.333L28.0529 18.0229L28.7225 17.8044C29.5894 17.5225 29.8361 17.3674 30.0899 16.9656C30.7031 15.9718 30.1322 14.7524 28.9551 14.5551L28.659 14.5057L28.2714 13.3004C28.0599 12.6308 27.8696 12.0106 27.8414 11.9119C27.5806 11.0097 26.8053 10.3471 25.9172 10.2485C25.4238 10.1921 23.859 10.5233 23.704 10.7207C23.5348 10.9181 23.5418 11.1436 23.7251 11.3762C23.9013 11.6018 24.0211 11.6018 25.0079 11.4115C25.6282 11.2846 25.8115 11.2705 26.03 11.3339C26.5233 11.4819 26.6432 11.6934 27.1718 13.3145C27.6441 14.7877 27.6511 14.8088 27.496 14.8652C27.4185 14.9004 27.052 15.0132 26.6925 15.1189L26.037 15.3163L25.5859 15.1612C24.0352 14.6115 22.1815 15.2247 21.3075 16.5709C21.1031 16.8952 21.0467 16.9304 20.5533 17.0855C20.2573 17.1771 18.4599 17.748 16.5639 18.3542C14.6608 18.9604 13.0678 19.4537 13.0185 19.4537C12.9762 19.4537 12.8916 19.3057 12.8423 19.1154C12.7859 18.9322 12.4617 17.9172 12.1233 16.8599C11.785 15.8026 11.5172 14.9216 11.5313 14.9145C11.5454 14.9004 13.0749 14.407 14.9357 13.822C17.9313 12.8705 18.5022 12.7084 20.0458 12.4053C22.2167 11.9683 22.0758 12.0035 22.2379 11.8414C22.5339 11.5454 22.2872 10.9956 21.8643 10.9956C21.7374 10.9956 20.9128 11.1436 20.0176 11.3198L18.3965 11.6441L17.0502 10.2767C15.7181 8.9304 15.6969 8.9022 15.6969 8.59912C15.6899 8.19736 15.3304 7.46432 14.9991 7.19648C14.8581 7.07665 14.5974 6.93568 14.4211 6.87225C14.1392 6.78062 13.5753 6.73833 13.3921 6.80176ZM14.2026 7.94361C14.4282 8.09868 14.548 8.25375 14.5551 8.38767C14.5551 8.47225 13.5542 8.81762 10.5586 9.76916C6.21674 11.1577 6.3859 11.1225 6.47048 10.5868C6.54802 10.1357 6.70308 10.0441 8.4511 9.48018C12.7789 8.09163 13.6176 7.83084 13.815 7.82379C13.9348 7.82379 14.111 7.88018 14.2026 7.94361ZM16.0282 10.7419L17.2546 11.9683L15.7815 12.4405C14.9709 12.6943 14.0687 12.9833 13.7797 13.0819C13.4978 13.1736 13.237 13.23 13.2088 13.1947C13.1383 13.1242 12.2643 10.3683 12.3066 10.3401C12.3278 10.3119 14.6467 9.54361 14.7665 9.52247C14.7877 9.51542 15.3515 10.0652 16.0282 10.7419ZM11.7286 12.1233C11.9612 12.8846 12.1586 13.526 12.1586 13.5471C12.1586 13.5894 11.348 13.8855 11.2282 13.8855C11.1789 13.8855 10.3119 11.2775 10.2978 11.0731C10.2907 10.9674 11.1718 10.6291 11.2493 10.7066C11.2775 10.7278 11.489 11.3692 11.7286 12.1233ZM9.55771 12.2784C9.71982 12.793 9.92423 13.4414 10.0159 13.7233L10.1709 14.2308L9.84669 14.3366C7.33744 15.1401 6.57621 15.3727 6.53392 15.3515C6.50573 15.3374 6.59031 14.5833 6.73128 13.674L6.97797 12.0247L8 11.6863C8.56388 11.5101 9.07841 11.3551 9.14185 11.3551C9.23348 11.348 9.32511 11.5595 9.55771 12.2784ZM11.2352 17.5507C11.6229 18.77 11.9189 19.7921 11.8907 19.8132C11.8626 19.8414 11.489 19.9753 11.052 20.1093L10.2626 20.363L9.91013 20.2291C8.34537 19.63 6.62555 20.1374 5.61762 21.4978C5.2652 21.963 5.2652 21.963 4.62379 22.1604C4.26432 22.2731 3.96828 22.3507 3.95418 22.3366C3.94009 22.3225 3.79912 21.8855 3.637 21.378C3.47489 20.8634 3.32687 20.3982 3.30573 20.3489C3.28458 20.2925 3.36916 20.222 3.51718 20.1727C3.91894 20.0247 4.44758 19.496 4.69427 18.9885C4.87048 18.6291 4.91982 18.4458 4.92687 18.0652C4.92687 17.7974 4.90573 17.4943 4.87753 17.3885C4.82819 17.2053 4.84229 17.1841 5.30044 16.9727C5.89251 16.6978 10.4176 15.2317 10.4811 15.2881C10.5022 15.3093 10.8476 16.3313 11.2352 17.5507ZM3.51718 16.578C3.69339 17.1348 3.85551 17.6705 3.87665 17.7692C3.94009 18.0229 3.79912 18.5233 3.58766 18.8053C3.4326 19.0026 3.01674 19.2916 2.96035 19.2282C2.91806 19.1789 1.92423 15.9859 1.95242 15.9718C1.99471 15.9295 3.03084 15.5912 3.11542 15.5841C3.16476 15.5771 3.33392 16.007 3.51718 16.578ZM29.1665 15.8026C29.3216 15.9859 29.3216 16.289 29.1595 16.4652C29.089 16.5357 28.7366 16.6907 28.37 16.8106C27.7357 17.015 27.7145 17.015 27.637 16.8881C27.5947 16.8176 27.4537 16.6132 27.3269 16.4441C27.2 16.2678 27.1013 16.1198 27.1154 16.1057C27.1295 16.0916 27.489 15.9718 27.9119 15.8379C28.7366 15.57 28.9621 15.563 29.1665 15.8026ZM25.5084 16.2749C26.4317 16.726 26.9744 17.5859 26.9815 18.6079C26.9815 19.4396 26.6079 20.3066 26.2062 20.3912C26.1004 20.4194 25.4802 20.6097 24.8317 20.8211L23.6476 21.2018L23.2317 20.9974C21.7868 20.3207 21.2863 18.467 22.1885 17.1559C22.9216 16.0846 24.3595 15.704 25.5084 16.2749ZM20.6731 18.7278L20.652 19.2705L16.2819 20.6661C13.8784 21.4273 11.9048 22.0264 11.8907 21.9912C11.8767 21.963 11.7427 21.7515 11.5947 21.5401C11.4044 21.2722 11.341 21.1313 11.4044 21.1101C11.7921 20.9621 20.5322 18.1921 20.6026 18.1921C20.6731 18.185 20.6872 18.3189 20.6731 18.7278ZM21.2863 20.659C21.4062 20.8564 21.6529 21.1595 21.8432 21.3286C22.0335 21.5048 22.1744 21.6529 22.1604 21.6599C22.111 21.6952 12.1938 24.8176 12.1445 24.8106C12.1163 24.8106 12.1304 24.726 12.1727 24.6132C12.215 24.5075 12.2502 24.1128 12.2573 23.7322L12.2643 23.0485L12.4758 22.985C12.9974 22.837 20.7225 20.3559 20.7507 20.3278C20.7648 20.3137 20.8493 20.2996 20.9269 20.2996C21.0326 20.2996 21.1383 20.4123 21.2863 20.659ZM9.07136 21.0819C10.8123 21.4555 11.7286 23.2881 10.9392 24.8317L10.7137 25.2687L10.037 25.4943C9.66343 25.6141 9.00793 25.8256 8.57092 25.9595L7.78855 26.2062L7.37269 26.0018C6.87225 25.748 6.42819 25.2899 6.1815 24.7542C6.01938 24.4088 5.99119 24.2608 5.99119 23.6828C5.99119 23.0907 6.01233 22.9568 6.19559 22.5762C6.54097 21.8291 7.28811 21.237 8.09163 21.0819C8.51454 20.9974 8.65551 20.9974 9.07136 21.0819ZM34.9956 23.5066V24.5991H33.0925H31.1894V23.5066V22.4141H33.0925H34.9956V23.5066ZM30.1322 23.5419V24.5991L26.8053 24.5921C24.9727 24.5921 23.5066 24.578 23.5418 24.5568C23.6617 24.5075 30.0194 22.4987 30.0828 22.4916C30.111 22.4846 30.1322 22.9568 30.1322 23.5419ZM4.89868 23.7392V24.289L4.52511 24.4088C3.97533 24.585 3.74273 24.5639 3.56652 24.3454C3.25639 23.9507 3.45374 23.6617 4.23612 23.3938C4.54626 23.2881 4.8141 23.1965 4.84934 23.1965C4.87753 23.1894 4.89868 23.4361 4.89868 23.7392ZM22.0969 25.7057C22.0969 25.741 21.9841 25.9031 21.8502 26.0722C21.7163 26.2414 21.526 26.5515 21.4273 26.7559L21.2441 27.1366L19.1507 27.1225L17.0573 27.1013L17.0361 26.8546L17.015 26.6079L18.5163 26.1357L20.0176 25.6634H21.0608C21.6317 25.6564 22.0969 25.6775 22.0969 25.7057ZM25.8467 25.9172C26.3119 26.1286 26.8617 26.6714 27.1295 27.1718C27.3339 27.5665 27.348 27.6441 27.348 28.3348C27.348 29.0256 27.3339 29.1031 27.1295 29.4978C26.8617 29.9982 26.3612 30.4916 25.8678 30.7313C25.4379 30.9357 24.5216 31.0062 24.0211 30.8722C23.5418 30.7313 22.9286 30.2943 22.6326 29.8643C22.2802 29.3427 22.1533 28.9551 22.1533 28.3348C22.1533 28.0247 22.2026 27.6722 22.2661 27.489C22.5339 26.763 23.1189 26.1498 23.852 25.8608C24.3031 25.6705 25.3744 25.7057 25.8467 25.9172Z"
        fill="black" />
    <path
        d="M23.683 17.1557C23.0627 17.4376 22.7314 17.9592 22.7314 18.6429C22.7314 19.2843 23.0486 19.82 23.5914 20.0949C24.698 20.6588 25.9949 19.8764 25.9949 18.6429C25.9949 17.4306 24.7684 16.6482 23.683 17.1557ZM24.7896 18.2552C24.9658 18.4385 24.994 18.509 24.9588 18.6993C24.9094 18.953 24.6275 19.242 24.416 19.242C24.2187 19.242 23.8874 19.0588 23.831 18.9248C23.7394 18.6782 23.7887 18.3892 23.9649 18.22C24.2046 17.9733 24.5147 17.9874 24.7896 18.2552Z"
        fill="black" />
    <path
        d="M8.24658 22.0549C7.0131 22.372 6.5338 23.7888 7.34437 24.7333C8.21838 25.7553 9.86772 25.3465 10.1849 24.0355C10.4105 23.0839 9.75495 22.1535 8.77521 22.0408C8.599 22.0196 8.3664 22.0267 8.24658 22.0549ZM8.99371 23.2319C9.17697 23.4011 9.22631 23.7112 9.09944 23.9509C8.91618 24.3033 8.45803 24.3597 8.17609 24.0707C7.64041 23.5421 8.43689 22.7245 8.99371 23.2319Z"
        fill="black" />
    <path
        d="M23.993 26.8755C22.8441 27.4816 22.8441 29.1874 23.993 29.7935C24.4089 30.012 25.0785 30.0191 25.4943 29.8076C26.6432 29.2226 26.7208 27.6015 25.6212 26.9389C25.2899 26.7486 25.1772 26.7134 24.7754 26.7134C24.4159 26.7134 24.2256 26.7556 23.993 26.8755ZM25.1772 27.9257C25.5437 28.2711 25.2829 28.8984 24.7824 28.8984C24.4864 28.8913 24.3173 28.7786 24.2186 28.5248C24.134 28.3063 24.2186 28.0103 24.4089 27.8693C24.5992 27.7213 24.9939 27.7495 25.1772 27.9257Z"
        fill="black" />
    <path
        d="M14.0827 15.5841C13.5188 15.7674 13.4131 15.8238 13.3144 16.007C13.1735 16.289 13.2792 16.585 13.5682 16.7048C13.7373 16.7753 13.8642 16.7612 14.3928 16.5991C15.1329 16.3735 15.2598 16.2749 15.2598 15.9295C15.2598 15.6617 15.1329 15.4854 14.8721 15.415C14.7946 15.3938 14.4351 15.4643 14.0827 15.5841Z"
        fill="black" />
</svg>
    