<svg width="26" height="26" viewBox="0 0 26 26" fill="none" xmlns="http://www.w3.org/2000/svg">
    <g clip-path="url(#clip0_758_12206)">
        <path
            d="M12.9998 23.8327C7.01659 23.8327 2.1665 18.9826 2.1665 12.9993C2.1665 7.0161 7.01659 2.16602 12.9998 2.16602C18.9831 2.16602 23.8332 7.0161 23.8332 12.9993C23.8332 18.9826 18.9831 23.8327 12.9998 23.8327ZM12.9998 21.666C15.2984 21.666 17.5028 20.7529 19.1281 19.1276C20.7534 17.5023 21.6665 15.2979 21.6665 12.9993C21.6665 10.7008 20.7534 8.49641 19.1281 6.87109C17.5028 5.24577 15.2984 4.33268 12.9998 4.33268C10.7013 4.33268 8.49689 5.24577 6.87158 6.87109C5.24626 8.49641 4.33317 10.7008 4.33317 12.9993C4.33317 15.2979 5.24626 17.5023 6.87158 19.1276C8.49689 20.7529 10.7013 21.666 12.9998 21.666ZM11.9165 16.2493H14.0832V18.416H11.9165V16.2493ZM14.0832 14.4673V15.166H11.9165V13.541C11.9165 13.2537 12.0306 12.9781 12.2338 12.775C12.437 12.5718 12.7125 12.4577 12.9998 12.4577C13.3076 12.4577 13.609 12.3703 13.869 12.2056C14.129 12.041 14.337 11.8059 14.4686 11.5277C14.6002 11.2496 14.6502 10.9397 14.6126 10.6343C14.575 10.3288 14.4515 10.0403 14.2563 9.80234C14.0612 9.56436 13.8025 9.38668 13.5103 9.28998C13.2182 9.19328 12.9045 9.18154 12.606 9.25611C12.3074 9.33069 12.0361 9.48851 11.8237 9.71123C11.6113 9.93395 11.4666 10.2124 11.4063 10.5142L9.28075 10.0884C9.41252 9.42986 9.71681 8.81808 10.1625 8.31565C10.6082 7.81322 11.1793 7.43815 11.8175 7.22878C12.4556 7.01941 13.1379 6.98326 13.7947 7.12401C14.4514 7.26477 15.0589 7.57739 15.5552 8.02991C16.0515 8.48243 16.4187 9.05862 16.6194 9.69958C16.82 10.3405 16.8468 11.0233 16.6971 11.678C16.5474 12.3327 16.2265 12.936 15.7672 13.426C15.308 13.9161 14.7268 14.2754 14.0832 14.4673Z"
            fill="#828282" />
    </g>
    <defs>
        <clipPath id="clip0_758_12206">
            <rect width="26" height="26" fill="white" />
        </clipPath>
    </defs>
</svg>
    