<svg width="40" height="32" viewBox="0 0 40 32" fill="none" xmlns="http://www.w3.org/2000/svg">
    <path
        d="M15.6347 27.5482H0.468459C0.210369 27.5482 0.00090268 27.7577 0.00090268 28.0158C0.00090268 28.2739 0.210377 28.4834 0.468459 28.4834H8.076V30.4211C8.076 31.2917 8.78425 32 9.65486 32H12.0988C12.9694 32 13.6777 31.2917 13.6777 30.4211L13.678 28.4834H15.635C16.5452 28.4834 17.2864 27.7427 17.2864 26.8322C17.2864 25.922 16.5455 25.1811 15.635 25.1811H15.1581V18.1992C15.1581 17.7022 14.9907 17.229 14.6987 16.8434C16.0425 16.7575 17.1178 15.7141 17.2574 14.3852H18.4074C18.6655 14.3852 18.8749 14.1758 18.8749 13.9177V10.8368C18.8749 9.68917 17.9416 8.75558 16.7937 8.75558C15.6458 8.75558 14.7119 9.68917 14.7119 10.8368V13.9177C14.7119 14.1758 14.9214 14.3852 15.1794 14.3852H16.3219C16.1836 15.2561 15.4333 15.9257 14.524 15.9257H13.2474L11.0603 7.46175C10.7589 6.27271 9.68852 5.44268 8.45715 5.44268L0.468782 5.44238C0.210692 5.44238 0.00122623 5.65186 0.00122623 5.90994C0.00122623 6.16803 0.2107 6.3775 0.468782 6.3775H8.45715C9.2596 6.3775 9.95734 6.91798 10.1542 7.69376L12.432 16.5103C12.4797 16.6928 12.6712 16.8611 12.8851 16.8611C13.6069 16.8611 14.223 17.4436 14.223 18.1993V25.1815H0.468044C0.209955 25.1815 0.000488281 25.3909 0.000488281 25.649C0.000488281 25.9071 0.209963 26.1166 0.468044 26.1166H15.6343C16.0289 26.1166 16.3503 26.4377 16.3503 26.8323C16.3503 27.227 16.0289 27.5484 15.6343 27.5484L15.6347 27.5482ZM12.7423 30.4214C12.7423 30.7764 12.4536 31.0651 12.0986 31.0651L9.65463 31.0648C9.29961 31.0648 9.01092 30.7761 9.01092 30.4211L9.01122 28.4833H12.7427L12.7423 30.4214ZM15.6467 10.8369C15.6467 10.2052 16.1614 9.6908 16.7935 9.6908C17.4255 9.6908 17.9395 10.2049 17.9395 10.8369V13.4499H15.6471L15.6467 10.8369Z"
        fill="black" />
    <path
        d="M0.000691641 17.0176C0.000691641 17.2757 0.210166 17.4852 0.468247 17.4852H10.7514C10.8964 17.4852 11.0326 17.4183 11.1211 17.3039C11.21 17.1896 11.2406 17.0404 11.2046 16.9006L8.91092 8.01488C8.85721 7.80841 8.67114 7.66406 8.45777 7.66406L0.467863 7.66436C0.209774 7.66436 0.000307722 7.87384 0.000307722 8.13192C0.000307722 8.39 0.209782 8.59947 0.467863 8.59947H8.09492L10.1476 16.5502L0.467556 16.5505C0.209466 16.5505 0 16.76 0 17.0181L0.000691641 17.0176Z"
        fill="black" />
    <path
        d="M8.9873 21.644C8.9873 22.6892 9.83477 23.5394 10.8774 23.5394C11.9199 23.5394 12.7675 22.6893 12.7675 21.644C12.7675 20.6018 11.92 19.7539 10.8774 19.7539C9.83516 19.7539 8.9873 20.6017 8.9873 21.644ZM11.8323 21.644C11.8323 22.1734 11.4043 22.6043 10.8776 22.6043C10.3509 22.6043 9.92297 22.1734 9.92297 21.644C9.92297 21.1176 10.3509 20.6893 10.8776 20.6893C11.404 20.689 11.8323 21.1176 11.8323 21.644Z"
        fill="black" />
    <path
        d="M0.468044 22.9311C0.209954 22.9311 0.000488281 23.1405 0.000488281 23.3986C0.000488281 23.6567 0.209962 23.8662 0.468044 23.8662C6.54629 23.6879 7.61049 24.2575 7.61049 23.3986V19.3445C7.61049 19.0864 7.40101 18.877 7.14293 18.877H0.468052C0.209962 18.877 0.000495901 19.0864 0.000495901 19.3445C0.000495901 19.6026 0.20997 19.8121 0.468052 19.8121H6.67506V22.9307L0.468044 22.9311Z"
        fill="black" />
    <path
        d="M20.4371 14.7245L24.3529 16.2172V17.1115C24.3529 17.3696 24.5624 17.5791 24.8204 17.5791C25.0785 17.5791 25.288 17.3696 25.288 17.1115V16.12H28.6668L28.3595 17.0627C28.0618 17.9753 27.2161 18.5887 26.2558 18.5887C25.9977 18.5887 25.7882 18.7981 25.7882 19.0562C25.7882 19.3143 25.9977 19.5238 26.2558 19.5238C27.286 19.5238 28.2224 19.0271 28.8024 18.2264H31.4829L32.5015 23.0551H31.1457C30.8876 23.0551 30.6781 23.2646 30.6781 23.5226C30.6781 23.7807 30.8876 23.9902 31.1457 23.9902H32.699L33.1825 26.2821C33.2275 26.4984 33.4187 26.6533 33.6398 26.6533H35.0014V28.3792L28.5712 28.3795C27.573 28.3795 26.761 29.1915 26.761 30.1897C26.761 31.1881 27.5733 31.9998 28.5712 31.9998H38.4679C38.726 31.9998 38.9354 31.7904 38.9354 31.5323C38.9354 31.2742 38.726 31.0647 38.4679 31.0647H28.5712C28.0889 31.0647 27.696 30.6722 27.696 30.1896C27.696 29.707 28.0889 29.3145 28.5712 29.3145H35.4693C35.7274 29.3145 35.9368 29.105 35.9368 28.8469V26.6535H37.3209C37.4599 26.6535 37.5913 26.5919 37.6796 26.4857C37.7684 26.3792 37.8056 26.2387 37.7813 26.1025L36.1799 17.2621L39.3157 15.8729C39.4849 15.7979 39.5939 15.6305 39.5939 15.4456V13.7197C39.5939 13.4616 39.3844 13.2521 39.1263 13.2521H36.2304L35.5221 11.7301C35.4453 11.5653 35.2802 11.4597 35.0984 11.4597H32.7627V8.82899C34.4238 8.12255 35.5179 6.48249 35.5179 4.64619V0.467856C35.5179 0.209766 35.3084 0.000300102 35.0504 0.000300102L26.873 0C26.6149 0 26.4054 0.209474 26.4054 0.467556V4.64559C26.4054 6.56655 27.5917 8.17121 29.1607 8.83084V11.4591H25.2888V10.4676C25.2888 10.2095 25.0793 10.0001 24.8212 10.0001C24.5631 10.0001 24.3537 10.2095 24.3537 10.4676V11.3619L20.4379 12.8547C20.257 12.9237 20.1372 13.0978 20.1372 13.2916V14.2877C20.1366 14.4821 20.2567 14.6559 20.4373 14.7249L20.4371 14.7245ZM29.2691 17.2912L29.6511 16.1199H31.0393L31.2863 17.2912H29.2691ZM35.5085 13.9166C35.5853 14.0813 35.7504 14.187 35.9322 14.187H38.6589V15.1407L35.4653 16.5557C35.2681 16.643 35.1559 16.854 35.1943 17.0664L35.3398 17.8698H33.8493C33.5912 17.8698 33.3817 18.0793 33.3817 18.3373C33.3817 18.5954 33.5912 18.8049 33.8493 18.8049H35.5091L35.7714 20.2541H34.2886C34.0305 20.2541 33.821 20.4635 33.821 20.7216C33.821 20.9797 34.0305 21.1892 34.2886 21.1892H35.9406L36.2029 22.638H34.7282C34.4701 22.638 34.2607 22.8475 34.2607 23.1056C34.2607 23.3637 34.4702 23.5732 34.7282 23.5732H36.3725L36.7608 25.7174H34.0196C33.5977 23.7181 32.5911 18.9465 31.8757 15.5548C31.8307 15.3385 31.6396 15.1836 31.4184 15.1836H25.2885V12.393H29.619C29.6223 12.393 29.625 12.3948 29.628 12.3948H32.295C32.2983 12.3948 32.301 12.393 32.304 12.393H34.7999L35.5085 13.9166ZM29.7738 8.06188C28.438 7.62493 27.3406 6.29665 27.3406 4.64519V0.934727H34.583V4.64519C34.583 6.19524 33.6031 7.56881 32.145 8.06334C31.9556 8.12786 31.8278 8.30612 31.8278 8.50629V11.459H30.0959V8.50629C30.0959 8.30432 29.9662 8.12486 29.7739 8.06183L29.7738 8.06188ZM21.0717 13.6135L24.353 12.3624V15.2163L21.0717 13.9652V13.6135Z"
        fill="black" />
</svg>
    