<svg width="49" height="27" viewBox="0 0 49 27" fill="none" xmlns="http://www.w3.org/2000/svg">
    <path
        d="M24.4759 27C17.435 26.9982 10.4042 26.4615 3.44231 25.3948C2.34586 25.1748 1.3779 24.5259 0.746721 23.5883C0.115189 22.6502 -0.129249 21.498 0.0651727 20.3787L0.380763 18.1475C1.05914 13.332 1.74033 8.51643 2.42435 3.70087C2.57122 2.53679 3.17105 1.48159 4.08895 0.771362C4.89448 0.154723 5.90855 -0.108261 6.90564 0.0407918C18.5563 1.79035 30.3964 1.79035 42.0471 0.0407918C43.0442 -0.107546 44.0579 0.155448 44.8637 0.771362C45.7965 1.47435 46.411 2.53065 46.5678 3.70087C47.3567 9.26564 48.1457 14.8271 48.9347 20.3865V20.3862C49.1295 21.5055 48.8847 22.6578 48.2535 23.5958C47.6219 24.5339 46.6541 25.1824 45.5579 25.4023C38.5797 26.4694 31.5331 27.0032 24.4765 26.9996L24.4759 27ZM6.32951 1.60597C5.85049 1.60668 5.38454 1.7672 5.00412 2.06352C4.42612 2.51748 4.05104 3.18825 3.96259 3.92562C3.27364 8.74118 2.59247 13.5567 1.919 18.3723L1.59567 20.6196C1.45478 21.3215 1.59109 22.0513 1.97501 22.6522C2.35858 23.2527 2.95911 23.6758 3.647 23.8299C17.4347 25.9407 31.4541 25.9407 45.2418 23.8299C45.9293 23.6759 46.5299 23.2527 46.9138 22.6522C47.2977 22.0513 47.4337 21.3214 47.2931 20.6196C46.5042 15.0494 45.7152 9.48507 44.9262 3.92562C44.8357 3.18681 44.4577 2.51609 43.8769 2.06352C43.4095 1.7002 42.8178 1.54398 42.2356 1.62997C30.4334 3.40393 18.4392 3.40393 6.637 1.62997C6.5352 1.61421 6.43201 1.60632 6.32915 1.60597L6.32951 1.60597ZM24.4759 23.276C18.0215 23.2652 11.5746 22.8227 5.17806 21.9516C4.55392 21.8818 3.98477 21.5572 3.60011 21.0527C3.22182 20.5446 3.06755 19.8993 3.17392 19.2712L5.36718 5.71517C5.46827 5.10749 5.79865 4.5643 6.28825 4.20134C6.77749 3.83838 7.38723 3.68467 7.98667 3.77281C18.9259 5.21353 30.0022 5.21353 40.9424 3.77281H41.2657C41.8194 3.76493 42.3576 3.95876 42.7831 4.31957C43.2086 4.68002 43.4932 5.1838 43.5855 5.7392L45.7787 19.2714C45.8816 19.8995 45.7213 20.5422 45.337 21.045C44.9549 21.5538 44.3847 21.8816 43.7591 21.9518C37.3663 22.8121 30.9245 23.2435 24.4765 23.2442L24.4759 23.276ZM7.68655 5.3621C7.30897 5.33093 6.96873 5.59392 6.89757 5.97228L4.75147 19.5366C4.72012 19.7268 4.76908 19.9221 4.88567 20.0744C5.00789 20.237 5.19034 20.3413 5.39041 20.3632C18.0627 22.0565 30.8973 22.0565 43.5687 20.3632C43.7716 20.3434 43.9576 20.2388 44.0815 20.0744C44.1981 19.9221 44.2467 19.7268 44.2157 19.5366L42.0225 5.98054C41.9281 5.571 41.5392 5.30478 41.1307 5.37071C30.0679 6.81932 18.8671 6.81932 7.80433 5.37071L7.68655 5.3621Z"
        fill="black" />
    <path
        d="M9.72703 15.9989C9.4333 16.0005 9.16797 15.8243 9.05532 15.5532C8.94267 15.282 9.00529 14.9693 9.21381 14.7627L14.7666 9.21043V9.21011C15.0488 8.92996 15.5042 8.92996 15.7863 9.21011C15.9232 9.34599 16 9.53093 16 9.72361C16 9.91629 15.9232 10.1012 15.7863 10.2368L10.2622 15.8036C10.1179 15.9392 9.92454 16.0099 9.72699 15.9989L9.72703 15.9989Z"
        fill="black" />
    <path
        d="M12.8954 16.9999C12.6594 16.9987 12.4335 16.9052 12.2661 16.739C12.0959 16.5704 12 16.3403 12 16.1006C12 15.8609 12.0959 15.6309 12.2661 15.4618L13.4617 14.2658C13.6307 14.0956 13.8603 14 14.1003 14C14.3399 14 14.5695 14.0956 14.7384 14.2658C15.0872 14.6167 15.0872 15.1832 14.7384 15.5341L13.5335 16.7394V16.739C13.3642 16.9072 13.1342 17.0012 12.8954 17L12.8954 16.9999Z"
        fill="black" />
    <path
        d="M15.6807 13.9999C15.4043 13.9987 15.1559 13.8308 15.0509 13.5746C14.9462 13.3181 15.006 13.024 15.2023 12.829L17.834 10.199C18.1007 9.93366 18.5313 9.93366 18.7977 10.199C18.9271 10.3277 19 10.5026 19 10.6854C19 10.868 18.9271 11.0428 18.7977 11.1716L16.1727 13.8015H16.173C16.0424 13.9311 15.8648 14.003 15.6808 13.9999H15.6807Z"
        fill="black" />
</svg>
    