<svg xmlns="http://www.w3.org/2000/svg" width="24.237" height="24.24" viewBox="0 0 24.237 24.24">
  <g id="pound-sterling_1_" data-name="pound-sterling (1)" transform="translate(-0.5 511.567)">
    <path id="Path_33413" data-name="Path 33413" d="M11.494-511.54a12.165,12.165,0,0,0-8.926,5.289,12.216,12.216,0,0,0-1.983,5.146,16.182,16.182,0,0,0,0,3.32,12.109,12.109,0,0,0,3.453,6.92,12.109,12.109,0,0,0,6.92,3.453,16.183,16.183,0,0,0,3.32,0,12.109,12.109,0,0,0,6.92-3.453,12.109,12.109,0,0,0,3.453-6.92,16.182,16.182,0,0,0,0-3.32,12.109,12.109,0,0,0-3.453-6.92,12.082,12.082,0,0,0-6.873-3.443A18.167,18.167,0,0,0,11.494-511.54Zm2.31,2.04a10.366,10.366,0,0,1,4.994,2.049,13.288,13.288,0,0,1,1.826,1.826,10.366,10.366,0,0,1,2.049,4.994,15.225,15.225,0,0,1,0,2.372,10.366,10.366,0,0,1-2.049,4.994,13.287,13.287,0,0,1-1.826,1.826A10.365,10.365,0,0,1,13.8-489.39a15.229,15.229,0,0,1-2.372,0,10.365,10.365,0,0,1-4.994-2.049,13.287,13.287,0,0,1-1.826-1.826,10.366,10.366,0,0,1-2.049-4.994,15.225,15.225,0,0,1,0-2.372,10.366,10.366,0,0,1,2.049-4.994,13.288,13.288,0,0,1,1.826-1.826,10.45,10.45,0,0,1,4.928-2.044A17.421,17.421,0,0,1,13.8-509.5Z" transform="translate(0 0)" fill="#707070"/>
    <path id="Path_33414" data-name="Path 33414" d="M167.022-378.573a3.123,3.123,0,0,0-2.462,2.632,4.327,4.327,0,0,0-.114,1.361v.939h-.4c-.47,0-.655.071-.868.342a.85.85,0,0,0,.3,1.271c.152.081.28.095.773.095h.593l-.028.27a5.088,5.088,0,0,1-.726,2.158,2.618,2.618,0,0,1-.669.759A.929.929,0,0,0,163-368a.892.892,0,0,0,.783.83,1.924,1.924,0,0,0,.8-.138,9.789,9.789,0,0,1,2.262-.422,1.882,1.882,0,0,1,.882.142,4.437,4.437,0,0,0,1.679.3,3.452,3.452,0,0,0,1.693-.389c.636-.318.854-.612.811-1.091a.829.829,0,0,0-.484-.664c-.3-.138-.479-.114-.972.133l-.451.228h-.64a2.442,2.442,0,0,1-1.167-.19l-.522-.19h-.821a2.657,2.657,0,0,1-.8-.047,7.135,7.135,0,0,0,.489-2.025l.028-.417h1.01c1.072,0,1.19-.019,1.409-.228a.765.765,0,0,0,.27-.631.835.835,0,0,0-.379-.721c-.157-.1-.232-.1-1.371-.128l-1.2-.024-.066-.213a4.816,4.816,0,0,1-.095-.711,2.173,2.173,0,0,1,.877-2.187,1.6,1.6,0,0,1,1.252.019,1.943,1.943,0,0,1,.968,1.333.924.924,0,0,0,.493.726.827.827,0,0,0,1.233-.778,4.018,4.018,0,0,0-.465-1.451,3.111,3.111,0,0,0-1.93-1.56A4.941,4.941,0,0,0,167.022-378.573Z" transform="translate(-154.792 -126.659)" fill="#707070"/>
  </g>
</svg>
