<svg width="44" height="30" viewBox="0 0 44 30" fill="none" xmlns="http://www.w3.org/2000/svg">
    <path
        d="M3.91224 1.6405H27.0006C30.506 1.6405 33.358 4.49256 33.358 7.99796V8.90192H37.4588V3.63775C37.4588 1.63198 39.0908 0 41.0966 0H42.9673C43.5377 0 44 0.46234 44 1.03269V28.7635C44 29.3338 43.5377 29.7961 42.9673 29.7961H41.0963C39.0905 29.7961 37.4585 28.1645 37.4585 26.1587V24.8386H32.9145C32.2615 26.0906 30.9528 26.9484 29.4463 26.9484H13.9198C6.24442 26.9484 0 20.7042 0 13.0286V5.55189C0.000331879 3.3953 1.75515 1.6405 3.91241 1.6405H3.91224ZM39.5243 26.1586C39.5243 27.0253 40.2297 27.7306 41.0967 27.7306H41.9351L41.9347 2.0652H41.0963C40.2297 2.0652 39.524 2.77057 39.524 3.63758L39.5243 26.1586ZM37.4589 10.9667H33.3581V22.773H37.4589V10.9667ZM2.06605 13.0288C2.06605 19.5651 7.38358 24.8832 13.9204 24.8832L29.447 24.8828C30.4648 24.8828 31.2933 24.0543 31.2933 23.0361L31.2937 7.99772C31.2937 5.63105 29.3686 3.70562 27.0016 3.70562H3.91324C2.89505 3.70562 2.06654 4.53414 2.06654 5.55198L2.06605 13.0288Z"
        fill="black" />
    <path
        d="M5.47525 5.24609H26.0076C28.0061 5.24609 29.6318 6.87184 29.6318 8.87036V21.5947C29.6318 22.5596 28.8474 23.344 27.8826 23.344H14.9905C8.77883 23.344 3.72617 18.2906 3.72617 12.0797V6.99593C3.72617 6.03144 4.5109 5.24668 5.47576 5.24668L5.47525 5.24609ZM5.20094 12.0794C5.20094 17.4773 9.59251 21.8685 14.99 21.8685H27.8821C28.0332 21.8685 28.1561 21.7453 28.1561 21.5945L28.1564 8.8701C28.1564 7.68526 27.1922 6.72111 26.0074 6.72111H5.47508C5.32393 6.72111 5.2011 6.84426 5.2011 6.99476L5.20094 12.0794Z"
        fill="black" />
    <path
        d="M22.9026 7.6212C23.2013 7.34393 23.6676 7.36073 23.9452 7.6594L27.1239 11.0775C27.4012 11.3759 27.3844 11.8425 27.0857 12.1201C26.9438 12.2521 26.7637 12.3173 26.5839 12.3173C26.386 12.3173 26.1887 12.2383 26.0435 12.0819L22.8647 8.66341C22.5871 8.36539 22.6039 7.89844 22.9026 7.62119L22.9026 7.6212Z"
        fill="black" />
    <path
        d="M9.34805 14.9016L11.288 16.988C11.5653 17.2864 11.5485 17.753 11.2498 18.0306C11.1079 18.1626 10.9277 18.2278 10.7479 18.2278C10.55 18.2278 10.3528 18.1488 10.2075 17.9924L8.26761 15.9059C7.99034 15.6076 8.00714 15.141 8.30581 14.8634C8.60416 14.5861 9.07012 14.6029 9.34802 14.9016L9.34805 14.9016Z"
        fill="black" />
    <path
        d="M19.336 7.745L25.535 14.4117C25.8123 14.71 25.7955 15.1766 25.4969 15.4542C25.3549 15.5863 25.1748 15.6515 24.995 15.6515C24.7971 15.6515 24.5998 15.5724 24.4546 15.416L18.2555 8.75002C17.9783 8.45167 17.9951 7.98505 18.2937 7.70747C18.5924 7.42954 19.0584 7.44699 19.336 7.74501L19.336 7.745Z"
        fill="black" />
</svg>
    