<svg width="46" height="26" viewBox="0 0 46 26" fill="none" xmlns="http://www.w3.org/2000/svg">
    <path
        d="M39.1 0.000358716H38.933C37.9497 1.73576e-05 36.9719 0.148858 36.0334 0.441425L10.0509 8.54034C7.13242 9.43988 4.58017 11.2502 2.77102 13.7051C0.961515 16.16 -0.00982597 19.1296 7.4945e-05 22.1765C0.00144399 23.1901 0.405653 24.162 1.12405 24.8789C1.84279 25.5954 2.81719 25.9986 3.83339 26H33.297C35.7445 26.0071 38.093 25.0366 39.8184 23.3051C40.7908 22.3335 41.5345 21.1578 41.9949 19.864L45.4449 10.11C45.8135 9.07362 46.001 7.98181 46 6.88223C45.9979 5.05754 45.2703 3.30828 43.9769 2.01791C42.6831 0.727813 40.9294 0.00209744 39.1 0L39.1 0.000358716ZM43.9999 9.59965L40.5499 19.3536C40.1652 20.4328 39.545 21.4131 38.7345 22.2243C37.2956 23.6677 35.3375 24.4767 33.297 24.4709H3.83341C3.22351 24.4709 2.63821 24.2292 2.20703 23.7991C1.77586 23.369 1.53346 22.7852 1.53346 22.1769C1.52457 19.4561 2.39186 16.8046 4.00764 14.6126C5.62342 12.4206 7.90186 10.8038 10.5079 10.0006L36.493 1.902C37.2826 1.65586 38.105 1.53057 38.9327 1.53023H39.0997C40.5224 1.53194 41.8867 2.09624 42.8926 3.0999C43.8988 4.10318 44.4646 5.46398 44.4663 6.88308C44.467 7.80857 44.3089 8.72751 43.9995 9.60013L43.9999 9.59965Z"
        fill="black" />
    <path
        d="M14 11C12.4086 11 10.8825 11.6321 9.75749 12.7575C8.63214 13.8825 8 15.4086 8 17C8 18.5914 8.63214 20.1175 9.75749 21.2425C10.8825 22.3679 12.4086 23 14 23C15.5914 23 17.1175 22.3679 18.2425 21.2425C19.3679 20.1175 20 18.5914 20 17C19.9983 15.4092 19.3655 13.8841 18.2405 12.7595C17.1159 11.6345 15.5908 11.0016 14 11ZM14 21.5C12.8063 21.5 11.662 21.0259 10.8179 20.1821C9.9741 19.3381 9.5 18.1937 9.5 17C9.5 15.8063 9.9741 14.662 10.8179 13.8179C11.6619 12.9741 12.8063 12.5 14 12.5C15.1937 12.5 16.338 12.9741 17.1821 13.8179C18.0259 14.6619 18.5 15.8063 18.5 17C18.4987 18.193 18.0242 19.3371 17.1808 20.1808C16.337 21.0242 15.193 21.4986 14 21.5Z"
        fill="black" />
    <path
        d="M14 13C13.2045 13 12.4414 13.3688 11.8786 14.025C11.3161 14.6816 11 15.5719 11 16.5C11 17.4281 11.3161 18.3184 11.8786 18.975C12.4414 19.6312 13.2045 20 14 20C14.7955 20 15.5586 19.6312 16.1214 18.975C16.6839 18.3184 17 17.4281 17 16.5C17 15.5719 16.6839 14.6816 16.1214 14.025C15.5586 13.3688 14.7955 13 14 13ZM14 18.25C13.6022 18.25 13.2205 18.0656 12.9393 17.7375C12.658 17.4094 12.5 16.9641 12.5 16.5C12.5 16.0359 12.658 15.5906 12.9393 15.2625C13.2205 14.9344 13.6022 14.75 14 14.75C14.3978 14.75 14.7795 14.9344 15.0607 15.2625C15.342 15.5906 15.5 16.0359 15.5 16.5C15.5 16.9641 15.342 17.4094 15.0607 17.7375C14.7795 18.0656 14.3978 18.25 14 18.25Z"
        fill="black" />
    <path
        d="M30 6C27.6131 6 25.3239 6.89557 23.636 8.48959C21.9482 10.0837 21 12.2456 21 14.5C21 16.7544 21.9483 18.9163 23.636 20.5104C25.3239 22.1045 27.613 23 30 23C32.387 23 34.6761 22.1044 36.364 20.5104C38.0518 18.9163 39 16.7544 39 14.5C38.9971 12.2463 38.0481 10.0862 36.361 8.49242C34.6735 6.89901 32.3862 6.00283 30 6ZM30 21.4545C28.0469 21.4545 26.1739 20.7218 24.7932 19.4175C23.4121 18.1135 22.6364 16.3446 22.6364 14.5C22.6364 12.6554 23.4122 10.8865 24.7932 9.58245C26.1739 8.27809 28.0469 7.54545 30 7.54545C31.9531 7.54545 33.8261 8.27817 35.2068 9.58245C36.5879 10.8865 37.3636 12.6554 37.3636 14.5C37.3614 16.3439 36.5849 18.1115 35.2046 19.4154C33.8239 20.7191 31.9523 21.4524 30 21.4545Z"
        fill="black" />
    <path
        d="M29.5 10C28.3063 10 27.162 10.4741 26.3179 11.3179C25.4741 12.1619 25 13.3063 25 14.5C25 15.6937 25.4741 16.838 26.3179 17.6821C27.1619 18.5259 28.3063 19 29.5 19C30.6937 19 31.838 18.5259 32.6821 17.6821C33.5259 16.8381 34 15.6937 34 14.5C33.9987 13.307 33.5242 12.1629 32.6808 11.3192C31.837 10.4758 30.693 10.0014 29.5 10ZM29.5 17.5C28.7045 17.5 27.9414 17.1839 27.3786 16.6214C26.8161 16.0586 26.5 15.2955 26.5 14.5C26.5 13.7045 26.8161 12.9414 27.3786 12.3786C27.9414 11.8161 28.7045 11.5 29.5 11.5C30.2955 11.5 31.0586 11.8161 31.6214 12.3786C32.1839 12.9414 32.5 13.7045 32.5 14.5C32.5 15.2955 32.1839 16.0586 31.6214 16.6214C31.0586 17.1839 30.2955 17.5 29.5 17.5Z"
        fill="black" />
</svg>
    