<svg width="84" height="103" viewBox="0 0 84 103" fill="none" xmlns="http://www.w3.org/2000/svg">
    <rect x="0.75" y="0.75" width="82.5" height="101.5" rx="7.25" fill="#F6F6F6" stroke="#828282"
        stroke-width="1.5" stroke-dasharray="10 10" />
    <g clip-path="url(#clip0_548_2357)">
        <path
            d="M41 51V47H43V51H47V53H43V57H41V53H37V51H41ZM42 62C36.477 62 32 57.523 32 52C32 46.477 36.477 42 42 42C47.523 42 52 46.477 52 52C52 57.523 47.523 62 42 62ZM42 60C44.1217 60 46.1566 59.1571 47.6569 57.6569C49.1571 56.1566 50 54.1217 50 52C50 49.8783 49.1571 47.8434 47.6569 46.3431C46.1566 44.8429 44.1217 44 42 44C39.8783 44 37.8434 44.8429 36.3431 46.3431C34.8429 47.8434 34 49.8783 34 52C34 54.1217 34.8429 56.1566 36.3431 57.6569C37.8434 59.1571 39.8783 60 42 60Z"
            fill="black" />
    </g>
    <defs>
        <clipPath id="clip0_548_2357">
            <rect width="24" height="24" fill="white" transform="translate(30 40)" />
        </clipPath>
    </defs>
</svg>
    