<svg xmlns="http://www.w3.org/2000/svg" width="18.463" height="18.463" viewBox="0 0 18.463 18.463">
  <g id="enterprise" transform="translate(0 512)">
    <path id="Path_32435" data-name="Path 32435" d="M5.1-511.957c-.166.09-.162.032-.162,2.362v2.211H.209l-.1.1-.1.1v5.615c0,4.2.011,5.633.043,5.69.076.148.141.166.526.169H.938v.97c0,.534.011,1,.022,1.031.065.169-.325.162,8.272.162s8.207.007,8.272-.162c.011-.032.022-.5.022-1.031v-.97H17.9c.382,0,.447-.022.523-.169.032-.058.043-1.493.043-5.69v-5.615l-.1-.1-.1-.1H13.523v-2.2c0-1.208-.011-2.225-.022-2.257-.065-.166.032-.162-4.277-.162C6.361-512,5.153-511.986,5.1-511.957Zm7.807,6.278v5.708l-.242-.014a1.228,1.228,0,0,0-.8.249,1.381,1.381,0,0,0-.429.631,1.305,1.305,0,0,0,.188,1.057l.09.119-.206.151a2.467,2.467,0,0,0-.307.278l-.1.123-.065-.087a2.625,2.625,0,0,0-.757-.721c-.047-.025-.032-.061.094-.2a1.991,1.991,0,0,0,.249-.375,1.062,1.062,0,0,0,.1-.635,1.061,1.061,0,0,0-.1-.642A1.537,1.537,0,0,0,8-500.3a1.389,1.389,0,0,0-.274.984,1.3,1.3,0,0,0,.361.927c.126.141.141.177.094.2a2.625,2.625,0,0,0-.757.721l-.065.087-.1-.123a2.211,2.211,0,0,0-.307-.278l-.206-.151.065-.083A1.29,1.29,0,0,0,7-499.206a1.3,1.3,0,0,0-.606-.667.916.916,0,0,0-.519-.1H5.553v-11.413H12.91Zm-7.977,2.492.007,3.566-.112.173a1.206,1.206,0,0,0,.007,1.363c.108.152.108.166.047.2a2.187,2.187,0,0,0-.775.974.413.413,0,0,1-.069.162.784.784,0,0,1-.148-.094c-.069-.05-.148-.1-.177-.123s-.036-.054.047-.169a1.068,1.068,0,0,0,.22-.714.919.919,0,0,0-.094-.49,1.217,1.217,0,0,0-1.98-.379,1.24,1.24,0,0,0-.141,1.569l.108.144-.155.108a2.008,2.008,0,0,0-.49.5c-.036.069-.072.076-.328.076H.613v-10.458l2.156.007,2.153.011Zm12.917,1.644v5.229h-.288c-.256,0-.292-.007-.328-.076a2.008,2.008,0,0,0-.49-.5L16.588-497l.108-.148a1.223,1.223,0,0,0-.1-1.518,1.212,1.212,0,0,0-2.016.332.919.919,0,0,0-.094.49,1.068,1.068,0,0,0,.22.714c.083.115.09.144.047.169s-.108.072-.177.123a.784.784,0,0,1-.148.094.413.413,0,0,1-.069-.162,2.187,2.187,0,0,0-.775-.974c-.061-.036-.061-.05.047-.2a1.212,1.212,0,0,0,0-1.367l-.108-.162v-3.556c0-1.954.011-3.566.025-3.577s.984-.025,2.164-.025H17.85Zm-8.261,1.32a.89.89,0,0,1,.552.837.85.85,0,0,1-.252.635.822.822,0,0,1-.656.274.822.822,0,0,1-.656-.274.853.853,0,0,1-.252-.638A.907.907,0,0,1,9.589-500.223ZM6.13-499.3a.6.6,0,0,1,0,1.064.57.57,0,0,1-.746-.144.567.567,0,0,1,0-.772A.574.574,0,0,1,6.13-499.3Zm6.718-.029a.725.725,0,0,1,.371.436.634.634,0,0,1-.609.739.649.649,0,0,1-.6-.627A.614.614,0,0,1,12.848-499.328Zm-9.715.992a.73.73,0,0,1,.256.49.814.814,0,0,1-.256.5.643.643,0,0,1-.714,0,.52.52,0,0,1-.238-.5.518.518,0,0,1,.274-.516A.682.682,0,0,1,3.134-498.337Zm12.877-.025a.58.58,0,0,1,.274.4.6.6,0,0,1-.6.721.6.6,0,0,1-.494-.945A.634.634,0,0,1,16.011-498.362Zm-6.3.6a1.527,1.527,0,0,1,1.039,1.248c.018.137.036.728.036,1.305v1.057h-3.1v-1.057c0-.577.018-1.168.036-1.305a1.538,1.538,0,0,1,1.024-1.244A1.728,1.728,0,0,1,9.708-497.76Zm-3.545.274a1.221,1.221,0,0,1,.822.736c.079.195.083.234.083,1.4v1.2H4.616V-495.3c0-1.381.022-1.493.339-1.843a1.22,1.22,0,0,1,.573-.346A1.058,1.058,0,0,1,6.163-497.486Zm6.758,0a1.2,1.2,0,0,1,.869.847,6.074,6.074,0,0,1,.058,1.341v1.147H11.4v-1.2c0-1.165,0-1.2.083-1.4a1.229,1.229,0,0,1,.826-.739A1.026,1.026,0,0,1,12.921-497.486Zm-9.632,1a1.361,1.361,0,0,1,.353.249c.307.317.361.523.361,1.41v.678H1.551v-.714c0-.808.029-.963.234-1.241a1.352,1.352,0,0,1,.609-.447A1.443,1.443,0,0,1,3.289-496.487Zm12.921-.007a1.434,1.434,0,0,1,.595.6c.087.173.09.216.1.963l.011.786H14.46v-.678c0-.829.043-1.035.285-1.331a1.182,1.182,0,0,1,.5-.361A1.3,1.3,0,0,1,16.209-496.494Z" transform="translate(0 0)"/>
    <path id="Path_32436" data-name="Path 32436" d="M196.209-477.9c-.193.08-.209.213-.209,1.681,0,1.381.012,1.529.153,1.633a44.55,44.55,0,0,0,4.511,0c.14-.1.153-.253.153-1.633,0-1.489-.016-1.605-.221-1.681C200.459-477.952,196.337-477.948,196.209-477.9Zm3.925,1.665v1.023h-3.451v-2.047h3.451Z" transform="translate(-189.176 -32.695)"/>
    <path id="Path_32437" data-name="Path 32437" d="M212.912-374.671l.012.333.333.012.329.012V-375H212.9Z" transform="translate(-205.253 -132.079)"/>
    <path id="Path_32438" data-name="Path 32438" d="M246.912-374.671l.012.333h.682l.012-.333.012-.329h-.73Z" transform="translate(-238.034 -132.078)"/>
    <path id="Path_32439" data-name="Path 32439" d="M282-374.659v.345l.333-.012.329-.012.012-.333.012-.329H282Z" transform="translate(-271.871 -132.079)"/>
    <path id="Path_32440" data-name="Path 32440" d="M179-340.659v.341h.682V-341H179Z" transform="translate(-172.57 -164.858)"/>
    <path id="Path_32441" data-name="Path 32441" d="M212.912-340.671l.012.333.333.012.329.012V-341H212.9Z" transform="translate(-205.253 -164.858)"/>
    <path id="Path_32442" data-name="Path 32442" d="M246.912-340.671l.012.333h.682l.012-.333.012-.329h-.73Z" transform="translate(-238.034 -164.857)"/>
    <path id="Path_32443" data-name="Path 32443" d="M282-340.659v.345l.333-.012.329-.012.012-.333.012-.329H282Z" transform="translate(-271.871 -164.858)"/>
    <path id="Path_32444" data-name="Path 32444" d="M316-340.659v.341h.682V-341H316Z" transform="translate(-304.649 -164.858)"/>
    <path id="Path_32445" data-name="Path 32445" d="M179-306.659v.341h.682V-307H179Z" transform="translate(-172.57 -197.636)"/>
    <path id="Path_32446" data-name="Path 32446" d="M213-306.659v.341h.682V-307H213Z" transform="translate(-205.349 -197.636)"/>
    <path id="Path_32447" data-name="Path 32447" d="M246.912-306.671l.012.333h.682l.012-.333.012-.329h-.73Z" transform="translate(-238.034 -197.636)"/>
    <path id="Path_32448" data-name="Path 32448" d="M282-306.659v.341h.682V-307H282Z" transform="translate(-271.87 -197.636)"/>
    <path id="Path_32449" data-name="Path 32449" d="M316-306.659v.341h.682V-307H316Z" transform="translate(-304.649 -197.636)"/>
    <path id="Path_32450" data-name="Path 32450" d="M179-272.659v.341h.682V-273H179Z" transform="translate(-172.57 -230.415)"/>
    <path id="Path_32451" data-name="Path 32451" d="M213-272.659v.341h.682V-273H213Z" transform="translate(-205.349 -230.415)"/>
    <path id="Path_32452" data-name="Path 32452" d="M247-272.659v.341h.722V-273H247Z" transform="translate(-238.13 -230.415)"/>
    <path id="Path_32453" data-name="Path 32453" d="M282-272.659v.341h.682V-273H282Z" transform="translate(-271.87 -230.415)"/>
    <path id="Path_32454" data-name="Path 32454" d="M316-272.659v.341h.682V-273H316Z" transform="translate(-304.649 -230.415)"/>
    <path id="Path_32455" data-name="Path 32455" d="M179-238.659v.341h.682V-239H179Z" transform="translate(-172.57 -263.194)"/>
    <path id="Path_32456" data-name="Path 32456" d="M213-238.659v.341h.682V-239H213Z" transform="translate(-205.349 -263.194)"/>
    <path id="Path_32457" data-name="Path 32457" d="M247.028-238.819a1.244,1.244,0,0,0-.028.345v.313h.726l-.012-.333-.012-.329-.321-.012A1.338,1.338,0,0,0,247.028-238.819Z" transform="translate(-238.13 -263.351)"/>
    <path id="Path_32458" data-name="Path 32458" d="M282-238.659v.341h.682V-239H282Z" transform="translate(-271.87 -263.194)"/>
    <path id="Path_32459" data-name="Path 32459" d="M316-238.659v.341h.682V-239H316Z" transform="translate(-304.649 -263.194)"/>
    <path id="Path_32460" data-name="Path 32460" d="M43-313.251v2.749h.682V-316H43Z" transform="translate(-41.274 -189.224)"/>
    <path id="Path_32461" data-name="Path 32461" d="M94-313.251v2.749h.682V-316H94Z" transform="translate(-90.623 -189.224)"/>
    <path id="Path_32462" data-name="Path 32462" d="M401-313.251v2.749h.682V-316H401Z" transform="translate(-386.596 -189.224)"/>
    <path id="Path_32463" data-name="Path 32463" d="M452-313.251v2.749h.682V-316H452Z" transform="translate(-435.945 -189.224)"/>
  </g>
</svg>
