<svg width="29" height="30" viewBox="0 0 29 30" fill="none" xmlns="http://www.w3.org/2000/svg">
    <path
        d="M0 15.4431V30H11.0882H22.1765V25.3486V20.7029L23.5127 19.3667L24.849 18.0304V19.3098V20.5892L24.2804 21.1578C23.9676 21.4706 23.7118 21.7492 23.7118 21.7833C23.7118 21.8573 24.8035 22.949 24.8775 22.949C24.9116 22.949 25.2982 22.5851 25.7475 22.1359L26.5549 21.3284V18.8265V16.3245L27.7775 15.102L29 13.8794L28.3063 13.1857L27.6069 12.4863L28.2778 11.8153C28.6418 11.4514 28.9431 11.1216 28.9431 11.0931C28.9431 11.059 28.6873 10.7804 28.3745 10.4676L27.8059 9.89902L27.1349 10.57C26.771 10.9339 26.4412 11.2353 26.4127 11.2353C26.3786 11.2353 26.0602 10.9396 25.702 10.5814C25.3437 10.2231 25.0253 9.92745 24.9912 9.92745C24.9627 9.92745 24.3145 10.5473 23.5582 11.3035L22.1765 12.6853V9.35882V6.03235L19.6006 3.45647L17.0304 0.886272H8.51235H0V15.4431ZM15.3529 5.15098V7.7098H17.9118H20.4706V11.0533V14.3912L16.7176 18.1441L12.9647 21.8971V23.8986V25.9059H14.9663H16.9735L18.7192 24.1602L20.4706 22.4088V25.3543V28.2941H11.0882H1.70588V15.4431V2.59216H8.52941H15.3529V5.15098ZM18.4235 4.66765L19.7598 6.00392H18.4065H17.0588V4.66765C17.0588 3.93412 17.0645 3.33137 17.0759 3.33137C17.0816 3.33137 17.69 3.93412 18.4235 4.66765ZM25.7986 13.0663C26.2137 13.4814 26.5549 13.8453 26.5549 13.8794C26.5549 13.9078 24.6898 15.8071 22.4039 18.0873L18.2529 22.2382L17.4569 21.4422L16.6608 20.6461L20.8231 16.4837C23.1147 14.1922 25.0026 12.3157 25.0196 12.3157C25.0367 12.3157 25.3835 12.6569 25.7986 13.0663ZM16.2741 22.6476L17.0588 23.4324L16.6778 23.8133L16.2969 24.2H15.4837H14.6706V23.421V22.642L15.0516 22.2553C15.262 22.0392 15.4496 21.8686 15.4667 21.8686C15.478 21.8686 15.8476 22.2212 16.2741 22.6476Z"
        fill="black" />
    <path
        d="M7.44308 5.19615C6.57308 5.52595 6.00445 5.84438 5.46994 6.30497C4.5772 7.08399 3.95171 8.10752 3.65602 9.27889C3.50249 9.89301 3.51955 11.2293 3.69014 11.8605C3.84367 12.4518 4.23602 13.2877 4.57151 13.7597C5.01504 14.3795 5.79975 15.0675 6.41387 15.3803L6.65269 15.4997V17.2909V19.082H9.06936H11.486V17.3193V15.5565L11.6452 15.4599C12.9247 14.6695 13.6127 13.9303 14.1301 12.8101C14.4884 12.0367 14.585 11.5534 14.585 10.5242C14.585 9.46085 14.4884 8.99458 14.079 8.13595C13.5388 7.00438 12.6745 6.12301 11.5429 5.5487C11.196 5.37242 10.0076 4.92321 9.89387 4.92321C9.85975 4.92321 9.837 5.79321 9.837 7.19772V9.47223H9.09779H8.35857V7.19772C8.35857 5.07105 8.35289 4.92321 8.26191 4.92321C8.20504 4.92889 7.83544 5.04831 7.44308 5.19615ZM6.65269 9.38693V11.1781H9.09779H11.5429V9.36987L11.5486 7.56732L11.9011 7.93693C12.555 8.61929 12.9076 9.53478 12.9076 10.5185C12.9076 11.1724 12.7939 11.6501 12.5039 12.2414C12.0717 13.1171 11.3041 13.7881 10.309 14.1634L9.80857 14.3511L9.79151 15.8636L9.78014 17.3761H9.06936H8.35857L8.3472 15.8579L8.33014 14.3397L7.9321 14.1918C7.23838 13.936 6.81759 13.6744 6.36269 13.2252C5.33916 12.2016 4.97524 10.6891 5.43583 9.30733C5.52112 9.05144 5.69171 8.67615 5.81681 8.48281C6.03289 8.14164 6.52191 7.59576 6.6072 7.59576C6.62995 7.59576 6.65269 8.40321 6.65269 9.38693Z"
        fill="black" />
    <path d="M16.2061 11.4624V12.3154H17.2866H18.3671V11.4624V10.6093H17.2866H16.2061V11.4624Z"
        fill="black" />
    <path d="M16.2061 14.8745V15.7275H17.2866H18.3671V14.8745V14.0214H17.2866H16.2061V14.8745Z"
        fill="black" />
    <path d="M3.81006 21.6977V22.5508H7.42133H11.0326V21.6977V20.8447H7.42133H3.81006V21.6977Z"
        fill="black" />
    <path d="M3.81006 25.1098V25.9629H7.42133H11.0326V25.1098V24.2568H7.42133H3.81006V25.1098Z"
        fill="black" />
</svg>
     