<svg xmlns="http://www.w3.org/2000/svg" width="20.247" height="20.594" viewBox="0 0 20.247 20.594">
  <g id="layer-1439750-1214322-_1_" transform="translate(-21.331 236.597)">
    <path id="Path_33319" data-name="Path 33319" d="M31.177-236.549c-.437.19-9.32,5.353-9.51,5.533a.867.867,0,0,0-.152,1.091c.152.313.645.617,4.916,3.084,3.777,2.183,4.812,2.733,5.078,2.733s1.3-.55,5.078-2.733c4.28-2.477,4.764-2.771,4.916-3.084a.867.867,0,0,0-.152-1.091c-.332-.313-9.434-5.524-9.718-5.571A1,1,0,0,0,31.177-236.549Zm3.8,4.147c1.879,1.072,3.455,1.984,3.493,2.022s-1.509.978-3.445,2.078l-3.512,2.012L28-228.3c-1.936-1.1-3.483-2.04-3.445-2.078.095-.095,6.89-3.977,6.957-3.977C31.538-234.357,33.094-233.474,34.973-232.4Z" transform="translate(-0.055)" fill="#252525"/>
    <path id="Path_33320" data-name="Path 33320" d="M21.9-138.515a1.076,1.076,0,0,0-.55,1.072,1.066,1.066,0,0,0,.313.5c.142.133,2.306,1.433,4.812,2.885,4.119,2.382,4.593,2.638,4.983,2.638s.854-.247,4.983-2.638c2.506-1.452,4.669-2.752,4.812-2.885a1.066,1.066,0,0,0,.313-.5,1.054,1.054,0,0,0-.588-1.082c-.38-.18-.645-.142-1.148.18-.769.494-8.266,4.707-8.371,4.707-.057,0-2.05-1.11-4.423-2.468s-4.423-2.5-4.575-2.515A1.029,1.029,0,0,0,21.9-138.515Z" transform="translate(0 -88.667)" fill="#252525"/>
    <path id="Path_33321" data-name="Path 33321" d="M21.915-95.667a1.177,1.177,0,0,0-.408.484.7.7,0,0,0-.066.674,1.276,1.276,0,0,0,.266.465c.085.076,2.259,1.348,4.812,2.828C30.191-89.1,31.235-88.53,31.5-88.53s1.262-.531,4.745-2.553c2.43-1.4,4.575-2.648,4.774-2.771a1,1,0,0,0-.247-1.9c-.3-.047-.721.171-4.679,2.42-2.4,1.367-4.423,2.506-4.5,2.534s-1.936-.978-4.461-2.43a52.016,52.016,0,0,0-4.65-2.515A1.113,1.113,0,0,0,21.915-95.667Z" transform="translate(-0.046 -127.472)" fill="#252525"/>
  </g>
</svg>
