<svg width="37" height="30" viewBox="0 0 37 30" fill="none" xmlns="http://www.w3.org/2000/svg">
    <path
        d="M1.78295 0.000239138H17.3855C18.1477 0.000239138 19.1829 0.346938 19.7926 0.806077L35.841 12.896C36.5018 13.3939 37 14.3953 37 15.2246V27.5384C37 28.5263 36.2002 29.3294 35.217 29.3294H1.78288C0.799351 29.3294 -0.00012207 28.526 -0.00012207 27.5384V1.79127C-0.00012207 0.803359 0.799351 0 1.78288 0L1.78295 0.000239138ZM1.33703 27.5385C1.33703 27.7812 1.54133 27.9864 1.78295 27.9864H35.2171C35.4587 27.9864 35.663 27.7812 35.663 27.5385V15.2246C35.663 14.822 35.3595 14.2127 35.0389 13.9709L18.9905 1.8809C18.6174 1.59979 17.8524 1.34367 17.3857 1.34367H1.78309C1.54147 1.34367 1.33718 1.54887 1.33718 1.79157L1.33703 27.5385Z"
        fill="black" />
    <path
        d="M4.04228 2.25586H16.3193C17.0853 2.25586 18.1211 2.61184 18.7283 3.08393L31.4685 12.989C32.1168 13.4929 32.0739 13.982 31.9907 14.2291C31.9076 14.4758 31.646 14.89 30.8282 14.89H4.04211C3.05716 14.89 2.25653 14.0805 2.25653 13.0853V4.06098C2.25653 3.06548 3.05716 2.25595 4.04211 2.25595L4.04228 2.25586ZM3.59572 13.0851C3.59572 13.3296 3.80031 13.5364 4.04228 13.5364L29.9754 13.5361L17.9113 4.15643C17.5423 3.87001 16.7834 3.60909 16.3187 3.60909H4.04172C3.79976 3.60909 3.59516 3.81587 3.59516 4.06043L3.59572 13.0851Z"
        fill="black" />
    <path
        d="M3.85695 16.6953H9.67937C10.065 16.6953 10.3779 16.9984 10.3779 17.372C10.3779 17.7459 10.065 18.049 9.67937 18.049H3.85695C3.47128 18.049 3.15839 17.7459 3.15839 17.3723C3.15839 16.9987 3.47128 16.6953 3.85695 16.6953Z"
        fill="black" />
</svg>
    