<svg xmlns="http://www.w3.org/2000/svg" width="62.187" height="35.901" viewBox="0 0 62.187 35.901">
  <g id="email" transform="translate(-25.989 388.775)">
    <path id="Path_33482" data-name="Path 33482" d="M90.9-388.548a4.856,4.856,0,0,0-2.287,1.462c-1.245,1.3-1.61,2.368-1.61,4.683,0,2,.3,2.531,1.407,2.531a1.33,1.33,0,0,0,.92-.392l.433-.379.068-1.732.081-1.732,7.741,6.618c4.249,3.64,7.741,6.645,7.741,6.685s-3.492,3.045-7.741,6.685L89.91-357.5l-.081-1.732-.068-1.732-.433-.379a1.329,1.329,0,0,0-.92-.392c-1.11,0-1.407.528-1.407,2.531a6.832,6.832,0,0,0,.758,3.627,6.906,6.906,0,0,0,2.72,2.4l.785.311H136.87l.88-.42a5.2,5.2,0,0,0,2.666-2.6l.514-1.029v-27.757l-.433-.907a5.2,5.2,0,0,0-2.585-2.653l-1.029-.5-22.6-.027C92.752-388.792,91.628-388.778,90.9-388.548Zm45,2.544c.108.176-21.085,18.229-21.545,18.365a1.037,1.037,0,0,1-.866-.095c-.244-.108-2.869-2.3-5.846-4.858s-7.687-6.577-10.461-8.959-5.034-4.358-5.034-4.425C92.143-386.126,135.815-386.139,135.9-386Zm2.4,15.2c0,7.1-.054,12.992-.108,13.087-.108.162-15.387-12.816-15.387-13.087s15.279-13.249,15.387-13.087C138.237-383.8,138.291-377.911,138.291-370.806Zm-28.623,3.613c2.5,2.192,2.9,2.409,4.331,2.409,1.489,0,1.908-.23,4.263-2.287,1.083-.947,2.044-1.759,2.125-1.8.189-.081,15.617,13.1,15.509,13.249-.081.149-43.753.135-43.753-.014s15.279-13.276,15.442-13.276A24.386,24.386,0,0,1,109.668-367.192Z" transform="translate(-52.755 0)" fill="#2593f7"/>
    <path id="Path_33483" data-name="Path 33483" d="M57.2-291.634a1.345,1.345,0,0,0,.162,2.4c.406.176,1.2.2,4.953.162l4.466-.041.392-.447a1.236,1.236,0,0,0,0-1.813l-.392-.447-4.588-.041C57.86-291.891,57.589-291.877,57.2-291.634Z" transform="translate(-26.416 -83.787)" fill="#2593f7"/>
    <path id="Path_33484" data-name="Path 33484" d="M26.937-240.668a2.551,2.551,0,0,0-.568.42,1.376,1.376,0,0,0,.6,2.26c.162.041,3.248.054,6.848.041l6.55-.041.392-.447a1.236,1.236,0,0,0,0-1.813l-.392-.447-6.618-.027C30.118-240.736,27.046-240.709,26.937-240.668Z" transform="translate(0 -128.013)" fill="#2593f7"/>
  </g>
</svg>
