<svg width="37" height="30" viewBox="0 0 37 30" fill="none" xmlns="http://www.w3.org/2000/svg">
    <path
        d="M35.217 0.000239138H19.6145C18.8523 0.000239138 17.8171 0.346938 17.2074 0.806077L1.15897 12.896C0.498185 13.3939 0 14.3953 0 15.2246V27.5384C0 28.5263 0.799793 29.3294 1.783 29.3294H35.2171C36.2006 29.3294 37.0001 28.526 37.0001 27.5384V1.79127C37.0001 0.803359 36.2006 0 35.2171 0L35.217 0.000239138ZM35.663 27.5385C35.663 27.7812 35.4587 27.9864 35.217 27.9864H1.78292C1.5413 27.9864 1.337 27.7812 1.337 27.5385V15.2246C1.337 14.822 1.64049 14.2127 1.96109 13.9709L18.0095 1.8809C18.3826 1.59979 19.1476 1.34367 19.6143 1.34367H35.2169C35.4585 1.34367 35.6628 1.54887 35.6628 1.79157L35.663 27.5385Z"
        fill="black" />
    <path
        d="M32.9577 2.25586H20.6807C19.9147 2.25586 18.8789 2.61184 18.2717 3.08393L5.53153 12.989C4.88318 13.4929 4.92615 13.982 5.0093 14.2291C5.09244 14.4758 5.35402 14.89 6.17178 14.89H32.9579C33.9428 14.89 34.7435 14.0805 34.7435 13.0853V4.06098C34.7435 3.06548 33.9428 2.25595 32.9579 2.25595L32.9577 2.25586ZM33.4043 13.0851C33.4043 13.3296 33.1997 13.5364 32.9577 13.5364L7.02462 13.5361L19.0887 4.15643C19.4577 3.87001 20.2166 3.60909 20.6813 3.60909H32.9583C33.2002 3.60909 33.4048 3.81587 33.4048 4.06043L33.4043 13.0851Z"
        fill="black" />
    <path
        d="M33.1431 16.6953H27.3206C26.935 16.6953 26.6221 16.9984 26.6221 17.372C26.6221 17.7459 26.935 18.049 27.3206 18.049H33.1431C33.5287 18.049 33.8416 17.7459 33.8416 17.3723C33.8416 16.9987 33.5287 16.6953 33.1431 16.6953Z"
        fill="black" />
</svg>
    