<svg width="84" height="103" viewBox="0 0 84 103" fill="none" xmlns="http://www.w3.org/2000/svg">
    <rect x="0.75" y="0.75" width="82.5" height="101.5" rx="7.25" fill="#F6F6F6" stroke="#828282"
        stroke-width="1.5" stroke-dasharray="10 10" />
    <g clip-path="url(#clip0_548_2357)">
        <path
            d="M39.828 45L37.828 47H34V59H50V47H46.172L44.172 45H39.828ZM39 43H45L47 45H51C51.2652 45 51.5196 45.1054 51.7071 45.2929C51.8946 45.4804 52 45.7348 52 46V60C52 60.2652 51.8946 60.5196 51.7071 60.7071C51.5196 60.8946 51.2652 61 51 61H33C32.7348 61 32.4804 60.8946 32.2929 60.7071C32.1054 60.5196 32 60.2652 32 60V46C32 45.7348 32.1054 45.4804 32.2929 45.2929C32.4804 45.1054 32.7348 45 33 45H37L39 43ZM42 58C40.5413 58 39.1424 57.4205 38.1109 56.3891C37.0795 55.3576 36.5 53.9587 36.5 52.5C36.5 51.0413 37.0795 49.6424 38.1109 48.6109C39.1424 47.5795 40.5413 47 42 47C43.4587 47 44.8576 47.5795 45.8891 48.6109C46.9205 49.6424 47.5 51.0413 47.5 52.5C47.5 53.9587 46.9205 55.3576 45.8891 56.3891C44.8576 57.4205 43.4587 58 42 58ZM42 56C42.9283 56 43.8185 55.6313 44.4749 54.9749C45.1313 54.3185 45.5 53.4283 45.5 52.5C45.5 51.5717 45.1313 50.6815 44.4749 50.0251C43.8185 49.3687 42.9283 49 42 49C41.0717 49 40.1815 49.3687 39.5251 50.0251C38.8687 50.6815 38.5 51.5717 38.5 52.5C38.5 53.4283 38.8687 54.3185 39.5251 54.9749C40.1815 55.6313 41.0717 56 42 56Z"
            fill="black" />
    </g>
    <defs>
        <clipPath id="clip0_548_2357">
            <rect width="24" height="24" fill="white" transform="translate(30 40)" />
        </clipPath>
    </defs>
</svg>
    