<svg width="39" height="32" viewBox="0 0 39 32" fill="none" xmlns="http://www.w3.org/2000/svg">
    <path
        d="M34.3484 12.4014V12.2006C34.3329 11.0337 34.0623 9.92087 33.5523 8.97001C32.8241 7.6669 31.906 6.94484 31.5583 6.59741C33.2451 5.76629 33.6326 3.98198 32.3543 3.21259C31.1643 2.4963 29.05 2.29977 28.3975 3.53716L27.81 2.97288C26.0804 1.31145 25.4649 0.411425 23.5055 0.121195C23.1655 0.0749099 22.7946 0.082624 22.4852 0.0749097C8.52884 0.0137668 10.296 -0.601374 6.45745 3.09687L6.00144 3.53715C5.71544 2.97287 5.22862 2.78744 4.91177 2.73346C3.86063 2.54803 2.87921 2.71032 2.04465 3.2126C0.780671 3.98748 1.13636 5.74546 2.84066 6.59743C0.871806 8.5646 -1.12191 10.4977 0.746367 17.1C1.01694 18.066 1.89778 18.7382 2.90261 18.7382L3.14947 18.7385V20.2534C3.14947 21.1188 3.86061 21.83 4.73374 21.83H8.31202C10.422 21.83 9.78804 19.1559 9.88861 18.7385H16.334C14.9583 25.5702 20.2214 32 27.2154 32C33.3363 32 38.3134 27.0152 38.3134 20.8948C38.3137 17.4865 36.7679 14.4416 34.3488 12.4014H34.3484ZM8.31177 20.6709H4.73378C4.50178 20.6709 4.30864 20.4778 4.30864 20.2535V18.7387H8.72923C8.63638 19.6586 8.98438 20.6709 8.31181 20.6709H8.31177ZM3.14922 17.5795C3.07207 17.5563 2.12149 17.7263 1.85862 16.7912C-0.466221 8.4815 4.03659 7.97023 4.3549 6.53591C4.44005 6.24219 4.28547 5.94077 4.00719 5.83248C3.92176 5.78962 2.85088 5.50533 2.50777 4.75048C2.36091 4.43363 2.48462 4.3022 2.6469 4.20162C3.07205 3.94648 3.55117 3.81534 4.07662 3.81534C4.27748 3.81534 4.49405 3.83849 4.71034 3.87706C4.81091 3.89249 4.98862 3.92334 5.06577 4.43334C5.07348 4.4642 5.0812 4.48734 5.0812 4.50306L5.69177 4.54163L5.3132 4.9822C5.51405 5.18305 5.88519 5.16763 6.10921 5.00534C6.18635 4.95134 6.2715 4.88934 6.33321 4.82762L7.26834 3.93104C10.6689 0.615341 8.57291 1.17276 22.4857 1.23391C22.7794 1.23391 23.0885 1.23391 23.3511 1.26477C25.5568 1.58905 26.9439 4.08449 28.3282 5.03615C28.6639 5.28786 29.2622 5.06472 29.3173 4.54158C29.375 4.25158 29.3762 3.92901 29.6882 3.87701C30.553 3.72301 32.2501 3.9493 31.8985 4.75041C31.6642 5.26555 31.117 5.58584 30.5151 5.78581L30.3913 5.8321C30.0159 5.97581 29.8902 6.56009 30.2291 6.89866C30.6608 7.34209 30.8279 7.50866 30.9788 7.6407C32.3622 8.86957 32.965 10.0595 33.1428 11.505C29.6265 9.27924 25.0898 9.24069 21.535 11.3658L12.0067 11.3661C11.7516 11.3661 11.489 11.3661 11.2725 11.5901C11.0562 11.8144 11.0716 12.0847 11.0793 12.3321C11.1876 14.1173 12.1613 15.7481 13.9542 15.7481L17.3856 15.7558C17.0842 16.3356 16.8213 16.9381 16.6282 17.5799L3.14922 17.5795ZM19.9274 12.5252C19.3091 13.066 18.5825 13.862 18.0803 14.5963L13.9534 14.5886C13.536 14.5886 13.2268 14.4803 13.0183 14.2409C12.5931 13.7772 12.346 13.2131 12.2609 12.5252L19.9274 12.5252ZM27.2151 30.8416C18.5828 30.8416 14.0772 20.5862 19.8965 14.195C25.9787 7.54879 37.1537 11.8533 37.1537 20.8956C37.1537 26.3824 32.6946 30.8415 27.2151 30.8415V30.8416Z"
        fill="black" />
    <path
        d="M5.23024 14.6261C5.89366 14.6152 8.7345 14.551 9.33281 14.2661C9.70709 14.0884 9.95994 13.799 10.0442 13.4509C10.1222 13.1275 10.0434 12.7901 9.82223 12.5006C9.43195 11.9912 6.99395 10.2184 6.04339 9.81434C5.75511 9.69119 5.45053 9.62891 5.13884 9.62891C3.09172 9.62891 1.94111 12.0783 3.22455 13.6949C4.02795 14.7066 5.15281 14.6077 5.23027 14.626L5.23024 14.6261ZM5.13881 10.7884C5.91134 10.7884 8.67876 12.9195 8.92562 13.1569C8.90448 13.1872 8.76762 13.2547 8.73705 13.2678C7.48302 13.4295 5.21992 13.4621 5.13822 13.4652C4.72679 13.4475 4.36993 13.2732 4.1325 12.9744C3.47165 12.1412 4.02422 10.7884 5.1388 10.7884L5.13881 10.7884Z"
        fill="black" />
    <path
        d="M6.9403 7.9373C27.5855 7.68358 28.0551 8.5153 28.0551 7.35759C28.0551 7.16187 27.9583 6.98844 27.8091 6.88359L26.8082 5.83048C24.5368 3.42365 23.886 2.27136 21.7903 2.27136C9.34579 2.38365 11.8209 1.35276 7.53478 5.89046L6.52109 6.95673C6.36081 7.12473 6.31567 7.37187 6.40709 7.5853C6.49824 7.79873 6.70795 7.9373 6.93995 7.9373H6.9403ZM8.37543 6.68934C12.3857 2.44136 9.71343 3.53792 21.8307 3.43047C22.6296 3.43047 23.2299 3.69647 23.7799 4.2956C24.5044 5.07706 25.2352 5.85186 25.9659 6.62585L26.1102 6.77785H8.29115L8.37543 6.68934Z"
        fill="black" />
    <path
        d="M31.2747 22.7572C30.2845 21.5384 29.9976 21.1138 29.2736 20.3327L29.3093 20.297C29.3868 20.373 29.6473 20.6284 29.5699 20.5524C29.8371 20.787 29.9191 20.9919 30.1693 20.9919C30.5099 20.9919 30.6873 20.577 30.4425 20.3321L30.3762 20.2659C33.3202 17.1248 34.155 16.9704 34.155 15.7473C34.155 15.277 33.9645 14.817 33.6319 14.4847C32.9562 13.809 31.7805 13.8062 31.0919 14.4847L27.8433 17.7333L27.779 17.669C27.4173 17.3073 26.8713 17.8541 27.2327 18.2153C27.3096 18.2927 27.8893 18.8776 27.8125 18.8002L27.7767 18.8359C27.0759 18.1836 26.8882 18.0787 25.3593 16.8359C25.7533 14.7436 23.6842 13.025 21.717 13.7547C21.5936 13.8004 21.5019 13.9062 21.4739 14.0344C21.3965 14.3862 21.7233 14.463 22.6184 15.4307L22.5187 16.2044L21.7444 16.2996L20.7113 15.2588C20.5093 15.0576 20.1719 15.1342 20.0747 15.3968C19.3416 17.3773 21.0561 19.4205 23.1547 19.0379C24.5444 20.7341 24.3001 20.521 25.163 21.4496L23.5747 23.0379L23.5075 22.971C23.3804 22.8436 23.1829 22.8213 23.0321 22.9153C21.6641 23.7762 21.6347 23.729 21.5495 23.8882L20.3209 26.1756C20.2401 26.3264 20.2678 26.5122 20.3889 26.633L21.4863 27.7227C21.5606 27.7964 21.6592 27.8347 21.7589 27.8347C21.8212 27.8347 21.8835 27.8198 21.9409 27.789L24.2283 26.5679C24.2892 26.5359 24.3397 26.4878 24.3754 26.4293C24.9477 25.3493 25.5095 24.9718 25.1463 24.609L25.072 24.5347L26.6531 22.9533C26.928 23.2079 27.2194 23.4647 27.568 23.7461L29.0717 24.9545C28.7709 26.611 30.0183 28.207 31.776 28.207C32.1209 28.207 32.8723 28.1382 32.9552 27.7645C33.0346 27.4119 32.7046 27.333 31.8109 26.3668L31.9109 25.5913L32.6863 25.4913L33.7266 26.5316C33.9255 26.7305 34.2666 26.6565 34.3632 26.3896C34.7229 25.3942 34.4723 24.2673 33.7243 23.52C33.0826 22.8771 32.1575 22.5911 31.2746 22.7574L31.2747 22.7572ZM23.2005 18.235C21.9265 18.5927 20.6671 17.6296 20.6794 16.3225L21.3302 16.9779C21.5594 17.2059 21.8102 17.0279 22.9113 16.9344C23.0868 16.913 23.2253 16.7756 23.2479 16.6004L23.4102 15.3407C23.4496 15.0307 23.1782 14.9501 22.6397 14.3576C23.9436 14.3285 24.9219 15.6205 24.5571 16.8756C24.5134 17.0253 24.5642 17.187 24.6857 17.2848C26.4739 18.7313 26.6868 18.8711 27.2339 19.3785L25.6996 20.9128C25.4459 20.6388 25.2031 20.3551 24.9739 20.0645C23.6917 18.5939 23.6299 18.1124 23.2005 18.235L23.2005 18.235ZM31.6368 15.0333C32.5974 14.083 34.0471 15.5285 33.0782 16.4713L29.83 19.7196L28.3902 18.2798L31.6368 15.0333ZM24.3843 24.9398L23.7723 25.9354L21.8289 26.9729L21.1386 26.2878L22.1817 24.3457L23.1774 23.7332L23.302 23.8575C23.4529 24.0083 23.6974 24.0083 23.8483 23.8575L28.3589 19.3469C28.4363 19.4243 28.8403 19.828 28.7628 19.7509L28.4643 20.0497C28.386 20.128 24.1072 24.4074 24.2526 24.2617C23.9172 24.5972 24.3429 24.8626 24.3843 24.9397L24.3843 24.9398ZM32.7766 24.7003C31.8544 24.8892 31.2464 24.7098 31.1829 25.1966C31.0824 26.2989 30.9021 26.55 31.1309 26.7789L31.7861 27.434C31.7072 27.4183 31.0178 27.4898 30.3804 26.86C29.3392 25.8064 30.1655 24.842 29.7449 24.5043C28.3321 23.3589 27.8212 22.9858 27.1972 22.4103L28.7307 20.8766C30.6207 22.9249 30.7281 23.7115 31.2341 23.5612C32.4573 23.2077 33.7567 24.1149 33.7538 25.4648C33.2152 24.974 33.0889 24.6603 32.7767 24.7003L32.7766 24.7003Z"
        fill="black" />
</svg>
    