<svg width="41" height="33" viewBox="0 0 41 33" fill="none" xmlns="http://www.w3.org/2000/svg">
    <path
        d="M12.2115 1.25926C12.0756 1.42654 11.3855 2.46157 10.6746 3.56978C9.96368 4.67799 9.34684 5.54574 9.30503 5.49346C9.26321 5.45164 8.53137 4.50026 7.67408 3.38159C6.82724 2.27338 6.02222 1.32199 5.8863 1.26972C5.57266 1.15472 5.17538 1.31154 4.96628 1.63564C4.80946 1.8761 4.83037 2.03292 5.36356 4.51071C5.70857 6.12075 5.87585 7.13487 5.81312 7.13487C5.75039 7.13487 4.53763 6.9885 3.11578 6.80031L0.522985 6.46576L0.261615 6.71667C-0.0729388 7.03032 -0.0938484 7.54261 0.240705 7.83534C0.366163 7.95034 1.40119 8.65082 2.55122 9.38265C4.20308 10.449 4.60036 10.7522 4.4749 10.8359C4.39126 10.8986 3.41897 11.6513 2.32121 12.4982C0.334799 14.0246 0.313889 14.0455 0.313889 14.4428C0.313889 14.8401 0.481166 15.0805 0.857539 15.2164C0.951632 15.2478 2.19576 15.0282 3.60715 14.7251C6.07449 14.1919 6.16858 14.1814 6.16858 14.3905C6.16858 14.5055 6.02222 15.7183 5.84448 17.0878C5.53084 19.4193 5.52038 19.5865 5.68766 19.8375C6.01176 20.3288 6.78542 20.2766 7.00497 19.7643C7.05724 19.6284 7.2977 18.0811 7.52771 16.3037C7.97726 12.8223 7.97726 12.6968 7.43361 12.4668C7.20361 12.3727 6.87951 12.4145 5.7713 12.655C5.0081 12.8223 4.39126 12.9477 4.39126 12.9268C4.39126 12.9164 4.8931 12.5086 5.49947 12.0382C6.10585 11.5677 6.6495 11.0763 6.71223 10.9404C6.93178 10.4804 6.67041 10.1668 5.37402 9.34083C4.71536 8.91219 4.19262 8.55672 4.20308 8.54627C4.22399 8.53581 4.85128 8.59854 5.59357 8.70309C7.05724 8.90173 7.30816 8.87037 7.57998 8.45217C7.74726 8.20126 7.7368 8.10717 7.45452 6.7794C7.28725 6.00575 7.1827 5.38891 7.22452 5.42028C7.27679 5.45164 7.67408 5.94302 8.12363 6.51803C8.56273 7.1035 9.0332 7.61579 9.16911 7.66806C9.45139 7.77261 9.80686 7.65761 10.0473 7.38578C10.5491 6.78986 13.5915 1.90746 13.5915 1.67746C13.5915 0.997894 12.6715 0.715614 12.2115 1.25926Z"
        fill="black" />
    <path
        d="M19.216 6.44478C18.4947 6.70615 18.2124 6.97798 16.8428 8.7553C16.0796 9.72759 15.4314 10.5431 15.3896 10.5535C15.3478 10.5744 15.2119 10.4281 15.0864 10.2294C14.7727 9.73805 14.2082 9.49759 13.2568 9.45577C12.5877 9.4244 12.3681 9.45577 11.9709 9.64396C11.1031 10.0621 10.7999 10.8253 11.1658 11.6513C11.4272 12.2472 11.9604 12.6549 12.8386 12.9581L13.5286 13.1881L12.4204 14.3173C10.9777 15.7705 10.8208 16.105 10.664 17.9555C10.6013 18.6978 10.4235 19.9942 10.2772 20.8306C10.1204 21.667 9.98445 22.7438 9.98445 23.2352C9.97399 23.7266 9.85899 24.6362 9.73353 25.2634C9.47216 26.5285 9.49307 26.9467 9.8799 27.3962C10.204 27.7831 10.4445 27.8771 11.95 28.2012C13.3927 28.5044 13.8005 28.5253 14.2814 28.2953C14.7623 28.0653 15.0028 27.6262 15.2223 26.6017C15.3896 25.8175 15.4314 25.7339 15.6196 25.7862C15.745 25.8071 19.2056 26.5494 23.3143 27.4171C27.4231 28.2849 30.8 29.0063 30.8 29.0167C30.8104 29.0272 30.7372 29.4349 30.6327 29.9158C30.4131 30.9299 30.4445 31.2959 30.8209 31.7977C31.1554 32.2473 31.4273 32.3518 33.1941 32.7073L34.6682 33L35.1492 32.7595C35.7556 32.4668 35.9646 32.0695 36.2783 30.564C36.4037 29.9681 36.5919 29.3513 36.7069 29.2049C36.8219 29.0481 37.1147 28.1071 37.3656 27.1035C37.6165 26.0998 38.0452 24.6152 38.317 23.8102C38.9443 21.9702 38.9338 21.5102 38.2752 19.9629C38.0347 19.3983 37.8047 18.7815 37.7733 18.5828L37.7106 18.2274L38.0661 18.3214C39.6866 18.7919 41.2861 17.6628 40.8889 16.3455C40.5334 15.1536 38.4215 14.3277 37.3865 14.9759C37.0938 15.1536 36.9997 15.1746 36.9579 15.0595C36.9369 14.9864 36.6756 13.9618 36.3828 12.7804C36.0901 11.6095 35.7869 10.5431 35.7033 10.4176C34.8878 9.16303 32.6923 8.42074 25.8758 7.04071C22.3316 6.32978 20.1047 6.13114 19.216 6.44478ZM22.7707 8.07574C26.4612 8.68211 31.4691 9.83214 33.0582 10.449C34.3128 10.9299 34.3337 10.9613 34.9087 13.3345C35.4001 15.3314 35.4105 15.4046 35.191 15.3523C35.076 15.3314 33.2778 14.9445 31.2077 14.5054C29.1377 14.0663 26.0326 13.4077 24.3075 13.0418C22.5825 12.6758 20.2302 12.174 19.0801 11.9336C17.9301 11.6931 16.9473 11.4631 16.9055 11.4213C16.7905 11.3167 19.2997 8.08619 19.5924 7.97119C19.9792 7.81436 21.4429 7.85618 22.7707 8.07574ZM13.8005 11.1599C13.9573 11.3481 13.8527 11.5258 13.5914 11.5258C13.3404 11.5258 12.6504 11.2017 12.6504 11.0867C12.6504 10.9299 13.6645 10.9926 13.8005 11.1599ZM25.6458 14.9236C30.9463 16.0528 35.4001 17.0041 35.536 17.046C35.7556 17.1191 35.8287 17.276 36.0692 18.2796C36.226 18.9174 36.5501 19.921 36.7906 20.5065C37.0206 21.1024 37.2192 21.7193 37.2192 21.8865C37.2192 22.0434 36.9892 22.8797 36.7069 23.7266C36.4247 24.5734 36.0378 25.9325 35.8496 26.7376C35.6719 27.5426 35.4837 28.2431 35.4419 28.2849C35.4001 28.3372 34.9505 28.2953 34.4487 28.1908L33.5391 28.0026L32.9641 27.0512C32.2636 25.9221 31.7723 25.368 31.2077 25.1171C30.9777 25.0125 29.6604 24.6884 28.2804 24.3852C26.9003 24.0925 25.1335 23.7161 24.3598 23.5489C16.8951 21.9597 16.7801 21.9388 16.1528 22.0747C15.7241 22.1688 15.2641 22.4093 14.4696 22.9529L13.3718 23.6848L12.4727 23.5175C11.9709 23.4129 11.5422 23.3084 11.5108 23.2875C11.4795 23.2561 11.5108 22.9111 11.584 22.5243C11.6468 22.1375 11.7931 21.3011 11.9081 20.6738C12.0231 20.036 12.159 18.9174 12.2218 18.1855C12.2845 17.4432 12.3995 16.7219 12.4831 16.565C12.5668 16.4082 13.0163 15.9064 13.4868 15.4464C13.9573 14.9864 14.6473 14.2232 15.0237 13.7422C15.3896 13.2718 15.766 12.8849 15.8496 12.8849C15.9332 12.8849 20.3452 13.805 25.6458 14.9236ZM39.007 16.4919C39.4461 16.7219 39.2788 16.8891 38.662 16.8369C38.087 16.7741 38.0033 16.7219 38.087 16.4919C38.1706 16.2932 38.6097 16.2932 39.007 16.4919ZM23.6071 25.0021C27.6217 25.8489 30.5281 26.518 30.685 26.6226C30.9359 26.7898 31.3959 27.4171 31.3227 27.4903C31.3018 27.5112 30.8732 27.4276 30.3609 27.3126C29.8486 27.1976 26.4299 26.4762 22.7602 25.6921C19.101 24.9184 15.9541 24.2493 15.7764 24.1971L15.4523 24.1134L15.9541 23.8311C16.2364 23.6848 16.5396 23.5489 16.6233 23.5489C16.7173 23.5489 19.8538 24.1971 23.6071 25.0021ZM12.525 25.1275C13.0791 25.2425 13.6123 25.3575 13.7064 25.3889C13.8527 25.4307 13.8632 25.5039 13.7168 26.1416C13.6332 26.5285 13.5495 26.863 13.5286 26.8839C13.4764 26.9362 11.2599 26.4657 11.1658 26.3821C11.1031 26.3194 11.3749 24.908 11.4586 24.908C11.4795 24.908 11.9604 25.0021 12.525 25.1275ZM33.675 29.6231C34.271 29.7486 34.7728 29.8531 34.7937 29.874C34.8251 29.9054 34.5323 31.2854 34.4801 31.3377C34.4278 31.39 32.2114 30.909 32.1277 30.8359C32.0232 30.7209 32.3264 29.4035 32.4623 29.4035C32.5355 29.4035 33.0791 29.4976 33.675 29.6231Z"
        fill="black" />
    <path
        d="M14.7941 14.6099C13.8009 15.1222 13.1736 16.795 13.6336 17.6732C14.0518 18.4782 16.9792 19.9941 18.1083 19.9941C18.3174 19.9941 18.5265 19.8896 18.7356 19.67L19.0597 19.3564L19.0074 18.3841C18.9551 17.5164 18.9133 17.3073 18.5578 16.6068C18.0874 15.6658 17.5855 15.1117 16.8746 14.7772C16.216 14.4635 15.2227 14.3799 14.7941 14.6099ZM16.4146 16.314C16.561 16.4186 16.7805 16.6591 16.906 16.8472C17.1882 17.2654 17.5123 18.0914 17.4183 18.1855C17.3451 18.2691 15.735 17.485 15.3377 17.1713C15.0136 16.91 14.9927 16.7636 15.2227 16.314C15.3691 16.0213 15.4214 16.0004 15.7664 16.0631C15.9755 16.0945 16.2682 16.2095 16.4146 16.314Z"
        fill="black" />
    <path
        d="M19.5508 18.1125C19.1535 18.5098 19.3313 19.1789 19.8854 19.3566C20.4813 19.5448 29.1274 21.3535 29.4515 21.3535C29.8488 21.3535 30.1415 21.0294 30.1415 20.6112C30.1415 19.9735 30.0788 19.9526 25.0814 18.8862C22.5304 18.3425 20.2931 17.9034 20.1049 17.9034C19.8958 17.9034 19.6763 17.9871 19.5508 18.1125Z"
        fill="black" />
    <path
        d="M32.9852 18.5517C32.0025 18.9177 30.8838 19.9631 30.4447 20.9145C29.8174 22.2946 30.246 22.7964 32.1488 22.8905C33.4243 22.9637 34.8566 22.7755 35.463 22.4618C36.038 22.1796 36.3098 21.6464 36.3621 20.7054C36.4144 19.8168 36.1426 19.1686 35.5257 18.7608C35.1703 18.5308 34.9716 18.489 34.2084 18.4576C33.7066 18.4472 33.1629 18.4786 32.9852 18.5517ZM34.6893 20.12C34.7625 20.1931 34.8148 20.4232 34.8148 20.6427C34.8148 21.1759 34.6266 21.2595 33.1734 21.3223C32.0129 21.385 31.9711 21.3745 32.0756 21.1864C32.2115 20.9354 32.5566 20.6218 33.0898 20.2663C33.4034 20.0677 33.6334 19.9945 34.0307 19.9945C34.3234 19.9945 34.6162 20.0468 34.6893 20.12Z"
        fill="black" />
    <path
        d="M20.1881 20.5796C19.8222 21.0501 19.9372 21.5519 20.46 21.7505C20.6168 21.8133 22.3627 22.2001 24.3282 22.6183C27.3392 23.256 27.956 23.3501 28.1756 23.256C28.6774 23.026 28.7506 22.221 28.2906 21.9283C28.0501 21.7714 21.1918 20.3078 20.7109 20.3078C20.5018 20.3078 20.3345 20.4019 20.1881 20.5796Z"
        fill="black" />
</svg>
    