<svg width="53" height="34" viewBox="0 0 53 34" fill="none" xmlns="http://www.w3.org/2000/svg">
    <path
        d="M43.4532 33.4295H8.53133C7.02071 33.4367 5.55284 32.9283 4.3701 31.9883C3.18783 31.0483 2.36162 29.7333 2.02788 28.2597L0.151721 20.1003C-0.255703 18.3279 0.167428 16.466 1.30068 15.0433C2.43393 13.6207 4.15403 12.7925 5.97268 12.793H46.2727C48.1228 12.7934 49.8681 13.6516 50.998 15.1161C52.1284 16.5806 52.5158 18.4868 52.047 20.2764L49.8976 28.4557C49.5235 29.8802 48.6886 31.1406 47.523 32.0401C46.3574 32.9397 44.9263 33.4285 43.4537 33.4294L43.4532 33.4295ZM5.9726 13.8589C4.47903 13.8593 3.06734 14.5404 2.13693 15.709C1.20692 16.8774 0.860003 18.4057 1.19406 19.8612L3.07266 28.0152C3.35158 29.2532 4.04457 30.3588 5.03692 31.1495C6.02976 31.94 7.26253 32.3684 8.53142 32.3631H43.4533C44.6907 32.3622 45.893 31.9519 46.8725 31.1961C47.852 30.4403 48.554 29.3812 48.8682 28.1847L51.0142 20.0054H51.0147C51.3992 18.5352 51.0808 16.9698 50.1523 15.7666C49.2237 14.5638 47.7901 13.859 46.2704 13.859L5.9726 13.8589Z"
        fill="black" />
    <path
        d="M43.4527 29.8155H8.53085C7.83976 29.8183 7.16863 29.5851 6.62849 29.1544C6.08828 28.7241 5.71085 28.1216 5.5595 27.4476L3.68188 19.2907C3.52291 18.5925 3.68997 17.8595 4.13642 17.2993C4.58287 16.7391 5.26015 16.4126 5.97651 16.4121H46.2717C47.0013 16.4116 47.6901 16.7496 48.136 17.3274C48.582 17.9052 48.7343 18.6572 48.5492 19.363L46.405 27.5423C46.2327 28.1944 45.85 28.7708 45.316 29.1815C44.7819 29.5927 44.1266 29.8159 43.4526 29.8155L43.4527 29.8155ZM5.97211 17.4751C5.57992 17.4751 5.20916 17.6536 4.96452 17.9606C4.72036 18.2671 4.62897 18.6688 4.71751 19.051L6.59513 27.2088H6.59465C6.69317 27.6481 6.93877 28.0403 7.29097 28.3207C7.64317 28.601 8.08058 28.7523 8.53086 28.7495H43.4527C43.8915 28.749 44.3175 28.6038 44.6645 28.3359C45.0114 28.0679 45.2604 27.6929 45.3718 27.2688L47.5145 19.0895L47.515 19.089C47.6159 18.7035 47.5326 18.2932 47.2894 17.9772C47.0462 17.6612 46.6706 17.476 46.2718 17.4751L5.97211 17.4751Z"
        fill="black" />
    <path
        d="M28.4462 13.8613C28.152 13.8613 27.9131 13.6229 27.9131 13.3283V4.72057C27.9131 4.42595 28.152 4.1875 28.4462 4.1875C28.7408 4.1875 28.9792 4.42595 28.9792 4.72057V13.3286V13.3282C28.9792 13.6228 28.7408 13.8612 28.4462 13.8612V13.8613Z"
        fill="black" />
    <path
        d="M23.7967 13.8613C23.5021 13.8613 23.2637 13.6229 23.2637 13.3283V4.72057C23.2637 4.42595 23.5021 4.1875 23.7967 4.1875C24.0909 4.1875 24.3298 4.42595 24.3298 4.72057V13.3286V13.3282C24.3298 13.6228 24.0909 13.8612 23.7967 13.8612V13.8613Z"
        fill="black" />
    <path
        d="M31.5869 5.25211H20.6571C20.3625 5.25211 20.124 5.01318 20.124 4.71904V0.53307C20.124 0.238925 20.3625 0 20.6571 0C20.9512 0 21.1902 0.238925 21.1902 0.53307V4.1856H31.0538V0.53307C31.0538 0.238925 31.2928 0 31.5869 0C31.8815 0 32.12 0.238925 32.12 0.53307V4.71904C32.12 4.8604 32.0638 4.99556 31.9639 5.09551C31.8639 5.19594 31.7283 5.25211 31.5869 5.25211Z"
        fill="black" />
    <path
        d="M37.7702 1.06614H14.4735C14.1789 1.06614 13.9404 0.82769 13.9404 0.53307C13.9404 0.238925 14.1789 0 14.4735 0H37.7702C38.0648 0 38.3032 0.238925 38.3032 0.53307C38.3032 0.82769 38.0648 1.06614 37.7702 1.06614Z"
        fill="black" />
</svg>
    