<svg id="Group_19416" data-name="Group 19416" xmlns="http://www.w3.org/2000/svg" width="17.204" height="17.204" viewBox="0 0 17.204 17.204">
  <path id="Path_32361" data-name="Path 32361" d="M0,0H17.2V17.2H0Z" fill="none"/>
  <path id="Path_32362" data-name="Path 32362" d="M13.375,4.546l1.031-1.037,1,1.009L14.378,5.555a6.45,6.45,0,0,1-.732,8.8,6.361,6.361,0,0,1-8.775-.246,6.451,6.451,0,0,1-.244-8.825,6.362,6.362,0,0,1,8.748-.736ZM9.388,14.562a5,5,0,1,0-4.968-5,4.982,4.982,0,0,0,4.968,5ZM8.678,6H10.1v4.283H8.678ZM6.549,1h5.678V2.428H6.549Z" transform="translate(-0.786 -0.262)" fill="#ef7641"/>
</svg>
