<svg width="33" height="31" viewBox="0 0 33 31" fill="none" xmlns="http://www.w3.org/2000/svg">
    <path
        d="M16.0972 0.0322533C12.7951 0.331291 9.7665 1.59108 7.31692 3.69071C4.81644 5.83489 3.06674 8.76166 2.37323 11.962C2.29051 12.3438 2.21416 12.6492 2.19508 12.6492C2.17599 12.6428 2.06146 12.4965 1.94057 12.3183C1.61609 11.8411 1.43157 11.7266 0.986194 11.7266C0.369027 11.7266 0 12.0956 0 12.7064V13.0755L1.11344 14.7424C1.72425 15.665 2.30324 16.4794 2.39868 16.5685C2.615 16.7466 2.93313 16.8166 3.26398 16.753C3.46758 16.7148 3.71572 16.4985 5.00732 15.2069C6.62977 13.5781 6.66158 13.5399 6.55342 12.9864C6.49615 12.6746 6.1144 12.2929 5.80264 12.2356C5.36362 12.1529 5.13457 12.242 4.66374 12.6937C4.40288 12.9482 4.23109 13.0755 4.23109 13.0182C4.23109 12.7955 4.67647 11.1794 4.89916 10.5813C6.87154 5.30044 12.1461 1.8074 17.7833 2.04282C24.4258 2.32913 29.7067 7.29191 30.4448 13.9535C30.6356 15.6714 30.4002 17.6947 29.8149 19.4571C28.1606 24.4008 23.7832 27.8875 18.5532 28.4219C14.1185 28.88 9.93192 27.1367 7.18967 23.6882C6.86518 23.2873 6.6234 23.0392 6.48343 22.9819C5.71356 22.6638 4.93097 23.3064 5.08367 24.1272C5.16638 24.5535 6.43889 26.0423 7.5078 26.9649C9.04117 28.2756 10.6763 29.2045 12.5215 29.7962C13.9594 30.267 15.0347 30.4516 16.6062 30.5088C20.0166 30.6297 23.1724 29.7262 25.9083 27.8429C28.2815 26.2141 30.1584 23.9363 31.2655 21.3531C32.7862 17.8092 32.9516 14.0553 31.7427 10.4286C29.8212 4.66418 24.7121 0.617607 18.6422 0.0513401C17.9869 -0.00592232 16.6635 -0.0186481 16.0972 0.0322533Z"
        fill="black" />
    <path
        d="M16.352 5.67577C16.1166 5.78393 15.9066 6.00662 15.8175 6.24204C15.7666 6.36293 15.7476 7.96629 15.7476 11.1857C15.7476 15.3914 15.7603 15.9831 15.8494 16.2058C15.9384 16.4285 16.3202 16.7339 19.2024 18.8971L22.4473 21.334H22.8163C23.2299 21.334 23.4399 21.2195 23.688 20.8568C23.8662 20.5896 23.8789 20.1442 23.7007 19.8579C23.5608 19.6225 23.6689 19.7115 20.3286 17.1792L17.8154 15.2768L17.7836 10.7531C17.7518 6.31203 17.7518 6.22931 17.6181 6.05752C17.5482 5.96209 17.4145 5.82211 17.3255 5.75848C17.1091 5.59942 16.6065 5.55488 16.352 5.67577Z"
        fill="black" />
</svg>
    