<svg xmlns="http://www.w3.org/2000/svg" width="18.996" height="19.018" viewBox="0 0 18.996 19.018">
  <g id="time" transform="translate(-21.311 490.589)">
    <path id="Path_33419" data-name="Path 33419" d="M30.056-490.565a9.569,9.569,0,0,0-4.947,1.877,11.971,11.971,0,0,0-1.893,1.893,9.455,9.455,0,0,0-1.881,5.085c-.044.623-.032.785.085,1.015a.864.864,0,0,0,1.553-.089,1.286,1.286,0,0,0,.065-.417,7.86,7.86,0,0,1,.785-3.24,7.635,7.635,0,0,1,3.633-3.616,7.709,7.709,0,0,1,4.988-.591,8.022,8.022,0,0,1,3.143,1.468,7.92,7.92,0,0,1,2.739,4.2,6.3,6.3,0,0,1,.222,1.922,7.022,7.022,0,0,1-.748,3.349,7.75,7.75,0,0,1-5.081,4.175,6.767,6.767,0,0,1-2.035.222,9.6,9.6,0,0,0-1.072.04.884.884,0,0,0-.506,1.023,1.093,1.093,0,0,0,.457.562,8.073,8.073,0,0,0,2.82-.012,9.524,9.524,0,0,0,6.359-4.142A10.02,10.02,0,0,0,40.084-479a10.235,10.235,0,0,0,.125-3.519,9.777,9.777,0,0,0-.951-2.909,9.567,9.567,0,0,0-6.06-4.862A10.532,10.532,0,0,0,30.056-490.565Z" fill="#fff"/>
    <path id="Path_33420" data-name="Path 33420" d="M235.925-404.805a1.142,1.142,0,0,0-.3.271l-.121.174v5.8l.1.15a1.227,1.227,0,0,0,.259.263l.158.109h4.065l.178-.121a.862.862,0,0,0,.138-1.307c-.2-.227-.214-.231-1.764-.251l-1.436-.02-.02-2.31-.02-2.31-.109-.158a.785.785,0,0,0-.676-.372A.7.7,0,0,0,235.925-404.805Z" transform="translate(-205.525 -82.233)" fill="#fff"/>
    <path id="Path_33421" data-name="Path 33421" d="M107.526-255.928a.959.959,0,0,0-.449.429c-.073.142-.077.263-.077,2.1s0,1.954.077,2.1a.85.85,0,0,0,1.545-.012,7.484,7.484,0,0,0,.077-2.1c0-1.824,0-1.942-.077-2.083A.867.867,0,0,0,107.526-255.928Z" transform="translate(-82.223 -225.107)" fill="#fff"/>
    <path id="Path_33422" data-name="Path 33422" d="M97.04-84.785a1.639,1.639,0,0,0-.651.477,1.293,1.293,0,0,0,1.04,2.047,1.338,1.338,0,0,0,1.177-.752,1.4,1.4,0,0,0-.016-1.092,1.378,1.378,0,0,0-.6-.6A1.787,1.787,0,0,0,97.04-84.785Z" transform="translate(-71.802 -389.356)" fill="#fff"/>
  </g>
</svg>
