<svg id="Group_5907" data-name="Group 5907" xmlns="http://www.w3.org/2000/svg" width="16" height="16" viewBox="0 0 16 16">
  <path id="Path_19936" data-name="Path 19936" d="M0,0H16V16H0Z" fill="none"/>
  <path id="Path_19937" data-name="Path 19937" d="M5.111,3.489V1.622A.622.622,0,0,1,5.733,1h4.978a.622.622,0,0,1,.622.622V3.489h2.489a.622.622,0,0,1,.622.622v8.711a.622.622,0,0,1-.622.622H2.622A.622.622,0,0,1,2,12.822V4.111a.622.622,0,0,1,.622-.622ZM3.244,10.333V12.2H13.2V10.333Zm0-1.244H13.2V4.733H3.244ZM6.356,2.244V3.489h3.733V2.244ZM7.6,7.222H8.844V8.467H7.6Z" transform="translate(-0.222 -0.111)"/>
</svg>
