<svg width="21" height="20" viewBox="0 0 21 20" fill="none" xmlns="http://www.w3.org/2000/svg">
    <path
        d="M10.0148 20C8.04205 20.0017 6.11336 19.417 4.47376 18.32L1.62676 19.24C1.53811 19.2666 1.4439 19.2685 1.35424 19.2456C1.26457 19.2227 1.18283 19.1758 1.11776 19.11C1.05261 19.0444 1.00726 18.9617 0.986919 18.8715C0.966579 18.7813 0.972071 18.6872 1.00276 18.6L1.90276 15.86C0.824044 14.3684 0.177983 12.6079 0.0357559 10.7726C-0.106471 8.9373 0.260655 7.09834 1.09669 5.45833C1.93273 3.81831 3.20522 2.44089 4.774 1.4778C6.34278 0.51471 8.14695 0.00333163 9.98776 0L10.0158 0C12.6679 0 15.2115 1.05357 17.0868 2.92893C18.9622 4.8043 20.0158 7.34784 20.0158 10C20.0158 12.6522 18.9622 15.1957 17.0868 17.0711C15.2115 18.9464 12.6679 20 10.0158 20H10.0148ZM6.09276 4.58C5.73684 4.58046 5.39281 4.70814 5.12276 4.94C4.79312 5.25294 4.53355 5.63221 4.36118 6.05279C4.18881 6.47338 4.10755 6.92572 4.12276 7.38C4.2202 8.47387 4.63288 9.51599 5.31076 10.38C6.54416 12.2737 8.27082 13.795 10.3048 14.78C11.2218 15.2265 12.2121 15.5033 13.2278 15.597C13.4206 15.5962 13.6128 15.5741 13.8008 15.531C14.2193 15.4631 14.6168 15.3009 14.9633 15.0566C15.3098 14.8123 15.5962 14.4924 15.8008 14.121C15.9514 13.6798 15.9756 13.2053 15.8708 12.751C15.8068 12.64 15.6378 12.562 15.3828 12.444L15.3118 12.411C15.2348 12.375 15.0828 12.301 14.8948 12.211C14.3428 11.942 13.5148 11.539 13.3148 11.472C13.19 11.4121 13.0475 11.4006 12.9148 11.4395C12.782 11.4785 12.6684 11.5652 12.5958 11.683C12.3573 12.0323 12.0971 12.3663 11.8168 12.683C11.7254 12.7709 11.6093 12.8286 11.4841 12.8483C11.3589 12.868 11.2306 12.8487 11.1168 12.793C10.2493 12.4635 9.45268 11.9713 8.76976 11.343C8.13671 10.7579 7.59172 10.0843 7.15176 9.343C7.08874 9.24218 7.06609 9.12129 7.08834 9.00449C7.11058 8.88769 7.17609 8.78359 7.27176 8.713C7.34776 8.613 7.42676 8.532 7.50376 8.451C7.58076 8.37 7.63677 8.311 7.70376 8.233C7.83716 8.09788 7.94852 7.94266 8.03376 7.773C8.07102 7.68594 8.08597 7.59096 8.07724 7.49666C8.06851 7.40236 8.03638 7.31174 7.98376 7.233C7.91276 7.07 7.29476 5.564 7.09576 5.073C6.89676 4.582 6.74876 4.583 6.45576 4.583H6.09276V4.58Z"
        fill="#25D366" />
</svg>
    