<svg width="42" height="30" viewBox="0 0 42 30" fill="none" xmlns="http://www.w3.org/2000/svg">
    <rect x="0.5" y="1.5" width="41" height="27" fill="#F2F2F2" stroke="black" />
    <path
        d="M11.1306 18.728H6.47456L5.67456 21H3.77056L7.75456 9.864H9.86656L13.8506 21H11.9306L11.1306 18.728ZM10.6186 17.24L8.81056 12.072L6.98656 17.24H10.6186ZM23.9628 9.88V21H22.1388V16.136H16.9068V21H15.0828V9.88H16.9068V14.648H22.1388V9.88H23.9628ZM37.5761 9.88V21H35.7521V13.384L32.3601 21H31.0961L27.6881 13.384V21H25.8641V9.88H27.8321L31.7361 18.6L35.6241 9.88H37.5761Z"
        fill="black" />
</svg>
    