<svg xmlns="http://www.w3.org/2000/svg" width="22.661" height="21.354" viewBox="0 0 22.661 21.354">
    <g id="noun-certificate-1105235" transform="translate(-131.602 -74.48)">
        <path id="Path_33523" data-name="Path 33523"
            d="M151.5,74.48H137.848a2.777,2.777,0,0,0-2.76,2.76v15.4h-3.051a.447.447,0,0,0-.436.436,2.777,2.777,0,0,0,2.76,2.76h12.493a2.777,2.777,0,0,0,2.76-2.76v-15.4h4.213a.447.447,0,0,0,.436-.436,2.759,2.759,0,0,0-2.76-2.76ZM134.362,94.934a1.87,1.87,0,0,1-1.83-1.453h11.3a2.767,2.767,0,0,0,.726,1.453Zm14.381-1.888a1.885,1.885,0,0,1-1.888,1.888h-.291a1.885,1.885,0,0,1-1.888-1.888.447.447,0,0,0-.436-.436h-8.28v-15.4a1.885,1.885,0,0,1,1.888-1.888H149.5a2.831,2.831,0,0,0-.755,1.917Zm.93-16.241a1.88,1.88,0,0,1,3.661,0Zm-3.167,2.789a.447.447,0,0,1-.436.436h-7.932a.436.436,0,0,1,0-.871h7.932A.427.427,0,0,1,146.506,79.593Zm-2.034,3.545a.447.447,0,0,1-.436.436h-5.9a.436.436,0,1,1,0-.871h5.9A.411.411,0,0,1,144.472,83.138Zm2.034,0a.447.447,0,0,1-.436.436h-.378a.436.436,0,0,1,0-.871h.378A.412.412,0,0,1,146.506,83.138Zm-2.034,2.905a.447.447,0,0,1-.436.436h-5.9a.436.436,0,1,1,0-.871h5.9A.411.411,0,0,1,144.472,86.043Zm2.034,0a.447.447,0,0,1-.436.436h-.378a.436.436,0,0,1,0-.871h.378A.412.412,0,0,1,146.506,86.043Zm-2.034,2.905a.447.447,0,0,1-.436.436h-5.9a.436.436,0,1,1,0-.871h5.9A.411.411,0,0,1,144.472,88.949Zm2.034,0a.447.447,0,0,1-.436.436h-.378a.436.436,0,0,1,0-.871h.378A.412.412,0,0,1,146.506,88.949Z"
            fill="#3a5c79" />
    </g>
</svg>
  