<svg width="48" height="23" viewBox="0 0 48 23" fill="none" xmlns="http://www.w3.org/2000/svg">
    <path fill-rule="evenodd" clip-rule="evenodd"
        d="M7.48818 5.68403C5.71585 7.08994 2.67268 11.8672 1.04487 15.7871C0.57708 16.9038 0.253323 18.0753 0.0817719 19.2736C-0.0338898 19.7182 -0.026577 20.1856 0.101978 20.6267C0.230968 21.0674 0.476894 21.4651 0.813992 21.7777C1.14076 21.9974 1.52729 22.1118 1.9215 22.1049C3.63571 22.1049 17.1 21.4982 27.9924 20.5446C34.262 19.9955 39.7136 19.3313 41.6684 18.6184C44.105 17.7129 45.7039 15.594 46.686 12.9937V12.9941C47.809 9.61597 48.2188 6.04127 47.8899 2.49629V2.11105L47.5335 1.95713C47.5335 1.95713 38.4708 -0.93217 31.9598 0.310394C30.544 0.570519 28.6466 0.99402 26.7879 1.43728C24.2263 2.04394 21.693 2.69877 20.5759 3.01698V3.01655C19.0453 3.3717 17.4759 3.53336 15.9048 3.4981C13.0155 3.55572 10.1262 3.61376 7.5353 5.69386L7.48818 5.68403ZM2.08535 16.2107C3.61684 12.4451 6.53498 7.87979 8.19163 6.57966C10.5031 4.7403 13.2092 4.65346 15.8964 4.65346L15.896 4.65389C17.5617 4.69087 19.2251 4.5163 20.8466 4.13364C21.9348 3.82536 24.4488 3.17054 27.0199 2.57331C28.9461 2.13046 30.7953 1.70652 32.1437 1.45633C37.614 0.445074 45.069 2.41943 46.8213 2.96845H46.8209C47.066 6.2245 46.6532 9.49651 45.6076 12.5895C44.7314 14.901 43.3444 16.779 41.2448 17.5495C39.3861 18.2335 34.0504 18.869 27.8385 19.4181C16.9554 20.3812 3.56833 20.9978 1.83475 20.9784C1.67222 20.9883 1.51099 20.9479 1.37254 20.8628C1.05179 20.447 0.951187 19.9018 1.10296 19.3987C1.29429 18.2989 1.6245 17.2279 2.08499 16.211L2.08535 16.2107Z"
        fill="black" />
    <path fill-rule="evenodd" clip-rule="evenodd"
        d="M39.8288 18.7152C39.8288 18.7152 42.4197 5.38589 36.1402 0.136719L35.4179 1.00351C41.1965 5.81901 38.7212 18.4835 38.7118 18.522L39.8288 18.7152Z"
        fill="black" />
    <path fill-rule="evenodd" clip-rule="evenodd"
        d="M29.8691 2.6603C27.7911 2.66417 25.7996 3.49226 24.3313 4.96227C22.8626 6.43224 22.0371 8.4247 22.0354 10.5027C22.0337 12.5807 22.8558 14.5748 24.3219 16.0474C26.1754 17.8919 28.827 18.6908 31.3908 18.1774C33.9551 17.6636 36.0945 15.9055 37.095 13.4896C38.0955 11.0737 37.8251 8.31771 36.3748 6.14166C34.9241 3.96604 32.4841 2.65644 29.8692 2.65039L29.8691 2.6603ZM25.1211 5.76159C26.3826 4.48975 28.0981 3.77265 29.8893 3.76792C31.6804 3.76319 33.3999 4.47132 34.6678 5.73627C35.9361 7.00074 36.649 8.71847 36.649 10.5096C36.649 12.3008 35.9361 14.0181 34.6678 15.283C33.3998 16.5479 31.6804 17.2561 29.8893 17.2513C28.0981 17.2466 26.3826 16.529 25.1211 15.2576C23.8656 13.9944 23.1609 12.2858 23.1609 10.5049C23.1609 8.72354 23.8656 7.01494 25.1211 5.75168V5.76159Z"
        fill="black" />
    <path fill-rule="evenodd" clip-rule="evenodd"
        d="M13.304 6.60946C11.3184 6.60731 9.44506 7.52956 8.23518 9.10405C7.02531 10.6786 6.61641 12.726 7.12932 14.6445C7.64227 16.5625 9.01854 18.1331 10.8527 18.8933C12.6874 19.6539 14.7709 19.5176 16.4903 18.5249C18.2102 17.5321 19.3702 15.7959 19.629 13.8271C19.8879 11.8583 19.2163 9.88139 17.8116 8.47757C16.6171 7.28014 14.9954 6.60773 13.304 6.60938V6.60946ZM9.59596 9.23867C10.7526 8.09065 12.3765 7.5446 13.9914 7.76088C15.6064 7.97715 17.0296 8.93168 17.8425 10.3436C18.656 11.7556 18.7674 13.4651 18.1444 14.9708C17.5213 16.4761 16.2341 17.6073 14.6609 18.0313C13.0877 18.4556 11.4066 18.125 10.1111 17.137C8.8156 16.1485 8.05249 14.6144 8.04556 12.9853C8.03868 11.5789 8.59762 10.2288 9.59599 9.23867H9.59596Z"
        fill="black" />
    <path fill-rule="evenodd" clip-rule="evenodd"
        d="M29.8694 4.63491C28.3165 4.63448 26.8266 5.25104 25.7281 6.34912C24.6265 7.44766 24.0074 8.93958 24.0074 10.4952C24.0074 12.0512 24.6265 13.5428 25.7281 14.6412C27.2097 16.1281 29.3711 16.7111 31.3992 16.1714C33.4273 15.6318 35.0129 14.0513 35.5599 12.0254C36.1063 9.99943 35.5306 7.83548 34.0494 6.34912C32.95 5.24502 31.4563 4.62456 29.8986 4.625L29.8694 4.63491ZM26.518 7.14843C27.4084 6.24725 28.6221 5.74033 29.8888 5.74033C31.1555 5.74033 32.3696 6.24725 33.2597 7.14843C34.4639 8.3527 34.9343 10.1083 34.4936 11.7533C34.0529 13.3982 32.7678 14.6834 31.1228 15.1241C29.4778 15.5648 27.7222 15.0944 26.518 13.8901C25.6168 13.0001 25.1098 11.786 25.1098 10.5193C25.1098 9.25261 25.6168 8.03889 26.518 7.14843Z"
        fill="black" />
    <path fill-rule="evenodd" clip-rule="evenodd"
        d="M13.3041 8.67969C12.1626 8.68012 11.0679 9.13372 10.2609 9.94118C9.45086 10.7491 8.99599 11.8459 8.99599 12.9895C8.99599 14.1331 9.45089 15.23 10.2609 16.0374C11.0688 16.8475 12.1652 17.3028 13.3093 17.3028C14.453 17.3028 15.5497 16.8475 16.3572 16.0374C17.1672 15.23 17.6221 14.1331 17.6221 12.9895C17.6221 11.8459 17.1672 10.7491 16.3572 9.94118C15.5501 9.13373 14.4555 8.68013 13.314 8.67969H13.3041ZM11.0601 10.7409V10.7405C11.8637 9.93735 13.0345 9.62354 14.1321 9.91757C15.2297 10.2116 16.0867 11.069 16.3808 12.1663C16.6749 13.264 16.3615 14.4351 15.5579 15.2383C14.7543 16.0419 13.5835 16.3557 12.4859 16.0617C11.3886 15.7676 10.5313 14.9102 10.2372 13.8125C9.94308 12.7153 10.2569 11.5441 11.0601 10.7405V10.7409Z"
        fill="black" />
</svg>
    