<svg width="48" height="23" viewBox="0 0 48 23" fill="none" xmlns="http://www.w3.org/2000/svg">
    <path fill-rule="evenodd" clip-rule="evenodd"
        d="M40.5118 5.68403C42.2841 7.08994 45.3273 11.8672 46.9551 15.7871C47.4229 16.9038 47.7467 18.0753 47.9182 19.2736C48.0339 19.7182 48.0266 20.1856 47.898 20.6267C47.769 21.0674 47.5231 21.4651 47.186 21.7777C46.8592 21.9974 46.4727 22.1118 46.0785 22.1049C44.3643 22.1049 30.9 21.4982 20.0076 20.5446C13.738 19.9955 8.28644 19.3313 6.33162 18.6184C3.89504 17.7129 2.29607 15.594 1.31404 12.9937V12.9941C0.191007 9.61597 -0.218779 6.04127 0.110106 2.49629V2.11105L0.466543 1.95713C0.466543 1.95713 9.52915 -0.93217 16.0402 0.310394C17.456 0.570519 19.3534 0.99402 21.2121 1.43728C23.7737 2.04394 26.307 2.69877 27.4241 3.01698V3.01655C28.9547 3.3717 30.5241 3.53336 32.0952 3.4981C34.9845 3.55572 37.8738 3.61376 40.4647 5.69386L40.5118 5.68403ZM45.9146 16.2107C44.3832 12.4451 41.465 7.87979 39.8084 6.57966C37.4969 4.7403 34.7908 4.65346 32.1036 4.65346L32.104 4.65389C30.4383 4.69087 28.7749 4.5163 27.1534 4.13364C26.0652 3.82536 23.5512 3.17054 20.9801 2.57331C19.0539 2.13046 17.2047 1.70652 15.8563 1.45633C10.386 0.445074 2.93098 2.41943 1.17869 2.96845H1.17912C0.934036 6.2245 1.34679 9.49651 2.3924 12.5895C3.26865 14.901 4.65563 16.779 6.75519 17.5495C8.61392 18.2335 13.9496 18.869 20.1615 19.4181C31.0446 20.3812 44.4317 20.9978 46.1653 20.9784C46.3278 20.9883 46.489 20.9479 46.6275 20.8628C46.9482 20.447 47.0488 19.9018 46.897 19.3987C46.7057 18.2989 46.3755 17.2279 45.915 16.211L45.9146 16.2107Z"
        fill="black" />
    <path fill-rule="evenodd" clip-rule="evenodd"
        d="M8.1712 18.7152C8.1712 18.7152 5.58029 5.38589 11.8598 0.136719L12.5821 1.00351C6.80354 5.81901 9.27876 18.4835 9.28823 18.522L8.1712 18.7152Z"
        fill="black" />
    <path fill-rule="evenodd" clip-rule="evenodd"
        d="M18.1309 2.6603C20.2089 2.66417 22.2004 3.49226 23.6687 4.96227C25.1374 6.43224 25.9629 8.4247 25.9646 10.5027C25.9663 12.5807 25.1442 14.5748 23.6781 16.0474C21.8246 17.8919 19.173 18.6908 16.6092 18.1774C14.0449 17.6636 11.9055 15.9055 10.905 13.4896C9.90446 11.0737 10.1749 8.31771 11.6252 6.14166C13.0759 3.96604 15.5159 2.65644 18.1308 2.65039L18.1309 2.6603ZM22.8789 5.76159C21.6174 4.48975 19.9019 3.77265 18.1107 3.76792C16.3196 3.76319 14.6001 4.47132 13.3322 5.73627C12.0639 7.00074 11.351 8.71847 11.351 10.5096C11.351 12.3008 12.0639 14.0181 13.3322 15.283C14.6002 16.5479 16.3196 17.2561 18.1107 17.2513C19.9019 17.2466 21.6174 16.529 22.8789 15.2576C24.1344 13.9944 24.8391 12.2858 24.8391 10.5049C24.8391 8.72354 24.1344 7.01494 22.8789 5.75168V5.76159Z"
        fill="black" />
    <path fill-rule="evenodd" clip-rule="evenodd"
        d="M34.696 6.60946C36.6816 6.60731 38.5549 7.52956 39.7648 9.10405C40.9747 10.6786 41.3836 12.726 40.8707 14.6445C40.3577 16.5625 38.9815 18.1331 37.1473 18.8933C35.3126 19.6539 33.2291 19.5176 31.5097 18.5249C29.7898 17.5321 28.6298 15.7959 28.371 13.8271C28.1121 11.8583 28.7837 9.88139 30.1884 8.47757C31.3829 7.28014 33.0046 6.60773 34.696 6.60938V6.60946ZM38.404 9.23867C37.2474 8.09065 35.6235 7.5446 34.0086 7.76088C32.3936 7.97715 30.9704 8.93168 30.1575 10.3436C29.344 11.7556 29.2326 13.4651 29.8556 14.9708C30.4787 16.4761 31.7659 17.6073 33.3391 18.0313C34.9123 18.4556 36.5934 18.125 37.8889 17.137C39.1844 16.1485 39.9475 14.6144 39.9544 12.9853C39.9613 11.5789 39.4024 10.2288 38.404 9.23867H38.404Z"
        fill="black" />
    <path fill-rule="evenodd" clip-rule="evenodd"
        d="M18.1306 4.63491C19.6835 4.63448 21.1734 5.25104 22.2719 6.34912C23.3735 7.44766 23.9926 8.93958 23.9926 10.4952C23.9926 12.0512 23.3735 13.5428 22.2719 14.6412C20.7903 16.1281 18.6289 16.7111 16.6008 16.1714C14.5727 15.6318 12.9871 14.0513 12.4401 12.0254C11.8937 9.99943 12.4694 7.83548 13.9506 6.34912C15.05 5.24502 16.5437 4.62456 18.1014 4.625L18.1306 4.63491ZM21.482 7.14843C20.5916 6.24725 19.3779 5.74033 18.1112 5.74033C16.8445 5.74033 15.6304 6.24725 14.7403 7.14843C13.5361 8.3527 13.0657 10.1083 13.5064 11.7533C13.9471 13.3982 15.2322 14.6834 16.8772 15.1241C18.5222 15.5648 20.2778 15.0944 21.482 13.8901C22.3832 13.0001 22.8902 11.786 22.8902 10.5193C22.8902 9.25261 22.3832 8.03889 21.482 7.14843Z"
        fill="black" />
    <path fill-rule="evenodd" clip-rule="evenodd"
        d="M34.6959 8.67969C35.8374 8.68012 36.9321 9.13372 37.7391 9.94118C38.5491 10.7491 39.004 11.8459 39.004 12.9895C39.004 14.1331 38.5491 15.23 37.7391 16.0374C36.9312 16.8475 35.8348 17.3028 34.6907 17.3028C33.547 17.3028 32.4503 16.8475 31.6428 16.0374C30.8328 15.23 30.3779 14.1331 30.3779 12.9895C30.3779 11.8459 30.8328 10.7491 31.6428 9.94118C32.4499 9.13373 33.5445 8.68013 34.686 8.67969H34.6959ZM36.9399 10.7409V10.7405C36.1363 9.93735 34.9655 9.62354 33.8679 9.91757C32.7703 10.2116 31.9133 11.069 31.6192 12.1663C31.3251 13.264 31.6385 14.4351 32.4421 15.2383C33.2457 16.0419 34.4165 16.3557 35.5141 16.0617C36.6114 15.7676 37.4687 14.9102 37.7628 13.8125C38.0569 12.7153 37.7431 11.5441 36.9399 10.7405V10.7409Z"
        fill="black" />
</svg>
    