<svg xmlns="http://www.w3.org/2000/svg" width="16.164" height="17.072" viewBox="0 0 16.164 17.072">
  <path id="Path_32305" data-name="Path 32305" d="M6.041,4.414V1.854A.832.832,0,0,1,6.849,1h6.466a.832.832,0,0,1,.808.854V4.414h3.233a.832.832,0,0,1,.808.854V17.219a.832.832,0,0,1-.808.854H2.808A.832.832,0,0,1,2,17.219V5.268a.832.832,0,0,1,.808-.854Zm10.506,6.829H3.616v5.122H16.547Zm0-5.122H3.616V9.536H6.041V7.829H7.657V9.536h4.849V7.829h1.616V9.536h2.425ZM7.657,2.707V4.414h4.849V2.707Z" transform="translate(-2 -1)" fill="#fff"/>
</svg>
