<svg xmlns="http://www.w3.org/2000/svg" width="415" height="359" viewBox="0 0 415 359">
  <g id="logo_" data-name="logo " transform="translate(851 -151)">
    <g id="Group_19571" data-name="Group 19571">
      <rect id="Rectangle_17788" data-name="Rectangle 17788" width="415" height="359" transform="translate(-851 151)" fill="#fff"/>
      <g id="Group_19570" data-name="Group 19570" transform="translate(-1806.338 117.065)">
        <g id="Group_16255" data-name="Group 16255" transform="translate(1006.338 104.935)">
          <g id="Group_6913" data-name="Group 6913" transform="translate(45.444 0)">
            <path id="Path_11788" data-name="Path 11788" d="M113.018,51.15a22.471,22.471,0,0,0-16.309-6.99H49.49V60.023H96.23a7.361,7.361,0,0,1,5.6,2.355,8.057,8.057,0,0,1,2.238,5.728,8.176,8.176,0,0,1-7.832,7.781H49.49V91.769H96.23a7.31,7.31,0,0,1,5.516,2.464,7.979,7.979,0,0,1,2.319,5.652,7.54,7.54,0,0,1-2.319,5.4,7.432,7.432,0,0,1-5.516,2.355H49.49v15.9H96.709a23.822,23.822,0,0,0,23.346-23.183V99.088a22.394,22.394,0,0,0-6.075-15.246,23.969,23.969,0,0,0,6.075-16.513A22.1,22.1,0,0,0,113.018,51.15Z" transform="translate(-49.49 -42.764)"/>
            <path id="Path_11789" data-name="Path 11789" d="M268.559,78.224H233.916V69.96a7.893,7.893,0,0,1,7.833-7.8H280.68L291.905,46.29H241.271a22.572,22.572,0,0,0-16.309,6.91,22.1,22.1,0,0,0-7.033,16.287v33.031a22.158,22.158,0,0,0,7.033,16.2,22.449,22.449,0,0,0,16.309,6.985h27.29a22.489,22.489,0,0,0,16.309-6.962,22.067,22.067,0,0,0,7.038-16.146v-1.262a22.072,22.072,0,0,0-6.957-16.221,22.56,22.56,0,0,0-16.392-6.886Zm5.117,29.16a7.283,7.283,0,0,1-5.6,2.435H241.75a8.2,8.2,0,0,1-7.832-7.781V94.1h34.144a7.614,7.614,0,0,1,5.516,2.28,7.352,7.352,0,0,1,2.319,5.426,8.01,8.01,0,0,1-2.222,5.578Z" transform="translate(-138.201 -43.884)"/>
            <path id="Path_11791" data-name="Path 11791" d="M433.69,124.416a41.6,41.6,0,1,1,41.865-41.6A41.6,41.6,0,0,1,433.69,124.416Zm0-14.191,23.9-13.7V69.112l-23.9-13.706L409.8,69.112V96.525Z" transform="translate(-229.864 -41.218)" fill="#2593f7"/>
          </g>
          <path id="Path_32223" data-name="Path 32223" d="M17.288-27.661h25.28L40.04-19.284H18.428q-4.263,0-6.493,4.759a16.433,16.433,0,0,0-1.388,6.84q0,5.849,2.974,8.972a6.607,6.607,0,0,0,4.907,2.082h24.14L40.04,11.746H17.288A14.687,14.687,0,0,1,4.549,5,22.6,22.6,0,0,1,.633-8.28,21.213,21.213,0,0,1,4.945-21.861,15.142,15.142,0,0,1,17.288-27.661ZM53.671-7.933q0,8.476,6.2,10.856A20.687,20.687,0,0,0,67.3,4.063q10.558,0,12.739-7.237a17.693,17.693,0,0,0,.595-4.759q0-9.666-8.328-11.549a23.148,23.148,0,0,0-5.006-.5q-9.567,0-12.343,5.453A14.927,14.927,0,0,0,53.671-7.933Zm36.879,0q0,11.6-8.972,16.952-6,3.569-14.771,3.569-10.756,0-17.052-5.75-6-5.5-6-14.771,0-10.955,8.129-16.506Q57.934-28.5,66.807-28.5q11.7,0,18.093,6.1Q90.55-17,90.55-7.933ZM125.2-27.661h9.368V11.746H125.2L104.578-14.228V11.746H95.21v-37.87l9.368-2.528L125.2-2.678Zm46.991,0h9.368V11.746h-9.368l-20.62-25.974V11.746H142.2v-37.87l9.368-2.528,20.62,25.974ZM198.56-3.719V3.369h28.75l-2.528,8.377h-35.59V-27.661H227.31l-2.528,8.377H198.56V-12.1H223v8.377Zm48.131-23.942h25.28l-2.528,8.377H247.831q-4.263,0-6.493,4.759a16.433,16.433,0,0,0-1.388,6.84q0,5.849,2.974,8.972a6.608,6.608,0,0,0,4.907,2.082h24.14l-2.528,8.377H246.691A14.687,14.687,0,0,1,233.952,5,22.6,22.6,0,0,1,230.036-8.28a21.213,21.213,0,0,1,4.312-13.582A15.142,15.142,0,0,1,246.691-27.661Zm26.222,8.377v-8.377H314.1l-2.528,8.377H296.854v31.03h-9.418v-31.03Z" transform="translate(-0.633 134.244)"/>
        </g>
        <text id="solo" transform="translate(1089.338 320.7)" fill="#2593f7" font-size="80" font-family="SegoeUI, Segoe UI"><tspan x="0" y="0">solo</tspan></text>
      </g>
    </g>
  </g>
</svg>
