<svg xmlns="http://www.w3.org/2000/svg" width="211.065" height="56.304" viewBox="0 0 211.065 56.304">
  <g id="Group_16263" data-name="Group 16263" transform="translate(-924.726 -174.935)">
    <g id="Group_16255" data-name="Group 16255" transform="translate(924.726 174.935)">
      <g id="Group_6913" data-name="Group 6913" transform="translate(0)">
        <path id="Path_11788" data-name="Path 11788" d="M72.631,46.706A8.185,8.185,0,0,0,66.69,44.16H49.49v5.778H66.515a2.681,2.681,0,0,1,2.038.858,2.935,2.935,0,0,1,.815,2.086,2.978,2.978,0,0,1-2.853,2.834H49.49V61.5H66.515a2.663,2.663,0,0,1,2.009.9,2.906,2.906,0,0,1,.845,2.059,2.747,2.747,0,0,1-.845,1.968,2.707,2.707,0,0,1-2.009.858H49.49v5.792h17.2a8.678,8.678,0,0,0,8.5-8.445v-.463a8.157,8.157,0,0,0-2.213-5.554A8.731,8.731,0,0,0,75.194,52.6,8.049,8.049,0,0,0,72.631,46.706Z" transform="translate(-49.49 -43.652)"/>
        <path id="Path_11789" data-name="Path 11789" d="M236.372,57.922H223.753v-3.01a2.875,2.875,0,0,1,2.853-2.84h14.181l4.089-5.783H226.432a8.222,8.222,0,0,0-5.941,2.517,8.049,8.049,0,0,0-2.562,5.933V66.772a8.071,8.071,0,0,0,2.562,5.9,8.177,8.177,0,0,0,5.941,2.544h9.941a8.192,8.192,0,0,0,5.941-2.536,8.038,8.038,0,0,0,2.564-5.882v-.46a8.04,8.04,0,0,0-2.534-5.909,8.218,8.218,0,0,0-5.971-2.508Zm1.864,10.622a2.653,2.653,0,0,1-2.038.887h-9.591a2.985,2.985,0,0,1-2.853-2.834V63.706h12.437a2.774,2.774,0,0,1,2.009.83,2.678,2.678,0,0,1,.845,1.976,2.918,2.918,0,0,1-.809,2.032Z" transform="translate(-188.888 -45.414)"/>
        <path id="Path_11791" data-name="Path 11791" d="M407.412,71.524a15.153,15.153,0,1,1,15.25-15.152A15.153,15.153,0,0,1,407.412,71.524Zm0-5.169,8.7-4.99V51.379l-8.7-4.993-8.7,4.993v9.985Z" transform="translate(-333.167 -41.218)" fill="#2593f7"/>
      </g>
      <path id="Path_32223" data-name="Path 32223" d="M6.7-28.291h9.208l-.921,3.051H7.115A2.561,2.561,0,0,0,4.75-23.506a5.986,5.986,0,0,0-.506,2.492,4.557,4.557,0,0,0,1.083,3.268,2.407,2.407,0,0,0,1.788.758h8.793l-.921,3.051H6.7a5.35,5.35,0,0,1-4.64-2.456A8.23,8.23,0,0,1,.633-21.231,7.727,7.727,0,0,1,2.2-26.179,5.516,5.516,0,0,1,6.7-28.291ZM19.953-21.1q0,3.088,2.257,3.954a7.536,7.536,0,0,0,2.708.415q3.846,0,4.64-2.636a6.445,6.445,0,0,0,.217-1.733q0-3.521-3.033-4.207a8.432,8.432,0,0,0-1.824-.181q-3.485,0-4.5,1.986A5.437,5.437,0,0,0,19.953-21.1Zm13.434,0a6.662,6.662,0,0,1-3.268,6.175,10.357,10.357,0,0,1-5.381,1.3,8.858,8.858,0,0,1-6.211-2.094A6.946,6.946,0,0,1,16.341-21.1,6.8,6.8,0,0,1,19.3-27.118,9.524,9.524,0,0,1,24.737-28.6a9.172,9.172,0,0,1,6.59,2.221A6.953,6.953,0,0,1,33.386-21.1Zm12.621-7.186H49.42v14.354H46.007L38.5-23.4v9.461H35.083V-27.731l3.413-.921,7.511,9.461Zm17.117,0h3.413v14.354H63.124L55.613-23.4v9.461H52.2V-27.731l3.413-.921,7.511,9.461ZM72.73-19.57v2.582H83.2l-.921,3.051H69.317V-28.291H83.2l-.921,3.051H72.73v2.618h8.9v3.051Zm17.532-8.721h9.208L98.55-25.24H90.677a2.561,2.561,0,0,0-2.365,1.733,5.986,5.986,0,0,0-.506,2.492,4.557,4.557,0,0,0,1.083,3.268,2.407,2.407,0,0,0,1.788.758h8.793l-.921,3.051H90.262a5.35,5.35,0,0,1-4.64-2.456A8.23,8.23,0,0,1,84.2-21.231a7.727,7.727,0,0,1,1.571-4.947A5.516,5.516,0,0,1,90.262-28.291Zm9.552,3.051v-3.051h15L113.9-25.24h-5.363v11.3H105.1v-11.3Z" transform="translate(96.247 40.643)"/>
    </g>
    <text id="solo" transform="translate(984.362 227.239)" fill="#2593f7" font-size="17" font-family="SegoeUI, Segoe UI"><tspan x="0" y="0">solo</tspan></text>
  </g>
</svg>
