<svg width="22" height="22" viewBox="0 0 22 22" fill="none" xmlns="http://www.w3.org/2000/svg">
    <g clip-path="url(#clip0_758_8883)">
        <path
            d="M4.58333 9.16699C3.575 9.16699 2.75 9.99199 2.75 11.0003C2.75 12.0087 3.575 12.8337 4.58333 12.8337C5.59167 12.8337 6.41667 12.0087 6.41667 11.0003C6.41667 9.99199 5.59167 9.16699 4.58333 9.16699ZM17.4167 9.16699C16.4083 9.16699 15.5833 9.99199 15.5833 11.0003C15.5833 12.0087 16.4083 12.8337 17.4167 12.8337C18.425 12.8337 19.25 12.0087 19.25 11.0003C19.25 9.99199 18.425 9.16699 17.4167 9.16699ZM11 9.16699C9.99167 9.16699 9.16667 9.99199 9.16667 11.0003C9.16667 12.0087 9.99167 12.8337 11 12.8337C12.0083 12.8337 12.8333 12.0087 12.8333 11.0003C12.8333 9.99199 12.0083 9.16699 11 9.16699Z"
            fill="#828282" />
    </g>
    <defs>
        <clipPath id="clip0_758_8883">
            <rect width="22" height="22" fill="white" />
        </clipPath>
    </defs>
</svg>
    