<svg width="22" height="22" viewBox="0 0 22 22" fill="none" xmlns="http://www.w3.org/2000/svg">
<g clip-path="url(#clip0_758_9047)">
<path d="M17.4167 18.3337H4.58333V19.2503C4.58333 19.4934 4.48676 19.7266 4.31485 19.8985C4.14294 20.0704 3.90978 20.167 3.66667 20.167H2.75C2.50688 20.167 2.27373 20.0704 2.10182 19.8985C1.92991 19.7266 1.83333 19.4934 1.83333 19.2503V12.3753L0.693917 12.0912C0.495691 12.0415 0.319741 11.927 0.194017 11.7659C0.0682936 11.6048 5.37206e-06 11.4063 0 11.202L0 10.542C0 10.4204 0.0482886 10.3039 0.134243 10.2179C0.220197 10.1319 0.336776 10.0837 0.458333 10.0837H1.83333L4.10667 4.77799C4.24813 4.44799 4.48338 4.16679 4.78322 3.96929C5.08306 3.77179 5.43429 3.66667 5.79333 3.66699H16.2067C16.5654 3.66703 16.9162 3.77231 17.2157 3.9698C17.5152 4.16728 17.7502 4.44828 17.8915 4.77799L20.1667 10.0837H21.5417C21.6632 10.0837 21.7798 10.1319 21.8658 10.2179C21.9517 10.3039 22 10.4204 22 10.542V11.202C22 11.4063 21.9317 11.6048 21.806 11.7659C21.6803 11.927 21.5043 12.0415 21.3061 12.0912L20.1667 12.3753V19.2503C20.1667 19.4934 20.0701 19.7266 19.8982 19.8985C19.7263 20.0704 19.4931 20.167 19.25 20.167H18.3333C18.0902 20.167 17.8571 20.0704 17.6852 19.8985C17.5132 19.7266 17.4167 19.4934 17.4167 19.2503V18.3337ZM18.3333 16.5003V11.917H3.66667V16.5003H18.3333ZM5.02058 10.0837H16.9794C17.1291 10.0836 17.2766 10.0468 17.4088 9.97658C17.541 9.90635 17.654 9.80481 17.738 9.68082C17.8219 9.55684 17.8742 9.41418 17.8902 9.26532C17.9063 9.11647 17.8856 8.96594 17.8301 8.82691L16.5 5.50033H5.5L4.16992 8.82691C4.11437 8.96594 4.09373 9.11647 4.10979 9.26532C4.12585 9.41418 4.17812 9.55684 4.26205 9.68082C4.34597 9.80481 4.45899 9.90635 4.59122 9.97658C4.72345 10.0468 4.87086 10.0836 5.02058 10.0837V10.0837ZM4.58333 12.8337C6.70725 12.8337 8.13908 13.5257 8.87883 14.909C8.91623 14.9788 8.93488 15.0572 8.93297 15.1364C8.93106 15.2156 8.90865 15.2929 8.86793 15.3609C8.82721 15.4289 8.76957 15.4851 8.70063 15.5241C8.63169 15.5632 8.55381 15.5837 8.47458 15.5837H5.5C5.25688 15.5837 5.02373 15.4871 4.85182 15.3152C4.67991 15.1433 4.58333 14.9101 4.58333 14.667V12.8337ZM17.4167 12.8337V14.667C17.4167 14.9101 17.3201 15.1433 17.1482 15.3152C16.9763 15.4871 16.7431 15.5837 16.5 15.5837H13.5254C13.4463 15.5835 13.3685 15.5629 13.2997 15.5238C13.2309 15.4847 13.1734 15.4284 13.1328 15.3605C13.0921 15.2926 13.0698 15.2153 13.0679 15.1362C13.0661 15.057 13.0847 14.9788 13.1221 14.909C13.86 13.5248 15.2918 12.8337 17.4167 12.8337Z" fill="#828282"/>
</g>
<defs>
<clipPath id="clip0_758_9047">
<rect width="22" height="22" fill="white"/>
</clipPath>
</defs>
</svg>

