<svg width="242" height="149" viewBox="0 0 242 149" fill="none" xmlns="http://www.w3.org/2000/svg">
<path d="M223.711 91.5143L218.634 91.6225L216.058 91.6651C215.2 91.6651 214.334 91.6651 213.472 91.6883H213.298V91.5143L213.278 87.1875V86.9941H213.472L218.591 87.0212C220.296 87.0212 222.002 87.0637 223.711 87.0831H223.815V87.1875C223.815 87.9221 223.78 88.6529 223.765 89.376L223.711 91.5143ZM223.711 91.5143L223.656 89.3296C223.656 88.6104 223.61 87.8989 223.602 87.1875L223.711 87.2957C222.002 87.3151 220.296 87.3576 218.591 87.3576L213.472 87.3808L213.665 87.1875L213.642 91.5143L213.472 91.3441C214.315 91.3441 215.154 91.3441 216 91.3635L218.545 91.4099L223.711 91.5143Z" fill="#EBEBEB"/>
<path d="M32.929 48.9114H40.8827L40.7049 50.4619H32.291L32.929 48.9114Z" fill="#A6A6A6"/>
<path d="M40.9136 61.5518H46.6904V58.2303H40.9136V61.5518Z" fill="#C7C7C7"/>
<path d="M39.2047 61.3003H44.9814V58.4815H39.2047V61.3003Z" stroke="#C7C7C7" stroke-width="0.25" stroke-miterlimit="10"/>
<path d="M118 148.057C180.867 148.057 231.83 144.201 231.83 139.446C231.83 134.69 180.867 130.834 118 130.834C55.1327 130.834 4.16895 134.69 4.16895 139.446C4.16895 144.201 55.1327 148.057 118 148.057Z" fill="#EBEBEB"/>
<path d="M217.762 70.7852H110.424V140.184H217.762V70.7852Z" fill="#093358"/>
<path d="M183.937 63.5972H217.763V70.7853H181.992L183.937 63.5972Z" fill="#093358"/>
<g opacity="0.1">
<path d="M217.762 70.7852H110.424V140.184H217.762V70.7852Z" fill="black"/>
<path d="M183.937 63.5969H217.763V70.785H181.992L183.937 63.5969Z" fill="black"/>
</g>
<path d="M127.252 25.1509C126.992 24.029 126.992 22.8624 127.252 21.7405C127.391 22.298 127.456 22.8713 127.445 23.4457C127.454 24.02 127.389 24.593 127.252 25.1509Z" fill="#263238"/>
<path d="M130.725 26.1521C130.885 25.6005 131.115 25.0717 131.409 24.5784C131.687 24.0762 132.029 23.6121 132.426 23.198C132.268 23.7502 132.037 24.2793 131.742 24.7717C131.463 25.2736 131.121 25.7375 130.725 26.1521Z" fill="#263238"/>
<path d="M133.233 28.747C133.647 28.3494 134.109 28.0063 134.61 27.7262C135.101 27.4358 135.625 27.2072 136.172 27.0457C135.334 27.8283 134.329 28.4101 133.233 28.747Z" fill="#263238"/>
<path d="M134.104 32.2618C134.661 32.1267 135.233 32.0618 135.806 32.0684C136.38 32.0581 136.954 32.1231 137.511 32.2618C136.954 32.3966 136.383 32.4615 135.81 32.4551C135.235 32.4635 134.662 32.3985 134.104 32.2618Z" fill="#263238"/>
<path d="M133.103 35.7378C133.654 35.8966 134.183 36.1253 134.676 36.4183C135.177 36.6994 135.641 37.0423 136.057 37.4391C134.957 37.1015 133.947 36.5199 133.103 35.7378Z" fill="#263238"/>
<path d="M130.5 38.2434C130.896 38.6592 131.239 39.1229 131.521 39.6238C131.815 40.1157 132.045 40.6433 132.205 41.1937C131.419 40.3532 130.836 39.344 130.5 38.2434Z" fill="#263238"/>
<path d="M126.989 39.1133C127.25 40.2352 127.25 41.4018 126.989 42.5237C126.851 41.9662 126.786 41.3929 126.796 40.8185C126.788 40.2442 126.853 39.6711 126.989 39.1133Z" fill="#263238"/>
<path d="M123.517 38.1118C123.357 38.6634 123.127 39.1923 122.832 39.6855C122.555 40.1892 122.213 40.6546 121.815 41.0698C121.976 40.517 122.206 39.9868 122.5 39.4922C122.781 38.992 123.122 38.5284 123.517 38.1118Z" fill="#263238"/>
<path d="M121.012 35.5098C120.596 35.9066 120.132 36.2495 119.631 36.5306C119.139 36.8278 118.61 37.0592 118.058 37.2188C118.901 36.4344 119.911 35.8503 121.012 35.5098Z" fill="#263238"/>
<path d="M120.142 32.0024C119.584 32.1373 119.011 32.2022 118.437 32.1958C117.862 32.2054 117.289 32.1418 116.731 32.0063C117.289 31.8683 117.862 31.8021 118.437 31.8091C119.011 31.8027 119.584 31.8676 120.142 32.0024Z" fill="#263238"/>
<path d="M121.139 28.5302C120.587 28.3693 120.059 28.1394 119.565 27.8458C119.065 27.5648 118.601 27.2233 118.185 26.8289C118.736 26.9877 119.265 27.2164 119.758 27.5094C120.261 27.7885 120.725 28.1316 121.139 28.5302Z" fill="#263238"/>
<path d="M123.744 26.0401C123.347 25.6267 123.004 25.1641 122.723 24.6636C122.426 24.1714 122.195 23.6423 122.035 23.0898C122.434 23.5039 122.777 23.9679 123.056 24.4702C123.35 24.9628 123.581 25.4902 123.744 26.0401Z" fill="#263238"/>
<path d="M210.211 36.9365H140.398V126.55H210.211V36.9365Z" fill="#EBEBEB"/>
<path d="M210.208 126.55L140.399 126.674H140.276V126.55L140.21 36.9365V36.7471H140.399L210.208 36.7896H210.355V36.9365L210.208 126.55ZM210.208 126.55L210.065 36.9365L210.208 37.0796L140.399 37.126L140.589 36.9365L140.519 126.55L140.399 126.43L210.208 126.55Z" fill="#DBDBDB"/>
<path d="M148.035 56.0879L175.303 56.0183L202.571 56.0879L175.303 56.1575L148.035 56.0879Z" fill="#C7C7C7"/>
<path d="M148.035 58.3113L175.303 58.2417L202.571 58.3113L175.303 58.3809L148.035 58.3113Z" fill="#C7C7C7"/>
<path d="M148.035 60.5384L175.303 60.4688L202.571 60.5384L175.303 60.6041L148.035 60.5384Z" fill="#C7C7C7"/>
<path d="M148.035 62.7617L175.303 62.6921L202.571 62.7617L175.303 62.8313L148.035 62.7617Z" fill="#C7C7C7"/>
<path d="M148.035 64.9851L175.303 64.9155L202.571 64.9851L175.303 65.0547L148.035 64.9851Z" fill="#C7C7C7"/>
<path d="M148.035 67.2085L175.303 67.1389L202.571 67.2085L175.303 67.2781L148.035 67.2085Z" fill="#C7C7C7"/>
<path d="M148.035 69.4317L175.303 69.3621L202.571 69.4317L175.303 69.5013L148.035 69.4317Z" fill="#C7C7C7"/>
<path d="M148.035 71.6553L175.303 71.5896L202.571 71.6553L175.303 71.7249L148.035 71.6553Z" fill="#C7C7C7"/>
<path d="M148.035 73.8824L175.303 73.8127L202.571 73.8824L175.303 73.9481L148.035 73.8824Z" fill="#C7C7C7"/>
<path d="M148.035 76.1055L175.303 76.0359L202.571 76.1055L175.303 76.1712L148.035 76.1055Z" fill="#C7C7C7"/>
<path d="M148.035 78.3291L175.303 78.2595L202.571 78.3291L175.303 78.3987L148.035 78.3291Z" fill="#C7C7C7"/>
<path d="M148.035 80.5523L175.303 80.4827L202.571 80.5523L175.303 80.6219L148.035 80.5523Z" fill="#C7C7C7"/>
<path d="M148.035 82.7757L175.303 82.7061L202.571 82.7757L175.303 82.8453L148.035 82.7757Z" fill="#C7C7C7"/>
<path d="M148.035 84.9991L175.303 84.9333L202.571 84.9991L175.303 85.0687L148.035 84.9991Z" fill="#C7C7C7"/>
<path d="M148.035 87.2222L175.303 87.1565L202.571 87.2222L175.303 87.2918L148.035 87.2222Z" fill="#C7C7C7"/>
<path d="M157.938 80.4827H153.801V89.8168H157.938V80.4827Z" fill="#093358"/>
<path d="M165.609 75.5066H161.472V89.8171H165.609V75.5066Z" fill="#093358"/>
<path d="M173.282 69.9309H169.145V89.8171H173.282V69.9309Z" fill="#093358"/>
<path d="M180.957 67.5371H176.819V89.8168H180.957V67.5371Z" fill="#093358"/>
<path d="M188.628 63.2722H184.49V89.8169H188.628V63.2722Z" fill="#093358"/>
<path d="M196.298 59.0576H192.161V89.8169H196.298V59.0576Z" fill="#093358"/>
<path d="M149.513 54.5298L149.621 63.3496L149.695 72.1734C149.745 78.0546 149.76 83.9358 149.772 89.8169L149.513 89.5617H162.78L176.042 89.5927L189.309 89.6777L202.571 89.8285L189.309 89.9793L176.042 90.0644L162.78 90.0953H149.513H149.258V89.8401C149.258 83.959 149.281 78.0778 149.331 72.1966L149.409 63.3728L149.513 54.5298Z" fill="#C7C7C7"/>
<path d="M157.938 91.6807H153.801V92.0557H157.938V91.6807Z" fill="#C7C7C7"/>
<path d="M165.609 91.6807H161.472V92.0557H165.609V91.6807Z" fill="#C7C7C7"/>
<path d="M173.282 91.6807H169.145V92.0557H173.282V91.6807Z" fill="#C7C7C7"/>
<path d="M180.957 91.6807H176.819V92.0557H180.957V91.6807Z" fill="#C7C7C7"/>
<path d="M188.628 91.6807H184.49V92.0557H188.628V91.6807Z" fill="#C7C7C7"/>
<path d="M196.298 91.6807H192.161V92.0557H196.298V91.6807Z" fill="#C7C7C7"/>
<path d="M154.269 81.6619C156.29 81.6307 158.307 81.477 160.309 81.2018C162.31 80.9461 164.296 80.5886 166.26 80.1307C170.192 79.2461 174.006 77.9029 177.624 76.1287C181.251 74.3812 184.596 72.1018 187.55 69.3659L188.11 68.8594L188.64 68.3219L189.696 67.2431C190.345 66.4698 191.045 65.7506 191.629 64.9231C192.88 63.3331 194.012 61.653 195.016 59.8965H195.051C193.224 63.5358 190.793 66.8395 187.863 69.6675C186.402 71.0895 184.821 72.3831 183.138 73.5342C181.464 74.6968 179.705 75.7308 177.875 76.6275C170.515 80.1531 162.42 81.8762 154.262 81.6542L154.269 81.6619Z" fill="#263238"/>
<path d="M196.195 62.7966L195.623 62.9397L194.919 60.117L192.154 61.0257L191.973 60.465L195.337 59.3591L196.195 62.7966Z" fill="#263238"/>
<path d="M146.867 105.995H203.738V103.694H146.867V105.995Z" fill="#DBDBDB"/>
<path d="M146.872 111.803H178.888V109.502H146.872V111.803Z" fill="#DBDBDB"/>
<path d="M159.296 49.1396L191.312 49.1396V46.839L159.296 46.839V49.1396Z" fill="#DBDBDB"/>
<path d="M196.933 121.756L127.12 121.721L127.167 32.1072L178.999 32.1342L196.967 49.2172L196.933 121.756Z" fill="#093358"/>
<path opacity="0.6" d="M196.933 121.756L127.12 121.721L127.167 32.1072L178.999 32.1342L196.967 49.2172L196.933 121.756Z" fill="white"/>
<path d="M179 32.134L196.968 49.217L178.992 49.2092L179 32.134Z" fill="#093358"/>
<path opacity="0.4" d="M179 32.134L196.968 49.217L178.992 49.2092L179 32.134Z" fill="white"/>
<path d="M133.93 49.5493H172.743V47.2487H133.93V49.5493Z" fill="white"/>
<path d="M133.971 55.2526L172.784 55.2729L172.785 52.9723L133.972 52.952L133.971 55.2526Z" fill="white"/>
<path d="M133.961 61.0602L172.774 61.0806L172.776 58.7799L133.962 58.7596L133.961 61.0602Z" fill="white"/>
<path d="M133.957 66.8662L190.828 66.896L190.829 64.5953L133.958 64.5656L133.957 66.8662Z" fill="white"/>
<path d="M133.956 72.6777L190.827 72.7075L190.828 70.4069L133.957 70.3771L133.956 72.6777Z" fill="white"/>
<path d="M133.955 78.4856L190.826 78.5154L190.827 76.2147L133.957 76.1849L133.955 78.4856Z" fill="white"/>
<path d="M133.95 84.2935L190.821 84.3232L190.822 82.0226L133.952 81.9928L133.95 84.2935Z" fill="white"/>
<path d="M133.946 90.1011L190.816 90.1309L190.818 87.8302L133.947 87.8004L133.946 90.1011Z" fill="white"/>
<path d="M133.945 95.9126L190.815 95.9424L190.817 93.6417L133.946 93.6119L133.945 95.9126Z" fill="white"/>
<path d="M133.945 101.72L190.815 101.75L190.817 99.4496L133.946 99.4198L133.945 101.72Z" fill="white"/>
<path d="M133.94 107.524L190.811 107.554L190.812 105.253L133.941 105.224L133.94 107.524Z" fill="white"/>
<path d="M133.935 113.332L190.806 113.362L190.807 111.061L133.936 111.031L133.935 113.332Z" fill="white"/>
<path d="M110.676 140.184H218.014L225.4 76.5427H118.061L110.676 140.184Z" fill="#093358"/>
<path d="M192.336 69.95H226.165L225.399 76.5426H189.629L192.336 69.95Z" fill="#093358"/>
<path d="M210.262 50.435C209.026 49.3387 208.168 47.8799 207.81 46.2668C207.395 44.3007 207.74 42.2502 208.777 40.5287C209.279 39.6694 209.952 38.9225 210.755 38.3345C211.558 37.7465 212.473 37.3299 213.444 37.1105L224.023 34.7905L224.321 36.1593L213.745 38.4793C212.961 38.6576 212.222 38.9954 211.574 39.4717C210.926 39.948 210.383 40.5526 209.979 41.2479C209.131 42.6644 208.846 44.3485 209.183 45.9652C209.917 49.3176 213.247 51.5602 216.452 50.8604L236.481 46.4756C237.73 46.2023 238.819 45.4442 239.508 44.3681C240.198 43.292 240.432 41.986 240.159 40.7375C239.885 39.4889 239.127 38.4001 238.051 37.7104C236.975 37.0208 235.669 36.787 234.421 37.0603L215.049 41.3136C214.099 41.5045 213.254 42.042 212.678 42.8216C212.412 43.1964 212.228 43.6238 212.14 44.0753C212.052 44.5267 212.062 44.9918 212.168 45.4393C212.593 47.3726 214.414 48.4398 216.506 47.9836L233.164 44.3373L233.465 45.71L216.808 49.3524C213.966 49.9749 211.395 48.4205 210.795 45.737C210.196 43.0536 211.909 40.5635 214.747 39.9371L234.123 35.6837C235.722 35.3669 237.381 35.6896 238.744 36.5827C240.107 37.4757 241.066 38.8677 241.415 40.4599C241.763 42.052 241.473 43.7173 240.607 45.098C239.741 46.4787 238.368 47.4648 236.783 47.8444L216.754 52.2292C215.607 52.4625 214.421 52.4216 213.293 52.1098C212.165 51.798 211.126 51.2242 210.262 50.435Z" fill="#455A64"/>
<path d="M203.089 32.7566C201.769 33.7508 200.17 34.3029 198.518 34.3342C196.508 34.3524 194.565 33.6076 193.082 32.2501C192.338 31.5885 191.739 30.7808 191.322 29.8773C190.905 28.9738 190.679 27.9941 190.657 26.9992L190.479 16.1725L191.883 16.1493L192.061 26.976C192.08 27.7792 192.264 28.57 192.603 29.2986C192.941 30.0272 193.427 30.6779 194.029 31.21C195.246 32.3276 196.843 32.9412 198.495 32.9268C201.929 32.8688 204.786 30.05 204.732 26.7672L204.396 6.27386C204.375 4.99609 203.848 3.77879 202.93 2.88977C202.012 2.00075 200.778 1.51283 199.5 1.53334C198.223 1.55385 197.005 2.08111 196.116 2.99914C195.227 3.91717 194.739 5.15075 194.76 6.42853L195.081 26.2606C195.08 27.2284 195.44 28.1617 196.09 28.8784C196.404 29.2138 196.787 29.4781 197.211 29.6535C197.636 29.8289 198.094 29.9114 198.553 29.8953C200.533 29.8644 201.94 28.2868 201.905 26.1485L201.627 9.09653L203.035 9.07333L203.309 26.1253C203.359 29.0292 201.322 31.2564 198.576 31.2989C195.831 31.3414 193.727 29.1877 193.677 26.2722L193.356 6.444C193.327 5.61704 193.463 4.79259 193.757 4.01885C194.05 3.2451 194.494 2.53758 195.064 1.93767C195.634 1.33775 196.318 0.857474 197.076 0.524911C197.833 0.192349 198.65 0.0141774 199.477 0.000812172C200.305 -0.012553 201.126 0.139156 201.894 0.447072C202.662 0.754988 203.361 1.21293 203.95 1.79413C204.539 2.37532 205.007 3.0681 205.325 3.83197C205.643 4.59584 205.805 5.41547 205.803 6.24293L206.136 26.7362C206.139 27.9091 205.865 29.0661 205.336 30.1126C204.806 31.1591 204.036 32.0651 203.089 32.7566Z" fill="#263238"/>
<path d="M36.7459 19.4439C36.0808 23.2642 34.6424 27.734 35.8063 31.5814C36.7227 34.5935 39.1625 36.8516 41.7841 38.437C47.5532 41.917 56.0637 43.367 61.1175 37.8454C63.1359 35.6375 64.0716 30.6263 61.4732 28.4184C60.1353 27.2855 58.4301 26.8447 56.8332 26.1912C55.8372 25.8201 54.9377 25.2294 54.2014 24.4629C53.465 23.6964 52.9108 22.7739 52.5799 21.7639C51.1183 17.5763 51.88 14.7382 52.0463 10.4307C52.09 10.0041 52.0438 9.57313 51.9106 9.16552C51.7774 8.75791 51.5601 8.38277 51.2729 8.06434C50.6618 7.28687 49.8504 6.69066 48.9259 6.33981C48.1587 5.87633 47.2884 5.6106 46.3932 5.56647C44.4792 5.52007 42.4453 7.03194 40.8484 7.929C39.2515 8.82607 38.4047 9.89713 38.0567 11.7377C37.6004 14.309 37.1867 16.8803 36.7459 19.4439Z" fill="#263238"/>
<path d="M36.0275 21.1917C36.8627 17.7117 37.7598 14.2936 38.6375 10.8445C38.6375 10.8213 38.6762 10.8445 38.6723 10.8445C38.0343 13.702 37.4311 16.5672 36.739 19.4208C36.0739 22.2125 35.1923 25.0391 34.7825 27.8849C33.8467 34.2649 40.0914 37.7062 45.5705 38.089C45.8218 38.089 45.7638 38.4989 45.5125 38.4757C40.7139 37.9885 35.2117 35.626 34.4306 30.2436C34.0323 27.3049 35.3586 24.0221 36.0275 21.1917Z" fill="#263238"/>
<path d="M51.791 10.0556C51.791 10.0412 51.7967 10.0275 51.8069 10.0173C51.817 10.0072 51.8308 10.0015 51.8451 10.0015C51.8595 10.0015 51.8733 10.0072 51.8834 10.0173C51.8936 10.0275 51.8993 10.0412 51.8993 10.0556C51.6093 13.5936 50.9403 17.6923 52.5527 21.0137C53.3483 22.6472 54.6194 24.0019 56.199 24.8997C57.4518 25.6073 58.8477 25.8316 60.1933 26.2801C65.4596 28.0278 64.5819 35.3281 60.2938 37.6713C60.2049 37.7216 60.1159 37.5669 60.2049 37.5128C63.2479 35.6645 64.667 31.7785 62.7917 28.5576C61.2837 25.9669 57.7147 26.2724 55.4141 24.6909C50.6426 21.4004 51.0331 15.1519 51.791 10.0556Z" fill="#263238"/>
<path d="M71.2914 138.785C70.4291 139.063 45.9299 138.746 44.9981 138.139C44.6423 137.915 44.4799 134.342 44.4065 130.019V129.884C44.4065 128.994 44.3794 128.078 44.3794 127.146C44.3794 127.018 44.3794 126.891 44.3794 126.759C44.3446 120.522 44.4451 114.05 44.4451 114.05L60.8359 114.212L60.341 126.806V127.304L60.2443 129.911V130.177C60.2443 130.177 69.5707 134.493 70.518 135.266C71.4654 136.039 72.1498 138.51 71.2914 138.785Z" fill="#AD6359"/>
<path d="M63.9295 131.856C63.8632 131.856 63.8281 131.821 63.8242 131.802L63.9295 131.856Z" fill="#093358"/>
<path d="M71.2866 138.785C70.4282 139.063 45.929 138.746 44.9933 138.139C44.6801 137.942 44.5138 135.096 44.4326 131.43C48.9218 132.366 66.3218 135.885 66.7974 134.4C66.9869 133.812 65.4982 132.803 64.5547 132.231C67.1261 133.456 69.9681 134.86 70.4785 135.27C71.4219 136.039 72.1489 138.51 71.2866 138.785Z" fill="#093358"/>
<path d="M39.4141 43.4714C39.4141 43.4714 43.0951 84.8757 43.6945 88.0347C43.8337 88.7539 43.9187 92.6747 43.9767 97.7014C44.1043 108.675 44.027 128.472 44.027 128.472H61.2994C61.2994 128.472 60.7851 94.175 60.0195 87.8723C59.2539 81.5697 54.3703 43.4869 54.3703 43.4869L39.4141 43.4714Z" fill="#37474F"/>
<path d="M60.5183 125.456C57.8116 125.402 58.5849 125.379 55.9015 125.352C54.5829 125.352 45.9139 125.267 44.6881 125.468C44.6822 125.47 44.6771 125.474 44.6735 125.479C44.6699 125.484 44.668 125.491 44.668 125.497C44.668 125.503 44.6699 125.509 44.6735 125.515C44.6771 125.52 44.6822 125.524 44.6881 125.526C45.9177 125.727 54.5868 125.653 55.9015 125.642C58.6081 125.615 57.8348 125.592 60.5183 125.537C60.5269 125.535 60.5345 125.529 60.5398 125.522C60.5452 125.515 60.5481 125.506 60.5481 125.497C60.5481 125.488 60.5452 125.479 60.5398 125.472C60.5345 125.464 60.5269 125.459 60.5183 125.456Z" fill="#263238"/>
<path d="M47.3108 105.852L47.2412 98.3471C47.2412 95.9227 47.2412 93.4944 47.1136 91.07C46.8777 86.1593 45.884 81.3338 45.1803 76.4811C44.4765 71.6284 43.8849 66.7564 43.3475 61.8767C42.7481 56.4054 42.2184 50.9263 41.6539 45.4511C41.6539 45.4125 41.592 45.4125 41.5959 45.4511C42.4117 55.2299 43.3204 65.0048 44.6892 74.7218C45.0269 77.1397 45.3942 79.5525 45.7912 81.9601C46.1779 84.3961 46.5955 86.836 46.7888 89.3068C46.9821 91.7776 47.0053 94.1401 47.0324 96.5568C47.0556 99.0624 47.0801 101.567 47.1059 104.07C47.16 109.63 47.2141 118.187 47.2683 123.751C47.2683 123.855 47.4345 123.852 47.4345 123.751C47.3843 118.771 47.3456 110.813 47.3108 105.852Z" fill="#263238"/>
<path d="M35.7754 43.4713C35.7754 43.4713 43.095 84.8755 43.6943 88.0346C43.8335 88.7538 43.9186 92.6746 43.9766 97.7012L52.2048 43.4597L35.7754 43.4713Z" fill="#263238"/>
<path d="M30.4433 140.177C29.554 140.037 7.83492 128.689 7.28586 127.73C7.06932 127.37 8.53866 124.111 10.4256 120.221L10.4875 120.097C10.8741 119.297 18.6306 106.219 18.6306 106.219L31.9861 114.061L24.5776 127.266L24.45 127.498C24.45 127.498 30.8184 135.564 31.3133 136.677C31.8082 137.791 31.3365 140.323 30.4433 140.177Z" fill="#AD6359"/>
<path d="M30.4435 140.176C29.5503 140.037 7.83894 128.689 7.28601 127.73C7.10041 127.424 8.14441 124.996 9.62921 121.875C12.7225 124.23 27.7716 135.517 28.8697 134.345C29.1017 134.094 28.9277 133.51 28.6223 132.884C29.9408 134.624 31.1124 136.221 31.3289 136.677C31.8045 137.787 31.3367 140.319 30.4435 140.176Z" fill="#093358"/>
<path d="M26.4991 126.782L10.6729 117.004C10.6729 117.004 28.9815 90.8031 29.0704 88.4754C29.198 84.9954 30.8568 70.7352 32.2527 59.1738C32.2527 59.1738 29.6079 52.9137 34.5534 43.4597H54.3855C54.3855 43.4597 53.0553 52.4574 50.7779 58.153C49.2499 58.688 47.7743 59.3623 46.3699 60.1676C46.3699 60.1676 44.3979 85.9466 44.3244 89.1675C44.1775 95.5243 26.4991 126.782 26.4991 126.782Z" fill="#37474F"/>
<path d="M27.47 123.129C25.1848 121.698 25.8615 122.077 23.5608 120.669C22.4356 119.981 15.0542 115.465 13.8942 115.009C13.8881 115.006 13.8813 115.006 13.875 115.008C13.8687 115.01 13.8635 115.014 13.8601 115.02C13.8568 115.025 13.8557 115.032 13.857 115.039C13.8582 115.045 13.8618 115.051 13.8671 115.055C14.8183 115.863 22.2964 120.248 23.4332 120.913C25.7532 122.278 25.1075 121.86 27.4468 123.194C27.454 123.193 27.4609 123.191 27.4666 123.186C27.4723 123.182 27.4767 123.176 27.4791 123.169C27.4815 123.162 27.4819 123.154 27.4803 123.147C27.4787 123.14 27.4751 123.134 27.47 123.129Z" fill="#263238"/>
<path d="M51.5322 57.7703C49.745 58.4207 48.0179 59.2254 46.3702 60.1754C46.3571 60.1825 46.3473 60.1943 46.3427 60.2085C46.3381 60.2227 46.3391 60.2381 46.3456 60.2515C46.3521 60.265 46.3634 60.2754 46.3774 60.2807C46.3913 60.2859 46.4068 60.2856 46.4205 60.2798C48.1566 59.5335 49.9314 58.8182 51.625 57.9598C51.6391 57.9426 51.648 57.9217 51.6505 57.8996C51.6531 57.8775 51.6493 57.8552 51.6395 57.8352C51.6297 57.8153 51.6144 57.7985 51.5954 57.787C51.5764 57.7755 51.5545 57.7697 51.5322 57.7703Z" fill="#263238"/>
<path d="M49.1042 54.8973C49.2743 53.861 49.4135 52.8248 49.4909 51.7769C49.6714 49.8286 49.6507 47.8668 49.429 45.9228C49.429 45.9094 49.4237 45.8967 49.4143 45.8872C49.4048 45.8778 49.3921 45.8725 49.3787 45.8725C49.3654 45.8725 49.3526 45.8778 49.3432 45.8872C49.3338 45.8967 49.3285 45.9094 49.3285 45.9228C49.3732 48.626 49.2143 51.3287 48.8529 54.008C48.6595 55.2917 48.0099 57.2328 49.3594 57.43C50.7089 57.6272 51.6175 54.3869 51.7838 53.4976C52.2126 50.9677 52.3101 48.3928 52.0738 45.8377C52.0738 45.7758 51.9617 45.7642 51.9655 45.8377C51.9655 47.9025 51.8457 49.7044 51.6717 51.6377C51.5905 52.5309 50.8713 57.4841 49.3169 57.1206C49.0578 57.0626 48.9302 56.8036 48.8838 56.413C48.8905 55.8998 48.9606 55.3894 49.0926 54.8934" fill="#263238"/>
<path d="M49.3713 57.2599C49.2339 57.5939 49.1177 57.9361 49.0233 58.2846C48.9212 58.5537 48.8713 58.8398 48.8763 59.1275C48.8792 59.1387 48.8851 59.1488 48.8934 59.1567C48.9017 59.1647 48.912 59.1702 48.9233 59.1726C48.9345 59.175 48.9462 59.1742 48.957 59.1704C48.9679 59.1665 48.9774 59.1597 48.9846 59.1507C49.1456 58.8974 49.2669 58.621 49.3442 58.331C49.4641 58.0139 49.5878 57.6969 49.6961 57.3759C49.7048 57.3347 49.6983 57.2917 49.6778 57.2549C49.6572 57.2182 49.624 57.1901 49.5844 57.1759C49.5447 57.1617 49.5012 57.1624 49.462 57.1779C49.4228 57.1933 49.3906 57.2225 49.3713 57.2599Z" fill="#263238"/>
<path d="M36.885 44.7085C36.2822 45.7444 35.7835 46.8376 35.3964 47.972C34.9988 49.1032 34.7037 50.2679 34.5148 51.452C34.4026 52.0397 34.364 52.6352 34.2982 53.2268C34.2325 53.8184 34.2248 54.4216 34.2596 55.017C34.285 56.2094 34.4235 57.3966 34.6733 58.5627V58.6014C34.217 63.6023 33.7427 68.6006 33.2504 73.5963C32.758 78.5921 32.2657 83.5891 31.7733 88.5874L31.723 89.0553L31.6998 89.2911C31.6993 89.3773 31.6823 89.4627 31.6496 89.5425C31.5162 89.8412 31.3651 90.1317 31.1972 90.4125C30.8801 90.9577 30.5514 91.4951 30.2228 92.0287C29.5654 93.0985 28.8991 94.1631 28.2237 95.2226C26.8781 97.3415 25.517 99.445 24.1366 101.548C21.4029 105.759 18.6189 109.939 15.8311 114.115L23.924 101.409L27.9414 95.0447C28.6117 93.9827 29.2742 92.9181 29.9289 91.8509C30.2537 91.3134 30.5785 90.7759 30.8917 90.2346C31.0386 89.9716 31.2088 89.6778 31.3093 89.4612C31.3347 89.3959 31.3478 89.3264 31.348 89.2563L31.3712 89.0205L31.4176 88.5526C31.8919 83.5569 32.3842 78.5624 32.8946 73.5693C33.405 68.5761 33.9206 63.5843 34.4413 58.5937V58.6285C34.197 57.4464 34.0675 56.2434 34.0546 55.0364C34.0276 54.4332 34.0856 53.83 34.1165 53.2306C34.1474 52.6313 34.2441 52.032 34.3717 51.4404C34.5863 50.2544 34.9059 49.0898 35.3268 47.9604C35.7391 46.8283 36.261 45.7391 36.885 44.7085Z" fill="#263238"/>
<path d="M46.4668 25.5378C49.417 27.127 63.0934 31.3378 67.9345 31.1444C72.4623 30.9782 82.3958 25.6344 82.8637 24.1844C83.3122 22.8118 80.7873 14.3554 79.3025 14.7846C77.8177 15.2138 68.9746 21.6208 67.0297 21.8799C65.8697 22.0307 54.9463 21.675 49.3474 21.8799C44.2628 22.0578 42.3836 23.3338 46.4668 25.5378Z" fill="#AD6359"/>
<path d="M54.5871 29.4121L58.999 21.2921C58.999 21.2921 48.8413 21.1336 45.8523 21.9301C42.4767 22.8272 43.6715 24.3584 46.529 26.0481C49.3865 27.7379 54.5871 29.4121 54.5871 29.4121Z" fill="#093358"/>
<path d="M48.5206 21.8723C48.5206 22.0569 48.4473 22.2339 48.3167 22.3644C48.1862 22.495 48.0092 22.5683 47.8246 22.5683C47.64 22.5683 47.463 22.495 47.3324 22.3644C47.2019 22.2339 47.1286 22.0569 47.1286 21.8723C47.1275 21.8132 47.1367 21.7543 47.1557 21.6983C47.5423 21.6441 47.9831 21.5977 48.4433 21.5591C48.4946 21.6554 48.5212 21.7631 48.5206 21.8723ZM52.6811 21.3425C52.595 21.4196 52.5293 21.517 52.4902 21.6258C52.4511 21.7346 52.4397 21.8515 52.4571 21.9658C52.4745 22.0801 52.52 22.1883 52.5897 22.2805C52.6594 22.3728 52.7509 22.4463 52.8561 22.4943C52.9613 22.5424 53.0768 22.5634 53.1921 22.5557C53.3075 22.5479 53.4191 22.5114 53.5168 22.4497C53.6146 22.388 53.6954 22.3028 53.7521 22.202C53.8087 22.1012 53.8393 21.9879 53.8411 21.8723C53.8417 21.7647 53.8168 21.6584 53.7684 21.5623C53.72 21.4662 53.6495 21.3829 53.5627 21.3193L52.6811 21.3425ZM58.8136 21.2961H58.0403C57.943 21.3584 57.863 21.4442 57.8076 21.5456C57.7522 21.647 57.7232 21.7606 57.7232 21.8761C57.7228 22.041 57.7808 22.2006 57.887 22.3266C57.9932 22.4527 58.1407 22.5369 58.3032 22.5644L58.9296 21.4044C58.8975 21.3619 58.8583 21.3252 58.8136 21.2961ZM45.3809 25.3329C45.4891 25.4064 45.5897 25.4837 45.7057 25.5495C45.622 25.4459 45.5087 25.3703 45.3809 25.3329ZM50.4733 25.2981C50.3358 25.2989 50.2016 25.3404 50.0876 25.4173C49.9737 25.4943 49.8851 25.6032 49.833 25.7305C49.7809 25.8577 49.7677 25.9975 49.795 26.1323C49.8223 26.267 49.8888 26.3907 49.9863 26.4876C50.0838 26.5846 50.2079 26.6505 50.3428 26.677C50.4777 26.7036 50.6174 26.6896 50.7444 26.6368C50.8713 26.584 50.9798 26.4948 51.0561 26.3804C51.1324 26.266 51.1731 26.1316 51.1731 25.9941C51.1721 25.8092 51.0979 25.6322 50.9668 25.5018C50.8356 25.3713 50.6582 25.2981 50.4733 25.2981ZM55.7744 25.2981C55.6368 25.2981 55.5022 25.339 55.3878 25.4154C55.2733 25.4919 55.1841 25.6006 55.1314 25.7278C55.0787 25.855 55.065 25.9949 55.0918 26.1299C55.1187 26.2649 55.185 26.3889 55.2823 26.4863C55.3796 26.5836 55.5037 26.6499 55.6387 26.6768C55.7737 26.7036 55.9136 26.6898 56.0408 26.6372C56.168 26.5845 56.2767 26.4953 56.3532 26.3808C56.4296 26.2664 56.4704 26.1318 56.4704 25.9941C56.4704 25.8096 56.3971 25.6325 56.2666 25.502C56.1361 25.3715 55.959 25.2981 55.7744 25.2981Z" fill="white"/>
<path d="M56.93 21.6556C56.7328 21.9147 55.3176 24.4203 55.0237 24.9732C54.7298 25.5261 53.4964 27.7688 53.2373 28.3642C53.2373 28.3874 53.2605 28.4106 53.276 28.3874C53.6394 27.8538 54.8884 25.5918 55.2093 25.0389C55.5302 24.486 56.8681 21.9688 56.9764 21.6749C56.9764 21.6479 56.9416 21.6401 56.93 21.6556Z" fill="#263238"/>
<path opacity="0.1" d="M55.9562 26.8832L54.5874 29.412C54.5874 29.412 49.3752 27.7455 46.5177 26.0557C44.1358 24.6444 42.9101 23.3491 44.5225 22.4365L55.9562 26.8832Z" fill="black"/>
<path d="M54.0106 39.8367L54.6099 44.5115L34.3447 43.8735C34.3447 43.8735 35.3694 28.9366 41.2081 23.3029C44.1312 20.4879 47.3367 20.9017 49.27 23.1057C49.7572 23.6663 55.5031 31.1715 55.9671 34.3422C56.3731 37.1378 54.0106 39.8367 54.0106 39.8367Z" fill="#093358"/>
<path d="M43.2225 21.8723C43.2225 22.0572 43.1493 22.2346 43.0189 22.3658C42.8884 22.4969 42.7114 22.5711 42.5265 22.5721C42.4097 22.5725 42.2949 22.5419 42.1939 22.4832C42.5168 22.2477 42.8612 22.0431 43.2225 21.8723ZM47.1742 21.6287C47.1432 21.7061 47.1275 21.7888 47.1278 21.8723C47.1278 22.0572 47.201 22.2346 47.3314 22.3658C47.4618 22.4969 47.6389 22.5711 47.8238 22.5721C47.9329 22.5731 48.0405 22.5476 48.1375 22.4978C48.2345 22.4479 48.3179 22.3752 48.3806 22.286C48.0114 22.0112 47.6053 21.7899 47.1742 21.6287ZM37.5076 29.3388C37.3336 29.768 37.1712 30.2049 37.0204 30.6419C37.0908 30.6684 37.1655 30.6815 37.2408 30.6805C37.3325 30.6805 37.4233 30.6624 37.508 30.6272C37.5927 30.592 37.6696 30.5403 37.7343 30.4753C37.7989 30.4103 37.8501 30.3331 37.8849 30.2482C37.9196 30.1633 37.9373 30.0724 37.9368 29.9807C37.9364 29.8412 37.8937 29.7052 37.8143 29.5906C37.7348 29.4759 37.6225 29.3881 37.4921 29.3388H37.5076ZM42.5342 29.2847C42.3955 29.2839 42.2596 29.3244 42.1439 29.401C42.0283 29.4776 41.938 29.5869 41.8845 29.7149C41.8311 29.8429 41.8169 29.984 41.8438 30.1201C41.8706 30.2562 41.9374 30.3813 42.0355 30.4794C42.1336 30.5775 42.2586 30.6442 42.3948 30.6711C42.5309 30.698 42.6719 30.6838 42.8 30.6304C42.928 30.5769 43.0373 30.4866 43.1139 30.3709C43.1905 30.2552 43.231 30.1194 43.2302 29.9807C43.2297 29.8887 43.2111 29.7978 43.1755 29.7131C43.1398 29.6284 43.0878 29.5515 43.0225 29.4869C42.9571 29.4223 42.8797 29.3711 42.7946 29.3364C42.7095 29.3017 42.6184 29.2841 42.5265 29.2847H42.5342ZM47.8315 29.2847C47.6928 29.2839 47.557 29.3244 47.4413 29.401C47.3256 29.4776 47.2353 29.5869 47.1818 29.7149C47.1284 29.8429 47.1142 29.984 47.1411 30.1201C47.168 30.2562 47.2347 30.3813 47.3328 30.4794C47.4309 30.5775 47.556 30.6442 47.6921 30.6711C47.8282 30.698 47.9693 30.6838 48.0973 30.6304C48.2253 30.5769 48.3346 30.4866 48.4112 30.3709C48.4878 30.2552 48.5283 30.1194 48.5275 29.9807C48.527 29.8887 48.5084 29.7978 48.4728 29.7131C48.4371 29.6284 48.3852 29.5515 48.3198 29.4869C48.2545 29.4223 48.177 29.3711 48.0919 29.3364C48.0068 29.3017 47.9157 29.2841 47.8238 29.2847H47.8315ZM53.1327 29.2847C52.994 29.2839 52.8581 29.3244 52.7425 29.401C52.6268 29.4776 52.5365 29.5869 52.483 29.7149C52.4296 29.8429 52.4154 29.984 52.4423 30.1201C52.4692 30.2562 52.5359 30.3813 52.634 30.4794C52.7321 30.5775 52.8572 30.6442 52.9933 30.6711C53.1294 30.698 53.2704 30.6838 53.3985 30.6304C53.5265 30.5769 53.6358 30.4866 53.7124 30.3709C53.789 30.2552 53.8295 30.1194 53.8287 29.9807C53.8287 29.8886 53.8105 29.7975 53.775 29.7125C53.7396 29.6276 53.6876 29.5505 53.6222 29.4858C53.5567 29.421 53.4791 29.3699 53.3937 29.3354C53.3084 29.3009 53.2171 29.2836 53.125 29.2847H53.1327ZM39.8933 25.2981C39.7551 25.2969 39.6199 25.3388 39.5066 25.418C39.4061 25.5649 39.3133 25.708 39.2205 25.8627C39.2167 25.9012 39.2167 25.9401 39.2205 25.9787C39.2205 26.1163 39.2613 26.2509 39.3378 26.3653C39.4143 26.4798 39.523 26.569 39.6501 26.6217C39.7773 26.6744 39.9173 26.6881 40.0523 26.6613C40.1873 26.6344 40.3113 26.5681 40.4086 26.4708C40.506 26.3735 40.5723 26.2495 40.5991 26.1144C40.626 25.9794 40.6122 25.8395 40.5595 25.7123C40.5068 25.5851 40.4176 25.4764 40.3032 25.4C40.1887 25.3235 40.0541 25.2827 39.9165 25.2827L39.8933 25.2981ZM45.1945 25.2981C45.0568 25.2981 44.9223 25.3389 44.8078 25.4154C44.6933 25.4919 44.6041 25.6006 44.5515 25.7278C44.4988 25.855 44.485 25.9949 44.5118 26.1299C44.5387 26.2649 44.605 26.3889 44.7023 26.4863C44.7997 26.5836 44.9237 26.6499 45.0587 26.6768C45.1937 26.7036 45.3336 26.6898 45.4608 26.6371C45.588 26.5845 45.6967 26.4953 45.7732 26.3808C45.8497 26.2663 45.8905 26.1318 45.8905 25.9941C45.8905 25.9011 45.8719 25.809 45.8357 25.7232C45.7995 25.6375 45.7465 25.5599 45.6798 25.495C45.6131 25.4301 45.5341 25.3793 45.4474 25.3455C45.3607 25.3116 45.2682 25.2955 45.1751 25.2981H45.1945ZM50.4918 25.2981C50.3543 25.2989 50.2201 25.3404 50.1062 25.4173C49.9922 25.4942 49.9036 25.6032 49.8516 25.7304C49.7995 25.8577 49.7862 25.9975 49.8135 26.1323C49.8408 26.267 49.9074 26.3907 50.0049 26.4876C50.1024 26.5846 50.2264 26.6505 50.3613 26.677C50.4962 26.7036 50.636 26.6896 50.7629 26.6368C50.8899 26.584 50.9983 26.4948 51.0746 26.3804C51.1509 26.266 51.1917 26.1316 51.1917 25.9941C51.1912 25.9009 51.1721 25.8087 51.1355 25.7229C51.0989 25.6372 51.0455 25.5596 50.9785 25.4948C50.9115 25.43 50.8322 25.3792 50.7453 25.3454C50.6584 25.3116 50.5657 25.2955 50.4725 25.2981H50.4918ZM37.2253 37.393C37.0867 37.3923 36.951 37.4327 36.8354 37.5091C36.7198 37.5855 36.6295 37.6946 36.5759 37.8224C36.5224 37.9502 36.508 38.091 36.5345 38.2271C36.5611 38.3631 36.6274 38.4881 36.7252 38.5864C36.8229 38.6847 36.9476 38.7517 37.0835 38.779C37.2193 38.8064 37.3602 38.7927 37.4883 38.7399C37.6165 38.687 37.726 38.5973 37.8031 38.4821C37.8801 38.367 37.9213 38.2315 37.9213 38.0929C37.9213 37.908 37.8481 37.7305 37.7177 37.5994C37.5873 37.4683 37.4102 37.3941 37.2253 37.393ZM42.5265 37.393C42.3879 37.3923 42.2522 37.4327 42.1366 37.5091C42.021 37.5855 41.9307 37.6946 41.8771 37.8224C41.8236 37.9502 41.8092 38.091 41.8357 38.2271C41.8623 38.3631 41.9286 38.4881 42.0264 38.5864C42.1241 38.6847 42.2488 38.7517 42.3846 38.779C42.5205 38.8064 42.6614 38.7927 42.7895 38.7399C42.9176 38.687 43.0272 38.5973 43.1043 38.4821C43.1813 38.367 43.2225 38.2315 43.2225 38.0929C43.2225 37.908 43.1493 37.7305 43.0189 37.5994C42.8884 37.4683 42.7114 37.3941 42.5265 37.393ZM47.8238 37.393C47.6852 37.3923 47.5495 37.4327 47.4339 37.5091C47.3183 37.5855 47.228 37.6946 47.1745 37.8224C47.1209 37.9502 47.1065 38.091 47.1331 38.2271C47.1596 38.3631 47.226 38.4881 47.3237 38.5864C47.4214 38.6847 47.5461 38.7517 47.682 38.779C47.8178 38.8064 47.9588 38.7927 48.0869 38.7399C48.215 38.687 48.3245 38.5973 48.4016 38.4821C48.4787 38.367 48.5198 38.2315 48.5198 38.0929C48.5198 37.908 48.4466 37.7305 48.3162 37.5994C48.1858 37.4683 48.0088 37.3941 47.8238 37.393ZM53.125 37.393C52.9864 37.3923 52.8507 37.4327 52.7351 37.5091C52.6195 37.5855 52.5292 37.6946 52.4757 37.8224C52.4221 37.9502 52.4077 38.091 52.4342 38.2271C52.4608 38.3631 52.5272 38.4881 52.6249 38.5864C52.7226 38.6847 52.8473 38.7517 52.9832 38.779C53.119 38.8064 53.26 38.7927 53.3881 38.7399C53.5162 38.687 53.6257 38.5973 53.7028 38.4821C53.7799 38.367 53.821 38.2315 53.821 38.0929C53.8215 38.0012 53.8039 37.9103 53.7691 37.8254C53.7344 37.7405 53.6832 37.6633 53.6185 37.5983C53.5538 37.5332 53.4769 37.4816 53.3922 37.4464C53.3076 37.4112 53.2167 37.393 53.125 37.393ZM39.8933 33.4065C39.7558 33.4073 39.6216 33.4487 39.5077 33.5257C39.3937 33.6026 39.3051 33.7116 39.253 33.8388C39.2009 33.9661 39.1877 34.1059 39.215 34.2407C39.2423 34.3754 39.3089 34.4991 39.4064 34.596C39.5039 34.693 39.6279 34.7589 39.7628 34.7854C39.8977 34.812 40.0374 34.7979 40.1644 34.7452C40.2913 34.6924 40.3998 34.6032 40.4761 34.4888C40.5524 34.3744 40.5931 34.24 40.5931 34.1025C40.5921 33.9176 40.5179 33.7405 40.3868 33.6101C40.2557 33.4797 40.0782 33.4065 39.8933 33.4065ZM45.1945 33.4065C45.0568 33.4065 44.9223 33.4473 44.8078 33.5238C44.6933 33.6003 44.6041 33.709 44.5515 33.8362C44.4988 33.9633 44.485 34.1033 44.5118 34.2383C44.5387 34.3733 44.605 34.4973 44.7023 34.5947C44.7997 34.692 44.9237 34.7583 45.0587 34.7851C45.1937 34.812 45.3336 34.7982 45.4608 34.7455C45.588 34.6929 45.6967 34.6036 45.7732 34.4892C45.8497 34.3747 45.8905 34.2402 45.8905 34.1025C45.8905 34.0095 45.8719 33.9174 45.8357 33.8316C45.7995 33.7459 45.7465 33.6683 45.6798 33.6034C45.6131 33.5385 45.5341 33.4877 45.4474 33.4538C45.3607 33.42 45.2682 33.4039 45.1751 33.4065H45.1945ZM50.4918 33.4065C50.3543 33.4073 50.2201 33.4487 50.1062 33.5257C49.9922 33.6026 49.9036 33.7116 49.8516 33.8388C49.7995 33.9661 49.7862 34.1059 49.8135 34.2407C49.8408 34.3754 49.9074 34.4991 50.0049 34.596C50.1024 34.693 50.2264 34.7589 50.3613 34.7854C50.4962 34.812 50.636 34.7979 50.7629 34.7452C50.8899 34.6924 50.9983 34.6032 51.0746 34.4888C51.1509 34.3744 51.1917 34.24 51.1917 34.1025C51.1912 34.0093 51.1721 33.9171 51.1355 33.8313C51.0989 33.7456 51.0455 33.668 50.9785 33.6032C50.9115 33.5384 50.8322 33.4876 50.7453 33.4538C50.6584 33.42 50.5657 33.4039 50.4725 33.4065H50.4918ZM55.9863 34.3422C55.9337 34.0252 55.8535 33.7134 55.7466 33.4104C55.5709 33.428 55.4085 33.5118 55.2923 33.6447C55.176 33.7776 55.1146 33.9497 55.1205 34.1262C55.1264 34.3026 55.1992 34.4703 55.324 34.5951C55.4489 34.7199 55.6165 34.7926 55.793 34.7985C55.8722 34.7982 55.9508 34.7838 56.025 34.756C55.9979 34.6206 55.9863 34.4814 55.967 34.3422H55.9863ZM34.5882 41.5072C34.5186 42.0485 34.4684 42.5125 34.4297 42.8837C34.4785 42.8896 34.5278 42.8896 34.5766 42.8837C34.7528 42.8706 34.9174 42.7914 35.0376 42.6619C35.1577 42.5325 35.2245 42.3624 35.2245 42.1858C35.2245 42.0092 35.1577 41.8391 35.0376 41.7096C34.9174 41.5802 34.7528 41.501 34.5766 41.4878L34.5882 41.5072ZM39.8933 41.5072C39.7547 41.5072 39.6192 41.5483 39.5041 41.6254C39.3889 41.7025 39.2992 41.812 39.2463 41.9401C39.1935 42.0682 39.1798 42.2091 39.2072 42.345C39.2345 42.4809 39.3015 42.6056 39.3998 42.7033C39.498 42.801 39.6231 42.8674 39.7591 42.8939C39.8951 42.9205 40.036 42.9061 40.1638 42.8525C40.2916 42.799 40.4006 42.7086 40.4771 42.593C40.5535 42.4774 40.5939 42.3418 40.5931 42.2032C40.5921 42.0182 40.5179 41.8412 40.3868 41.7108C40.2557 41.5804 40.0782 41.5072 39.8933 41.5072ZM45.1945 41.5072C45.0557 41.5064 44.9199 41.5469 44.8042 41.6235C44.6885 41.7001 44.5982 41.8094 44.5448 41.9374C44.4913 42.0655 44.4771 42.2065 44.504 42.3426C44.5309 42.4787 44.5976 42.6038 44.6957 42.7019C44.7939 42.8 44.9189 42.8668 45.055 42.8936C45.1912 42.9205 45.3322 42.9063 45.4602 42.8529C45.5883 42.7994 45.6975 42.7091 45.7741 42.5934C45.8508 42.4778 45.8912 42.3419 45.8905 42.2032C45.8905 42.1101 45.8719 42.018 45.8357 41.9323C45.7995 41.8466 45.7465 41.769 45.6798 41.7041C45.6131 41.6392 45.5341 41.5883 45.4474 41.5545C45.3607 41.5207 45.2682 41.5046 45.1751 41.5072H45.1945ZM50.4918 41.5072C50.3532 41.5072 50.2178 41.5483 50.1026 41.6254C49.9874 41.7025 49.8977 41.812 49.8449 41.9401C49.792 42.0682 49.7784 42.2091 49.8057 42.345C49.833 42.4809 49.9 42.6056 49.9983 42.7033C50.0966 42.801 50.2216 42.8674 50.3577 42.8939C50.4937 42.9205 50.6345 42.9061 50.7623 42.8525C50.8901 42.799 50.9992 42.7086 51.0756 42.593C51.152 42.4774 51.1924 42.3418 51.1917 42.2032C51.1912 42.1099 51.1721 42.0177 51.1355 41.932C51.0989 41.8463 51.0455 41.7687 50.9785 41.7038C50.9115 41.639 50.8322 41.5882 50.7453 41.5544C50.6584 41.5207 50.5657 41.5046 50.4725 41.5072H50.4918Z" fill="white"/>
<path d="M50.6514 38.2513C49.5692 38.3252 48.4939 38.479 47.4343 38.7115C46.9085 38.8352 46.3942 38.9821 45.8877 39.1407C45.6325 39.218 45.3734 39.2876 45.1143 39.3572C44.8441 39.4382 44.5649 39.485 44.283 39.4964C44.2779 39.4964 44.273 39.4985 44.2693 39.5021C44.2657 39.5057 44.2637 39.5106 44.2637 39.5157C44.2637 39.5209 44.2657 39.5258 44.2693 39.5294C44.273 39.533 44.2779 39.5351 44.283 39.5351C44.5482 39.5544 44.8144 39.5544 45.0795 39.5351C45.3397 39.5084 45.5979 39.4658 45.8529 39.4075C46.3865 39.2876 46.9162 39.1407 47.4498 39.0208C48.5209 38.7695 49.5958 38.5143 50.6862 38.3403C50.721 38.3325 50.721 38.2475 50.6514 38.2513Z" fill="#263238"/>
<path d="M53.3019 39.2645C52.4129 39.1523 51.5183 39.0904 50.6223 39.0789C50.1738 39.0789 49.7291 39.0982 49.2845 39.133C49.0731 39.1485 48.8604 39.1678 48.6465 39.191C48.4106 39.2142 48.1786 39.2722 47.9466 39.2954C47.9234 39.2954 47.9195 39.3341 47.9466 39.3341C48.167 39.3341 48.3913 39.3341 48.6155 39.3341H50.6223C51.5155 39.3341 52.4049 39.3341 53.3019 39.3341C53.3483 39.3379 53.3445 39.2683 53.3019 39.2645Z" fill="#263238"/>
<path d="M120.157 24.3504C99.2775 19.4681 78.6154 14.6773 58.171 9.97803C50.4841 35.1809 52.5566 64.498 41.7764 88.3939C62.6563 93.2762 83.3172 98.067 103.759 102.766C111.45 77.5634 109.377 48.258 120.157 24.3504Z" fill="#EBEBEB"/>
<path d="M51.4697 78.7547C62.8119 81.3582 74.1026 83.936 85.3417 86.488C85.4925 85.8229 85.6433 85.154 85.7864 84.4851C74.5705 81.9356 63.3107 79.3669 52.0072 76.7788C51.8332 77.4671 51.6553 78.1051 51.4697 78.7547Z" fill="#DBDBDB"/>
<path d="M52.7656 73.7706C64.0228 76.3484 75.2361 78.8991 86.4056 81.4227C86.5319 80.7473 86.6608 80.0694 86.7923 79.3888C75.6357 76.8678 64.4455 74.33 53.2219 71.7754C53.075 72.4405 52.9242 73.1094 52.7656 73.7706Z" fill="#DBDBDB"/>
<path d="M53.8672 68.7053C65.0547 71.247 76.2088 73.7719 87.3293 76.2801C87.4427 75.597 87.5536 74.9126 87.6618 74.2269C76.5516 71.7213 65.4169 69.2054 54.2577 66.6792C54.1288 67.3572 53.9987 68.0325 53.8672 68.7053Z" fill="#DBDBDB"/>
<path d="M54.8066 63.574C71.1214 67.2602 87.3846 70.9245 103.596 74.5669C103.694 73.8735 103.788 73.1826 103.878 72.4944C87.6668 68.852 71.4268 65.1954 55.1585 61.5247C55.0348 62.2091 54.9226 62.8896 54.8066 63.574Z" fill="#DBDBDB"/>
<path d="M55.6309 58.389C71.8708 62.052 88.0928 65.6996 104.297 69.3317L104.563 67.2514C88.3673 63.6167 72.1557 59.9743 55.9286 56.3242C55.8332 57.0151 55.734 57.7033 55.6309 58.389Z" fill="#DBDBDB"/>
<path d="M56.3652 53.1687C72.582 56.8163 88.7846 60.4548 104.973 64.0843C105.063 63.3909 105.153 62.6988 105.244 62.0079L56.6436 51.0962L56.3652 53.1687Z" fill="#DBDBDB"/>
<path d="M57.0537 47.9297L105.665 58.8491C105.758 58.157 105.855 57.4687 105.952 56.7766L57.3244 45.8533C57.2354 46.5338 57.1426 47.2375 57.0537 47.9297Z" fill="#DBDBDB"/>
<path d="M57.7344 42.6863C73.9383 46.3261 90.1602 49.9749 106.4 53.6328C106.506 52.9445 106.612 52.2588 106.717 51.5757C90.4335 47.9024 74.1935 44.2471 57.9973 40.6099C57.9122 41.3033 57.8246 41.9954 57.7344 42.6863Z" fill="#DBDBDB"/>
<path d="M58.4541 37.4549C74.6941 41.0999 90.9637 44.7668 107.263 48.4556C107.382 47.775 107.503 47.0958 107.626 46.4178C91.273 42.7187 74.9802 39.0415 58.748 35.3862C58.6371 36.0745 58.5392 36.7641 58.4541 37.4549Z" fill="#DBDBDB"/>
<path d="M59.2031 32.2463C75.4766 35.9145 91.812 39.6097 108.209 43.332C108.343 42.6592 108.485 41.9877 108.635 41.3175C92.1935 37.5771 75.8272 33.869 59.5357 30.1931C59.4197 30.8775 59.3114 31.5619 59.2031 32.2463Z" fill="#DBDBDB"/>
<path d="M60.0732 27.0808C76.4138 30.7799 92.8342 34.5112 109.335 38.2748C109.497 37.6149 109.663 36.9549 109.833 36.295C93.2789 32.5057 76.8185 28.7576 60.4522 25.0508C60.3207 25.7274 60.197 26.4041 60.0732 27.0808Z" fill="#DBDBDB"/>
<path d="M61.0791 21.9766C77.5073 25.717 94.0321 29.4921 110.654 33.3021C110.847 32.6525 111.04 32.0067 111.245 31.3687C94.5515 27.5253 77.9738 23.7282 61.5122 19.9775C61.3691 20.6271 61.2222 21.3038 61.0791 21.9766Z" fill="#DBDBDB"/>
<path d="M44.6145 22.9934C44.7189 23.3801 46.7063 25.9205 48.5275 25.7813C49.1191 25.731 49.007 22.483 49.007 22.483L49.0534 22.2433L49.703 18.8561L45.6933 16.4433L45.1133 16.1262C45.1133 16.1262 44.9973 17.062 44.8619 18.2336C44.8619 18.2877 44.8619 18.3418 44.8426 18.3998C44.8233 18.4578 44.8426 18.5274 44.8194 18.5893C44.7962 18.7633 44.773 18.9412 44.7575 19.119C44.7421 19.2969 44.7266 19.3858 44.7189 19.5289C44.7111 19.672 44.6918 19.8111 44.6802 19.9542C44.5886 20.9646 44.5666 21.98 44.6145 22.9934Z" fill="#AD6359"/>
<path d="M49.7069 18.8561L49.0805 22.1079C47.2545 21.526 45.7282 20.2537 44.8271 18.5622L44.8658 18.2336C45.0012 17.0736 45.1171 16.1262 45.1171 16.1262L45.6971 16.4433L49.7069 18.8561Z" fill="#263238"/>
<path d="M53.8132 13.3655C54.6562 19.355 51.1607 20.5343 49.8692 20.7122C48.7092 20.8746 44.684 21.2806 43.2302 15.4071C41.7763 9.53363 44.2935 7.2523 46.9576 6.73804C49.6218 6.22377 52.9896 7.37604 53.8132 13.3655Z" fill="#AD6359"/>
<path d="M52.8126 12.5574C52.6738 12.5485 52.5357 12.5317 52.3989 12.5071C52.2499 12.5079 52.1048 12.4604 51.9851 12.3718C51.9531 12.3371 51.9338 12.2926 51.9303 12.2456C51.9268 12.1985 51.9393 12.1517 51.9658 12.1127C52.0277 12.041 52.1078 11.9874 52.1976 11.9574C52.2874 11.9275 52.3837 11.9223 52.4762 11.9426C52.6713 11.9534 52.855 12.0377 52.9905 12.1784C53.0199 12.2118 53.0389 12.253 53.0452 12.297C53.0515 12.3411 53.0448 12.386 53.0259 12.4263C53.007 12.4665 52.9767 12.5004 52.9388 12.5237C52.9009 12.547 52.8571 12.5587 52.8126 12.5574Z" fill="#263238"/>
<path d="M48.7255 12.7893C48.8563 12.7559 48.9854 12.7159 49.1121 12.6694C49.26 12.648 49.3963 12.5771 49.4988 12.4684C49.5248 12.4289 49.5367 12.3818 49.5325 12.3348C49.5283 12.2877 49.5082 12.2435 49.4756 12.2093C49.4021 12.1492 49.3138 12.1099 49.2199 12.0956C49.126 12.0813 49.0301 12.0926 48.942 12.1281C48.7516 12.171 48.5845 12.2842 48.4741 12.4451C48.449 12.4839 48.4363 12.5294 48.4376 12.5755C48.4389 12.6217 48.4542 12.6664 48.4814 12.7037C48.5086 12.741 48.5466 12.7691 48.5901 12.7844C48.6337 12.7997 48.6809 12.8014 48.7255 12.7893Z" fill="#263238"/>
<path d="M49.688 13.9148C49.688 13.9148 49.6571 13.9148 49.661 13.9535C49.719 14.3595 49.7151 14.8389 49.3594 15.0129C49.3594 15.0129 49.3594 15.04 49.3594 15.0361C49.8079 14.924 49.8079 14.2899 49.688 13.9148Z" fill="#263238"/>
<path d="M49.2739 13.5238C48.6127 13.547 48.7017 14.8733 49.3165 14.8539C49.9313 14.8346 49.8307 13.5083 49.2739 13.5238Z" fill="#263238"/>
<path d="M49.0184 13.613C48.9101 13.6942 48.8057 13.8373 48.6665 13.8605C48.5273 13.8837 48.3726 13.7561 48.2605 13.6285H48.2373C48.2373 13.8798 48.3649 14.135 48.624 14.1544C48.883 14.1737 49.0377 13.934 49.0802 13.6749C49.1112 13.6672 49.0648 13.5782 49.0184 13.613Z" fill="#263238"/>
<path d="M51.9841 13.7019C51.9841 13.7019 52.0189 13.7019 52.0189 13.7367C52.0189 14.1466 52.131 14.6144 52.5138 14.7227V14.7459C52.0537 14.7188 51.9377 14.0963 51.9841 13.7019Z" fill="#263238"/>
<path d="M52.3171 13.2456C52.9744 13.1412 53.1329 14.4598 52.5259 14.5564C51.9188 14.6531 51.768 13.3307 52.3171 13.2456Z" fill="#263238"/>
<path d="M52.6034 13.2998C52.7155 13.3539 52.8354 13.4699 52.9591 13.4622C53.0829 13.4544 53.195 13.2998 53.2724 13.1528C53.2724 13.1528 53.2917 13.1528 53.2955 13.1528C53.3303 13.4042 53.2955 13.6748 53.0442 13.756C52.7929 13.8372 52.6575 13.6284 52.5493 13.3694C52.5299 13.35 52.557 13.2804 52.6034 13.2998Z" fill="#263238"/>
<path d="M50.2216 17.267C50.3337 17.3482 50.4497 17.4642 50.6082 17.4565C50.7602 17.4318 50.9052 17.3751 51.0336 17.2902C51.0336 17.2902 51.0606 17.2902 51.0529 17.2902C51.0058 17.3789 50.9357 17.4533 50.85 17.5057C50.7643 17.5581 50.6661 17.5865 50.5657 17.5879C50.4769 17.5799 50.3925 17.5454 50.3236 17.4889C50.2546 17.4323 50.2043 17.3564 50.179 17.2709C50.1752 17.267 50.2061 17.2554 50.2216 17.267Z" fill="#263238"/>
<path d="M49.9467 16.1882C50.0721 16.33 50.2254 16.4444 50.3971 16.5242C50.5687 16.6041 50.755 16.6476 50.9443 16.6522C51.1096 16.6557 51.2747 16.6375 51.4353 16.5981L51.5281 16.571L51.6132 16.544C51.6343 16.5377 51.6525 16.5242 51.6645 16.5058C51.6766 16.4873 51.6817 16.4653 51.6789 16.4434C51.6812 16.4306 51.6812 16.4175 51.6789 16.4048V16.3738C51.6364 16.0645 51.5359 15.6005 51.5359 15.6005C51.6557 15.6392 52.2667 15.8054 52.2319 15.6469C51.9816 14.2721 51.5929 12.9261 51.0719 11.6294C51.068 11.6213 51.0614 11.6148 51.0532 11.611C51.0451 11.6072 51.0358 11.6064 51.0271 11.6087C51.0184 11.611 51.0108 11.6162 51.0056 11.6236C51.0003 11.6309 50.9978 11.6398 50.9984 11.6488C51.2265 12.9248 51.6712 14.1466 51.9187 15.4226C51.7013 15.36 51.476 15.3287 51.2497 15.3298C51.2072 15.3298 51.4624 16.2153 51.4701 16.3584C51.2227 16.4239 50.9646 16.4384 50.7113 16.4012C50.4581 16.364 50.2151 16.2757 49.9969 16.1418C49.9467 16.1302 49.9119 16.1612 49.9467 16.1882Z" fill="#263238"/>
<path d="M43.3042 15.0743C44.7388 15.0125 44.6112 12.7544 44.6112 12.7544C44.6112 12.7544 46.2274 12.5224 46.2119 9.89689C46.556 10.4091 47.0147 10.8341 47.5517 11.1382C48.0886 11.4422 48.689 11.6169 49.3053 11.6485C49.777 11.6949 48.1453 10.5658 48.1453 10.5658C48.1453 10.5658 50.1018 12.1666 53.5586 11.3392C53.8022 11.2812 53.0907 7.64263 50.3029 6.53289C47.515 5.42316 45.0984 6.25449 43.4976 8.07956C43.0297 8.35629 42.6374 8.74424 42.3554 9.20899C42.0735 9.67373 41.9106 10.2009 41.8813 10.7437C41.7305 12.6384 42.7474 15.0975 43.3042 15.0743Z" fill="#263238"/>
<path d="M44.2594 15.7397C44.2594 15.7397 42.8442 13.9224 42.0128 14.4366C41.1815 14.9509 42.3183 17.6344 43.343 17.9553C43.4715 18.0049 43.6087 18.0281 43.7463 18.0235C43.884 18.0188 44.0193 17.9865 44.1442 17.9284C44.2691 17.8703 44.381 17.7876 44.4732 17.6852C44.5654 17.5829 44.636 17.463 44.6808 17.3328L44.2594 15.7397Z" fill="#AD6359"/>
<path d="M42.3564 15.2139V15.2409C43.0756 15.4884 43.4816 16.1225 43.7755 16.7876C43.7311 16.7192 43.6723 16.6613 43.6034 16.6178C43.5344 16.5743 43.4568 16.5463 43.376 16.5356C43.2952 16.525 43.213 16.532 43.1351 16.5561C43.0572 16.5802 42.9855 16.621 42.9248 16.6755C42.9055 16.6755 42.9248 16.718 42.9248 16.7141C43.0466 16.6681 43.1795 16.6608 43.3055 16.6933C43.4315 16.7259 43.5444 16.7966 43.6286 16.8959C43.7668 17.0642 43.8885 17.2455 43.992 17.4372C44.0268 17.4991 44.139 17.4604 44.1119 17.3869C44.0887 16.4589 43.327 15.2371 42.3564 15.2139Z" fill="#263238"/>
<path d="M44.0187 17.6421C44.0224 17.7008 44.0086 17.7593 43.9791 17.8102C43.9496 17.8611 43.9056 17.9021 43.8528 17.928C43.8 17.9539 43.7407 17.9637 43.6824 17.9559C43.624 17.9482 43.5693 17.9233 43.5251 17.8845C43.4809 17.8457 43.4492 17.7946 43.434 17.7378C43.4187 17.681 43.4207 17.6209 43.4396 17.5652C43.4585 17.5095 43.4934 17.4606 43.5401 17.4247C43.5867 17.3889 43.6429 17.3676 43.7016 17.3637C43.7408 17.3611 43.78 17.3662 43.8171 17.3788C43.8543 17.3914 43.8885 17.4112 43.918 17.437C43.9475 17.4629 43.9715 17.4943 43.9888 17.5295C44.0061 17.5647 44.0163 17.603 44.0187 17.6421Z" fill="white"/>
<path d="M44.9506 13.671L42.418 13.6594L42.4721 12.9905L44.9738 13.2921L44.9506 13.671Z" fill="#093358"/>
<path d="M45.0594 13.0292L42.5654 12.569L42.7394 11.9194L45.1484 12.6618L45.0594 13.0292Z" fill="#093358"/>
<path d="M39.6387 26.5741C38.4787 29.5707 34.1441 43.7382 36.0117 48.9427C37.1717 52.1366 48.4663 58.4315 51.3276 59.8351C52.5765 60.446 57.1276 52.3995 56.5747 51.023C56.0217 49.6465 45.2376 44.3375 44.5339 43.4791C44.5339 43.4791 44.1472 33.3794 43.9307 28.0125C43.7219 22.924 41.8272 20.9713 39.6387 26.5741Z" fill="#AD6359"/>
<path d="M63.8015 55.6512C65.3984 56.3356 68.0548 55.9141 67.9311 57.1978C67.8073 58.3578 65.932 58.4545 65.932 58.4545C65.932 58.4545 68.0857 59.0113 67.6063 60.2022C67.1268 61.3932 65.0465 61.0993 65.0465 61.0993C65.0465 61.0993 66.86 61.486 66.2955 62.646C65.7309 63.806 63.9136 63.8756 63.9136 63.8756C63.9136 63.8756 64.3583 64.3396 63.5927 64.9776C62.4945 65.8901 59.4824 65.2444 57.986 64.5329C56.4896 63.8214 51.548 60.1172 50.8018 59.5372L55.2793 49.9092C55.2793 49.9092 58.5196 49.944 60.1591 50.1644C61.7985 50.3848 67.0031 52.6081 66.5391 53.9382C66.0751 55.2684 62.4288 53.6328 61.4467 53.4278C60.4645 53.2229 60.2519 53.4278 60.6231 53.8532C60.8667 54.1277 63.0939 55.3496 63.8015 55.6512Z" fill="#AD6359"/>
<path d="M65.8422 58.416C63.2167 58.3851 62.076 57.9211 59.9068 56.5175C59.8643 56.4904 59.814 56.5484 59.8527 56.5794C61.8518 58.1454 63.2012 58.938 65.846 58.5436C65.9775 58.5204 65.9659 58.416 65.8422 58.416Z" fill="#263238"/>
<path d="M65.1579 61.0764C62.4319 60.8096 61.1868 60.3031 58.8088 59.0116C58.8014 59.0093 58.7934 59.0095 58.7861 59.0123C58.7788 59.0151 58.7726 59.0202 58.7686 59.0269C58.7646 59.0336 58.763 59.0414 58.7639 59.0492C58.7649 59.0569 58.7685 59.0641 58.774 59.0696C61.0012 60.5428 62.3662 61.3007 65.1192 61.2117C65.2468 61.2272 65.2816 61.088 65.1579 61.0764Z" fill="#263238"/>
<path d="M63.8861 63.841C61.2722 63.3925 59.8841 62.9092 57.7342 61.3509C57.7245 61.3427 57.7119 61.3387 57.6992 61.3398C57.6865 61.3409 57.6748 61.3469 57.6666 61.3567C57.6584 61.3664 57.6544 61.379 57.6554 61.3917C57.6565 61.4044 57.6626 61.4161 57.6724 61.4244C59.7062 63.2301 61.4346 63.8449 63.859 63.9222C64.033 63.9338 64.0524 63.8719 63.8861 63.841Z" fill="#263238"/>
<path d="M44.9199 35.1155L35.8604 36.8671C35.8604 36.8671 38.799 27.1425 40.4694 24.5247C42.3525 21.5822 43.4467 23.1869 44.1853 26.4233C44.9238 29.6597 44.9199 35.1155 44.9199 35.1155Z" fill="#093358"/>
<path d="M43.2235 29.9806C43.2242 30.1193 43.1837 30.2552 43.1071 30.3708C43.0305 30.4865 42.9213 30.5768 42.7932 30.6303C42.6652 30.6837 42.5241 30.6979 42.388 30.671C42.2519 30.6442 42.1268 30.5774 42.0287 30.4793C41.9306 30.3812 41.8639 30.2561 41.837 30.12C41.8101 29.9839 41.8243 29.8429 41.8778 29.7148C41.9312 29.5868 42.0215 29.4775 42.1372 29.4009C42.2529 29.3243 42.3887 29.2838 42.5275 29.2846C42.7118 29.2856 42.8882 29.3592 43.0185 29.4896C43.1488 29.6199 43.2225 29.7963 43.2235 29.9806ZM40.0219 25.3174C39.8401 25.677 39.6352 26.0907 39.4573 26.547C39.5762 26.6408 39.7235 26.6913 39.8749 26.69C39.9665 26.6906 40.0572 26.6729 40.1419 26.6381C40.2266 26.6033 40.3035 26.5521 40.3682 26.4873C40.433 26.4226 40.4842 26.3457 40.519 26.261C40.5538 26.1763 40.5715 26.0856 40.5709 25.994C40.5723 25.835 40.5182 25.6805 40.418 25.557C40.3178 25.4336 40.1778 25.3488 40.0219 25.3174ZM39.8943 33.4064C39.7568 33.4072 39.6226 33.4487 39.5087 33.5256C39.3947 33.6025 39.3061 33.7115 39.254 33.8388C39.2019 33.966 39.1887 34.1058 39.216 34.2406C39.2433 34.3753 39.3099 34.499 39.4074 34.5959C39.5049 34.6929 39.6289 34.7588 39.7638 34.7853C39.8987 34.8119 40.0384 34.7979 40.1654 34.7451C40.2923 34.6923 40.4008 34.6031 40.4771 34.4887C40.5534 34.3743 40.5941 34.2399 40.5941 34.1024C40.5931 33.9175 40.5189 33.7405 40.3878 33.6101C40.2567 33.4796 40.0792 33.4064 39.8943 33.4064ZM44.9209 33.4644C44.7943 33.5195 44.687 33.611 44.6125 33.7272C44.538 33.8435 44.4998 33.9793 44.5027 34.1173C44.5056 34.2554 44.5495 34.3894 44.6288 34.5024C44.7081 34.6155 44.8192 34.7023 44.948 34.752C44.9209 34.462 44.9209 34.0174 44.9209 33.4644Z" fill="white"/>
<path d="M36.8275 34.9956C37.1329 34.8873 39.9517 34.2996 40.5665 34.1875C41.1813 34.0753 43.6946 33.5843 44.3404 33.5185C44.3439 33.517 44.3478 33.5164 44.3516 33.5167C44.3554 33.517 44.3591 33.5183 44.3624 33.5204C44.3656 33.5225 44.3682 33.5254 44.3701 33.5288C44.3719 33.5322 44.3728 33.5359 44.3728 33.5398C44.3728 33.5437 44.3719 33.5474 44.3701 33.5508C44.3682 33.5542 44.3656 33.5571 44.3624 33.5592C44.3591 33.5613 44.3554 33.5626 44.3516 33.5629C44.3478 33.5632 44.3439 33.5626 44.3404 33.5611C43.7217 33.7467 41.1929 34.2493 40.5665 34.3769C39.9401 34.5045 37.1406 35.0227 36.8236 35.0381C36.8004 35.0381 36.8004 35.0033 36.8275 34.9956Z" fill="#263238"/>
<path d="M44.213 35.2468C44.4836 35.1733 44.9051 35.0805 44.9051 35.0805C44.9051 34.0056 44.472 28.5845 44.387 27.2737C44.387 27.2505 44.4179 27.2505 44.4179 27.2737C44.5158 28.0136 44.6061 28.7508 44.6886 29.4855C44.6886 29.3927 44.6886 29.2999 44.6886 29.2071C44.7079 28.8707 44.735 28.5381 44.7427 28.2056C44.7427 28.1747 44.7852 28.1708 44.7852 28.2056C44.8084 28.5416 44.8084 28.8788 44.7852 29.2148C44.7659 29.4545 44.735 29.6865 44.7002 29.9224C44.7466 30.3477 44.7968 30.7692 44.8316 31.1945C44.9399 32.5015 45.0984 33.8509 45.1062 35.1617C44.8037 35.2422 44.4942 35.294 44.182 35.3164C44.1782 35.3203 44.1743 35.2584 44.213 35.2468Z" fill="#263238"/>
<path d="M36.7382 36.6814C36.4482 36.7664 36.1621 36.836 35.8721 36.9134L35.7793 36.9366V36.836C36.0301 35.6388 36.3555 34.4585 36.7537 33.3019C36.9509 32.7219 37.1404 32.1419 37.3917 31.5812C37.643 31.0206 37.8634 30.456 38.1341 29.907C37.9601 30.4947 37.7706 31.067 37.585 31.6508L37.0205 33.3908L35.8992 36.8708L35.8296 36.7935C36.1428 36.7548 36.4405 36.7123 36.7382 36.6814Z" fill="#263238"/>
<path d="M37.3462 32.0686C37.2641 31.8274 37.2428 31.5698 37.2843 31.3184C37.2986 31.1872 37.3258 31.0577 37.3655 30.9318C37.4048 30.8113 37.458 30.6958 37.524 30.5876C37.527 30.8348 37.5102 31.0817 37.4738 31.3262C37.439 31.5852 37.4042 31.8404 37.3462 32.0686Z" fill="#263238"/>
<path d="M80.6759 10.5739C81.0023 10.5347 81.3327 10.6005 81.6192 10.7618C81.9057 10.9231 82.1333 11.1715 82.269 11.4709C82.269 11.4709 82.9689 10.1679 84.2023 10.2568C84.8326 10.3032 85.3121 11.3511 85.3121 11.3511C85.3121 11.3511 85.9191 10.3341 87.0018 10.4811C87.8679 10.5971 88.2198 11.6411 88.2198 11.6411C88.2198 11.6411 89.2561 10.9335 90.099 11.3356C91.8042 12.1476 91.5877 19.6335 88.7959 20.7084C87.4967 21.2111 87.6359 19.386 87.6359 19.386C87.6359 19.386 86.7853 21.9573 85.2425 21.9496C83.6997 21.9418 84.0361 19.587 84.0361 19.587C84.0361 19.587 83.1893 22.0694 81.5885 21.907C79.9219 21.733 80.6682 19.4324 80.6682 19.4324C80.6682 19.4324 79.5082 21.0641 78.2979 20.6543C76.3221 19.9815 79.1215 16.4589 78.7774 14.804L75.7305 14.0307C75.7305 14.0307 79.3342 10.6783 80.6759 10.5739Z" fill="#AD6359"/>
<path d="M88.2886 11.7648C88.2886 11.7416 88.3234 11.7339 88.3273 11.7648C88.8867 14.3422 88.648 17.0288 87.6429 19.4672C87.6119 19.5445 87.4727 19.5213 87.4921 19.4285C88.1304 16.9265 88.3988 14.3446 88.2886 11.7648Z" fill="#263238"/>
<path d="M85.3191 11.2967C85.3191 11.2696 85.3655 11.2657 85.3732 11.2967C85.903 13.8525 85.613 17.0967 84.105 19.6448C84.0547 19.7337 83.9194 19.7608 83.9735 19.6448C84.8474 17.8855 85.4583 13.7133 85.3191 11.2967Z" fill="#263238"/>
<path d="M80.4932 19.5483C81.8426 17.0505 82.2564 14.3709 82.2834 11.5559C82.2834 11.5211 82.3376 11.525 82.3453 11.5559C82.7049 12.9363 82.5 14.7266 82.2216 16.107C81.9878 17.3908 81.4211 18.5908 80.5782 19.587C80.555 19.6372 80.4932 19.6024 80.4932 19.5483Z" fill="#263238"/>
<path d="M87.5736 19.5018C87.4158 20.0229 87.1798 20.5171 86.8737 20.9673C86.5784 21.4511 86.1163 21.8101 85.5745 21.9765C85.2893 22.052 84.9876 22.0358 84.7122 21.9301C84.4353 21.8047 84.2187 21.5756 84.109 21.2921C83.9221 20.756 83.8755 20.1809 83.9737 19.6217L84.2328 19.6913C84.034 20.2153 83.7476 20.7016 83.386 21.1297C83.0219 21.582 82.5072 21.8881 81.936 21.992C81.6418 22.0325 81.3422 21.9965 81.066 21.8876C80.9262 21.8268 80.8003 21.7383 80.6959 21.6272C80.5916 21.5162 80.5109 21.3851 80.4589 21.2418C80.3024 20.6924 80.3172 20.1083 80.5014 19.5676L80.6638 19.6565C80.4849 19.8594 80.2867 20.0446 80.0722 20.2094C79.8602 20.3765 79.626 20.5131 79.3762 20.6154C79.1241 20.7181 78.8504 20.7566 78.5797 20.7276C78.3143 20.6836 78.0688 20.5594 77.876 20.3718C78.0796 20.5368 78.3268 20.6389 78.5874 20.6657C78.8452 20.6772 79.1017 20.624 79.3337 20.511C79.7928 20.2738 80.1961 19.9417 80.5169 19.5366L80.776 19.2273L80.6793 19.614C80.5252 20.118 80.5252 20.6566 80.6793 21.1606C80.7202 21.2725 80.784 21.3746 80.8666 21.4605C80.9491 21.5464 81.0486 21.6141 81.1588 21.6594C81.3907 21.7461 81.6411 21.7714 81.8857 21.7329C82.3884 21.6352 82.8397 21.3609 83.1578 20.9596C83.4988 20.5588 83.773 20.1058 83.9698 19.6178L84.3874 18.5854L84.2289 19.6875C84.1339 20.1969 84.1685 20.7221 84.3294 21.2148C84.411 21.444 84.5769 21.6335 84.7934 21.7445C85.0258 21.8322 85.2794 21.8471 85.5204 21.787C86.0275 21.6429 86.4689 21.3272 86.7693 20.8938C87.1003 20.4691 87.3709 20.0007 87.5736 19.5018Z" fill="#263238"/>
<path d="M94.2363 100.354C101.298 100.354 107.023 94.6289 107.023 87.5668C107.023 80.5047 101.298 74.7798 94.2363 74.7798C87.1742 74.7798 81.4492 80.5047 81.4492 87.5668C81.4492 94.6289 87.1742 100.354 94.2363 100.354Z" fill="#093358"/>
<path d="M95.5512 79.6672H92.9258V95.4626H95.5512V79.6672Z" fill="white"/>
<path d="M102.135 88.8813V86.2559H86.3394V88.8813H102.135Z" fill="white"/>
</svg>
