<svg width="22" height="22" viewBox="0 0 22 22" fill="none" xmlns="http://www.w3.org/2000/svg">
    <g clip-path="url(#clip0_758_8895)">
        <path
            d="M18.3335 15.583H20.1668V17.4163H1.8335V15.583H3.66683V9.16634C3.66683 7.22142 4.43945 5.35616 5.81471 3.98089C7.18998 2.60562 9.05524 1.83301 11.0002 1.83301C12.9451 1.83301 14.8103 2.60562 16.1856 3.98089C17.5609 5.35616 18.3335 7.22142 18.3335 9.16634V15.583ZM16.5002 15.583V9.16634C16.5002 7.70765 15.9207 6.3087 14.8893 5.27725C13.8578 4.2458 12.4589 3.66634 11.0002 3.66634C9.54147 3.66634 8.14253 4.2458 7.11108 5.27725C6.07963 6.3087 5.50016 7.70765 5.50016 9.16634V15.583H16.5002ZM8.25016 19.2497H13.7502V21.083H8.25016V19.2497Z"
            fill="#828282" />
    </g>
    <defs>
        <clipPath id="clip0_758_8895">
            <rect width="22" height="22" fill="white" />
        </clipPath>
    </defs>
</svg>
    