<svg xmlns="http://www.w3.org/2000/svg" width="119" height="77.148" viewBox="0 0 119 77.148">
  <g id="undraw_notify_re_65on" transform="translate(0 -0.047)">
    <path id="Path_19848" data-name="Path 19848" d="M906.4,645.133,903,634.876s3.738,3.738,3.738,6.806l-.671-7.093a10.825,10.825,0,0,1,1.725,6.518C907.6,645.037,906.4,645.133,906.4,645.133Z" transform="translate(-797.858 -568.166)" fill="#e6e6e6"/>
    <path id="Path_19849" data-name="Path 19849" d="M422.317,584.563,419,574.552s3.649,3.649,3.649,6.642l-.655-6.923a10.565,10.565,0,0,1,1.684,6.362C423.491,584.469,422.317,584.563,422.317,584.563Z" transform="translate(-386.765 -516.934)" fill="#e6e6e6"/>
    <path id="Path_19850" data-name="Path 19850" d="M458.245,628.19c.006,6.585-13.055,4.559-29.043,4.573s-28.852,2.062-28.857-4.523,13.05-8.028,29.039-8.042S458.239,621.6,458.245,628.19Z" transform="translate(-370.919 -555.942)" fill="#c1c8d8"/>
    <rect id="Rectangle_17518" data-name="Rectangle 17518" width="119" height="0.301" transform="translate(0 76.817)" fill="#3f3d56"/>
    <path id="Path_19851" data-name="Path 19851" d="M487.94,374.86h-2.09l-.995-8.063h3.085Z" transform="translate(-411.82 -311.505)" fill="#ffb8b8"/>
    <path id="Path_19852" data-name="Path 19852" d="M467,416.357h4.263V418.9H464.7v-.232A2.306,2.306,0,0,1,467,416.357Z" transform="translate(-394.698 -353.6)" fill="#2f2e41"/>
    <path id="Path_19853" data-name="Path 19853" d="M589.94,453.86h-2.09l-.995-8.063h3.085Z" transform="translate(-498.455 -378.605)" fill="#ffb8b8"/>
    <path id="Path_19854" data-name="Path 19854" d="M569,495.357h4.264V497.9H566.7v-.232A2.306,2.306,0,0,1,569,495.357Z" transform="translate(-481.334 -420.7)" fill="#2f2e41"/>
    <path id="Path_19855" data-name="Path 19855" d="M829.006,409.481a1.554,1.554,0,0,0-.436-2.342l-4.855-19.777-3.1,1.336,5.775,19.123a1.562,1.562,0,0,0,2.621,1.661Z" transform="translate(-727.88 -358.179)" fill="#ffb8b8"/>
    <path id="Path_19856" data-name="Path 19856" d="M794.045,265.875a1.715,1.715,0,0,0-2.623.174l-7.514.863,1.143,2.9,6.834-1.279a1.724,1.724,0,0,0,2.161-2.656Z" transform="translate(-696.705 -254.543)" fill="#ffb8b8"/>
    <path id="Path_19857" data-name="Path 19857" d="M769,507.848l3.279,24.61,4.081-.84s-.6-17.923,1.44-20.083-2.625-5.946-2.625-5.946Z" transform="translate(-684.043 -458.598)" fill="#2f2e41"/>
    <path id="Path_19858" data-name="Path 19858" d="M698.933,461.5l-1.506,2.259s-11.6-4.82-11.6,2.862-.664,12.9-.9,13.256,2.777,1.294,4.218,1.054c0,0,1.777-12.385,1.657-13.105,0,0,11.378,5.578,13.538,5.1a4.123,4.123,0,0,0,3.031-3.14c.36-.96-.151-8.586-.151-8.586l-7.2-2.2Z" transform="translate(-612.62 -419.025)" fill="#2f2e41"/>
    <path id="Path_19859" data-name="Path 19859" d="M757.986,287.054l-.429-.515s-4.809-10.82-2.92-13.739,10.133-3.349,10.39-3.177-.615,2.4-.014,3.432c0,0-6.386,1.385-6.815,1.556s3.309,6.518,3.309,6.518l-.429,3.864Z" transform="translate(-671.47 -258.147)" fill="#c1c8d8"/>
    <path id="Path_19860" data-name="Path 19860" d="M776.786,346.8s-4.465.515-4.637.515-.258-1.116-.258-1.116l-3.95,5.41S766,367.3,766.51,367.041s10.018,1.222,10.1.535-.086-4.122.172-4.294,4.465-10.82,4.465-10.82-.429-2.233-1.889-3.005A8.156,8.156,0,0,1,776.786,346.8Z" transform="translate(-681.855 -323.213)" fill="#c1c8d8"/>
    <path id="Path_19861" data-name="Path 19861" d="M837.823,378.118l1.374,1.46s2.041,16.774.925,17.29a9.726,9.726,0,0,1-3.314.452l-2.162-7.952Z" transform="translate(-739.8 -350.328)" fill="#c1c8d8"/>
    <circle id="Ellipse_1433" data-name="Ellipse 1433" cx="3.952" cy="3.952" r="3.952" transform="translate(86.688 14.615)" fill="#ffb8b8"/>
    <path id="Path_19862" data-name="Path 19862" d="M775.832,279.917c-.053-.82-1.088-.848-1.91-.856s-1.8.022-2.269-.656a1.532,1.532,0,0,1,.005-1.55,4.405,4.405,0,0,1,1.082-1.2,15,15,0,0,1,3.427-2.414,5.5,5.5,0,0,1,4.086-.353c1.622.579,3.815,3.559,4,5.271a6.209,6.209,0,0,1-1.648,4.737c-1.153,1.279-3.793.763-5.455,1.218a3.4,3.4,0,0,0-1.274-4.694Z" transform="translate(-686.119 -260.732)" fill="#2f2e41"/>
    <circle id="Ellipse_1434" data-name="Ellipse 1434" cx="9.488" cy="9.488" r="9.488" transform="translate(44.999 51.333)" fill="#fff"/>
    <path id="Path_19863" data-name="Path 19863" d="M400.345,244.555a6.8,6.8,0,0,1-6.215-4.035l-15.056-33.906a9.012,9.012,0,1,1,16.851-6.306l10.9,35.461a6.79,6.79,0,0,1-6.483,8.786Z" transform="translate(-352.195 -193.896)" fill="#fff"/>
  </g>
</svg>
