<svg xmlns="http://www.w3.org/2000/svg" width="20" height="20" viewBox="0 0 20 20">
  <path id="ic_qr" d="M8.5,6A2.513,2.513,0,0,0,6,8.5v3.889a2.513,2.513,0,0,0,2.5,2.5h3.889a2.513,2.513,0,0,0,2.5-2.5V8.5a2.513,2.513,0,0,0-2.5-2.5ZM19.611,6a2.513,2.513,0,0,0-2.5,2.5v3.889a2.513,2.513,0,0,0,2.5,2.5H23.5a2.513,2.513,0,0,0,2.5-2.5V8.5A2.513,2.513,0,0,0,23.5,6ZM8.5,7.667h3.889a.821.821,0,0,1,.833.833v3.889a.821.821,0,0,1-.833.833H8.5a.821.821,0,0,1-.833-.833V8.5A.821.821,0,0,1,8.5,7.667Zm11.111,0H23.5a.821.821,0,0,1,.833.833v3.889a.821.821,0,0,1-.833.833H19.611a.821.821,0,0,1-.833-.833V8.5A.821.821,0,0,1,19.611,7.667ZM9.333,9.333v2.222h2.222V9.333Zm11.111,0v2.222h2.222V9.333ZM8.5,17.111a2.513,2.513,0,0,0-2.5,2.5V23.5A2.513,2.513,0,0,0,8.5,26h3.889a2.513,2.513,0,0,0,2.5-2.5V19.611a2.513,2.513,0,0,0-2.5-2.5Zm8.611,0v3.056h3.056V17.111Zm3.056,3.056v2.778h2.778V20.167Zm2.778,0H26V17.111H22.944Zm0,2.778V26H26V22.944Zm-2.778,0H17.111V26h3.056ZM8.5,18.778h3.889a.821.821,0,0,1,.833.833V23.5a.821.821,0,0,1-.833.833H8.5a.821.821,0,0,1-.833-.833V19.611A.821.821,0,0,1,8.5,18.778Zm.833,1.667v2.222h2.222V20.444Z" transform="translate(-6 -6)" fill="#fff"/>
</svg>
