<svg xmlns="http://www.w3.org/2000/svg" xmlns:xlink="http://www.w3.org/1999/xlink" width="13.83" height="9.677" viewBox="0 0 13.83 9.677">
  <defs>
    <clipPath id="clip-path">
      <rect width="13.83" height="9.677" fill="none"/>
    </clipPath>
  </defs>
  <g id="Repeat_Grid_3" data-name="Repeat Grid 3" clip-path="url(#clip-path)">
    <g transform="translate(-3.17 -5.5)">
      <path id="Path_19763" data-name="Path 19763" d="M15.772,6.334A3.854,3.854,0,0,1,17,9.384c0,2.476-1.906,4.7-4.677,5.793L11.63,14.2a5.3,5.3,0,0,0,3.294-3.977,3.015,3.015,0,0,1-1.5.22,2.6,2.6,0,0,1-2.5-2.469A2.6,2.6,0,0,1,13.641,5.5a3.146,3.146,0,0,1,2.132.834Zm-7.757,0A3.854,3.854,0,0,1,9.243,9.384c0,2.476-1.906,4.7-4.677,5.793L3.874,14.2a5.3,5.3,0,0,0,3.294-3.977,3.015,3.015,0,0,1-1.5.22,2.6,2.6,0,0,1-2.5-2.469A2.6,2.6,0,0,1,5.885,5.5a3.146,3.146,0,0,1,2.132.834Z" fill="#fff"/>
    </g>
  </g>
</svg>
