<svg width="403" height="269" viewBox="0 0 403 269" fill="none" xmlns="http://www.w3.org/2000/svg">
<path d="M248.417 0.861703C249.33 1.40837 250.467 1.6617 251.827 1.6217C290.227 9.8617 315.577 42.1317 320.597 80.2417L321.867 94.2417C321.887 94.315 321.904 94.3884 321.917 94.4617L320.737 106.972C315.597 147.332 287.717 180.502 246.547 187.322L217.607 187.392C217.28 187.392 216.964 187.458 216.657 187.592C214.767 188.382 212.547 187.422 211.017 187.422C195.787 187.492 180.137 188.372 164.987 187.162C154.397 183.142 150.067 172.822 153.347 162.352C156.477 152.352 164.457 150.282 174.477 150.162C190.757 149.982 207.04 149.975 223.327 150.142C231.354 150.222 236.814 150.142 239.707 149.902C263.757 147.872 281.457 129.972 286.317 106.802C290.384 87.4217 286.064 69.9484 273.357 54.3817L268.637 49.7917C257.847 40.2417 247.537 37.8717 232.417 37.5517C215.987 37.2017 201.607 37.5317 188.007 37.3917C155.387 37.0617 122.757 37.2717 90.137 37.5217C82.3437 37.5817 76.507 38.105 72.627 39.0917C63.6804 41.3584 56.1537 45.755 50.047 52.2817C27.367 76.5317 27.957 115.912 53.857 138.572C56.0304 140.825 57.4004 142.318 57.967 143.052C64.097 151.052 62.287 164.322 53.737 170.492C41.997 177.802 32.317 168.732 24.957 160.512C12.7704 146.878 4.88703 130.658 1.30703 111.852C1.50703 110.705 1.27037 109.228 0.597034 107.422C-0.129632 99.055 -0.192964 90.665 0.407036 82.2517L1.33704 75.7217C8.16704 40.3417 32.107 10.4817 67.687 1.6417C68.9604 1.81503 70.6637 1.51837 72.797 0.751702C76.887 0.581702 81.087 0.211701 85.087 0.211701C131.787 0.285035 178.49 0.215035 225.197 0.00170212C231.464 -0.0249645 239.204 0.261703 248.417 0.861703Z" fill="white"/>
<path d="M295.757 230.522C306.137 230.492 318.517 231.312 327.577 229.192C355.417 222.682 370.267 195.362 367.917 168.022C366.67 153.575 360.76 141.385 350.187 131.452C341.767 123.542 336.587 115.282 342.877 103.742C346.317 97.4417 352.697 93.7417 359.737 95.1617C367.767 96.7717 377.097 107.282 382.207 114.042C391.754 126.702 398.017 141.622 400.997 158.802C400.73 159.928 400.974 161.515 401.727 163.562C403.967 189.842 397.624 213.295 382.697 233.922C369.504 252.148 351.657 263.208 329.157 267.102C320.384 267.968 311.73 268.185 303.197 267.752C302.927 267.738 302.657 267.79 302.407 267.902L301.997 268.092H184.507L153.957 267.102C115.917 261.192 89.927 231.042 82.287 194.182L81.257 188.072C75.477 141.032 101.787 92.0617 150.247 81.9317L156.817 80.8417C182.557 80.5617 208.257 80.4717 234.007 80.4917C235.194 80.4917 236.747 80.8784 238.667 81.6517C253.267 87.5217 253.137 110.782 238.987 116.432C236.494 117.432 232.44 117.952 226.827 117.992C206.407 118.142 187.817 117.692 165.507 118.242C142.997 118.802 125.167 132.402 117.887 153.712C111.3 172.998 113.457 190.968 124.357 207.622C133.677 221.872 148.787 230.522 166.007 230.502C209.254 230.468 252.504 230.475 295.757 230.522Z" fill="white"/>
</svg>
