<svg xmlns="http://www.w3.org/2000/svg" width="17.288" height="17.291" viewBox="0 0 17.288 17.291">
  <path id="Path_19759" data-name="Path 19759" d="M5.33,3.271A3.5,3.5,0,0,1,9.584,8.234l10.709,10.71-1.414,1.414L8.169,9.648A3.5,3.5,0,0,1,3.207,5.393L5.444,7.63A1.5,1.5,0,1,0,7.565,5.509L5.329,3.27ZM15.7,5.155l3.182-1.768L20.293,4.8,18.525,7.983l-1.768.354-2.12,2.121L13.222,9.044l2.121-2.121L15.7,5.155ZM8.979,13.287,10.393,14.7,5.09,20A1,1,0,0,1,3.6,18.677l.078-.087,5.3-5.3Z" transform="translate(-3.005 -3.067)" fill="#43425d"/>
</svg>
