<svg xmlns="http://www.w3.org/2000/svg" width="75.009" height="75.008" viewBox="0 0 75.009 75.008">
    <g id="checked" transform="translate(-0.475 511.865)">
        <path id="Path_33511" data-name="Path 33511"
            d="M34.581-511.738a38.1,38.1,0,0,0-19.8,7.891,43.247,43.247,0,0,0-8.713,9.71,51.16,51.16,0,0,0-3.374,6.908,45.588,45.588,0,0,0-1.877,7.319,45.718,45.718,0,0,0,0,11.147,37.017,37.017,0,0,0,3.476,10.927,34.816,34.816,0,0,0,7.172,9.989,34.815,34.815,0,0,0,9.989,7.172A37.016,37.016,0,0,0,32.381-437.2a45.717,45.717,0,0,0,11.147,0,45.576,45.576,0,0,0,7.319-1.878,51.144,51.144,0,0,0,6.908-3.374,40.58,40.58,0,0,0,12.086-12.086,51.162,51.162,0,0,0,3.374-6.908,39.719,39.719,0,0,0,2.229-11.133c.117-2.259,0-2.8-.719-3.623a2.775,2.775,0,0,0-4.782,1.276,9.575,9.575,0,0,0-.161,1.789,32.288,32.288,0,0,1-.953,6.659A31.983,31.983,0,0,1,45.816-443.46a32.646,32.646,0,0,1-15.782-.015A31.951,31.951,0,0,1,6.36-470.2a38.991,38.991,0,0,1,0-8.272A31.969,31.969,0,0,1,30.034-505.2a31.912,31.912,0,0,1,6.718-.968c2.1-.015,3.168-.5,3.711-1.672a2.743,2.743,0,0,0-1.408-3.77C38.409-511.9,36.942-511.943,34.581-511.738Z"
            transform="translate(0 0)" fill="#46b370" />
        <path id="Path_33512" data-name="Path 33512"
            d="M174.479-447.513a3.827,3.827,0,0,0-.807.308c-.205.1-8.052,7.862-17.454,17.249L139.13-412.913l-4.254-4.62c-7.876-8.581-8.287-9.006-8.991-9.314a2.7,2.7,0,0,0-3.535,1.232,3.058,3.058,0,0,0-.029,2.582c.249.484,4.474,5.134,12.453,13.729,2.669,2.875,3.227,3.315,4.283,3.315,1.232,0,1,.22,20.124-18.877,19.772-19.742,18.877-18.774,18.716-20.212A2.9,2.9,0,0,0,174.479-447.513Z"
            transform="translate(-103.742 -54.852)" fill="#46b370" />
    </g>
</svg>
  