<svg width="17" height="14" viewBox="0 0 17 14" fill="none" xmlns="http://www.w3.org/2000/svg">
<path d="M3.24185 8.7917C3.37056 8.46946 3.49215 8.16522 3.61361 7.86097C4.00337 6.88587 4.3929 5.91043 4.7822 4.93466C4.8014 4.88645 4.81988 4.85867 4.88175 4.85881C6.11638 4.86131 7.35096 4.86193 8.58549 4.86069H8.6657C8.65546 4.89148 8.64934 4.91336 8.64095 4.93466C8.13779 6.19424 7.63501 7.45406 7.13261 8.71413C7.10786 8.77644 7.07757 8.794 7.01343 8.79386C5.79037 8.79184 4.56764 8.79132 3.34524 8.79228L3.24185 8.7917Z" fill="white"/>
<path d="M7.41275 8.7877C7.42569 8.75114 7.43494 8.72236 7.44617 8.69444C7.9426 7.45241 8.43856 6.21025 8.93404 4.96793C8.96604 4.88763 9.00173 4.85812 9.09048 4.85841C10.3084 4.86215 11.5265 4.86086 12.7444 4.86071H12.834C12.7853 4.9852 12.741 5.1002 12.6954 5.21461C12.2288 6.38343 11.7623 7.55229 11.296 8.72121C11.2752 8.77359 11.2509 8.79317 11.1934 8.79317C9.95833 8.79173 8.7237 8.79125 7.48955 8.79173C7.46665 8.79173 7.44375 8.78957 7.41275 8.7877Z" fill="white"/>
<path d="M11.575 8.79172C11.6603 8.57886 11.7377 8.38112 11.8168 8.1838C12.2502 7.09961 12.6833 6.01542 13.1162 4.93122C13.135 4.88431 13.1542 4.85926 13.2115 4.85926C14.4509 4.86128 15.6903 4.86185 16.9299 4.86099C16.9504 4.86099 16.9708 4.86329 17 4.86502C16.9457 5.00232 16.8945 5.13286 16.8424 5.2631C16.3808 6.41858 15.9194 7.57425 15.4584 8.73012C15.439 8.77848 15.4134 8.79344 15.3635 8.7933C14.1287 8.79224 12.8938 8.79172 11.6589 8.79172H11.575Z" fill="white"/>
<path d="M11.1498 9.07953C11.0889 9.23381 11.0344 9.3737 10.9791 9.51301C10.5235 10.6531 10.0684 11.7935 9.61384 12.934C9.5908 12.9915 9.56364 13.0123 9.50092 13.0123C8.27075 13.0103 7.04053 13.0097 5.81026 13.0107H5.72351C5.78879 12.8472 5.8488 12.6968 5.90839 12.5464C6.36149 11.4131 6.81426 10.2796 7.2667 9.14602C7.28675 9.0955 7.3115 9.07823 7.36511 9.07838C8.60003 9.07982 9.83494 9.0802 11.0698 9.07953H11.1498Z" fill="white"/>
<path d="M1.55798 13.0055C1.65981 12.7508 1.75709 12.5089 1.85337 12.2668C2.26807 11.2291 2.68235 10.1912 3.0962 9.15309C3.11767 9.09912 3.14313 9.07724 3.20371 9.07739C4.43369 9.0794 5.66372 9.07998 6.8938 9.07911C6.91911 9.07911 6.94428 9.08127 6.97913 9.08285C6.9669 9.11768 6.95851 9.14416 6.94827 9.16921C6.44577 10.4271 5.9437 11.685 5.44205 12.9429C5.42214 12.9929 5.39797 13.0107 5.34407 13.0107C4.10934 13.0092 2.87457 13.0087 1.63976 13.0093C1.61672 13.01 1.59382 13.0075 1.55798 13.0055Z" fill="white"/>
<path d="M15.3154 9.07955C15.2594 9.22145 15.21 9.34795 15.159 9.47388C14.6968 10.631 14.2346 11.7887 13.7724 12.9469C13.7536 12.9943 13.7304 13.0114 13.6792 13.0113C12.4397 13.0098 11.2002 13.0095 9.96069 13.0101C9.94192 13.0101 9.92329 13.0084 9.89542 13.007C9.9031 12.9831 9.90793 12.9638 9.91533 12.9451C10.4205 11.6806 10.9253 10.4161 11.4298 9.1515C11.4523 9.09494 11.4807 9.07811 11.5392 9.07811C12.7691 9.07983 13.9992 9.08026 15.2292 9.0794L15.3154 9.07955Z" fill="white"/>
<path d="M5.57377 4.57328C5.30356 4.57328 5.03335 4.57328 4.76314 4.57328C4.64225 4.57328 4.60969 4.59587 4.56503 4.7077C4.43277 5.03871 4.29894 5.36973 4.1701 5.70204C4.14578 5.76479 4.11719 5.77558 4.05462 5.76421C2.9951 5.57395 2.20666 4.65272 2.17693 3.56743C2.14522 2.40816 2.91959 1.42792 4.04224 1.20629C5.2754 0.962486 6.50131 1.81924 6.71477 3.07364C6.8001 3.5739 6.7317 4.05229 6.51567 4.50967C6.49306 4.55759 6.46561 4.57501 6.41285 4.57457C6.13311 4.57184 5.85337 4.57328 5.57377 4.57328Z" fill="white"/>
<path d="M2.40576 1.25205C2.37177 1.29278 2.34603 1.33998 2.30621 1.36632C2.25757 1.39899 2.20012 1.38661 2.15432 1.34747C2.12375 1.32127 2.09644 1.29091 2.068 1.26212C1.81988 1.01122 1.57166 0.760373 1.32335 0.50957C1.27941 0.465242 1.25936 0.414439 1.27856 0.353129C1.29605 0.29772 1.33644 0.258287 1.39233 0.260158C1.43585 0.261453 1.49017 0.276133 1.52032 0.305492C1.7967 0.578747 2.07018 0.85488 2.34077 1.13389C2.36708 1.16095 2.37917 1.20254 2.40576 1.25205Z" fill="white"/>
<path d="M8.18329 3.34107C8.37058 3.34107 8.55774 3.34107 8.74504 3.34107C8.85099 3.34107 8.9157 3.39504 8.91684 3.48053C8.91783 3.57019 8.85142 3.62804 8.74348 3.62833C8.37125 3.62891 7.99912 3.62891 7.62708 3.62833C7.49411 3.62833 7.41745 3.52183 7.4722 3.4172C7.5025 3.35963 7.55313 3.34078 7.61442 3.34092C7.80399 3.34136 7.99371 3.34107 8.18329 3.34107Z" fill="white"/>
<path d="M0.739538 3.34119C0.93153 3.34119 1.12352 3.33947 1.31537 3.34119C1.43796 3.34263 1.5058 3.45057 1.45161 3.55189C1.42232 3.60658 1.37268 3.6273 1.31551 3.62745C0.93153 3.62841 0.547546 3.62841 0.163562 3.62745C0.0709792 3.62745 0.00883035 3.56499 0.00854591 3.48353C0.00826148 3.40207 0.0691304 3.3422 0.163562 3.34148C0.355554 3.34004 0.547546 3.34119 0.739538 3.34119Z" fill="white"/>
<path d="M1.43597 6.71263C1.35405 6.70932 1.30926 6.68269 1.28465 6.62627C1.25877 6.56727 1.27043 6.51315 1.31395 6.46796C1.37297 6.40579 1.43412 6.34563 1.49428 6.28461C1.70523 6.07113 1.91619 5.85775 2.12714 5.64446C2.20138 5.56962 2.28457 5.56185 2.34601 5.62272C2.40745 5.6836 2.4029 5.77053 2.3298 5.84494C2.06433 6.11464 1.79791 6.38367 1.53054 6.65204C1.50039 6.68226 1.45744 6.69924 1.43597 6.71263Z" fill="white"/>
<path d="M7.65441 0.415599C7.64261 0.437043 7.62952 0.480362 7.60151 0.509002C7.33376 0.783504 7.06445 1.05652 6.79357 1.32805C6.72474 1.39713 6.63714 1.40001 6.57826 1.34143C6.51938 1.28286 6.5255 1.19478 6.59447 1.12469C6.86373 0.85153 7.13323 0.578659 7.40297 0.306076C7.44948 0.258871 7.50252 0.242607 7.56453 0.266786C7.62127 0.288662 7.64844 0.33414 7.65441 0.415599Z" fill="white"/>
</svg>
